<?xml version="1.0" standalone="no"?>
<!DOCTYPE svg PUBLIC "-//W3C//DTD SVG 20010904//EN"
 "http://www.w3.org/TR/2001/REC-SVG-20010904/DTD/svg10.dtd">
<svg version="1.0" xmlns="http://www.w3.org/2000/svg"
 width="1152.000000pt" height="768.000000pt" viewBox="0 0 1152.000000 768.000000"
 preserveAspectRatio="xMidYMid meet">
<metadata>
Created by potrace 1.16, written by Peter Selinger 2001-2019
</metadata>
<g transform="translate(0.000000,768.000000) scale(0.100000,-0.100000)"
fill="#000000" stroke="none">
<path d="M0 4584 l0 -3096 33 20 c55 32 199 27 178 -7 -12 -19 -97 -31 -131
-18 -14 5 -39 7 -53 3 l-27 -6 0 -740 0 -740 931 0 c571 0 928 4 924 9 -10 17
12 21 25 6 15 -18 101 -20 118 -3 10 10 17 10 32 0 15 -9 173 -12 665 -12 571
0 644 2 639 15 -5 11 -2 13 10 9 9 -3 16 -10 16 -15 0 -14 3177 -12 3241 2 37
8 54 8 62 0 14 -14 50 -14 65 1 9 9 18 9 37 0 14 -7 37 -12 52 -12 21 0 24 4
20 23 -8 30 24 73 48 63 14 -5 17 -14 12 -46 l-5 -40 2314 0 2314 0 0 3351 0
3351 -29 -24 c-16 -13 -32 -32 -35 -43 -3 -11 -24 -39 -46 -62 -41 -41 -41
-42 -29 -81 15 -53 7 -83 -31 -105 -16 -10 -30 -24 -30 -32 0 -8 -10 -21 -22
-29 -19 -14 -20 -16 -5 -16 10 0 15 -4 12 -10 -3 -5 -18 -7 -33 -4 -24 5 -29
1 -40 -28 -17 -49 -16 -59 19 -135 39 -85 106 -178 140 -193 25 -11 49 -58 49
-97 0 -24 -116 -143 -140 -143 -8 0 -25 -6 -36 -14 -23 -16 -136 -12 -142 5
-2 5 -10 9 -18 9 -17 0 -98 41 -102 52 -2 4 -8 8 -13 8 -6 0 -19 9 -31 20 -12
11 -30 20 -39 20 -10 0 -21 5 -24 10 -4 6 -10 8 -15 5 -5 -3 -34 3 -64 14 -31
11 -64 17 -74 14 -11 -2 -66 5 -123 16 -57 11 -124 22 -149 25 -59 6 -121 29
-156 58 -82 69 -117 127 -133 223 -16 105 10 176 95 259 35 34 36 37 29 86
l-7 50 -146 0 c-189 -1 -241 10 -311 67 -62 51 -85 77 -109 130 -26 56 -56
103 -64 103 -5 0 -8 5 -8 10 0 14 -58 93 -76 103 -8 4 -14 14 -14 20 0 7 -8
20 -17 30 -10 9 -54 57 -98 105 -44 49 -96 100 -116 113 -42 28 -69 82 -69
139 0 55 50 110 114 128 67 17 176 15 291 -7 122 -24 189 -26 465 -17 233 8
207 11 436 -53 45 -12 118 -21 200 -25 224 -9 464 -75 658 -181 l86 -47 0 251
0 251 -5760 0 -5760 0 0 -3096z m5348 3079 c65 -7 77 -23 98 -120 12 -55 13
-85 4 -153 -16 -122 -29 -175 -56 -223 -59 -105 -66 -144 -45 -234 10 -39 10
-65 2 -103 -6 -28 -11 -64 -11 -80 0 -17 -9 -39 -19 -49 -28 -28 -43 -60 -35
-74 4 -6 4 -9 -1 -5 -11 10 -35 -10 -35 -29 0 -9 6 -13 15 -9 8 3 15 1 15 -4
0 -5 6 -7 13 -4 7 2 23 -4 35 -15 12 -10 43 -24 67 -30 25 -6 46 -17 47 -24 0
-6 2 -16 3 -22 1 -5 5 -28 9 -50 4 -22 16 -65 26 -95 11 -30 21 -71 24 -90 6
-40 -10 -110 -24 -110 -6 0 -10 -4 -10 -10 0 -6 70 -8 198 -4 188 6 221 4 452
-26 36 -5 136 -16 222 -25 l157 -17 91 53 c112 64 164 130 131 165 -5 5 -3 30
5 59 19 72 18 106 -3 98 -13 -5 -15 -2 -9 18 5 13 23 80 41 149 22 84 45 146
69 185 20 33 36 71 36 84 0 26 25 63 107 158 29 33 53 67 53 75 0 8 11 25 25
38 14 13 25 32 25 42 0 30 45 67 126 104 42 19 82 41 91 49 8 8 26 18 41 21
15 4 35 14 45 22 24 21 87 31 257 42 80 4 216 14 302 20 l157 12 78 -27 c86
-29 153 -64 153 -78 0 -5 15 -7 33 -3 35 6 55 -4 120 -63 20 -19 37 -42 38
-50 0 -12 3 -10 9 4 6 15 9 16 9 4 1 -19 34 -59 49 -59 6 0 12 -4 14 -9 8 -23
191 -211 266 -273 94 -79 148 -153 158 -215 6 -39 4 -43 -13 -43 -12 0 -26 6
-32 13 -22 27 -148 77 -206 83 -11 1 -54 7 -95 13 -41 7 -97 11 -125 11 -90
-3 -116 0 -110 10 8 12 -7 13 -21 1 -11 -11 -84 -2 -84 10 0 5 3 8 8 8 47 -8
86 12 97 49 5 19 2 22 -22 23 -27 2 -27 2 -3 6 14 3 28 10 32 17 6 8 8 8 8 -1
0 -6 9 -11 20 -10 11 1 20 5 20 9 0 4 5 8 10 8 21 0 8 -17 -25 -33 -39 -19
-49 -43 -12 -33 30 10 55 13 99 15 29 1 36 4 32 16 -4 10 -17 13 -42 11 -21
-2 -31 -2 -24 1 26 10 12 43 -25 58 -35 15 -36 16 -17 31 18 15 18 15 -3 9
-18 -5 -24 -1 -29 19 -4 15 -13 26 -23 26 -10 0 -24 11 -31 25 -7 14 -17 25
-22 25 -5 0 -6 -4 -3 -10 3 -5 1 -10 -4 -10 -6 0 -11 5 -11 11 0 5 -4 7 -10 4
-5 -3 -15 5 -21 19 -9 20 -17 24 -34 20 -13 -3 -26 -1 -30 6 -5 8 -11 7 -23
-2 -14 -12 -14 -10 -3 10 10 18 9 22 -4 22 -8 0 -15 -4 -15 -9 0 -5 -9 -7 -21
-4 -14 4 -17 9 -10 16 7 7 5 15 -7 24 -15 13 -15 13 8 8 20 -5 22 -4 8 5 -18
11 -72 -6 -63 -20 6 -9 -45 -24 -53 -15 -3 3 0 5 7 5 18 0 -9 26 -37 34 -15 5
-24 3 -28 -8 -6 -15 -41 -32 -58 -27 -5 1 -12 -3 -16 -10 -11 -17 -30 -1 -23
18 4 11 3 14 -6 9 -7 -5 -10 -14 -8 -20 3 -7 1 -19 -4 -27 -7 -12 -9 -12 -9 1
0 13 -1 13 -10 0 -9 -13 -11 -13 -20 0 -8 13 -10 12 -10 -2 0 -12 8 -18 21
-18 16 0 19 -4 14 -17 -4 -10 -8 -24 -8 -30 -1 -18 -26 -16 -33 2 -4 9 -19 15
-35 15 -16 0 -29 5 -29 11 0 8 -11 9 -32 5 -32 -6 -33 -6 -10 9 12 9 22 20 22
26 0 14 -28 11 -33 -3 -4 -10 -8 -10 -15 1 -9 12 -15 12 -43 -1 -28 -14 -33
-22 -36 -58 -3 -28 -1 -40 6 -35 6 3 11 15 11 25 0 27 37 36 60 15 11 -10 28
-15 39 -12 11 3 19 2 18 -2 -4 -14 63 -70 94 -76 18 -4 42 -19 53 -32 39 -50
149 -81 219 -62 106 28 169 35 165 18 -2 -8 -7 -17 -13 -21 -5 -4 -2 -9 8 -12
9 -4 25 -9 35 -13 9 -3 25 -5 34 -4 12 1 15 -3 11 -19 -6 -21 -23 -28 -23 -9
0 6 -9 8 -21 4 -15 -5 -19 -4 -15 4 7 10 2 9 -49 -10 -5 -2 -19 -14 -31 -26
-18 -18 -19 -23 -6 -28 13 -5 12 -8 -4 -20 -23 -17 -61 -19 -66 -3 -3 8 -9 8
-24 -1 -19 -12 -19 -12 1 -7 13 4 8 -4 -15 -23 -19 -16 -37 -28 -39 -26 -2 3
-12 0 -22 -6 -13 -6 -19 -6 -19 1 0 10 5 12 33 14 16 1 41 25 33 33 -3 3 0 13
7 21 13 16 13 17 -40 -5 -11 -4 -14 -3 -9 5 5 8 -1 12 -18 12 -14 0 -26 -4
-26 -9 0 -5 -13 -11 -29 -13 -17 -2 -28 -1 -25 4 8 13 -11 9 -25 -4 -10 -11
-11 -10 -6 4 4 9 13 19 21 22 21 8 17 21 -8 33 -14 6 -31 7 -43 1 -19 -8 -19
-8 1 -4 35 6 53 -11 21 -19 -15 -4 -27 -13 -27 -21 0 -8 -4 -14 -10 -14 -5 0
-10 5 -10 10 0 6 -5 10 -10 10 -6 0 -3 -11 6 -24 15 -24 14 -25 -14 -40 -26
-13 -31 -14 -36 -1 -3 8 4 21 15 28 17 13 18 15 4 21 -28 10 -33 7 -40 -24 -4
-16 -11 -30 -17 -30 -6 0 -9 3 -5 6 9 9 -19 34 -37 34 -22 0 -20 -13 4 -28 11
-7 20 -17 20 -22 0 -6 -22 6 -50 25 -27 19 -54 35 -59 35 -5 0 -16 11 -25 25
-18 27 -16 30 14 15 11 -5 29 -14 40 -20 27 -14 33 -13 26 6 -5 12 -2 15 12
12 12 -3 23 2 31 13 6 11 20 19 30 19 20 0 45 23 35 33 -9 9 -67 -4 -82 -18
-21 -20 -75 4 -103 44 -18 28 -24 32 -27 18 -2 -9 -8 -15 -13 -12 -12 8 -11 0
5 -40 14 -33 14 -35 -4 -35 -10 0 -20 8 -23 18 -2 9 -4 0 -3 -20 1 -20 5 -40
9 -44 12 -12 8 -24 -9 -24 -8 0 -12 -5 -9 -10 4 -6 11 -7 17 -4 8 5 9 1 5 -10
-4 -10 -7 -30 -8 -44 0 -24 -1 -25 -9 -7 -8 18 -9 18 -9 -5 -1 -32 13 -55 28
-46 6 4 11 1 11 -7 0 -8 7 -20 15 -27 8 -7 15 -28 15 -47 0 -20 4 -32 10 -28
6 3 10 1 10 -5 0 -6 5 -8 10 -5 6 3 10 15 10 26 0 30 17 22 23 -11 6 -27 27
-44 27 -21 0 5 7 11 15 15 12 4 13 2 5 -13 -8 -15 -6 -20 10 -24 11 -3 23 -1
26 4 3 5 10 9 15 9 12 0 0 -53 -15 -62 -8 -6 -7 -8 1 -8 6 0 15 5 19 12 9 14
22 -15 23 -50 1 -13 10 -35 21 -50 l21 -25 -3 33 c-2 26 1 35 14 38 12 2 23
-11 38 -47 12 -27 30 -57 41 -67 19 -17 19 -15 13 62 l-5 79 20 -24 c12 -13
21 -37 21 -53 0 -38 10 -56 85 -153 104 -134 181 -277 215 -395 11 -41 32
-111 46 -155 31 -98 49 -265 34 -309 -6 -17 -13 -71 -16 -121 -5 -99 -12 -142
-23 -150 -4 -2 -7 38 -5 89 3 75 0 95 -11 100 -12 4 -15 -3 -16 -32 0 -36 -1
-36 -12 -12 -11 24 -11 23 -15 -17 -2 -24 -7 -43 -13 -43 -16 0 -9 -73 14
-143 15 -44 21 -80 18 -105 l-6 -37 -3 32 c-2 22 -7 30 -17 27 -18 -7 -28 27
-19 72 5 28 4 36 -7 32 -7 -2 -15 -22 -16 -44 -2 -21 -8 -48 -13 -59 -17 -37
-40 -115 -40 -135 0 -13 7 -20 18 -20 15 0 21 14 31 65 14 71 24 76 28 15 2
-25 -2 -40 -11 -43 -8 -3 -20 -31 -26 -62 -8 -39 -18 -60 -35 -71 -25 -16 -41
-54 -48 -115 -8 -62 -34 -80 -54 -36 -10 21 -12 19 -36 -31 -14 -29 -23 -60
-20 -68 3 -8 1 -20 -5 -27 -5 -6 -13 -32 -17 -57 -4 -24 -14 -50 -23 -56 -10
-8 -14 -23 -12 -50 9 -96 4 -170 -13 -194 -9 -14 -17 -38 -17 -55 0 -17 -6
-40 -14 -50 -13 -18 -15 -16 -21 27 -4 26 -4 53 1 60 4 7 -9 -4 -29 -24 -21
-21 -43 -35 -50 -33 -6 3 -36 -15 -66 -39 -52 -43 -103 -64 -109 -45 -6 16
-28 9 -50 -16 -12 -14 -22 -29 -22 -33 0 -13 -66 -73 -72 -66 -4 3 -15 1 -27
-5 -14 -8 -22 -8 -27 0 -5 8 -11 6 -22 -7 -13 -18 -14 -16 -10 16 3 19 9 43
13 54 7 16 6 17 -13 7 -29 -15 -45 -14 -38 4 3 8 2 15 -3 15 -15 0 -71 -31
-71 -40 0 -13 -33 -21 -44 -10 -14 14 -36 12 -30 -3 2 -7 -4 -21 -15 -32 -14
-12 -19 -25 -15 -40 5 -18 -2 -26 -37 -43 -32 -16 -46 -19 -56 -10 -10 8 -13
7 -13 -4 0 -9 -9 -27 -21 -42 -17 -21 -24 -24 -35 -15 -11 9 -20 6 -40 -14
-14 -14 -32 -23 -40 -20 -18 7 -140 -42 -180 -72 -27 -20 -40 -23 -92 -20 -42
3 -64 0 -71 -9 -9 -11 -1 -15 39 -20 27 -4 50 -11 50 -16 0 -6 10 -10 23 -10
l22 -1 -23 -19 c-13 -11 -30 -41 -38 -67 -16 -52 -39 -83 -64 -83 -9 0 -22 -6
-28 -12 -10 -10 -15 -10 -21 1 -7 10 -13 11 -31 1 -29 -16 -54 -5 -47 21 8 28
-15 34 -57 14 -46 -22 -48 -26 -31 -59 11 -20 12 -33 5 -46 -15 -27 -12 -34 7
-19 15 13 16 11 9 -15 -17 -68 -76 -115 -76 -61 0 16 -6 25 -15 25 -18 0 -20
21 -3 38 9 9 4 12 -23 12 -28 0 -45 -10 -93 -56 -53 -49 -97 -82 -186 -136
-14 -8 -52 -18 -85 -23 l-60 -7 23 24 c29 32 28 38 -10 38 -41 0 -67 -14 -44
-23 9 -4 16 -11 16 -17 0 -16 -79 -50 -116 -50 -17 0 -34 -3 -38 -7 -8 -8 -77
-33 -93 -33 -7 0 -38 -16 -71 -35 -49 -29 -66 -33 -103 -30 -67 7 -71 7 -114
0 -22 -4 -48 -15 -58 -23 -16 -14 -19 -14 -30 2 -11 14 -17 15 -42 6 -36 -14
-215 -14 -228 -1 -7 7 -6 16 3 26 7 8 11 15 9 15 -2 1 -44 2 -92 2 l-89 1 5
27 c10 50 -31 75 -107 66 -28 -4 -65 -2 -83 3 -20 6 -48 6 -75 0 -36 -9 -44
-7 -55 7 -8 11 -10 27 -5 43 7 28 6 90 -1 98 -9 8 -86 -49 -92 -68 -8 -23 -15
-24 -59 -3 -27 14 -37 26 -45 60 -13 52 -14 74 -1 94 7 12 13 10 33 -12 l25
-26 46 16 c32 12 46 22 46 35 0 14 -5 17 -21 12 -11 -4 -33 -1 -49 5 -20 8
-34 9 -47 2 -14 -8 -27 -3 -63 22 -25 18 -59 38 -77 45 -17 7 -39 21 -49 32
-9 10 -22 19 -27 19 -24 0 -48 37 -59 91 -7 33 -16 59 -20 59 -4 0 -8 8 -8 18
0 29 -17 47 -32 35 -29 -24 -105 -14 -134 18 -22 25 -32 24 -36 -3 -2 -12 -9
-23 -16 -26 -12 -4 -95 77 -149 145 -16 21 -34 33 -50 33 -30 0 -92 46 -104
77 -14 38 -39 40 -68 6 -30 -35 -103 -59 -150 -48 -41 9 -91 57 -91 87 0 30
22 52 73 73 26 11 37 21 37 37 0 12 7 29 14 37 19 21 10 35 -29 48 -40 13 -38
34 5 55 21 11 44 34 57 58 35 65 74 90 140 90 32 0 45 9 115 81 45 47 78 89
76 98 -3 14 -26 16 -188 16 -184 0 -186 0 -274 32 -94 35 -116 48 -116 69 0
19 30 25 133 29 51 2 95 4 100 4 4 1 7 10 7 21 0 31 -25 39 -180 55 -51 6 -69
12 -125 42 -25 13 -126 43 -147 43 -18 0 -28 20 -28 57 0 30 9 39 84 87 55 35
58 39 52 69 -4 18 -11 34 -16 35 -16 6 -11 28 10 47 11 10 20 22 20 27 0 15
-80 9 -106 -8 -23 -16 -27 -16 -63 1 -48 21 -121 96 -121 123 0 10 9 31 21 45
21 28 15 57 -15 74 -8 4 -45 37 -83 73 -107 103 -143 127 -143 96 0 -8 -17
-32 -38 -53 -32 -34 -50 -43 -142 -67 -58 -15 -113 -32 -122 -37 -33 -18 -230
-17 -366 2 -73 10 -138 21 -143 25 -43 26 -138 36 -365 39 -276 3 -302 6 -402
43 -55 20 -87 40 -125 77 -89 87 -171 185 -210 252 -65 112 -125 153 -230 153
-63 0 -115 22 -112 46 10 83 39 117 141 163 28 13 64 39 80 59 16 19 43 50 61
69 20 21 40 60 54 104 12 39 35 90 51 114 33 49 182 188 243 227 22 14 53 37
70 52 17 14 51 30 80 35 171 33 217 40 280 40 41 0 107 -10 160 -24 50 -13
124 -29 165 -36 41 -6 92 -16 112 -21 25 -6 45 -5 57 2 11 5 29 10 40 10 12 0
21 5 21 11 0 17 101 2 188 -26 40 -14 123 -34 185 -46 145 -27 175 -38 203
-74 45 -59 32 -151 -28 -194 -34 -24 -108 -49 -149 -50 -62 -2 -87 -61 -52
-124 30 -54 70 -81 185 -122 36 -13 38 -13 59 13 35 45 99 70 99 38 0 -19 19
-32 58 -41 l32 -7 0 44 c0 24 6 55 14 69 11 22 11 33 0 65 -7 21 -11 40 -9 42
2 3 -2 19 -9 36 -7 17 -11 41 -9 54 4 29 -41 87 -80 103 -30 13 -57 55 -57 89
0 49 51 100 98 100 10 0 23 5 29 11 8 8 35 8 100 -1 131 -19 196 -45 267 -111
34 -30 86 -74 116 -96 30 -23 91 -77 136 -121 45 -44 105 -96 134 -116 57 -39
97 -48 85 -18 -4 9 -13 35 -20 57 -7 22 -25 71 -39 109 -14 38 -26 75 -26 83
0 20 55 133 83 171 27 36 184 202 191 202 3 0 29 26 57 58 115 125 270 268
376 345 21 15 76 57 122 93 75 58 174 114 202 114 5 0 71 31 147 70 78 39 172
79 217 91 44 12 105 28 135 36 30 8 91 16 136 18 58 2 96 10 140 29 65 28 74
29 152 19z m2752 -3763 c0 -11 23 -45 52 -74 36 -38 58 -71 70 -108 l17 -53
-26 -22 c-19 -17 -39 -23 -71 -23 -25 0 -60 -5 -77 -11 -46 -17 -122 -4 -130
23 -7 19 38 162 56 183 5 5 9 17 9 26 0 19 67 79 87 79 7 0 13 -9 13 -20z
m-6069 -702 c44 -41 81 -105 74 -127 -6 -18 -112 -71 -141 -71 -25 1 -58 26
-50 39 4 5 0 13 -7 18 -38 22 -48 94 -19 129 43 53 94 57 143 12z m1425 -373
c23 -25 24 -29 9 -49 -9 -11 -18 -29 -22 -38 -3 -10 -23 -22 -47 -29 -71 -18
-76 -20 -76 -31 0 -7 -13 -8 -34 -5 -22 3 -36 1 -39 -6 -2 -8 -14 -6 -39 6
-39 18 -57 59 -37 83 13 16 67 44 85 44 7 0 14 4 16 9 2 4 21 18 43 30 53 28
107 23 141 -14z m596 -119 c10 -7 16 -15 13 -18 -3 -2 -7 -29 -9 -59 -8 -101
-9 -104 -34 -103 -12 0 -22 -3 -22 -7 0 -5 -6 -6 -14 -3 -8 3 -29 -5 -46 -18
-27 -20 -44 -23 -121 -24 -54 0 -94 -5 -101 -12 -7 -7 -18 -12 -25 -12 -10 0
-11 -4 -1 -19 17 -28 -2 -47 -67 -66 -73 -21 -76 -20 -65 11 6 14 8 29 5 34
-3 4 1 20 9 35 8 15 12 33 9 40 -2 7 5 16 16 20 21 6 25 16 21 44 -1 13 1 13
14 2 14 -12 16 -9 16 23 0 25 4 36 15 36 8 0 15 7 15 15 0 18 37 20 42 3 3 -9
12 -9 35 1 19 8 44 10 63 6 27 -6 36 -3 58 24 23 26 34 31 81 33 33 1 55 7 58
15 6 16 13 16 35 -1z m-606 -331 c-8 -21 15 -55 36 -55 10 0 17 5 16 11 -5 18
16 21 37 4 19 -14 19 -14 -6 -15 -27 0 -54 -22 -42 -34 4 -3 -2 -15 -13 -25
-21 -19 -144 -36 -144 -19 0 4 -7 8 -16 8 -11 0 -14 -8 -12 -32 2 -18 -1 -33
-7 -34 -27 -2 -73 -17 -98 -31 -16 -8 -39 -13 -51 -11 -22 4 -46 -12 -46 -31
0 -6 -8 -15 -17 -20 -10 -6 -12 -11 -5 -11 27 0 9 -17 -35 -33 -67 -24 -155
-23 -178 3 -17 19 -15 50 5 50 5 0 10 16 10 35 0 36 11 42 60 36 8 -1 51 -3
96 -5 73 -4 84 -2 110 19 26 21 27 25 16 47 -19 34 4 102 36 106 12 2 22 8 22
13 0 18 20 8 53 -26 35 -36 64 -47 53 -20 -3 8 -1 15 4 15 5 0 10 7 12 16 2
12 64 43 107 53 2 1 0 -6 -3 -14z m1629 -51 c17 -3 40 -10 52 -16 12 -6 34 -8
50 -5 38 7 63 -8 63 -39 0 -26 -30 -44 -74 -44 -13 0 -29 -7 -36 -15 -7 -8
-21 -15 -31 -15 -21 0 -22 -4 -13 -38 4 -13 23 -30 48 -41 43 -20 116 -83 116
-100 0 -5 -11 -18 -25 -29 -24 -19 -34 -52 -17 -52 5 0 17 -15 27 -34 16 -30
17 -41 7 -88 -6 -29 -13 -78 -16 -108 -10 -112 -37 -297 -52 -350 -14 -48 -19
-112 -13 -160 6 -47 -2 -91 -18 -97 -10 -4 -24 -13 -32 -21 -12 -11 -12 -15
-1 -22 11 -7 11 -11 1 -24 -11 -13 -11 -17 3 -22 20 -8 21 -33 1 -40 -8 -4
-15 -14 -15 -25 0 -12 -18 -27 -57 -46 -46 -22 -66 -40 -96 -86 l-39 -57 26
-46 c26 -47 26 -64 1 -64 -11 0 -12 -6 -5 -26 16 -42 12 -71 -14 -92 -14 -10
-28 -32 -32 -48 -10 -41 -53 -101 -112 -157 -82 -76 -119 -55 -60 35 19 29 47
74 62 100 14 26 36 53 47 59 17 9 20 17 15 41 -3 18 0 41 10 59 13 27 13 31
-1 45 -21 22 -19 41 10 72 32 34 41 67 26 95 -13 25 -14 35 -8 124 5 75 26
105 69 101 22 -2 33 3 45 24 14 22 15 29 3 43 -9 10 -22 14 -37 10 -23 -5 -23
-4 -24 77 -1 46 0 88 1 93 12 53 20 190 23 392 3 178 7 246 17 257 12 16 11
48 -6 169 -5 33 -2 56 7 73 12 23 17 25 61 19 26 -4 48 -3 48 2 0 5 -18 27
-40 48 -46 45 -56 92 -17 81 12 -4 36 -9 52 -12z m1169 -166 c-5 -7 -3 -8 5
-4 23 15 66 -13 83 -54 17 -37 58 -220 58 -255 0 -36 81 -185 108 -199 32 -17
61 -49 82 -91 33 -65 76 -48 225 90 125 117 155 133 175 96 23 -45 12 -75 -52
-143 -69 -72 -188 -158 -219 -158 -20 0 -26 -24 -9 -35 5 -3 7 -12 3 -21 -4
-12 0 -14 21 -8 16 4 26 2 26 -5 0 -6 17 -11 38 -11 20 0 71 -7 112 -15 41 -9
101 -19 132 -24 32 -5 62 -12 68 -16 5 -3 47 -8 93 -10 45 -3 98 -9 117 -15
19 -6 82 -20 140 -31 58 -11 119 -24 135 -30 17 -6 53 -14 80 -19 57 -9 155
-51 174 -74 11 -13 8 -20 -16 -40 -24 -22 -38 -25 -99 -26 -46 0 -77 -5 -90
-15 -27 -21 -118 -20 -144 2 -11 10 -20 23 -20 30 0 18 -34 25 -160 34 -161
12 -348 27 -391 32 -20 3 -55 19 -79 36 -24 17 -52 31 -62 31 -14 0 -18 5 -14
18 4 13 -7 33 -37 65 -35 39 -50 48 -89 53 -86 12 -157 -32 -143 -89 4 -14 15
-27 25 -30 13 -3 17 -11 13 -26 -3 -12 0 -28 7 -36 7 -9 11 -16 9 -18 -57 -33
-73 -34 -97 -10 -9 9 -17 25 -18 37 -1 35 -14 64 -29 70 -8 3 -15 15 -15 26 0
11 -4 21 -10 21 -16 2 -22 5 -63 23 -58 26 -91 29 -146 16 -63 -15 -117 -42
-156 -79 -62 -58 -180 -100 -217 -78 -27 18 -17 30 40 49 51 16 95 44 165 105
20 18 42 33 47 33 6 0 42 31 80 69 50 50 70 77 70 95 0 14 9 47 19 73 17 43
26 102 22 143 0 9 -12 16 -27 17 -49 2 -61 60 -18 88 24 15 25 20 20 73 -18
180 -18 199 -1 226 16 25 44 39 29 14z m637 -30 l29 -22 -33 -31 c-52 -51
-134 -72 -144 -36 -3 11 -13 21 -24 24 -22 6 -26 49 -6 65 42 35 131 35 178 0z
m-5426 -113 c33 -8 88 -15 123 -15 34 0 62 -3 62 -7 0 -5 20 -21 44 -38 42
-28 43 -31 29 -52 -19 -28 -78 -31 -144 -8 -24 9 -69 20 -99 25 -30 5 -75 14
-100 20 -25 6 -58 14 -75 17 -31 6 -65 29 -65 45 0 4 12 8 28 8 15 0 34 5 42
10 21 14 85 12 155 -5z m7077 -272 c10 -9 18 -27 18 -40 0 -12 3 -22 8 -22 38
6 11 -36 -33 -51 -19 -6 -35 -15 -35 -20 0 -10 -57 17 -66 31 -3 6 -3 30 0 54
6 35 12 46 34 54 39 14 53 13 74 -6z m-7488 -92 c3 -4 37 -11 75 -15 39 -3 81
-11 95 -17 27 -13 76 -79 76 -103 0 -8 3 -17 8 -20 4 -2 5 -31 2 -63 -4 -52
-8 -59 -34 -72 -22 -10 -31 -11 -34 -3 -4 13 -43 17 -41 5 3 -19 -3 -21 -33
-11 -36 13 -51 24 -125 94 -29 27 -53 56 -53 62 0 7 -4 12 -8 12 -7 0 -9 122
-3 138 3 6 71 1 75 -7z m975 -55 c8 -9 11 -45 9 -102 -3 -87 -3 -89 -36 -110
-18 -13 -46 -22 -62 -22 -46 1 -49 43 -11 121 17 35 31 68 31 73 0 17 31 54
44 54 8 0 19 -6 25 -14z m1800 -160 c27 -28 24 -59 -12 -166 -24 -68 -36 -77
-79 -61 -22 8 -26 15 -22 38 3 15 8 60 11 100 8 105 51 143 102 89z m4515 -62
c27 -27 36 -51 30 -83 -12 -59 -57 -71 -108 -29 -43 35 -46 67 -11 103 29 28
66 32 89 9z m-5389 -60 l-20 -16 20 3 c23 4 85 -19 85 -31 0 -5 15 -14 34 -20
25 -8 34 -17 33 -31 -1 -18 -17 -28 -17 -10 0 13 -68 -4 -88 -22 -13 -11 -30
-13 -72 -7 -63 9 -72 6 -44 -14 17 -13 17 -14 -8 -9 -19 4 -29 0 -37 -15 -12
-23 -94 -52 -150 -52 -22 0 -42 -4 -46 -9 -6 -11 79 -26 94 -17 5 4 12 2 16
-4 6 -9 -8 -15 -29 -11 -4 1 -15 -4 -24 -11 -12 -10 -16 -10 -19 0 -3 6 -12
12 -20 12 -9 0 -13 -6 -10 -14 6 -16 -32 -46 -59 -46 -9 0 -37 15 -63 33 -25
18 -54 36 -63 40 -10 3 -15 12 -12 20 5 15 -20 47 -37 47 -6 0 -15 14 -20 30
-6 17 -15 30 -20 30 -5 0 -9 5 -9 10 0 6 23 10 50 10 28 0 50 4 50 10 0 5 17
13 38 19 79 20 133 31 149 31 8 0 21 8 28 17 11 15 19 15 60 6 51 -12 189 2
180 17 -6 9 12 18 35 19 11 0 10 -4 -5 -15z m-1922 -110 c12 -8 15 -14 8 -19
-6 -3 -11 -14 -11 -25 0 -10 -7 -20 -15 -24 -9 -3 -15 -18 -15 -35 0 -17 -6
-31 -16 -35 -27 -11 -36 -7 -31 14 6 23 -9 36 -39 32 -28 -4 -56 25 -52 52 2
11 6 20 11 18 11 -4 61 24 76 42 13 15 39 9 84 -20z m2074 -56 c15 -7 34 -18
40 -25 18 -17 72 -26 86 -15 13 10 182 11 192 0 9 -9 -24 -58 -39 -58 -6 0
-23 8 -36 17 -14 10 -41 18 -60 20 -19 1 -42 3 -50 4 -8 1 -43 -1 -77 -5 -59
-7 -63 -6 -97 25 -20 17 -36 35 -36 40 0 13 44 11 77 -3z m3577 -50 c14 -29
26 -60 26 -70 0 -19 131 -158 149 -158 13 0 36 -44 45 -87 15 -67 -41 -98 -92
-50 -14 13 -36 22 -54 22 -17 0 -34 7 -38 15 -5 8 -25 50 -46 94 -29 58 -49
85 -79 106 -39 27 -74 74 -63 85 3 3 23 26 44 50 53 61 75 59 108 -7z m2295
-70 c9 -32 9 -56 1 -93 -6 -27 -15 -81 -20 -118 -5 -38 -17 -81 -26 -95 -10
-15 -67 -76 -128 -137 -109 -108 -112 -111 -181 -128 -38 -9 -79 -17 -91 -17
-11 0 -29 -9 -39 -20 -18 -20 -17 -20 13 -20 20 0 31 -5 30 -12 -2 -9 13 -14
44 -16 79 -5 72 -64 -8 -64 -22 0 -47 -7 -56 -15 -10 -9 -19 -12 -19 -7 -1 5
-4 -7 -8 -26 -7 -40 -35 -52 -56 -23 -19 25 -18 36 5 63 11 13 20 34 20 47 0
22 -3 23 -35 17 -23 -4 -36 -2 -36 5 -1 6 -2 16 -3 22 -1 6 25 19 58 30 85 29
186 106 186 141 0 29 72 95 118 109 54 16 96 63 138 155 33 71 39 105 33 199
-3 38 1 45 25 45 19 0 26 -8 35 -42z m-7213 -15 c20 -20 34 -28 34 -19 0 14
29 26 68 26 12 0 22 5 22 10 0 6 4 10 10 10 6 0 6 -9 0 -25 -5 -14 -7 -31 -4
-39 3 -8 -2 -23 -12 -34 -16 -19 -26 -20 -113 -16 -128 7 -169 18 -182 51 -9
25 4 58 20 49 4 -3 18 4 31 15 35 26 83 15 126 -28z m4144 21 c83 -12 90 -34
23 -66 -43 -20 -66 -23 -218 -25 -93 -1 -183 -7 -200 -11 -53 -16 -155 36
-142 72 5 12 21 16 59 17 95 1 232 10 293 19 60 8 99 7 185 -6z m-536 -238
c52 -14 95 -32 106 -45 18 -21 137 -91 156 -91 28 0 103 -28 125 -47 8 -7 24
-13 35 -13 11 0 29 -6 40 -14 11 -8 46 -22 78 -31 55 -16 98 -42 189 -116 43
-35 60 -68 45 -86 -15 -19 -33 -16 -65 11 -17 14 -46 25 -76 28 -36 4 -57 14
-80 36 -39 37 -163 93 -237 108 -19 3 -46 12 -60 19 -14 7 -46 15 -72 19 -26
4 -58 16 -71 27 -14 10 -30 19 -36 19 -6 0 -11 4 -11 9 0 5 -14 13 -32 16 -17
4 -37 13 -44 19 -6 6 -26 22 -43 36 -17 14 -31 34 -31 46 0 12 -7 28 -17 35
-15 13 -13 15 13 20 16 4 30 7 31 8 1 0 27 -5 57 -13z"/>
<path d="M4615 4905 c-22 -14 -49 -25 -59 -25 -11 0 -32 -12 -48 -27 -25 -24
-30 -25 -54 -14 -22 10 -30 9 -45 -5 -11 -9 -19 -20 -19 -24 0 -17 57 -17 119
0 36 9 98 23 136 30 96 17 137 37 133 64 -2 12 -9 20 -18 18 -22 -5 -42 -5
-75 1 -21 4 -42 -1 -70 -18z"/>
<path d="M4118 4875 c-8 -8 -48 -16 -93 -19 -23 -2 -50 -8 -61 -14 -21 -11
-36 -11 -67 3 -31 13 -62 -3 -101 -52 -83 -108 -116 -174 -96 -198 19 -23 101
-20 128 5 12 11 41 24 65 29 23 4 62 22 86 39 24 18 52 32 61 32 9 0 26 10 37
23 20 21 73 129 73 148 0 10 -23 12 -32 4z"/>
<path d="M6415 4263 c-16 -3 -40 -13 -53 -24 -17 -13 -29 -16 -37 -9 -6 5 -14
8 -16 6 -2 -2 -20 -6 -39 -10 -42 -6 -112 -26 -200 -57 -36 -12 -71 -23 -78
-25 -27 -8 1 -25 37 -23 20 2 42 0 48 -4 6 -4 33 0 61 9 44 14 53 15 83 2 47
-21 123 -38 164 -38 26 0 33 3 29 15 -4 11 -21 15 -55 15 -60 0 -64 16 -6 30
23 6 60 20 83 30 23 11 52 20 65 20 13 0 31 5 39 10 12 8 11 10 -7 10 -30 0
-39 18 -17 35 17 13 15 14 -26 13 -25 0 -58 -3 -75 -5z"/>
</g>
</svg>
