<?xml version="1.0" standalone="no"?>
<!DOCTYPE svg PUBLIC "-//W3C//DTD SVG 20010904//EN"
 "http://www.w3.org/TR/2001/REC-SVG-20010904/DTD/svg10.dtd">
<svg version="1.0" xmlns="http://www.w3.org/2000/svg"
 width="960.000000pt" height="640.000000pt" viewBox="0 0 960.000000 640.000000"
 preserveAspectRatio="xMidYMid meet">
<metadata>
Created by potrace 1.16, written by Peter Selinger 2001-2019
</metadata>
<g transform="translate(0.000000,640.000000) scale(0.100000,-0.100000)"
fill="#000000" stroke="none">
<path d="M0 4650 c0 -1549 2 -1750 15 -1750 8 0 15 8 15 18 0 9 4 23 9 30 6
11 10 9 14 -7 3 -13 -5 -35 -24 -61 l-29 -40 0 -735 0 -735 34 0 c19 0 38 -5
42 -12 5 -8 -4 -9 -34 -4 l-42 6 0 -680 0 -680 255 0 c140 0 255 2 255 5 0 3
-15 12 -32 20 -18 8 -26 14 -18 15 9 0 33 -9 55 -20 37 -19 59 -20 375 -20
279 1 332 3 318 14 -10 7 -15 16 -11 20 4 3 -2 13 -13 21 -18 14 -17 14 14 15
17 0 32 -4 32 -10 0 -5 -6 -10 -12 -10 -7 0 -4 -6 7 -12 11 -6 25 -19 32 -27
11 -14 12 -13 13 9 1 24 2 25 12 4 9 -20 18 -22 120 -23 l109 -2 -3 37 c-2 25
2 39 11 42 9 3 11 0 7 -7 -4 -6 -5 -25 -1 -41 l7 -30 291 2 c252 3 292 5 292
18 0 10 -8 14 -26 12 -40 -5 -48 27 -8 35 35 7 54 36 50 79 -2 33 15 56 24 32
3 -8 14 -14 24 -15 29 -2 101 -23 101 -29 0 -4 -10 -4 -23 -1 -18 5 -22 2 -22
-18 0 -29 19 -33 35 -7 10 16 10 15 8 -3 -2 -11 -16 -26 -32 -34 -28 -13 -29
-14 -8 -25 31 -17 28 -31 -7 -28 -17 2 -31 -1 -31 -7 0 -13 405 -14 435 -1 11
5 14 9 8 9 -25 2 -12 18 22 28 23 7 35 8 35 1 0 -5 -9 -12 -20 -15 -11 -3 -20
-12 -20 -19 0 -19 89 -18 114 1 22 17 40 20 32 6 -3 -5 4 -11 17 -15 42 -10
1117 -7 1117 4 0 6 6 10 14 10 8 0 18 9 21 20 7 24 18 25 34 6 8 -10 9 -16 1
-21 -23 -14 -8 -25 34 -25 29 0 51 6 62 17 15 16 17 16 29 0 7 -9 18 -17 26
-17 11 0 11 2 -1 10 -13 8 -12 10 3 10 9 0 17 5 17 11 0 16 26 39 44 39 24 0
19 -17 -6 -23 -12 -4 -19 -9 -15 -13 4 -4 2 -13 -4 -21 -9 -10 -8 -13 5 -13 9
0 16 7 16 17 0 15 1 15 18 0 21 -19 122 -24 122 -7 0 6 9 19 21 31 20 20 21
20 41 2 11 -10 22 -16 23 -13 2 3 6 2 10 -1 3 -4 -9 -10 -27 -15 -28 -7 -23
-9 40 -12 60 -2 77 1 97 16 18 14 21 22 12 31 -14 14 -44 14 -52 1 -5 -8 -11
-8 -20 0 -10 8 -14 7 -18 -7 -4 -17 -5 -17 -6 0 -1 15 -14 21 -48 20 -7 -1
-13 4 -13 9 0 5 10 9 23 8 12 -1 33 -2 46 -1 l24 1 -27 25 c-28 26 -38 58 -11
35 11 -10 18 -9 30 3 19 20 19 37 0 37 -8 0 -15 -4 -15 -9 0 -4 -11 -6 -25 -3
-15 2 -25 11 -25 21 0 14 2 14 10 1 7 -10 12 -12 18 -4 11 17 47 22 63 10 16
-13 26 -62 11 -52 -18 11 -23 -12 -7 -27 8 -9 15 -20 15 -26 0 -6 15 -10 33
-10 l32 1 -30 7 c-24 5 -26 8 -12 13 9 4 24 5 33 1 13 -5 15 -2 10 15 -4 11
-2 23 4 27 6 3 8 11 5 16 -4 5 -1 9 4 9 14 0 14 -27 0 -32 -18 -6 1 -36 26
-40 17 -4 25 0 29 15 2 11 9 16 16 12 6 -4 17 -1 25 5 12 10 15 9 15 -4 0 -19
21 -21 38 -4 9 9 12 8 12 -4 0 -9 -10 -19 -23 -23 -12 -3 -32 -11 -44 -17 -15
-7 -30 -7 -52 0 -37 13 -38 11 -7 -22 26 -29 46 -34 46 -12 0 9 7 12 20 9 12
-3 22 1 26 11 6 16 24 13 24 -5 0 -6 -4 -7 -10 -4 -5 3 -10 2 -10 -4 0 -13
-36 -33 -75 -41 -19 -4 -1 -7 49 -8 52 0 75 3 65 9 -10 6 -1 9 29 9 26 0 41
-4 37 -10 -3 -5 1 -10 9 -10 9 0 16 9 16 20 0 26 18 25 41 -2 l19 -21 0 21 c0
12 -4 22 -10 22 -18 0 -10 18 10 23 21 5 29 47 9 47 -5 0 -7 5 -3 11 3 6 0 15
-7 20 -12 7 -11 9 1 9 10 0 5 8 -13 24 -17 14 -24 27 -18 31 6 3 11 2 11 -3 0
-5 7 -9 15 -9 8 0 15 4 15 9 0 5 5 6 10 3 6 -3 10 -1 10 6 0 7 3 9 6 6 4 -4 1
-13 -5 -21 -8 -10 -9 -16 -1 -21 5 -3 10 -13 10 -21 0 -8 -4 -13 -8 -10 -4 2
-8 -4 -8 -14 0 -27 21 -32 41 -10 17 19 12 46 -6 35 -5 -4 -9 3 -9 13 0 11 6
19 13 19 31 -1 74 17 90 39 18 24 18 24 -5 33 -18 8 -19 10 -5 10 10 1 17 7
14 14 -2 6 -14 11 -25 9 -17 -2 -22 2 -22 18 0 11 7 23 15 27 23 8 28 -2 10
-21 -9 -9 -12 -16 -6 -16 6 0 20 9 30 19 11 11 22 17 25 14 3 -3 -2 -13 -11
-21 -12 -13 -13 -17 -2 -21 7 -2 15 1 17 7 2 7 13 12 24 12 11 0 18 -5 15 -12
-2 -7 -10 -12 -16 -10 -7 1 -18 -4 -26 -12 -13 -12 -12 -15 0 -20 8 -3 22 -3
30 0 8 4 15 1 15 -6 0 -6 5 -8 10 -5 6 4 7 11 4 17 -4 6 -1 14 7 19 11 6 10
11 -4 27 -24 26 -21 40 3 16 40 -40 70 -59 55 -34 -3 6 -1 10 4 10 6 0 11 -13
11 -30 l0 -30 -22 22 c-21 21 -22 21 -28 2 -4 -10 -4 -26 1 -35 5 -9 5 -20 1
-24 -4 -5 0 -6 9 -2 13 4 16 1 12 -14 -3 -11 -9 -22 -14 -25 -5 -3 -9 -9 -9
-15 0 -15 26 -10 48 10 l22 18 -21 27 -20 26 38 0 c30 -1 34 -3 21 -10 -15 -9
-15 -13 -2 -38 19 -37 18 -44 -8 -37 -20 5 -21 4 -5 -5 9 -6 22 -8 28 -4 6 3
15 1 19 -6 12 -19 78 8 82 34 2 10 8 21 15 23 21 7 2 -37 -23 -54 -13 -8 -22
-19 -19 -23 3 -5 -2 -16 -11 -24 -8 -9 -11 -16 -6 -16 5 0 16 10 24 22 16 24
38 17 38 -12 0 -14 -5 -18 -16 -13 -14 5 -15 3 -6 -14 10 -18 8 -19 -21 -15
l-32 4 23 -22 c18 -17 29 -20 55 -14 18 4 26 9 20 11 -18 6 -16 33 2 33 8 0
15 5 15 11 0 5 5 7 10 4 6 -3 10 -1 10 4 0 6 5 11 10 11 6 0 10 -5 10 -11 0
-6 7 -17 15 -26 12 -11 19 -12 29 -4 10 8 16 9 21 1 3 -5 1 -10 -4 -10 -6 0
-11 -7 -11 -15 0 -18 36 -20 43 -2 3 9 9 9 23 1 15 -9 24 -8 42 4 20 13 22 13
22 -2 0 -13 13 -15 77 -13 72 2 78 4 90 27 7 14 13 22 14 18 1 -5 3 -12 4 -18
1 -5 3 -14 4 -20 0 -5 23 -10 50 -10 44 0 49 2 49 23 0 12 2 43 6 69 3 27 1
50 -4 53 -6 3 -10 1 -10 -4 0 -6 -10 -10 -22 -10 -17 1 -19 2 -5 6 22 6 22 23
0 24 -41 3 -46 5 -50 16 -4 12 14 12 34 0 20 -13 44 4 38 27 -6 20 -5 20 7 -2
11 -17 16 -20 26 -10 9 9 12 9 12 0 0 -7 7 -12 15 -12 20 0 19 -17 -2 -29 -10
-6 -13 -11 -7 -11 7 0 22 9 35 20 17 14 20 19 9 20 -13 0 -13 1 0 10 21 14 40
12 35 -3 -3 -7 14 -23 40 -37 25 -13 45 -28 45 -32 0 -13 -13 -9 -34 11 -26
24 -53 28 -89 13 -16 -7 -33 -12 -38 -12 -5 0 -9 -9 -9 -20 0 -14 7 -20 24
-20 13 0 26 -7 30 -15 7 -18 4 -18 -29 -3 -14 6 -27 9 -30 6 -10 -9 7 -38 18
-31 6 4 7 1 1 -8 -19 -31 -13 -38 36 -36 26 1 43 5 37 9 -7 5 -3 8 10 8 12 0
25 -4 28 -10 4 -6 54 -10 116 -10 l109 0 -6 26 c-5 19 -4 25 5 20 6 -4 11 -16
11 -27 0 -16 7 -19 46 -19 25 0 43 4 40 8 -3 5 11 14 31 20 27 8 33 8 25 0 -7
-7 -12 -15 -12 -19 0 -4 88 -8 196 -8 167 -1 195 1 185 13 -13 15 1 32 18 22
5 -3 14 1 21 9 14 17 9 18 -47 15 -24 -1 -33 3 -33 14 0 27 -16 18 -34 -20 -9
-20 -19 -34 -22 -31 -3 3 0 15 6 27 6 12 9 28 6 36 -3 8 -1 12 4 9 8 -5 45 64
37 71 -3 3 -31 -10 -77 -37 -13 -8 -32 -23 -42 -34 -13 -15 -17 -16 -18 -5 0
8 5 22 10 30 5 8 10 11 10 7 0 -5 12 0 28 11 15 10 35 22 45 25 9 4 17 14 17
22 0 10 7 16 18 14 35 -3 53 1 46 12 -3 6 -18 9 -32 6 -25 -5 -25 -4 -8 8 22
16 15 45 -11 45 -12 0 -14 -3 -6 -11 15 -15 -14 -43 -47 -48 -44 -5 -55 -5
-82 2 -22 6 -28 4 -28 -8 0 -8 4 -15 10 -15 5 0 7 -7 4 -15 -6 -15 -29 -16
-51 -2 -6 4 -15 2 -18 -4 -4 -5 -14 -8 -22 -5 -10 4 -13 1 -8 -13 3 -10 -1
-24 -10 -31 -13 -10 -15 -9 -15 8 0 11 -6 22 -12 25 -7 2 5 12 27 21 35 15 38
18 22 28 -13 7 -22 7 -30 -1 -17 -17 -57 -14 -57 5 0 10 6 14 14 11 7 -3 18
-1 23 4 13 13 55 20 48 9 -6 -11 43 -26 52 -16 3 3 1 11 -5 18 -8 10 -6 20 7
37 18 24 45 22 35 -2 -2 -7 3 -13 14 -13 18 0 24 22 16 64 -3 14 -12 22 -24
22 -11 0 -20 5 -20 11 0 5 -6 7 -12 3 -10 -5 -10 -4 -1 6 7 7 17 9 25 4 7 -5
21 -10 31 -11 15 -3 16 0 6 20 -7 12 -19 27 -26 32 -12 9 -11 15 7 37 11 15
20 38 19 50 -7 76 13 118 23 49 2 -17 1 -28 -4 -25 -4 3 -8 -7 -8 -21 0 -18 4
-24 13 -19 8 5 8 2 -2 -9 -12 -15 -11 -17 14 -17 23 0 26 -2 15 -15 -11 -13
-7 -15 24 -15 21 0 35 -4 31 -10 -3 -5 -11 -8 -18 -6 -7 1 -9 1 -4 -1 12 -7
-3 -23 -17 -17 -7 3 -19 -2 -26 -11 -10 -12 -10 -15 4 -15 10 0 15 -4 12 -8
-8 -14 40 -8 58 8 17 13 17 14 0 20 -10 4 -13 9 -8 13 6 3 16 2 24 -3 12 -7
12 -12 2 -22 -6 -6 -12 -16 -12 -20 0 -15 20 -8 41 13 15 15 18 23 9 29 -6 4
-11 10 -10 14 1 4 0 10 -3 14 -2 4 -2 1 -1 -5 2 -7 -5 -13 -16 -13 -15 0 -20
7 -20 26 0 20 4 24 19 19 15 -4 18 -1 16 20 -5 42 12 28 19 -16 5 -33 10 -39
25 -34 13 4 20 0 24 -15 3 -11 1 -20 -4 -20 -5 0 -9 5 -9 10 0 6 -4 10 -10 10
-18 0 -10 -17 15 -30 36 -19 42 -5 16 40 l-23 40 39 -6 c31 -5 42 -2 57 15 11
12 26 21 34 21 13 0 13 -2 -2 -13 -13 -9 -16 -20 -11 -40 9 -34 25 -45 25 -17
0 17 3 19 19 10 26 -13 29 -13 34 8 2 11 7 5 13 -18 8 -26 16 -35 32 -36 20
-1 22 4 22 44 0 49 9 52 14 6 2 -19 9 -29 19 -28 9 1 13 -4 11 -11 -3 -7 2
-15 12 -19 12 -4 15 -2 11 9 -4 8 4 22 19 34 16 13 23 25 18 33 -6 9 -3 9 10
-1 16 -13 15 -16 -12 -33 -29 -18 -29 -19 -14 -52 14 -30 41 -50 65 -47 4 1 6
-5 5 -11 -2 -7 3 -12 10 -10 17 3 15 -27 -3 -34 -19 -8 -20 -24 -1 -24 8 0 17
-7 20 -16 4 -11 1 -14 -12 -10 -12 4 -28 -4 -47 -24 -27 -28 -65 -41 -65 -21
0 13 -35 20 -54 9 -10 -6 -16 -5 -16 2 0 6 7 13 15 16 10 4 13 15 10 34 -3 16
-1 32 5 35 5 3 10 -1 10 -9 0 -12 7 -14 30 -9 22 4 36 0 50 -12 11 -10 20 -16
21 -14 0 2 2 14 5 27 3 18 -3 26 -30 37 -34 15 -110 10 -100 -6 3 -5 -2 -6
-11 -3 -11 5 -14 2 -9 -11 7 -16 5 -16 -21 1 -24 16 -25 19 -9 24 17 6 17 7 0
13 -24 9 -28 9 -21 -3 3 -5 0 -10 -7 -10 -7 0 -2 -8 12 -18 33 -23 36 -49 9
-78 -13 -14 -24 -31 -25 -40 -4 -24 -11 -27 -17 -5 -3 12 6 32 24 54 25 30 27
36 14 47 -12 10 -15 9 -15 -4 0 -10 -4 -14 -10 -11 -5 3 -10 1 -10 -5 0 -16
-22 -35 -43 -37 -11 0 -16 4 -14 12 4 9 -2 10 -29 0 -50 -17 -66 -35 -31 -35
15 0 27 -4 27 -9 0 -6 -8 -9 -17 -9 -10 0 -25 -2 -34 -6 -20 -9 -52 21 -45 40
7 17 -6 18 -22 2 -7 -7 -12 -8 -12 -3 0 5 -8 -6 -19 -25 -26 -49 -13 -72 40
-69 22 2 43 -1 47 -7 4 -5 14 -9 22 -9 24 2 32 -6 20 -19 -6 -8 -22 -11 -37
-8 -21 4 -25 2 -20 -11 3 -9 1 -18 -6 -21 -7 -3 40 -5 103 -4 63 0 120 4 125
8 6 4 19 10 29 14 16 5 17 4 6 -9 -11 -13 -3 -15 69 -15 76 0 115 10 133 34 4
6 13 4 23 -4 13 -10 13 -15 3 -21 -9 -6 -7 -9 8 -9 12 0 27 7 34 15 11 13 14
13 27 0 9 -9 34 -15 66 -15 40 0 48 3 39 12 -19 19 -14 37 8 31 11 -3 20 0 20
6 0 6 7 11 16 11 13 0 12 5 -5 29 -22 31 -27 46 -12 37 5 -4 17 -3 26 0 14 6
13 10 -7 32 -13 15 -16 21 -7 14 18 -14 29 -7 29 20 0 22 13 23 30 3 10 -12
10 -15 -3 -15 -24 0 -31 -20 -13 -38 12 -12 21 -14 32 -7 9 6 15 14 14 19 -2
10 19 26 34 26 6 0 5 -5 -2 -12 -7 -7 -12 -16 -12 -20 0 -14 22 -8 37 10 8 9
12 12 9 5 -4 -6 -1 -15 5 -19 8 -4 7 -9 -2 -15 -11 -6 -11 -11 -1 -21 15 -15
16 -28 2 -28 -5 0 -10 7 -10 16 0 8 -4 12 -10 9 -5 -3 -10 1 -10 9 0 21 -24
20 -41 -2 -13 -15 -12 -16 3 -4 9 7 19 9 21 4 9 -13 -25 -29 -55 -26 -22 2
-27 -2 -31 -29 -2 -18 -1 -34 4 -35 5 -2 7 -7 4 -11 -2 -5 9 -8 26 -9 23 0 29
3 25 14 -3 8 -1 14 5 14 5 0 12 -7 15 -15 7 -18 58 -21 51 -2 -7 21 13 47 36
46 l22 0 -22 -9 c-14 -6 -23 -18 -23 -31 0 -18 2 -19 15 -9 10 9 15 9 15 1 0
-6 13 -11 30 -11 23 0 28 4 24 18 -5 15 -3 14 10 -2 20 -25 29 -16 20 18 -4
17 -12 25 -20 22 -8 -3 -11 0 -8 9 9 22 34 27 34 7 0 -10 5 -23 12 -30 7 -7 8
-12 4 -12 -5 0 -3 -6 4 -14 10 -13 79 -15 436 -16 414 0 424 0 424 19 0 11 4
22 9 25 4 3 6 -6 3 -19 l-4 -25 154 0 c109 0 158 4 167 13 11 9 13 9 7 0 -6
-10 43 -13 228 -13 l236 0 -1 252 0 252 -21 -32 c-11 -18 -23 -31 -26 -28 -2
3 6 20 20 38 20 28 24 45 26 115 1 46 0 83 -3 83 -16 0 -45 -22 -40 -31 4 -5
9 -7 13 -5 4 2 7 -6 7 -19 0 -14 -5 -21 -12 -18 -7 3 -13 9 -13 15 0 5 -5 6
-11 2 -7 -4 -9 2 -7 17 2 14 15 30 33 39 17 8 32 16 35 18 2 2 -2 7 -10 12 -8
6 -10 10 -4 10 8 0 12 53 13 176 2 142 0 174 -11 168 -10 -6 -11 -5 -1 7 10
12 13 584 13 2672 l0 2657 -4800 0 -4800 0 0 -1750z m4400 879 c0 -6 7 -8 16
-5 9 3 25 -4 38 -17 13 -12 37 -23 55 -24 17 0 46 -8 64 -16 18 -8 48 -14 67
-12 19 2 38 4 43 4 4 1 7 7 7 15 0 8 10 26 23 40 20 23 25 24 56 13 43 -15 63
-66 30 -74 -12 -3 -18 -11 -15 -19 4 -10 -3 -14 -19 -14 -14 0 -25 -4 -25 -10
0 -5 7 -10 15 -10 26 0 95 -40 95 -54 0 -15 16 -16 37 -3 7 4 11 31 10 70 -2
56 0 62 19 65 12 2 28 -4 37 -12 9 -9 20 -16 26 -16 6 0 11 -6 12 -12 0 -7 2
-26 2 -43 2 -28 5 -30 43 -33 32 -2 43 -8 47 -24 8 -28 33 -17 29 13 -2 13 -1
21 4 17 4 -4 13 -3 21 4 20 16 27 3 8 -16 -10 -9 -14 -23 -11 -31 7 -19 -2
-23 -57 -27 -26 -2 -47 -6 -47 -10 0 -12 -58 -10 -65 2 -10 17 -25 11 -25 -10
0 -17 -7 -20 -43 -20 -24 0 -48 5 -54 11 -17 17 -84 21 -110 8 -17 -9 -25 -8
-38 5 -9 9 -21 16 -27 16 -19 0 -1 24 22 30 27 6 40 30 16 30 -9 0 -16 7 -16
15 0 11 -12 15 -40 17 -22 1 -48 2 -57 2 -13 1 -18 -7 -20 -32 -1 -17 3 -30 8
-26 5 3 9 0 9 -5 0 -6 -7 -11 -15 -11 -8 0 -15 -5 -15 -11 0 -5 4 -8 9 -4 5 3
12 1 15 -4 10 -16 -10 -21 -29 -7 -20 14 -25 57 -13 95 8 21 6 23 -19 18 -16
-3 -37 2 -52 11 -18 13 -25 14 -29 4 -2 -7 -10 -18 -17 -25 -7 -8 -15 -22 -17
-33 -5 -26 -54 -48 -109 -49 -58 0 -88 23 -81 63 7 41 21 52 63 52 27 0 39 4
39 14 0 8 7 16 15 20 8 3 15 15 15 26 0 24 19 49 38 50 6 0 12 -5 12 -11z
m-278 -46 c11 -62 4 -97 -22 -111 -34 -18 -110 -9 -127 14 -7 11 -17 24 -23
31 -8 9 9 22 67 52 43 22 83 40 89 40 6 1 14 -11 16 -26z m1533 -85 c29 -13
30 -22 9 -91 -30 -95 -58 -100 -96 -17 -26 56 -55 65 -51 15 2 -25 0 -27 -12
-14 -8 8 -17 33 -21 57 l-7 42 49 1 c27 0 58 4 69 9 27 12 30 12 60 -2z
m-1243 -394 c78 -31 116 -84 133 -186 3 -22 22 -56 46 -85 98 -117 117 -222
65 -348 -17 -38 -33 -74 -37 -80 -14 -22 -20 -82 -7 -82 7 -1 60 -4 118 -8
l105 -7 82 36 c91 40 102 42 143 21 29 -15 83 -11 107 7 7 6 57 14 111 18 54
4 107 12 118 18 19 9 44 9 181 -4 41 -4 106 -2 153 5 46 7 86 9 90 4 4 -4 6
-22 3 -40 -4 -23 -13 -35 -34 -43 -36 -15 -36 -21 0 -43 35 -21 67 -21 146 -2
79 19 179 19 235 -1 65 -23 78 -24 126 -14 48 11 104 3 101 -14 -3 -14 -37
-35 -59 -36 -25 0 -50 -40 -36 -57 6 -7 18 -13 27 -13 9 0 28 -6 42 -14 37
-19 93 0 97 33 2 13 -1 28 -7 34 -6 6 -11 17 -11 24 0 16 101 18 117 2 6 -6
35 -12 65 -13 53 -2 88 -12 88 -25 0 -3 -12 -19 -28 -36 -33 -36 -42 -104 -14
-106 14 0 14 -2 2 -6 -17 -6 -90 -82 -90 -95 0 -4 -7 -8 -15 -8 -8 0 -15 -4
-15 -9 0 -13 -49 -20 -57 -8 -4 6 -1 13 5 15 7 2 12 10 12 18 0 22 -46 -3 -47
-26 -1 -11 9 -28 22 -38 22 -17 23 -23 14 -57 -6 -20 -8 -49 -4 -64 6 -25 7
-26 18 -5 10 16 19 20 47 17 19 -2 40 -10 45 -17 12 -15 55 -39 60 -34 2 2 1
37 -3 78 l-7 75 48 3 c29 2 61 -4 82 -14 33 -15 55 -13 55 7 0 5 -7 9 -16 9
-14 0 -14 3 -4 15 7 9 15 13 18 11 2 -3 13 -1 23 4 14 8 19 5 25 -13 5 -12 7
-24 7 -27 -1 -3 7 -6 18 -6 16 0 19 8 19 48 0 26 3 48 8 48 4 0 29 21 55 45
43 41 50 44 63 30 9 -8 19 -15 23 -15 3 0 7 -35 7 -77 0 -71 2 -81 27 -107 15
-16 25 -36 23 -43 -3 -7 0 -13 7 -13 13 0 67 -72 67 -89 0 -16 -25 -13 -40 4
-17 21 -49 28 -64 15 -22 -17 2 -70 32 -70 16 0 22 5 20 16 -2 10 2 19 7 21 6
2 10 -18 10 -49 0 -44 -3 -53 -19 -56 -10 -2 -31 5 -47 17 -21 16 -34 19 -51
12 -13 -5 -27 -9 -32 -9 -12 0 -46 -54 -40 -63 2 -5 -12 -11 -32 -15 -31 -6
-40 -3 -55 17 -10 13 -19 30 -19 37 0 6 -4 12 -9 12 -5 0 -9 18 -9 40 l-1 41
34 -21 c21 -13 36 -17 40 -10 3 5 -2 13 -12 17 -13 6 -8 9 22 14 31 6 43 4 53
-9 11 -15 14 -15 22 -2 5 8 10 18 10 22 0 4 9 10 20 13 11 3 20 11 20 16 0 22
-42 49 -77 49 -21 0 -47 7 -57 15 -30 23 -45 18 -64 -21 l-17 -36 -64 6 c-35
3 -69 10 -76 16 -9 8 -16 3 -25 -19 -13 -32 -10 -67 7 -64 5 1 25 -10 42 -25
l33 -27 -21 -26 c-11 -15 -17 -29 -14 -33 3 -3 2 -6 -4 -6 -15 0 -25 -73 -12
-81 8 -5 8 -8 0 -13 -6 -4 -11 -3 -11 3 0 6 -7 8 -15 5 -8 -4 -15 -13 -15 -21
0 -8 4 -11 10 -8 13 8 51 -13 49 -28 -3 -28 4 -32 57 -34 41 -2 55 1 51 10
-15 40 -17 57 -8 57 5 0 17 3 27 7 13 5 16 3 11 -10 -8 -20 26 -41 54 -34 14
4 21 -1 25 -19 3 -13 9 -25 13 -25 3 -1 19 -3 36 -5 75 -8 97 -50 36 -70 -19
-6 -40 -18 -46 -28 -15 -20 -29 -21 -21 -1 4 11 -2 15 -24 15 -16 0 -32 -5
-35 -10 -11 -17 20 -38 47 -33 15 3 37 -2 51 -12 16 -10 34 -14 47 -10 13 4
22 1 26 -8 6 -17 58 -17 75 0 9 9 5 18 -15 38 -24 24 -37 63 -16 50 5 -3 17
-2 27 4 10 5 30 14 46 20 15 6 27 17 27 25 0 17 24 28 45 20 8 -4 15 -1 15 5
0 18 38 33 59 22 21 -12 18 -53 -5 -72 -8 -6 -14 -20 -14 -30 0 -12 -11 -24
-27 -30 -50 -20 -68 -30 -91 -49 -20 -17 -21 -22 -10 -40 7 -11 33 -26 58 -33
64 -18 59 -39 -10 -42 -72 -4 -80 -6 -73 -19 13 -20 10 -46 -6 -47 -28 -2 -44
2 -57 16 -20 19 -17 24 9 18 20 -5 20 -3 -8 25 -19 19 -43 32 -66 35 -41 5
-75 -8 -48 -18 9 -3 22 -5 30 -3 15 3 24 -34 15 -58 -5 -13 -8 -13 -20 -2 -7
8 -17 24 -20 36 -4 12 -16 22 -26 22 -10 0 -22 5 -25 10 -11 18 -47 10 -66
-15 -12 -14 -26 -22 -34 -18 -16 6 -18 2 -9 -20 4 -12 11 -13 33 -4 38 14 59
4 56 -26 -3 -28 16 -41 46 -32 9 3 21 1 24 -6 6 -8 10 -7 16 2 13 21 11 -38
-1 -62 -17 -31 -1 -41 23 -14 32 35 58 36 68 1 4 -15 5 -25 2 -22 -4 4 -15
-12 -26 -35 -14 -31 -16 -44 -7 -49 7 -4 -8 -10 -35 -14 -38 -6 -49 -4 -59 10
-11 15 -15 14 -43 -16 -25 -27 -30 -38 -23 -56 7 -16 4 -26 -9 -38 -23 -21
-29 -20 -50 6 -18 22 -41 18 -41 -8 0 -25 -28 -15 -58 21 -24 30 -31 33 -41
22 -8 -11 -9 -22 -1 -42 9 -23 8 -26 -4 -22 -9 4 -18 2 -21 -3 -17 -28 -50 21
-46 70 2 32 -33 57 -55 39 -12 -10 -12 -14 -1 -28 8 -9 17 -28 21 -43 5 -22 3
-26 -8 -22 -8 3 -16 20 -18 37 -3 27 -7 32 -27 29 -20 -3 -23 -1 -16 15 4 10
10 26 13 36 3 14 12 17 29 14 18 -3 28 2 40 19 11 18 21 22 39 18 30 -8 39 12
26 59 -7 26 -6 42 3 61 8 14 11 26 7 26 -3 0 -1 5 5 11 7 7 21 6 47 -5 39 -16
44 -12 21 18 -10 14 -22 17 -44 13 -29 -6 -29 -6 -33 43 -1 28 0 50 5 50 4 0
7 6 7 14 0 7 9 25 21 40 l21 27 39 -41 39 -40 16 25 c18 27 11 47 -14 43 -12
-2 -16 3 -14 16 3 17 2 18 -12 7 -13 -11 -17 -11 -21 3 -3 9 -7 23 -10 32 -9
26 13 46 37 33 26 -14 47 3 30 24 -9 10 -9 16 0 25 9 9 8 12 -3 12 -8 0 -20
-5 -25 -10 -7 -7 -19 -8 -37 -1 -30 12 -50 6 -86 -21 -13 -10 -27 -15 -32 -12
-5 2 -22 -2 -40 -11 -17 -9 -37 -14 -45 -11 -7 3 -16 1 -19 -5 -4 -5 -19 -8
-33 -7 -15 1 -33 -2 -40 -6 -7 -4 -19 -3 -27 4 -9 7 -15 8 -20 0 -3 -5 -17
-10 -31 -10 -14 0 -37 -8 -52 -19 -42 -29 -118 -46 -137 -31 -32 26 -8 90 35
90 10 0 20 6 23 14 7 16 -1 26 -20 26 -21 0 -53 33 -53 55 0 11 9 33 19 49 11
17 18 33 15 38 -3 4 7 8 21 8 21 0 29 -8 42 -37 10 -25 18 -33 21 -23 6 22 33
40 58 40 12 0 27 6 34 14 6 8 21 16 32 18 29 4 32 21 7 33 -12 6 -21 13 -20
18 3 15 -35 43 -63 45 -30 3 -86 -17 -86 -30 0 -4 -13 -6 -29 -4 -21 2 -28 -1
-27 -13 1 -12 -8 -16 -35 -16 l-35 0 19 -32 c10 -18 16 -37 12 -43 -9 -14 -52
-13 -62 3 -11 17 -10 67 1 67 6 0 5 5 -2 12 -14 14 -147 24 -138 10 3 -6 -2
-13 -13 -17 -10 -3 -21 -15 -24 -27 -5 -19 -7 -19 -22 -4 -9 9 -23 16 -31 16
-8 0 -14 9 -14 20 0 11 -4 20 -9 20 -12 0 -21 63 -10 75 30 32 -23 56 -56 25
-12 -11 -27 -20 -34 -20 -15 0 -41 -24 -41 -38 0 -13 -59 -35 -85 -33 -16 2
-17 0 -5 -8 19 -13 0 -34 -25 -29 -17 3 -31 38 -17 38 4 0 15 7 26 15 16 12
17 16 3 35 -8 12 -13 30 -10 41 3 10 1 19 -3 20 -48 4 -98 20 -117 37 -15 14
-21 14 -39 3 -23 -14 -33 -7 -42 31 -6 28 2 30 45 13 23 -9 32 10 14 25 -13
11 -13 14 2 26 17 13 17 15 1 25 -10 5 -18 18 -18 28 0 11 -7 21 -15 24 -8 4
-21 22 -29 42 -16 38 -40 44 -90 26 -17 -7 -26 -6 -30 2 -5 9 -8 8 -12 -2 -5
-11 -8 -11 -15 0 -14 23 -10 -103 5 -136 l13 -30 13 27 c18 38 90 59 90 26 0
-6 -6 -6 -15 2 -19 16 -19 11 1 -28 15 -32 31 -45 21 -18 -4 10 2 13 18 12 24
-1 24 -1 5 -21 -17 -18 -18 -26 -10 -57 6 -20 19 -82 29 -138 16 -90 16 -109
4 -173 -7 -40 -18 -87 -24 -105 -10 -31 -3 -68 38 -202 2 -8 5 -17 5 -20 0 -3
7 -14 14 -25 8 -11 14 -26 14 -35 0 -25 81 -102 94 -90 15 11 56 -14 56 -34 0
-21 27 -27 57 -12 16 8 40 20 54 26 17 8 25 18 22 29 -3 12 3 16 27 17 16 1
30 -3 30 -8 0 -5 5 -6 11 -3 6 4 17 -1 25 -11 11 -14 17 -15 20 -6 3 6 15 12
26 12 35 0 67 52 38 62 -10 3 -12 15 -9 66 0 9 -1 23 -3 31 -2 7 3 16 11 19 8
3 11 0 7 -7 -10 -16 3 -13 21 5 11 10 18 12 22 5 5 -7 18 -8 39 -2 18 5 32 8
32 5 0 -3 9 0 20 6 11 6 18 15 15 20 -11 19 15 20 34 1 19 -19 19 -19 -2 -26
-19 -6 -20 -8 -4 -12 9 -2 17 -9 17 -14 0 -5 5 -9 11 -9 5 0 7 5 4 10 -3 6 -1
10 4 10 6 0 11 -6 11 -14 0 -24 29 -27 51 -5 15 15 23 18 29 10 8 -14 60 -5
60 10 0 5 13 9 29 9 17 0 33 5 36 10 8 13 52 13 60 0 11 -18 70 -38 113 -39
51 -1 65 -8 58 -27 -3 -7 -1 -16 5 -20 6 -4 6 -11 -2 -20 -9 -11 -9 -17 1 -29
9 -10 9 -15 1 -15 -6 0 -11 -7 -11 -16 0 -9 -9 -18 -20 -21 -11 -3 -18 -9 -15
-13 3 -5 -4 -11 -15 -15 -11 -3 -20 -13 -20 -21 0 -8 -10 -14 -25 -14 l-24 0
24 26 c14 15 25 39 25 53 0 20 2 23 10 11 8 -12 10 -12 10 -1 0 8 7 11 20 8
11 -3 18 -1 14 4 -3 5 -11 9 -19 9 -7 0 -16 6 -18 13 -3 6 -11 -3 -19 -21 -12
-31 -16 -33 -47 -28 -19 3 -37 9 -40 14 -12 17 -47 31 -60 22 -10 -6 -6 -12
18 -24 17 -9 29 -21 26 -26 -3 -5 -1 -11 5 -15 5 -3 10 -17 10 -31 0 -14 4
-22 10 -19 6 3 10 1 10 -4 0 -6 9 -11 20 -11 16 0 20 -7 20 -30 0 -16 -5 -30
-10 -30 -6 0 -4 -10 4 -22 7 -13 12 -34 10 -48 -5 -28 -41 -70 -60 -70 -22 0
-27 -21 -8 -41 14 -16 15 -19 2 -19 -8 0 -23 9 -34 21 -12 14 -25 18 -41 14
-16 -4 -23 -1 -23 10 0 8 -4 15 -10 15 -5 0 -7 7 -3 16 4 11 1 15 -13 12 -15
-2 -19 3 -19 28 0 40 -16 35 -69 -20 -33 -35 -39 -38 -48 -23 -5 9 -20 17 -33
17 -20 0 -24 -5 -23 -29 1 -27 3 -29 26 -20 14 5 27 7 31 4 8 -8 -20 -25 -42
-25 -14 0 -17 -5 -12 -21 6 -19 4 -21 -24 -17 -41 6 -64 -18 -36 -38 34 -25
61 -16 56 18 -1 12 60 -14 65 -27 3 -7 21 -16 40 -19 36 -7 46 -29 18 -40 -23
-9 -54 2 -54 20 0 18 -26 18 -33 0 -3 -7 0 -19 6 -25 6 -6 8 -13 5 -16 -3 -3
-12 1 -21 9 -13 14 -16 14 -27 1 -18 -21 -30 -19 -30 6 0 14 -5 19 -15 16 -8
-4 -17 -2 -20 3 -3 5 -18 9 -33 8 -15 0 -41 3 -59 7 -25 6 -33 4 -42 -13 -8
-15 -6 -23 9 -37 15 -14 17 -21 9 -32 -19 -22 -39 -15 -45 17 -7 33 -14 36
-32 18 -9 -9 -15 -9 -24 1 -11 10 -10 14 5 22 9 6 17 21 17 34 0 33 28 33 36
1 5 -20 9 -22 19 -13 10 9 10 16 0 32 -18 29 -27 73 -16 80 13 7 -7 65 -30 88
-22 21 -51 23 -43 3 3 -9 -3 -20 -15 -28 -22 -14 -28 -28 -11 -28 6 0 20 -9
32 -20 l22 -20 -27 0 c-14 0 -28 4 -32 10 -3 5 -15 6 -28 1 -15 -6 -29 -4 -41
5 -11 7 -23 11 -28 8 -5 -3 -8 1 -6 9 3 15 0 17 -24 17 -9 0 -8 -3 2 -10 12
-8 12 -11 -3 -28 -9 -10 -17 -23 -17 -28 0 -5 7 -1 14 9 14 18 14 17 21 -2 3
-12 11 -21 16 -21 5 0 9 -11 9 -25 0 -15 -6 -25 -14 -25 -15 0 -11 -35 7 -58
5 -6 6 -12 1 -12 -5 0 -1 -5 8 -10 15 -9 15 -12 -5 -34 -12 -13 -27 -30 -32
-38 -12 -15 -14 -118 -2 -118 4 0 7 -7 7 -15 0 -8 -5 -15 -11 -15 -6 0 -9 -19
-7 -47 3 -47 3 -47 48 -58 25 -6 40 -13 33 -16 -6 -2 -13 -11 -15 -19 -2 -8
-12 -18 -23 -21 -19 -6 -19 -7 -2 -14 19 -8 70 12 62 25 -6 9 17 60 27 60 10
0 21 -20 22 -44 1 -27 41 -34 67 -10 25 23 35 12 15 -18 -13 -20 -13 -26 -1
-42 14 -18 16 -18 33 -2 11 9 26 14 36 10 12 -5 16 0 16 20 0 16 6 26 14 26
26 0 25 28 0 45 -25 16 -25 16 -22 -7 2 -15 -2 -23 -12 -23 -10 0 -16 11 -17
30 0 17 -2 35 -2 42 -1 7 -14 11 -31 10 -27 -2 -32 -7 -42 -44 -11 -45 -19
-52 -35 -30 -17 22 -13 57 7 57 10 0 20 7 24 15 3 8 15 15 26 15 11 0 20 5 20
10 0 6 15 8 38 4 31 -5 41 -2 61 20 14 14 30 26 36 26 7 0 17 12 23 26 9 19
17 24 32 19 11 -3 36 2 57 12 21 10 45 16 55 15 11 -2 18 7 23 28 5 21 13 30
26 30 20 0 26 -15 9 -25 -16 -10 -12 -28 5 -21 29 11 41 -3 37 -43 -3 -29 -10
-41 -29 -50 -31 -14 -46 -5 -40 25 4 24 -7 33 -18 14 -4 -6 -11 -7 -17 -4 -13
8 -57 -45 -58 -69 0 -9 -12 -22 -27 -28 -52 -21 -68 -27 -85 -33 -19 -6 -25
-26 -8 -26 17 0 11 -47 -6 -54 -9 -4 -14 -9 -11 -12 3 -3 15 -1 26 6 17 9 21
8 21 -5 0 -10 10 -15 34 -15 26 0 36 -5 41 -20 4 -13 15 -20 33 -20 26 -1 26
-1 8 -15 -11 -8 -30 -15 -41 -15 -12 0 -34 -11 -49 -25 -15 -14 -36 -25 -47
-25 -11 0 -17 -4 -14 -10 11 -18 54 -11 65 10 6 11 19 20 30 20 10 0 22 5 25
10 3 6 11 10 18 10 8 0 8 -3 -1 -12 -15 -15 -16 -28 -2 -28 6 0 10 7 10 15 0
9 11 20 24 25 26 9 44 30 27 30 -6 0 -11 7 -11 15 0 18 14 19 41 5 10 -6 19
-7 20 -3 2 20 8 45 12 49 7 8 57 -15 57 -26 0 -7 -6 -8 -19 0 -28 14 -31 13
-31 -13 0 -32 7 -37 35 -23 28 13 41 66 19 79 -8 4 -14 13 -14 18 0 6 5 7 10
4 6 -4 17 -2 24 4 10 9 17 8 27 -1 8 -7 30 -13 49 -13 25 0 34 -4 32 -14 -3
-12 0 -12 12 -2 9 7 16 8 20 2 4 -6 17 -4 34 4 25 14 27 13 35 -7 6 -16 4 -26
-7 -34 -9 -6 -13 -14 -10 -17 8 -8 -6 -47 -17 -47 -5 0 -9 7 -9 15 0 9 -11 20
-24 27 -22 9 -29 7 -55 -17 -16 -16 -27 -33 -25 -40 7 -17 -35 -65 -56 -65
-22 0 -39 22 -22 28 7 2 12 10 12 18 0 8 3 13 8 13 18 -3 32 2 32 11 0 5 -7 7
-15 4 -9 -4 -15 0 -15 10 0 9 5 16 10 16 6 0 10 5 10 10 0 6 -11 3 -26 -6 -14
-9 -23 -22 -20 -29 2 -6 -9 -23 -25 -36 l-29 -24 33 -16 32 -17 -38 -7 c-39
-8 -47 -32 -8 -28 23 3 29 -12 9 -20 -7 -3 -1 -6 13 -6 15 -1 30 -8 33 -17 4
-11 1 -14 -12 -10 -14 5 -17 -1 -18 -27 0 -30 2 -33 23 -29 18 3 23 0 23 -17
0 -22 -19 -26 -55 -12 -12 5 -25 4 -33 -2 -10 -8 -16 -7 -23 4 -7 11 -9 9 -9
-8 0 -24 -16 -31 -22 -11 -3 7 -9 8 -19 3 -8 -5 -24 -8 -35 -7 -12 2 -24 -4
-27 -12 -5 -12 0 -16 15 -16 l21 0 -20 -23 c-11 -12 -23 -30 -26 -39 -4 -11
-13 -15 -28 -11 -19 5 -21 3 -15 -13 4 -10 4 -15 0 -11 -4 4 -13 2 -20 -4 -16
-13 -37 -2 -28 13 4 7 2 8 -5 4 -6 -4 -19 0 -28 9 -12 12 -18 13 -23 5 -5 -9
-9 -9 -14 -1 -9 14 -26 14 -26 0 0 -5 5 -7 10 -4 6 3 10 1 10 -5 0 -6 -7 -10
-16 -8 -10 2 -19 -3 -21 -9 -3 -8 4 -13 18 -13 12 0 19 -3 16 -7 -4 -3 0 -14
9 -24 8 -9 16 -28 18 -41 1 -13 6 -29 10 -36 9 -15 36 -16 36 -1 0 6 -6 9 -14
6 -20 -8 -28 4 -14 20 9 11 15 10 35 -8 22 -21 23 -21 23 -3 1 16 5 14 25 -11
26 -31 32 -47 15 -42 -5 1 -27 -17 -48 -40 -33 -36 -46 -43 -76 -43 -27 0 -35
-3 -30 -12 6 -10 4 -10 -7 -2 -8 7 -30 13 -49 16 -33 3 -35 1 -37 -26 -1 -16
-8 -33 -15 -38 -8 -6 1 -7 22 -3 23 5 32 4 25 -3 -5 -5 -29 -13 -52 -17 -36
-6 -41 -4 -40 12 1 10 13 23 27 29 21 9 22 11 7 17 -9 3 -17 2 -17 -4 0 -6 -5
-7 -10 -4 -14 9 7 35 26 35 8 0 14 7 14 16 0 12 7 14 31 9 21 -5 29 -4 25 3
-10 17 27 19 52 4 17 -11 22 -11 22 -2 0 17 -30 39 -55 40 -19 1 -20 1 -1 12
14 8 25 8 40 -2 20 -12 20 -11 4 5 -15 16 -20 16 -50 4 -18 -7 -48 -29 -67
-49 -32 -32 -36 -33 -39 -15 -2 11 -7 22 -11 25 -3 3 -17 17 -30 32 -19 22
-22 30 -12 42 13 16 -1 56 -19 56 -6 0 -10 8 -10 18 1 13 9 8 32 -18 24 -28
29 -31 25 -13 -4 18 -2 20 17 14 13 -5 22 -19 24 -35 3 -26 25 -35 38 -15 3 6
15 9 25 6 13 -3 23 2 30 15 9 16 13 18 20 7 4 -8 4 -16 -2 -20 -6 -3 -5 -10 4
-17 11 -9 14 -3 16 31 1 33 -3 48 -19 62 -32 29 -22 68 27 93 17 10 22 9 27
-4 6 -15 9 -15 29 -1 15 9 29 12 37 7 10 -6 7 -10 -13 -15 -15 -4 -27 -11 -27
-16 0 -13 63 -10 80 4 23 18 24 63 3 85 -22 23 -53 35 -53 21 0 -6 9 -13 20
-16 12 -3 19 -11 17 -17 -6 -18 -40 -19 -53 -1 -11 15 -14 15 -33 -4 -17 -17
-25 -19 -46 -11 -38 14 -52 12 -29 -4 18 -14 18 -15 1 -21 -11 -5 -16 -14 -12
-24 6 -21 -17 -55 -35 -49 -10 3 -9 8 4 20 22 23 21 25 -19 38 -29 10 -34 14
-24 26 6 8 18 14 26 14 22 0 6 17 -21 22 -14 3 -30 0 -35 -5 -7 -7 -15 -6 -26
3 -12 10 -15 10 -15 -4 0 -9 8 -16 21 -16 11 0 17 -5 14 -10 -4 -6 -11 -7 -17
-4 -7 4 -8 2 -4 -4 4 -6 13 -9 21 -5 8 3 15 0 15 -6 0 -6 -5 -11 -11 -11 -8 0
-7 -5 1 -15 11 -13 10 -18 -6 -30 -11 -8 -14 -14 -6 -15 6 0 12 -8 12 -17 0
-13 -6 -9 -20 12 -11 17 -20 39 -20 50 0 16 -2 17 -9 6 -7 -10 -9 -8 -8 10 0
13 -3 36 -7 52 -7 21 -5 27 8 27 9 0 16 6 16 13 0 6 5 4 11 -5 13 -23 35 -23
41 0 4 15 1 18 -18 14 -16 -3 -24 0 -24 9 0 9 -3 10 -8 4 -15 -21 -63 -36 -78
-24 -8 6 -15 9 -15 5 -1 -3 -2 -9 -3 -13 -4 -23 -20 -32 -49 -29 -49 7 -65 16
-62 34 1 9 0 11 -2 4 -6 -16 -20 -16 -26 1 -3 7 -6 4 -6 -6 -1 -10 -5 -16 -10
-13 -5 3 -7 15 -4 26 3 11 0 20 -6 20 -6 0 -11 -4 -11 -9 0 -23 -22 -65 -28
-55 -4 6 -16 16 -28 22 -18 10 -23 7 -35 -16 -8 -15 -20 -33 -26 -40 -7 -7
-13 -20 -13 -27 0 -18 17 -28 25 -15 10 16 35 11 36 -7 1 -16 2 -15 6 1 3 13
7 15 12 7 5 -8 15 -9 31 -3 18 7 32 4 53 -9 17 -9 35 -15 42 -12 8 2 12 -3 12
-14 -1 -10 4 -17 11 -16 6 2 12 -7 12 -19 l0 -21 -22 20 c-49 43 -89 66 -100
55 -7 -7 0 -12 21 -17 17 -4 31 -13 31 -21 0 -12 -4 -12 -30 1 -42 22 -47 19
-15 -11 15 -14 33 -23 40 -20 8 3 11 -2 8 -15 -3 -10 -8 -17 -12 -14 -4 2 -13
-13 -20 -33 -7 -20 -25 -47 -39 -59 -35 -29 -21 -41 23 -20 43 20 69 14 54
-14 -5 -10 -16 -19 -24 -19 -9 0 -12 -6 -9 -18 5 -14 4 -14 -4 -2 -13 17 -6
30 14 30 8 0 14 7 14 16 0 14 -3 14 -15 4 -8 -7 -15 -9 -15 -5 0 4 -7 2 -15
-5 -8 -7 -12 -16 -9 -21 6 -10 -2 -11 -33 -3 -13 4 -20 10 -17 15 3 5 0 9 -5
9 -6 0 -11 7 -11 15 0 8 -6 15 -12 15 -10 0 -9 3 1 9 16 10 6 31 -15 31 -8 0
-14 -8 -15 -17 0 -11 -3 -13 -6 -5 -6 15 -23 16 -23 1 0 -6 -7 -17 -15 -25
-13 -14 -15 -14 -15 0 0 9 5 16 11 16 8 0 8 4 0 14 -9 11 -9 15 1 20 10 5 10
7 1 12 -7 3 -13 17 -13 31 0 18 -5 24 -17 21 -10 -2 -19 -12 -21 -22 -3 -11 0
-16 7 -12 6 4 11 1 11 -8 0 -21 -11 -25 -37 -15 -16 6 -21 13 -16 26 5 15 3
15 -11 -2 -10 -11 -14 -14 -10 -6 5 10 3 12 -5 7 -7 -5 -10 -14 -7 -22 7 -17
-5 -18 -39 -2 -22 10 -28 9 -36 -3 -7 -12 -9 -11 -9 3 0 9 9 20 21 23 17 6 18
9 8 22 -11 12 -9 18 11 35 18 14 20 18 7 14 -10 -3 -28 1 -41 9 -12 8 -25 13
-28 10 -3 -3 -13 6 -22 20 -10 16 -26 25 -42 25 -22 0 -23 -2 -14 -21 7 -11 9
-23 6 -27 -3 -3 -6 1 -6 9 0 12 -2 12 -9 0 -11 -17 -34 -4 -27 16 3 8 1 11 -4
8 -6 -4 -10 8 -10 27 0 19 -5 39 -12 46 -8 8 -9 12 -1 12 6 0 9 8 7 18 -3 11
4 21 21 30 14 6 36 18 50 25 14 6 25 19 25 27 0 8 8 20 18 27 22 13 19 73 -3
73 -8 0 -20 6 -28 14 -13 13 -17 12 -36 -5 -12 -11 -26 -17 -31 -14 -6 3 -10
2 -10 -4 0 -6 -7 -8 -15 -5 -8 4 -12 11 -9 16 4 6 -3 5 -15 -1 -13 -7 -21 -21
-21 -36 0 -23 -2 -24 -20 -13 -11 7 -20 22 -20 33 0 17 2 18 11 5 9 -13 10
-12 5 3 -3 11 0 17 10 17 9 0 12 5 8 11 -5 9 7 10 47 5 l53 -7 -18 20 c-11 12
-27 21 -36 21 -9 0 -20 4 -25 9 -6 5 -28 6 -50 2 -51 -10 -65 -5 -65 22 0 13
3 17 8 11 13 -19 43 -24 63 -11 21 15 16 29 -7 20 -9 -3 -14 1 -14 12 0 11 5
15 14 12 8 -3 20 1 26 9 9 10 9 14 1 14 -6 0 -11 7 -11 16 0 17 23 44 38 44
12 0 23 26 15 34 -13 13 -77 5 -95 -11 -25 -22 -23 -33 7 -33 14 0 25 -4 25
-10 0 -14 -33 -13 -48 2 -6 6 -15 8 -19 4 -5 -4 0 -13 10 -20 9 -7 17 -16 17
-20 0 -14 -33 -4 -88 25 -43 24 -68 31 -103 30 -31 -1 -50 3 -59 14 -7 8 -20
15 -30 15 -10 0 -24 7 -31 16 -12 15 -11 16 11 9 14 -4 31 -12 38 -17 8 -7 12
-7 12 1 0 7 8 8 27 0 27 -10 27 -10 8 10 -20 23 -7 28 27 10 14 -8 23 -8 31 0
6 6 20 11 32 11 16 0 17 -2 5 -10 -11 -7 -6 -9 17 -7 29 2 42 21 17 23 -5 0
-22 7 -39 14 -16 7 -33 13 -37 12 -5 -1 -8 3 -8 8 0 7 -6 7 -19 1 -10 -6 -21
-7 -25 -4 -3 3 -6 1 -6 -6 0 -9 -7 -8 -22 3 -31 22 -55 20 -63 -4 -7 -22 -20
-26 -30 -10 -5 8 -11 8 -20 0 -9 -7 -20 -6 -41 5 -33 17 -64 20 -64 5 0 -11
37 -33 64 -37 30 -5 85 -43 63 -43 -11 0 -15 -5 -11 -11 4 -7 1 -10 -7 -7 -8
3 -13 10 -12 16 2 7 -10 10 -26 9 -16 -1 -29 -4 -28 -7 1 -3 -1 -6 -5 -7 -21
-7 -39 -1 -65 21 -25 22 -26 25 -10 31 23 10 22 22 -3 20 -27 -2 -50 -26 -32
-32 6 -3 12 -13 12 -24 0 -13 -5 -17 -17 -12 -10 4 -14 2 -10 -4 4 -6 1 -16
-6 -22 -11 -8 -13 -6 -13 10 1 21 -10 31 -49 45 -36 12 -56 11 -65 -5 -8 -13
-9 -13 -10 5 0 30 -30 40 -37 14 -3 -13 -14 -20 -29 -20 -13 0 -24 -4 -24 -8
0 -5 -7 -9 -15 -9 -8 0 -15 5 -15 11 0 6 -4 5 -9 -3 -8 -12 -12 -12 -26 2 -15
15 -18 15 -31 2 -18 -17 -34 -20 -34 -4 0 5 -4 7 -10 4 -5 -3 -18 7 -27 23
-10 16 -24 27 -31 24 -9 -3 -11 3 -7 20 5 19 1 27 -17 35 -43 21 -56 22 -63 5
-5 -13 -8 -14 -14 -3 -6 9 -11 10 -15 2 -10 -16 -26 -13 -26 5 0 8 -4 12 -10
9 -5 -3 -10 1 -10 10 0 15 -1 15 -16 1 -8 -9 -13 -19 -10 -24 2 -4 -13 -8 -35
-8 -40 -1 -47 4 -28 23 13 13 -6 57 -22 48 -5 -4 -9 3 -9 14 0 12 -4 21 -9 21
-10 0 -32 -24 -28 -31 1 -2 -3 2 -10 10 -10 12 -16 11 -38 -3 -14 -9 -25 -12
-25 -6 0 5 -6 10 -13 10 -8 0 -19 10 -25 22 l-11 23 0 -25 -1 -25 -26 30 c-14
17 -23 22 -20 13 4 -15 1 -16 -22 -7 -15 5 -33 17 -39 26 -7 9 -13 12 -13 6 0
-6 14 -23 30 -36 17 -14 30 -30 30 -36 0 -6 6 -11 14 -11 7 0 16 -10 19 -23 6
-21 6 -21 -8 -3 -12 16 -15 17 -15 4 0 -19 24 -41 34 -31 4 4 4 -1 0 -10 -4
-12 0 -23 12 -32 11 -8 15 -15 10 -15 -5 0 -17 7 -27 16 -17 15 -19 15 -34 0
-13 -13 -21 -14 -38 -4 -12 6 -27 18 -33 26 -16 21 -37 6 -24 -18 13 -24 -16
-36 -39 -17 -9 8 -21 12 -28 10 -6 -2 -23 8 -39 23 l-27 28 -8 -22 c-9 -23
-24 -29 -34 -12 -3 6 1 13 9 16 33 13 14 22 -43 20 -58 -1 -60 -2 -54 -25 3
-14 1 -26 -7 -31 -10 -6 -9 -15 7 -42 16 -27 24 -32 49 -29 16 1 32 8 35 13 4
6 12 7 20 2 14 -9 19 -10 76 -13 36 -1 44 -20 30 -66 -16 -49 -29 -60 -44 -38
-8 10 -16 16 -19 14 -2 -2 -18 -1 -33 2 -24 5 -28 10 -24 27 9 33 25 35 48 6
28 -36 60 -32 61 7 1 22 -3 27 -25 28 -14 1 -47 3 -73 4 -34 2 -48 -2 -48 -11
0 -7 4 -16 10 -19 6 -4 5 -14 -3 -27 -9 -16 -9 -22 0 -25 7 -2 9 -11 6 -19 -3
-8 1 -14 11 -14 9 0 16 6 16 13 0 9 3 8 9 -2 6 -10 13 -11 27 -3 12 7 25 7 37
0 14 -7 24 -5 39 9 20 18 21 18 14 -4 -8 -27 -4 -28 27 -9 12 7 32 11 46 7 21
-6 22 -8 8 -19 -8 -7 -29 -14 -46 -15 -34 -2 -41 -20 -13 -36 15 -10 14 -14
-16 -42 l-34 -30 -19 38 c-10 20 -19 43 -19 50 0 7 -9 17 -20 23 -17 9 -20 8
-20 -10 0 -12 -4 -18 -10 -15 -16 10 -11 -21 6 -36 13 -10 17 -10 24 0 5 9 8
4 8 -13 0 -15 -6 -26 -14 -26 -8 0 -14 -4 -14 -10 0 -5 -5 -10 -11 -10 -5 0
-7 5 -4 10 3 6 1 10 -4 10 -6 0 -11 -6 -11 -14 0 -16 16 -29 40 -33 8 -1 16
-7 18 -12 7 -21 24 -10 19 12 -4 12 -2 29 4 37 7 11 9 1 7 -34 -3 -51 -11 -58
-61 -57 -12 0 -17 -6 -15 -17 3 -12 12 -16 31 -15 31 2 30 3 17 -31 -9 -24 -8
-25 9 -14 10 6 24 29 30 50 7 21 16 38 21 38 5 0 7 -7 3 -16 -4 -10 0 -20 10
-26 26 -14 20 -28 -18 -44 -40 -16 -45 -31 -12 -36 15 -2 22 -10 23 -26 1 -25
-14 -30 -22 -7 -4 8 -10 12 -16 9 -5 -3 -1 -14 11 -25 21 -20 47 -26 36 -9 -3
6 -2 10 4 10 5 0 13 -5 16 -10 4 -6 11 -8 16 -5 17 11 9 24 -18 27 l-28 4 29
12 c28 12 28 13 10 28 -14 11 -15 17 -6 20 6 3 10 10 6 15 -3 5 0 9 6 9 7 0 9
-7 6 -15 -4 -10 2 -19 16 -24 17 -6 19 -9 7 -17 -10 -6 -7 -10 16 -14 17 -4
29 -12 27 -19 -1 -7 2 -19 8 -26 6 -7 8 -25 4 -39 -5 -20 -12 -26 -28 -24 -18
3 -21 -2 -21 -34 -1 -37 -21 -72 -36 -62 -13 8 -11 -3 6 -37 12 -22 12 -29 3
-27 -7 2 -19 16 -27 32 -10 18 -17 24 -19 16 -3 -8 0 -16 7 -18 6 -2 11 -8 11
-12 0 -5 -16 0 -35 11 -19 12 -35 26 -35 32 0 7 4 7 12 -1 17 -17 33 -15 18 3
-10 13 -9 15 8 15 12 0 24 5 28 12 4 6 3 8 -4 5 -16 -11 -39 2 -45 25 -4 14
-11 19 -21 14 -53 -21 -52 -21 -32 2 26 30 15 37 -14 10 l-23 -22 25 -21 c18
-16 23 -26 17 -36 -7 -11 -9 -11 -9 2 0 9 -7 22 -15 29 -20 16 -84 17 -95 1
-6 -11 -10 -10 -17 4 -6 11 -23 18 -42 19 -17 0 -31 4 -31 9 0 4 -10 7 -22 6
-17 0 -19 -2 -8 -7 16 -7 23 -52 8 -52 -5 0 -21 25 -35 56 -14 31 -28 52 -32
48 -11 -15 -31 -15 -31 1 0 18 -16 20 -23 3 -3 -8 -6 -6 -6 4 -1 10 -7 15 -14
12 -13 -5 -30 21 -42 63 -3 13 -12 22 -18 20 -26 -5 -24 -22 4 -50 17 -16 28
-36 25 -43 -3 -8 -1 -14 5 -14 6 0 9 -10 7 -23 -2 -16 -11 -23 -32 -25 -18 -2
-30 -11 -33 -23 -6 -21 -23 -26 -23 -7 0 15 -13 1 -16 -17 -1 -8 2 -15 7 -15
15 0 10 -17 -7 -24 -8 -3 -12 -2 -9 4 3 5 1 18 -4 29 -14 25 30 76 60 68 13
-4 19 -1 16 6 -2 7 -12 11 -22 9 -11 -2 -14 1 -10 8 10 17 13 70 3 70 -4 0 -8
-4 -8 -9 0 -5 -7 -8 -16 -7 -9 0 -19 -5 -22 -13 -3 -9 0 -11 8 -6 9 6 9 2 0
-16 -7 -13 -14 -25 -15 -27 -2 -2 -19 3 -38 11 -26 12 -37 23 -43 49 -12 50
-12 52 26 60 19 5 42 10 50 12 8 3 17 5 20 5 3 1 6 10 7 21 1 16 -3 19 -23 14
-14 -4 -24 -2 -24 5 0 6 7 8 15 5 8 -4 15 -1 15 5 0 6 -9 11 -21 11 -15 0 -19
5 -15 15 3 9 -3 24 -14 35 -19 19 -19 20 0 30 11 6 25 8 30 5 14 -9 12 -35 -2
-36 -7 0 -3 -4 10 -10 13 -5 20 -13 17 -19 -3 -5 -1 -10 4 -10 6 0 11 -7 11
-15 0 -8 4 -15 9 -15 5 0 13 -9 16 -20 7 -22 30 -27 39 -7 5 9 7 9 12 -1 5
-10 9 -9 20 5 7 10 14 13 14 7 0 -6 6 -11 13 -11 6 0 25 -4 40 -8 26 -7 28 -6
23 20 -4 22 -2 25 6 17 7 -7 11 -28 10 -48 -2 -27 0 -34 10 -28 7 4 10 4 6 -1
-4 -4 -3 -14 3 -22 9 -10 8 -13 -2 -13 -8 0 -5 -6 7 -15 17 -13 17 -14 2 -15
-24 0 -50 42 -41 66 4 12 -3 7 -19 -11 -15 -16 -24 -32 -21 -35 3 -3 8 1 10 8
7 18 23 4 23 -19 0 -11 3 -18 8 -16 15 9 54 -13 48 -28 -3 -8 -1 -15 4 -15 6
0 10 9 10 20 0 11 3 19 8 18 14 -3 42 14 36 23 -3 5 2 6 10 3 13 -5 13 -8 1
-20 -7 -8 -19 -14 -25 -14 -6 0 -10 -8 -8 -17 3 -15 13 -18 58 -16 38 2 50 -1
40 -7 -12 -8 -10 -10 9 -10 18 0 22 4 17 17 -4 9 -1 20 6 25 10 6 10 8 1 8 -7
0 -13 9 -13 20 0 26 -40 28 -41 3 0 -15 -3 -14 -16 5 -8 12 -23 22 -32 23 -10
0 -11 2 -3 6 6 2 12 16 12 29 0 13 6 24 13 24 8 0 7 4 -3 10 -13 8 -13 10 2
10 10 0 25 11 34 25 21 32 26 28 15 -13 -10 -34 -1 -41 22 -18 8 9 12 26 10
39 -3 14 0 28 6 31 19 12 12 24 -18 34 -25 9 -29 8 -24 -4 3 -8 9 -14 14 -14
5 0 9 -5 9 -12 0 -6 -11 -1 -25 12 -29 27 -31 37 -10 42 10 2 12 8 6 17 -11
18 -29 6 -43 -27 -6 -16 -12 -22 -15 -14 -3 6 -8 10 -12 8 -12 -8 -37 13 -26
21 6 5 11 19 13 33 2 25 50 128 62 135 4 3 13 -15 20 -38 18 -58 34 -72 27
-25 -4 28 -2 38 8 38 9 0 13 11 12 35 -2 32 -14 47 -42 49 -5 1 -10 10 -10 21
-1 11 -4 26 -8 33 -5 6 -5 17 -2 22 3 6 -1 10 -11 10 -13 0 -14 3 -5 13 8 11
6 20 -10 38 -19 22 -21 22 -30 6 -6 -9 -15 -15 -21 -11 -6 4 -5 10 3 15 12 8
11 11 -1 19 -8 5 -25 10 -37 10 -22 0 -40 31 -29 49 4 5 2 11 -3 13 -23 9 -21
46 5 71 27 27 44 34 44 19 0 -4 -5 -13 -11 -19 -14 -14 -5 -43 15 -43 7 0 16
10 20 22 4 18 8 20 18 10 20 -20 27 -14 18 18 -9 30 6 55 15 26 3 -9 7 -23 10
-32 3 -9 8 -14 12 -10 4 3 16 -2 27 -13 34 -30 72 -35 96 -11 14 14 31 20 48
18 29 -3 33 -20 6 -24 -29 -4 -28 -14 4 -20 26 -5 32 -11 32 -33 l0 -26 18 22
c9 12 29 25 45 28 25 7 27 5 27 -24 0 -35 14 -41 30 -11 11 20 1 54 -17 62 -5
1 -19 28 -33 58 -32 73 -41 85 -51 68 -7 -10 -11 -10 -21 1 -7 8 -8 11 -2 8 7
-4 15 0 18 9 10 27 7 34 -18 34 -25 0 -41 24 -29 43 9 15 5 50 -12 107 -35
116 -24 243 29 348 52 102 145 229 214 293 55 51 72 73 72 93 0 39 25 83 87
150 67 75 92 91 173 116 124 38 138 47 182 124 22 39 43 76 45 81 6 13 -24
-24 -32 -39 -3 -7 -7 -7 -11 2 -5 10 -10 9 -21 -5 -8 -10 -12 -13 -8 -6 3 7 3
23 0 36 -5 19 -11 23 -31 19 -17 -3 -24 0 -24 12 0 9 -4 16 -10 16 -28 0 8 49
37 50 16 0 54 -41 47 -52 -3 -4 -1 -8 5 -8 5 0 11 -6 14 -12 2 -7 3 -5 1 5 -1
10 7 26 18 37 11 10 17 23 14 28 -3 6 1 13 10 16 11 4 15 2 11 -7 -3 -8 1 -14
9 -14 16 0 13 39 -4 45 -7 2 -12 16 -12 32 0 49 -16 77 -42 75 -15 -1 -23 -8
-24 -21 -1 -10 -2 -23 -4 -29 -1 -5 -2 -18 -1 -27 2 -19 -9 -22 -58 -12 -17 4
-31 13 -31 20 0 24 -41 15 -70 -16 -34 -36 -43 -37 -58 -6 -7 17 -7 27 1 35 8
8 5 16 -11 31 -12 12 -22 27 -22 34 0 8 -7 19 -15 26 -8 7 -12 17 -9 22 8 12
64 0 85 -18 8 -8 25 -14 37 -14 23 0 29 -14 12 -25 -15 -9 -12 -25 5 -25 8 0
15 7 15 16 0 8 4 13 9 9 5 -3 12 -1 16 5 3 5 1 10 -4 10 -6 0 -11 13 -11 30 0
34 29 55 66 47 13 -2 29 2 35 9 12 15 57 9 74 -10 17 -19 55 -18 55 2 0 9 3
27 6 39 8 28 -18 41 -50 24 -15 -9 -29 -9 -49 -2 -30 12 -33 21 -15 39 10 10
8 14 -10 18 -23 7 -29 19 -12 29 6 4 8 11 5 16 -4 5 8 9 24 9 23 0 31 5 32 18
0 9 3 12 5 5 3 -7 12 -9 21 -6 8 3 19 0 24 -8 7 -12 9 -12 10 1 4 45 -7 81
-44 152 -36 68 -40 85 -40 141 2 85 17 137 51 172 15 17 34 44 41 60 l14 30
13 -30 13 -30 0 45 c1 33 -2 41 -9 30 -14 -22 -13 86 2 113 6 12 23 34 37 49
24 26 37 30 146 52 45 9 87 5 127 -10z m3151 -529 c43 -41 71 -44 111 -10 31
27 40 29 100 25 57 -3 89 -26 81 -59 -8 -32 -30 -50 -55 -44 -10 3 -38 -7 -62
-21 -56 -33 -88 -33 -118 -1 -21 22 -25 23 -44 10 -33 -24 -70 -18 -114 18
-67 52 -51 117 27 117 30 0 46 -8 74 -35z m-1030 -50 c12 -8 16 -15 10 -15 -6
0 -10 -8 -9 -17 0 -9 -14 -27 -33 -40 l-34 -23 28 0 c23 0 26 -2 15 -15 -19
-23 -85 -19 -110 7 -11 12 -20 16 -20 10 0 -7 -8 -12 -17 -12 -14 0 -15 2 -5
9 11 7 11 9 -2 14 -14 6 -14 11 1 50 l16 45 69 1 c48 1 76 -3 91 -14z m-3448
-125 c17 -13 93 -21 100 -10 3 5 24 10 45 10 21 0 42 5 45 10 3 6 12 10 18 10
8 0 8 -3 -2 -9 -9 -6 -10 -11 -2 -15 22 -14 11 -35 -24 -46 -40 -13 -39 -10
-21 -55 8 -18 11 -36 8 -40 -4 -4 5 -4 21 0 20 6 27 4 27 -8 0 -8 -7 -17 -15
-21 -19 -7 -96 34 -88 47 4 6 -3 8 -18 4 -14 -4 -29 -1 -39 8 -13 11 -21 11
-54 0 -38 -13 -42 -13 -83 16 -24 16 -52 29 -62 29 -17 0 -18 3 -6 38 10 28
20 39 42 44 31 7 92 1 108 -12z m-1028 -4 c-4 -10 3 -17 23 -21 35 -8 51 0 43
20 -3 9 1 15 10 15 25 0 47 -11 41 -21 -3 -5 2 -9 10 -9 9 0 16 -6 16 -14 0
-17 -33 -31 -38 -17 -9 27 -72 -11 -72 -43 0 -24 -51 -77 -69 -72 -24 7 -61
-28 -61 -58 0 -14 -4 -26 -10 -26 -5 0 -10 -5 -10 -10 0 -6 -16 -25 -36 -42
-20 -18 -40 -43 -46 -57 l-10 -26 -30 35 c-51 60 -63 116 -28 138 17 10 22 9
36 -13 21 -33 39 -32 75 4 34 34 34 38 11 69 -23 29 -63 22 -83 -15 l-14 -25
-5 23 c-3 13 -10 24 -15 24 -6 1 -21 7 -34 14 -12 7 -31 11 -41 8 -27 -7 -44
8 -35 29 5 11 9 22 9 26 1 4 7 13 14 20 10 10 17 10 32 0 28 -17 54 -15 74 7
13 14 35 20 102 23 46 2 90 10 96 16 17 17 51 15 45 -2z m-539 -32 c26 -13 31
-20 26 -40 -3 -13 -7 -35 -8 -49 0 -14 -9 -28 -18 -31 -10 -3 -18 -12 -18 -20
0 -25 -16 -15 -71 41 -60 62 -68 75 -45 75 9 0 16 -4 16 -10 0 -5 5 -10 10
-10 6 0 10 5 10 11 0 13 40 48 56 49 6 0 25 -7 42 -16z m1167 -64 c-4 -12 -2
-20 5 -20 8 0 9 -10 5 -29 -4 -17 0 -44 10 -66 14 -35 17 -37 33 -23 17 16 43
17 75 3 9 -4 24 -5 32 -1 8 3 15 1 15 -4 0 -5 -9 -12 -20 -15 -11 -3 -20 -15
-20 -25 0 -10 -7 -20 -15 -24 -33 -12 -14 -27 31 -24 47 3 55 10 69 52 5 18 7
17 21 -10 8 -16 26 -39 40 -50 25 -21 26 -22 9 -47 -14 -21 -27 -27 -81 -33
-68 -7 -80 -3 -86 31 -4 25 -46 27 -61 4 -7 -11 -3 -26 18 -57 15 -22 24 -45
21 -50 -3 -6 1 -12 9 -16 8 -3 15 -12 15 -21 0 -8 5 -15 10 -15 6 0 18 -16 27
-35 15 -32 15 -37 2 -51 -14 -13 -19 -11 -48 16 -26 26 -30 34 -20 46 10 12 7
17 -20 27 -17 6 -31 17 -31 24 0 21 -37 35 -60 23 -24 -13 -13 -36 31 -66 16
-10 29 -25 29 -32 0 -8 9 -16 20 -19 24 -6 17 -23 -8 -17 -27 7 -42 -10 -44
-47 -2 -65 2 -79 38 -114 20 -20 34 -38 32 -39 -1 -2 -36 -6 -75 -10 -55 -5
-73 -3 -73 6 -1 7 -2 37 -3 65 -1 29 2 54 6 56 5 1 1 31 -8 65 -14 50 -27 71
-60 100 -56 51 -58 55 -44 117 10 47 10 57 -5 80 -20 31 -16 41 11 25 21 -14
53 -84 53 -117 0 -41 53 -72 66 -38 4 8 12 15 18 15 7 0 21 19 32 43 11 23 25
41 31 40 7 -2 10 4 7 12 -4 8 -10 15 -15 15 -5 0 -9 7 -9 16 0 12 -6 15 -22
11 -13 -2 -34 -2 -48 2 -32 9 -36 49 -10 94 10 18 22 50 26 72 3 22 13 48 22
58 20 22 25 22 17 -3z m830 -249 c38 -47 38 -59 0 -70 -19 -5 -43 -7 -54 -4
-15 4 -21 -3 -31 -34 -18 -54 -24 -60 -81 -66 -28 -4 -57 -11 -64 -17 -19 -16
-37 12 -29 47 9 35 39 57 80 59 17 0 42 10 55 22 12 12 27 22 32 22 4 0 5 9 2
20 -4 14 -1 22 12 27 10 3 22 13 26 20 10 16 24 8 52 -26z m2459 -641 c9 0 26
-5 37 -11 15 -7 24 -7 34 1 15 13 65 3 66 -14 1 -6 0 -21 -1 -33 -2 -30 9 -46
23 -35 7 5 27 12 45 15 25 5 32 3 32 -9 0 -10 -8 -15 -22 -14 -32 3 -68 -10
-68 -24 0 -6 -5 -4 -10 4 -9 13 -12 13 -25 -4 -22 -29 -44 -14 -39 28 3 28 0
38 -16 46 -18 10 -24 7 -21 -12 0 -5 -9 -8 -20 -8 -16 0 -20 -5 -16 -20 3 -11
1 -18 -3 -15 -5 3 -11 1 -15 -5 -17 -28 -55 10 -55 55 0 27 -5 34 -26 39 -21
6 -23 10 -14 21 16 19 62 23 81 8 8 -7 23 -13 33 -13z m-3739 -591 c0 -10 11
-13 33 -11 23 1 31 -1 26 -9 -4 -7 -1 -10 7 -7 8 3 50 -8 94 -23 91 -33 105
-34 105 -15 0 8 6 16 14 19 10 4 12 0 9 -14 -3 -10 -1 -19 5 -19 6 0 17 -3 26
-6 11 -4 18 5 26 35 6 24 17 41 25 41 23 0 17 -36 -11 -70 -15 -17 -23 -34
-20 -38 4 -3 11 0 15 7 7 11 13 9 30 -8 31 -31 27 -46 -11 -44 -50 2 -50 2
-43 12 7 12 -35 53 -50 48 -5 -2 -11 -18 -13 -35 l-3 -32 -65 0 c-57 0 -64 2
-64 20 0 28 -60 28 -85 0 -12 -13 -22 -17 -33 -11 -9 5 -25 4 -40 -2 -22 -10
-27 -8 -48 18 -12 16 -25 37 -27 47 -4 15 -1 17 18 12 26 -7 135 22 135 35 0
9 -34 21 -62 21 -11 0 -15 -5 -12 -14 4 -12 -20 -22 -64 -26 -17 -2 -11 28 11
52 36 38 72 47 72 17z m-671 -3 c7 3 12 -7 14 -28 2 -30 0 -31 -12 -15 -24 31
-39 21 -31 -20 11 -62 23 -76 56 -69 15 3 31 1 34 -4 13 -21 32 -8 44 30 13
45 31 45 31 0 0 -16 5 -32 11 -36 8 -4 7 -9 -2 -15 -12 -7 -12 -9 0 -9 8 0 20
-8 27 -17 13 -17 15 -17 28 0 24 31 51 18 52 -25 1 -37 1 -38 -36 -34 -35 3
-80 34 -80 56 0 16 -38 31 -65 24 -14 -3 -25 -10 -25 -15 0 -5 -3 -8 -7 -8
-32 5 -65 -3 -60 -14 3 -7 -4 -19 -14 -25 -15 -10 -18 -19 -12 -40 6 -24 5
-26 -10 -13 -21 16 -22 40 -3 47 11 4 12 11 3 35 -6 16 -16 29 -22 29 -5 0 -3
5 5 10 13 8 12 10 -2 10 -10 0 -18 5 -18 12 0 6 3 8 7 5 4 -4 13 11 21 34 16
50 4 72 -29 51 -24 -15 -39 -8 -39 20 0 17 3 18 15 8 12 -10 19 -9 38 3 27 18
61 26 65 15 2 -4 9 -5 16 -2z m1172 -10 c31 -22 93 -29 100 -12 4 11 12 13 30
6 13 -5 30 -7 39 -4 8 3 28 -4 45 -16 28 -20 29 -23 16 -49 -22 -42 -43 -56
-61 -41 -12 10 -20 9 -40 -4 -13 -9 -31 -16 -38 -16 -8 0 -17 -10 -21 -22 -5
-18 -8 -20 -15 -9 -5 8 -7 21 -4 28 5 12 -4 14 -38 13 -24 -1 -47 -1 -50 -1
-4 1 -3 16 1 34 5 24 2 39 -13 61 -16 23 -17 30 -6 37 20 12 31 11 55 -5z
m3797 -187 c3 -11 3 -37 0 -56 -6 -33 -4 -36 13 -29 10 5 31 13 47 18 15 5 27
13 27 17 0 4 7 8 15 8 8 0 15 -4 15 -8 0 -3 10 -9 23 -13 18 -5 20 -8 7 -16
-13 -9 -11 -13 10 -31 14 -11 34 -28 46 -39 15 -14 24 -16 32 -8 5 5 14 8 19
5 14 -9 14 -76 1 -101 -7 -11 -11 -26 -10 -32 1 -6 -5 -17 -13 -24 -20 -17
-19 -37 3 -49 9 -6 13 -11 7 -12 -5 -1 3 -4 20 -8 19 -4 35 -16 43 -34 14 -29
56 -40 45 -11 -4 12 0 14 20 9 16 -4 39 -1 58 9 18 9 35 16 39 16 14 0 3 -63
-13 -75 -12 -9 -14 -14 -5 -23 9 -9 9 -15 1 -23 -12 -12 -53 4 -53 22 0 6 -4
7 -10 4 -5 -3 -10 -18 -10 -32 0 -20 4 -24 20 -20 25 6 36 -9 20 -29 -9 -10
-16 -11 -25 -4 -6 5 -15 7 -18 3 -12 -11 -8 -23 8 -23 12 0 12 -5 5 -26 -9
-23 -8 -25 7 -18 10 4 33 7 51 6 17 -1 32 3 32 8 0 6 7 10 15 10 8 0 15 -4 15
-10 0 -5 9 -10 20 -10 11 0 20 6 20 13 0 7 13 14 30 15 35 3 38 -8 10 -33 -25
-23 -26 -45 -2 -45 10 0 24 -6 30 -12 10 -10 15 -10 21 1 6 10 10 10 16 1 11
-17 -7 -30 -55 -41 -33 -7 -45 -7 -51 3 -4 7 -11 9 -14 6 -14 -14 9 -30 36
-26 16 3 30 0 32 -6 7 -19 -5 -36 -24 -36 -10 0 -19 -4 -19 -10 0 -13 1 -13
45 6 30 12 40 13 46 3 5 -9 13 0 26 27 10 21 23 42 28 47 25 18 95 -10 95 -39
0 -7 7 -14 15 -18 22 -8 20 -48 -2 -45 -10 1 -25 1 -33 0 -12 -1 -12 -3 2 -11
11 -7 32 -7 57 -1 22 5 42 6 46 3 3 -3 5 8 5 25 0 26 3 30 28 29 15 -1 32 5
37 12 8 10 13 8 23 -8 10 -17 10 -20 -6 -20 -10 0 -31 -13 -47 -30 -16 -16
-35 -30 -42 -30 -8 0 -12 -4 -8 -9 7 -12 -4 -19 -38 -25 -19 -3 -24 -1 -21 9
4 10 0 12 -15 8 -25 -6 -35 -19 -22 -28 6 -3 8 -11 5 -18 -3 -10 9 -13 46 -11
56 2 59 -2 11 -16 -20 -5 -31 -5 -31 1 0 6 -5 7 -11 3 -6 -4 -7 -9 -2 -13 15
-10 13 -51 -3 -51 -8 0 -14 -9 -14 -20 0 -11 5 -20 10 -20 6 0 10 4 10 9 0 5
10 11 23 14 12 2 31 8 42 12 20 7 20 6 1 -9 -19 -16 -19 -16 2 -16 12 0 22 -5
22 -11 0 -7 -10 -9 -25 -7 -20 4 -23 3 -14 -8 23 -27 -17 -47 -43 -21 -7 7
-28 19 -45 26 -18 7 -33 18 -33 23 0 17 -67 -1 -142 -39 -41 -20 -66 -38 -59
-42 9 -6 24 -71 16 -71 -2 0 -11 -3 -19 -6 -14 -5 -15 -2 -6 21 8 20 7 31 -1
41 -7 8 -14 12 -17 10 -2 -3 -14 1 -25 9 -15 11 -24 12 -34 3 -7 -6 -16 -8
-20 -4 -9 9 27 35 59 42 15 4 33 13 39 20 17 21 31 17 19 -6 -14 -26 -5 -25
51 4 25 13 62 27 82 31 21 4 41 13 45 20 4 7 16 14 27 17 28 5 30 34 3 49 -20
11 -21 10 -11 -3 19 -23 4 -29 -34 -13 -33 14 -34 14 -28 -5 4 -11 2 -20 -4
-20 -6 0 -11 3 -12 8 0 4 -2 15 -4 25 -2 11 3 17 16 17 10 0 19 2 19 4 0 2 3
13 6 23 5 17 5 17 -6 1 -15 -24 -33 -23 -25 2 4 11 2 20 -4 20 -6 0 -11 -12
-11 -26 0 -21 -4 -24 -20 -19 -15 5 -22 0 -30 -20 -13 -34 -13 -35 4 -35 8 0
16 10 18 23 2 16 5 18 9 7 4 -9 0 -32 -8 -52 -11 -28 -19 -35 -34 -31 -22 6
-26 23 -4 23 8 0 15 5 15 10 0 6 -6 10 -13 10 -18 0 -47 37 -47 60 0 13 -7 20
-20 20 -27 0 -38 -30 -17 -42 21 -11 22 -28 3 -28 -8 0 -16 -5 -18 -11 -2 -5
-11 -7 -21 -3 -18 7 -18 23 0 70 5 13 3 16 -10 11 -10 -4 -17 -2 -17 4 0 6 9
9 20 6 20 -5 37 9 25 21 -3 4 -35 5 -71 4 -40 -2 -64 1 -64 7 0 6 10 11 23 11
20 1 20 2 4 11 -12 7 -16 17 -12 30 6 19 -2 24 -20 11 -9 -6 -14 -38 -16 -104
-1 -25 -15 -30 -30 -11 -10 12 -10 14 -1 9 8 -5 12 0 12 13 0 12 -4 21 -10 21
-5 0 -10 -4 -10 -10 0 -5 -5 -10 -11 -10 -6 0 -8 10 -5 23 3 12 3 17 0 11 -3
-7 -14 -10 -25 -7 -18 5 -18 7 6 29 14 13 25 30 25 39 0 8 7 15 15 15 20 0 39
38 27 53 -5 7 -13 27 -17 45 -6 30 -14 36 -42 33 -7 -1 -13 3 -13 10 0 6 -11
25 -25 41 -14 16 -22 34 -19 39 9 15 41 -18 49 -49 5 -19 9 -22 15 -12 6 10
14 8 38 -11 17 -13 31 -29 31 -36 1 -6 6 -24 13 -40 6 -15 10 -34 9 -40 -3
-18 17 -53 30 -53 6 0 8 9 4 20 -3 11 -2 20 3 20 6 0 5 10 -1 25 -7 14 -15 25
-19 25 -5 0 -8 16 -8 35 0 18 -6 38 -13 42 -19 11 -44 65 -42 91 2 25 -5 28
-23 10 -8 -8 -8 -15 -1 -24 7 -8 7 -14 -1 -19 -17 -11 -42 3 -38 22 1 10 -1
23 -5 30 -5 8 4 18 24 29 31 15 33 15 46 -2 7 -9 15 -15 18 -12 10 10 -6 33
-32 45 -23 11 -28 10 -43 -7 -10 -11 -21 -20 -26 -20 -4 0 -3 5 3 11 11 11 2
73 -16 107 -5 9 -12 25 -15 35 -3 10 -15 17 -30 17 -29 0 -76 19 -76 31 0 5
-13 6 -29 3 -16 -4 -32 -1 -35 5 -6 10 13 16 37 12 10 -1 9 7 -3 30 -16 30 -3
41 26 22 18 -11 28 -13 36 -5 15 15 2 42 -20 42 -32 0 -46 25 -25 46 10 10 18
29 18 42 1 25 1 25 -25 -6 -33 -40 -95 -49 -95 -15 0 13 -9 29 -19 36 -10 7
-18 26 -18 40 0 49 44 78 55 36z m-3694 -88 c9 -6 10 -11 2 -15 -6 -4 -11 -16
-11 -28 0 -16 4 -19 25 -14 19 5 23 3 19 -9 -4 -8 -15 -15 -25 -15 -10 0 -19
-5 -19 -10 0 -6 -11 -15 -25 -20 -14 -5 -25 -16 -25 -25 0 -8 -9 -20 -20 -27
-11 -7 -20 -16 -20 -20 0 -4 -11 -18 -24 -33 -22 -24 -25 -24 -58 -10 -20 8
-38 12 -41 9 -3 -3 -8 0 -12 6 -3 6 -1 9 7 8 9 -2 12 6 10 27 -3 30 -3 30 15
9 22 -26 62 -37 80 -22 16 13 17 45 2 50 -19 6 0 78 21 78 10 0 20 9 23 21 3
11 15 23 26 26 12 3 21 9 21 14 0 11 11 11 29 0z m4765 -27 c57 -3 61 -6 45
-32 -10 -16 -9 -25 11 -52 19 -26 21 -36 11 -56 -11 -25 -35 -32 -46 -14 -10
15 -25 12 -25 -6 0 -9 -6 -14 -12 -11 -21 6 -15 41 7 47 18 4 24 20 15 43 -1
4 -3 13 -4 20 0 6 -6 12 -13 12 -6 0 -14 3 -18 7 -4 4 -21 4 -37 1 -21 -4 -33
-1 -43 13 -26 35 -19 47 23 39 20 -5 59 -9 86 -11z m-1223 -128 c5 3 9 -3 9
-14 0 -10 11 -29 25 -42 13 -12 22 -26 20 -30 -3 -5 2 -10 10 -14 8 -3 15 -12
15 -21 0 -17 -4 -18 -38 -8 -18 4 -20 8 -10 14 9 6 5 9 -12 9 -24 0 -22 -3 19
-41 37 -35 43 -44 33 -59 -9 -15 -8 -17 9 -13 12 3 18 11 15 19 -3 7 -1 16 5
20 7 4 5 12 -5 23 -21 24 -8 36 44 39 32 2 48 -2 57 -14 10 -14 13 -14 30 3
22 22 72 17 103 -9 23 -20 27 -68 6 -68 -17 0 -32 -53 -17 -58 16 -5 13 -42
-3 -48 -15 -6 -29 -40 -27 -64 1 -10 -1 -11 -6 -3 -11 16 -63 -30 -63 -57 0
-21 26 -28 32 -9 3 9 11 8 28 -2 l25 -14 -32 -3 c-18 -2 -46 -2 -62 0 l-29 3
23 48 c13 26 26 60 30 76 4 20 16 31 43 41 26 10 32 15 19 18 -10 2 -22 14
-27 27 -5 12 -23 30 -41 39 -32 16 -58 21 -46 10 6 -6 -16 -34 -28 -34 -3 0
-16 11 -28 24 l-22 24 -2 -25 c-1 -32 -17 -48 -35 -37 -7 5 -31 9 -53 9 -36 0
-40 3 -43 27 -2 21 0 26 11 22 7 -2 20 2 27 11 10 12 10 15 -3 15 -23 0 -36
22 -30 53 4 18 12 27 24 27 25 0 24 12 -1 28 -14 8 -20 22 -19 45 0 17 3 26 6
19 2 -6 9 -10 14 -6z m-4613 -130 c21 4 54 -20 63 -46 6 -16 14 -30 18 -30 14
0 29 23 24 36 -7 18 5 18 23 -1 14 -13 14 -16 0 -21 -9 -3 -16 -15 -16 -26 0
-12 -6 -18 -16 -16 -9 2 -21 -9 -29 -29 -14 -32 -13 -33 13 -47 15 -7 33 -11
40 -9 6 3 12 -3 12 -12 0 -11 -5 -15 -15 -11 -8 3 -26 -6 -41 -21 -32 -32 -46
-21 -48 40 -1 32 3 43 12 40 19 -8 14 11 -14 53 -21 31 -24 42 -15 56 9 14 8
18 -4 18 -9 0 -18 -7 -21 -15 -5 -11 -12 -7 -28 18 -20 29 -21 33 -7 44 13 10
19 9 29 -5 7 -9 16 -16 20 -16z m5432 6 c0 -12 3 -13 12 -4 17 17 25 15 31 -8
3 -11 12 -20 21 -20 10 0 16 -9 17 -25 2 -34 3 -38 13 -53 4 -7 6 -14 5 -15
-2 -1 -13 -7 -24 -13 -24 -13 -45 -8 -45 11 0 8 -7 11 -20 8 -14 -4 -20 -1
-18 7 2 7 -2 14 -9 17 -6 2 -13 -6 -15 -18 -4 -31 -23 -34 -48 -9 -17 17 -21
18 -26 5 -8 -20 -30 -19 -38 1 -5 14 -9 12 -26 -7 -11 -13 -19 -19 -20 -13 0
6 7 17 15 24 8 7 15 17 15 23 0 6 14 23 31 38 30 26 59 29 59 6 0 -7 4 -7 12
1 10 10 10 15 -2 23 -10 7 -11 12 -4 15 6 3 20 11 30 18 22 16 34 12 34 -12z
m-5803 -34 c7 -6 17 -7 24 -3 6 4 23 -6 39 -24 16 -17 34 -31 41 -31 7 0 2 8
-10 19 -17 15 -18 21 -8 29 8 7 18 7 27 2 8 -6 25 -10 38 -10 16 0 21 -4 15
-12 -14 -23 -12 -37 5 -31 11 5 14 2 9 -10 -4 -11 -1 -17 8 -17 8 0 15 9 15
19 0 19 18 31 56 38 15 2 25 -5 34 -24 7 -16 13 -33 12 -38 -1 -6 13 -17 32
-23 19 -7 40 -20 48 -29 11 -15 11 -16 -5 -10 -10 4 -25 7 -33 7 -8 0 -14 8
-15 18 0 14 -2 14 -8 -3 -5 -11 -6 -25 -4 -32 3 -8 -5 -11 -24 -9 -15 2 -34 4
-41 5 -10 1 -9 8 4 30 15 25 15 32 5 45 -9 11 -10 16 -2 16 18 0 12 17 -8 23
-27 7 -49 -40 -27 -57 11 -8 13 -15 6 -26 -9 -13 -13 -12 -28 8 -11 14 -24 21
-34 17 -11 -4 -17 1 -22 20 -4 14 -11 23 -16 20 -6 -4 -8 -10 -5 -15 3 -5 1
-11 -5 -15 -5 -3 -11 -18 -11 -33 -2 -24 -2 -24 -6 -4 -6 30 -19 28 -37 -5
l-15 -28 5 32 c7 34 -20 82 -45 83 -8 0 -11 3 -7 7 3 4 -8 22 -26 40 -25 25
-28 32 -13 27 11 -4 25 -11 32 -16z m696 -43 c-2 -8 -13 -17 -24 -20 -17 -6
-24 -23 -20 -47 0 -5 -3 -8 -9 -8 -5 0 -10 6 -10 13 0 7 -5 4 -11 -5 -7 -13
-6 -24 5 -40 10 -16 13 -38 9 -70 -5 -47 -6 -47 -29 -31 -21 13 -24 13 -24 0
0 -27 23 -35 58 -21 29 13 32 18 32 59 0 25 5 45 10 45 6 0 10 -6 10 -14 0
-19 25 -27 40 -13 10 9 11 9 5 -2 -5 -9 -4 -12 3 -7 7 4 12 14 12 22 0 8 5 14
10 14 6 0 10 -9 10 -20 0 -25 16 -26 29 -2 9 16 10 16 17 -2 4 -10 3 -26 -2
-34 -15 -23 16 -81 43 -82 12 0 25 6 29 13 4 6 3 9 -1 4 -5 -4 -19 2 -31 14
-19 17 -21 26 -13 46 6 18 6 30 -2 39 -7 8 -9 18 -5 22 15 14 35 -29 26 -53
-11 -28 9 -52 27 -34 16 16 33 2 33 -28 0 -21 4 -24 22 -20 12 4 28 1 35 -5 9
-7 13 -7 13 0 0 6 -4 14 -10 17 -5 3 -10 11 -10 17 0 6 6 5 16 -2 13 -11 19
-9 42 16 15 17 35 33 43 36 24 9 30 79 10 96 -14 11 -12 12 14 7 17 -4 40 -7
53 -7 20 0 23 -4 18 -23 -5 -18 -1 -24 17 -29 21 -7 22 -7 2 -15 -11 -5 -27
-20 -34 -35 -16 -30 -31 -34 -31 -9 0 13 -3 14 -12 5 -7 -7 -20 -12 -30 -12
-10 0 -18 -7 -18 -16 0 -9 -5 -12 -12 -8 -7 3 4 -8 26 -26 32 -28 66 -82 66
-106 0 -3 -12 -3 -26 0 -17 5 -23 3 -19 -4 3 -5 -2 -10 -12 -11 -10 0 -28 -2
-40 -3 -15 -2 -25 4 -28 15 -4 11 -12 16 -21 12 -7 -3 -14 0 -14 7 0 6 -5 8
-11 4 -7 -4 -7 -9 -2 -13 5 -3 12 -13 15 -22 5 -12 0 -16 -18 -16 -23 0 -33
12 -16 19 5 2 7 19 5 38 -5 35 -5 35 -53 36 -27 0 -47 -3 -44 -8 3 -4 0 -8 -5
-8 -6 0 -11 9 -11 20 0 11 -7 20 -15 20 -8 0 -15 5 -15 10 0 6 -4 10 -9 10 -5
0 -2 -22 7 -48 14 -42 20 -49 42 -48 17 1 25 6 24 19 -2 20 -2 20 29 6 18 -8
23 -18 23 -45 -1 -19 -5 -34 -9 -34 -4 0 -5 -15 -2 -34 6 -31 4 -34 -24 -44
-17 -6 -34 -19 -38 -29 -4 -10 -12 -22 -20 -26 -7 -4 -17 -17 -23 -27 -8 -16
-8 -18 4 -14 11 4 13 0 9 -18 -6 -21 -5 -22 10 -9 15 11 17 11 17 -2 0 -10 6
-13 20 -10 25 7 25 12 3 29 -17 13 -17 13 0 14 9 0 17 -4 17 -10 0 -5 7 -10
16 -10 8 0 12 -5 9 -10 -3 -6 1 -13 10 -16 26 -10 28 3 5 26 -11 11 -18 25
-15 31 4 5 15 -1 25 -13 11 -13 19 -18 20 -12 0 7 15 15 34 18 35 7 46 24 38
58 -2 10 -9 15 -14 11 -6 -3 -9 0 -6 8 7 22 35 22 41 -1 3 -11 0 -20 -6 -20
-7 0 -7 -4 2 -12 10 -11 15 -9 28 7 8 11 19 32 25 47 6 17 15 25 23 21 11 -4
13 3 10 28 -3 22 2 40 12 51 13 14 14 21 5 30 -16 16 -15 31 0 22 7 -4 2 7
-11 25 -13 18 -22 33 -20 34 2 1 14 7 25 14 17 9 26 9 38 0 19 -14 12 -47 -10
-47 -8 0 -11 -6 -8 -15 4 -8 13 -15 21 -15 14 0 43 -23 43 -34 0 -3 -11 -6
-25 -6 l-26 0 23 -41 c18 -33 20 -43 9 -46 -9 -4 -10 -8 -3 -12 6 -4 9 -16 6
-28 -5 -19 -10 -20 -31 -12 -21 8 -24 7 -19 -7 3 -8 -1 -23 -10 -31 -8 -9 -12
-19 -7 -22 5 -3 9 -18 8 -32 0 -21 -4 -25 -20 -21 -11 3 -29 12 -40 20 -19 13
-18 14 15 8 31 -5 33 -4 18 8 -10 7 -14 17 -10 22 4 4 -1 2 -11 -5 -15 -12
-17 -12 -11 5 11 31 24 43 40 37 21 -8 17 10 -6 25 -17 10 -20 9 -26 -13 -3
-13 -15 -27 -25 -30 -11 -4 -19 -12 -18 -18 3 -28 -3 -38 -40 -57 -41 -21 -47
-43 -20 -76 9 -11 9 -14 -1 -14 -7 0 -10 -8 -7 -20 3 -11 2 -22 -3 -25 -4 -2
-8 10 -8 28 0 49 -1 50 -17 37 -11 -9 -12 -16 -5 -25 12 -15 -19 -17 -38 -2
-7 6 -12 6 -11 1 0 -5 -2 -19 -6 -32 -8 -23 -8 -23 -22 6 -11 22 -20 28 -34
25 -23 -6 -23 -10 -4 -29 19 -19 20 -61 1 -61 -7 0 -11 7 -9 17 3 9 -6 29 -19
45 l-24 27 -1 -38 c-1 -21 -6 -40 -12 -42 -6 -2 -11 -15 -11 -28 0 -13 -4 -24
-10 -24 -5 0 -7 6 -4 14 3 7 -1 20 -9 27 -7 8 -12 20 -9 28 3 8 0 11 -5 8 -6
-4 -24 -2 -42 3 -37 10 -41 -1 -6 -20 14 -7 25 -17 25 -22 0 -5 -11 -1 -25 8
-15 10 -25 12 -25 5 0 -6 6 -11 13 -11 6 0 2 -8 -9 -18 -21 -16 -39 -82 -23
-82 4 0 16 -3 26 -6 13 -4 14 -3 5 3 -7 5 -10 17 -6 26 8 23 27 22 20 0 -7
-24 8 -47 26 -40 8 3 20 -3 26 -13 9 -14 8 -19 -4 -24 -9 -3 -12 -1 -9 4 3 6
1 10 -4 10 -18 0 -26 -5 -24 -12 2 -4 -4 -5 -13 -1 -11 4 -12 8 -4 13 8 5 0
11 -20 18 -29 11 -31 10 -25 -11 4 -17 2 -15 -10 6 -14 25 -15 34 -4 60 10 24
10 32 1 35 -7 2 -12 11 -13 20 0 10 -3 12 -5 6 -3 -8 -16 -9 -41 -4 -19 5 -41
6 -48 4 -14 -6 -27 43 -13 52 4 3 6 9 3 14 -8 13 32 3 56 -13 13 -9 16 -17 10
-22 -19 -11 -12 -26 12 -23 12 2 21 9 20 16 -2 6 7 12 18 12 18 0 19 -2 9 -15
-15 -18 1 -42 20 -30 8 5 8 10 -1 21 -6 8 -8 14 -4 14 4 0 2 7 -5 15 -7 9 -8
15 -2 15 14 0 5 30 -18 60 -17 21 -20 22 -20 7 0 -19 -35 -21 -35 -2 0 6 -5
18 -11 29 -8 13 -13 15 -19 7 -5 -9 -10 -9 -20 -1 -10 8 -15 8 -20 0 -5 -8
-13 -6 -26 6 -19 17 -20 17 -13 -1 7 -17 6 -18 -8 -5 -9 8 -14 18 -11 23 2 4
-2 7 -9 7 -7 0 -22 8 -33 16 -19 15 -18 16 15 9 31 -7 33 -6 21 9 -17 21 -16
22 37 30 34 5 42 3 42 -9 0 -9 -10 -20 -22 -25 -22 -8 -22 -9 5 -9 16 -1 26
-5 23 -10 -6 -9 34 -24 42 -16 3 3 -6 13 -18 23 -16 13 -20 21 -12 26 7 4 15
0 18 -8 10 -25 26 -7 20 22 -6 29 8 61 21 49 4 -5 1 -12 -7 -17 -12 -7 -12
-10 4 -16 13 -5 16 -13 11 -33 -4 -14 -3 -23 1 -19 3 4 16 3 26 -3 15 -8 17
-14 9 -22 -13 -13 -14 -27 -2 -27 5 0 12 11 15 24 3 13 9 32 13 42 5 13 3 15
-7 9 -8 -5 -11 -4 -7 2 4 6 0 16 -8 23 -19 16 -19 27 0 27 8 0 15 -6 15 -12 0
-7 9 -20 19 -29 18 -17 20 -16 26 3 8 27 -4 48 -17 30 -8 -11 -9 -10 -5 2 3 9
0 22 -6 28 -8 8 -7 11 5 11 18 0 34 52 22 71 -5 8 -2 10 8 7 8 -4 20 2 27 14
11 18 10 23 -15 43 -16 13 -35 21 -44 18 -10 -3 -11 -2 -4 4 15 11 26 91 14
98 -16 10 -93 -18 -97 -35 -3 -12 -12 -16 -30 -12 -21 4 -24 2 -20 -14 16 -55
18 -86 7 -99 -7 -8 -9 -23 -6 -32 6 -15 5 -16 -5 -5 -18 17 -32 15 -25 -3 6
-17 -2 -45 -14 -45 -4 0 -10 9 -13 20 -3 11 -1 18 4 14 5 -3 9 11 9 32 0 31 2
35 15 24 26 -22 26 -6 0 23 -15 16 -25 37 -24 54 l1 28 7 -30 c5 -26 30 -44
31 -22 2 28 -15 80 -28 85 -13 5 -12 7 4 13 22 7 47 -8 38 -23 -5 -7 -1 -7 12
0 12 7 19 23 20 51 2 39 -9 56 -19 29 -2 -7 -7 -10 -11 -6 -4 3 -3 16 4 28 15
27 4 60 -20 60 -25 0 -36 19 -20 33 10 9 11 9 6 0 -10 -18 2 -16 20 2 25 24
31 18 38 -39 5 -34 14 -60 27 -72 18 -16 19 -16 19 0 0 9 -6 29 -14 44 -7 15
-17 38 -21 52 -7 22 -6 23 9 11 14 -12 16 -11 16 3 0 9 -6 16 -14 16 -7 0 -16
9 -19 20 -6 24 1 25 24 4 14 -13 20 -13 38 -2 12 7 21 18 21 23 0 17 21 34 36
28 7 -2 10 -11 7 -18z m653 -29 c-7 -30 9 -55 26 -38 9 9 9 15 0 24 -19 19
-14 29 8 16 14 -9 19 -20 15 -35 -4 -17 -1 -20 16 -16 11 3 26 14 32 24 15 24
75 26 83 4 4 -8 13 -15 21 -15 9 0 13 -6 9 -15 -4 -11 1 -15 18 -15 13 0 29
-7 36 -15 10 -13 9 -15 -9 -15 -11 0 -21 -5 -21 -11 0 -6 -7 -9 -15 -5 -10 3
-15 -1 -15 -12 0 -14 -2 -15 -9 -2 -6 8 -8 17 -5 21 8 13 -48 41 -71 35 -58
-15 -25 -95 36 -88 4 1 6 -4 6 -11 -1 -30 4 -47 13 -47 5 0 7 7 4 15 -4 8 -3
22 0 31 5 13 9 14 21 4 11 -9 22 -9 45 -2 32 12 40 2 18 -23 -7 -8 -19 -21
-26 -30 -7 -8 -24 -15 -38 -15 -14 0 -22 -4 -19 -10 11 -17 -7 -11 -21 8 -12
15 -15 15 -24 2 -6 -10 -10 -11 -10 -2 0 6 -7 12 -16 12 -11 0 -14 5 -10 16 4
9 0 24 -8 33 -16 18 -16 17 -16 66 0 24 -5 35 -15 35 -8 0 -15 -7 -15 -16 0
-9 -8 -23 -17 -30 -17 -13 -16 -16 15 -42 26 -23 32 -37 34 -71 1 -36 4 -42
20 -38 15 4 17 1 11 -21 -3 -15 -10 -30 -16 -33 -5 -4 -6 -20 -3 -36 5 -23 2
-33 -18 -50 -23 -20 -36 -21 -36 -1 0 5 4 7 8 4 5 -3 15 6 22 19 12 22 11 27
-6 40 -25 19 -54 19 -54 1 0 -8 -4 -17 -9 -20 -13 -9 -11 68 2 77 9 5 8 11 -4
20 -34 26 -27 97 10 97 18 0 13 15 -14 40 -29 28 -46 19 -20 -10 16 -18 16
-20 2 -20 -18 0 -40 33 -30 44 4 4 8 17 10 29 1 12 5 34 8 50 3 19 0 27 -9 27
-8 0 -16 -6 -19 -12 -3 -10 -7 -10 -19 0 -19 15 -46 6 -50 -16 -3 -14 -6 -13
-16 6 -11 20 -10 22 8 22 11 0 20 4 20 9 0 13 37 20 47 10 6 -6 16 -2 27 10
23 25 60 17 52 -13z m5174 -153 c0 -41 25 -68 60 -69 48 -2 70 5 70 21 0 13
29 35 45 35 4 0 -2 -12 -13 -27 -24 -35 -35 -70 -24 -76 13 -9 35 9 28 22 -9
15 36 15 51 0 6 -6 9 -18 6 -25 -3 -8 1 -14 8 -14 10 0 10 -3 1 -12 -8 -8 -15
-8 -27 2 -13 11 -15 9 -15 -13 l0 -25 -42 20 c-35 17 -47 18 -77 9 -20 -5 -62
-12 -94 -14 -36 -2 -64 -10 -74 -20 -15 -15 -14 -16 19 -11 29 5 38 3 47 -14
6 -10 8 -22 4 -25 -3 -4 2 -9 11 -13 25 -10 19 -31 -14 -50 -29 -18 -48 -44
-31 -44 5 0 14 7 21 15 7 8 18 15 25 15 7 0 18 7 25 15 7 8 19 15 28 15 24 0
51 30 45 48 -5 14 -3 14 16 -2 15 -14 20 -16 16 -5 -3 9 -1 26 4 40 9 23 10
23 10 2 1 -32 29 -44 58 -26 21 14 23 14 23 -1 0 -9 5 -16 10 -16 6 0 10 -3
10 -8 0 -4 -25 -13 -57 -21 -31 -7 -63 -20 -72 -28 -13 -14 -15 -14 -21 1 -5
15 -8 15 -27 -3 -11 -11 -24 -17 -27 -14 -3 4 -6 -4 -6 -16 0 -19 -3 -20 -21
-11 -11 7 -27 9 -36 6 -13 -6 -13 -9 2 -32 17 -26 15 -41 -4 -29 -6 3 -11 15
-11 25 0 11 -12 24 -29 31 -23 10 -27 16 -19 26 7 9 7 13 0 13 -18 0 -21 -27
-4 -51 14 -21 14 -22 -1 -16 -8 3 -17 2 -19 -3 -2 -5 -12 -7 -24 -4 -15 4 -20
14 -21 40 -1 24 3 34 14 34 8 0 11 -5 8 -12 -4 -7 6 1 22 18 32 36 77 56 67
30 -5 -12 0 -16 20 -16 35 0 32 11 -10 38 -43 27 -54 28 -55 5 0 -14 -2 -15
-6 -3 -3 8 -14 25 -24 38 -20 26 -15 52 10 52 9 0 22 10 30 21 11 19 11 21 -3
16 -17 -7 -22 8 -6 18 6 3 10 15 10 26 0 26 22 20 35 -8 5 -12 22 -24 38 -27
25 -5 27 -8 17 -21 -11 -13 -8 -14 21 -9 39 8 50 14 25 14 -11 0 -16 7 -14 18
2 11 -4 18 -19 20 -13 2 -23 10 -23 18 0 11 -6 13 -20 9 -24 -8 -24 -7 -5 39
16 38 35 48 35 19z m-4270 -38 c13 -14 29 -25 37 -25 7 0 13 -4 13 -10 0 -5 6
-10 13 -10 15 0 48 -36 40 -44 -4 -3 3 -6 14 -6 11 0 31 -10 44 -22 14 -13 36
-28 49 -35 24 -11 24 -12 -8 -9 -18 2 -35 0 -38 -5 -3 -5 -14 -9 -25 -9 -12 0
-19 -7 -19 -20 0 -11 -4 -20 -10 -20 -5 0 -10 5 -10 11 0 6 -7 17 -15 25 -8 9
-15 12 -15 7 0 -5 5 -14 11 -20 6 -6 7 -22 3 -38 l-7 -28 -13 24 c-7 13 -13
32 -14 41 0 9 -5 20 -12 24 -7 4 -8 3 -4 -4 8 -13 -23 -31 -41 -25 -23 8 -14
25 9 18 17 -6 20 -4 15 9 -4 10 -3 14 2 11 14 -8 25 15 13 27 -14 14 -112 22
-112 9 0 -5 5 -13 10 -16 6 -3 10 -15 10 -26 0 -10 5 -19 10 -19 6 0 10 -9 10
-20 0 -12 -5 -17 -14 -14 -10 4 -12 -2 -9 -20 4 -20 9 -24 22 -17 12 7 22 3
38 -15 12 -13 17 -26 13 -29 -14 -9 0 -34 21 -40 11 -4 16 -11 13 -18 -4 -7
-3 -9 1 -4 10 9 45 -21 45 -40 0 -7 10 -17 22 -22 15 -5 17 -9 7 -13 -8 -3
-25 -1 -39 4 -20 7 -22 11 -10 18 9 6 10 10 3 10 -19 0 -26 -20 -12 -36 6 -8
10 -17 7 -20 -3 -2 -13 11 -22 31 -9 19 -21 36 -26 36 -6 1 -14 3 -20 4 -5 1
-13 3 -18 4 -4 0 -13 10 -19 20 -10 16 -9 18 8 14 14 -4 19 0 19 16 0 24 -28
29 -48 9 -9 -9 -12 -8 -12 5 0 9 5 17 11 17 11 0 39 24 39 34 0 3 -7 6 -15 6
-8 0 -15 -4 -15 -9 0 -5 -7 -12 -15 -15 -11 -4 -15 0 -13 12 2 12 -4 17 -22
17 -22 0 -25 -4 -26 -37 -1 -28 3 -39 18 -44 10 -3 15 -10 12 -16 -4 -6 -3 -9
2 -6 12 7 54 -9 54 -20 0 -5 -12 -7 -27 -5 l-28 4 28 -16 c16 -9 27 -19 24
-22 -8 -7 -48 17 -70 41 l-18 21 7 -25 c9 -33 39 -61 58 -54 9 4 18 0 22 -9 3
-9 13 -13 25 -10 14 4 18 1 13 -10 -5 -15 28 -33 52 -29 18 4 24 -25 9 -38 -8
-6 -11 -18 -9 -25 3 -7 -2 -25 -12 -40 -16 -25 -19 -26 -31 -10 -13 19 -8 39
8 30 5 -4 12 2 15 12 3 10 10 26 15 37 7 12 7 16 0 12 -6 -4 -27 4 -48 18 -43
28 -89 44 -79 28 3 -6 20 -13 36 -17 35 -8 35 -8 14 -40 l-16 -25 28 15 c38
19 52 19 33 -1 -9 -8 -39 -17 -67 -19 -29 -2 -56 -6 -61 -10 -5 -3 -13 0 -17
6 -4 7 -3 10 2 6 12 -7 74 19 74 33 0 5 -5 10 -11 10 -5 0 -8 4 -5 9 3 5 -1
11 -9 15 -11 4 -15 -1 -15 -18 0 -34 -11 -39 -36 -15 l-23 22 22 17 c22 18 22
18 -16 17 -24 -1 -37 -6 -37 -15 0 -7 -4 -11 -9 -8 -4 3 -6 17 -3 31 3 18 -2
32 -17 46 -12 11 -19 24 -16 30 4 5 -1 9 -9 9 -18 0 -19 6 -6 35 7 16 9 16 9
4 1 -21 27 -31 55 -24 20 6 20 6 -1 -14 -27 -22 -29 -31 -9 -31 8 0 16 -10 18
-22 2 -11 11 -22 21 -24 19 -3 15 9 -16 44 -26 28 -8 29 21 1 l23 -20 -7 28
c-4 15 -11 30 -16 31 -4 2 -8 10 -8 18 0 16 -16 19 -25 4 -7 -12 -25 -4 -25
11 0 5 9 9 20 9 17 0 19 3 10 19 -16 30 -12 36 10 16 18 -16 20 -16 26 -1 3 9
4 25 1 36 -3 13 0 20 9 20 8 0 14 4 14 9 0 13 -92 6 -119 -8 -25 -14 -44 -14
-36 -1 3 6 15 10 26 10 10 0 19 7 19 15 0 9 7 18 15 21 19 8 20 44 1 44 -8 0
-22 3 -30 6 -13 5 -15 2 -9 -12 6 -18 6 -18 -15 0 -26 22 -21 33 25 52 21 9
31 19 27 27 -5 9 -4 9 7 0 7 -7 18 -13 24 -13 5 0 4 4 -4 9 -11 7 -6 17 24 45
21 20 40 36 42 36 2 0 2 -12 1 -27 -2 -19 2 -28 15 -31 19 -4 37 30 19 36 -19
6 -14 22 8 22 11 0 20 -4 20 -10 0 -5 5 -10 10 -10 6 0 10 9 10 20 0 27 12 25
40 -5z m3094 0 c-4 -9 0 -15 10 -15 9 0 16 -7 16 -15 0 -17 16 -20 25 -5 7 12
35 13 35 2 0 -5 -9 -18 -20 -30 -11 -12 -20 -26 -20 -33 0 -7 -10 -9 -24 -7
-33 7 -55 -28 -29 -48 17 -13 16 -14 -11 -10 -27 5 -27 4 -12 -13 13 -15 14
-22 3 -44 -17 -37 -27 -34 -27 8 0 19 -4 35 -8 35 -4 0 -8 -24 -8 -54 1 -30
-2 -57 -5 -60 -3 -4 -19 0 -34 8 -15 8 -35 12 -43 8 -13 -5 -14 -6 -1 -10 40
-13 23 -58 -19 -47 -35 9 -72 35 -72 51 0 8 11 19 25 24 14 5 28 17 32 26 3 8
16 20 29 25 27 10 32 29 8 29 -9 0 -14 6 -12 13 6 16 86 27 92 13 8 -20 26 18
26 57 0 38 13 50 24 21 5 -14 8 -14 23 2 16 16 16 18 -5 32 -31 21 -29 39 5
51 1 1 0 -6 -3 -14z m-5079 -102 c4 -25 9 -32 15 -24 4 8 13 10 19 7 6 -4 11
-2 11 5 0 8 5 8 16 -2 15 -12 13 -15 -11 -35 -15 -12 -23 -24 -17 -28 5 -3 12
1 16 9 11 30 91 5 91 -28 0 -8 13 -11 35 -9 l35 2 -27 -15 c-30 -17 -36 -27
-15 -22 6 1 12 -6 12 -15 0 -30 22 -44 46 -30 11 7 25 10 31 6 13 -8 -29 -33
-82 -50 -19 -6 -34 -15 -33 -20 1 -6 -11 -8 -28 -6 -16 2 -29 9 -29 14 0 5 4
7 9 3 11 -6 16 1 25 37 5 21 2 28 -13 33 -11 3 -25 19 -32 34 -9 20 -18 27
-31 23 -13 -3 -18 2 -19 17 -3 42 -4 46 -20 49 -24 5 -32 -26 -8 -33 10 -4 19
-10 19 -15 0 -9 -31 -24 -44 -21 -4 1 -14 -6 -21 -16 -11 -14 -10 -19 4 -30
15 -11 14 -12 -2 -13 -13 0 -17 -5 -12 -19 3 -11 2 -22 -3 -25 -8 -5 -18 29
-28 102 -1 12 2 20 7 17 5 -4 9 -14 10 -23 0 -14 2 -13 9 3 4 11 4 24 -1 30
-14 14 -11 31 3 17 21 -21 30 -13 23 18 -5 24 -4 29 9 24 12 -5 14 0 12 23 -3
15 -8 37 -12 48 -7 17 -6 18 8 7 9 -7 19 -29 23 -49z m4812 2 l12 -20 15 20
c12 17 18 18 34 8 13 -8 23 -8 29 -2 7 7 22 7 44 1 37 -10 35 -12 -48 -36 -28
-8 -62 -12 -75 -9 l-23 5 22 -20 c12 -11 19 -22 16 -26 -4 -3 1 -6 11 -6 9 0
15 4 11 9 -5 10 35 44 43 36 2 -2 -10 -25 -27 -50 -17 -25 -31 -50 -31 -54 0
-5 -9 -11 -20 -14 -13 -3 -20 0 -20 9 0 8 -6 11 -17 7 -15 -5 -16 -3 -5 8 16
18 15 29 -3 29 -8 0 -15 4 -15 10 0 5 7 7 15 4 22 -9 18 9 -5 24 -11 7 -20 18
-20 25 1 7 6 5 14 -5 17 -22 40 -24 32 -2 -3 9 -6 21 -6 28 0 8 -10 11 -30 8
-23 -3 -30 0 -30 12 0 9 8 20 18 23 9 4 21 14 26 22 9 14 11 13 15 -4 4 -11
11 -29 18 -40z m-2492 -150 c8 -23 18 -55 20 -71 2 -16 9 -47 14 -69 11 -42 6
-75 -10 -75 -5 0 -9 5 -9 10 0 6 -9 10 -20 10 -11 0 -20 -4 -20 -9 0 -9 31
-38 37 -33 1 1 10 2 18 2 23 0 18 -16 -6 -17 -26 -2 -61 -32 -52 -46 3 -5 0
-8 -8 -5 -8 3 -15 10 -15 16 -3 25 -4 25 -16 9 -11 -14 -15 -14 -32 -2 -19 14
-18 15 4 23 19 7 21 10 7 15 -21 8 -22 37 -2 37 9 0 12 -6 9 -15 -4 -8 -2 -15
4 -15 12 0 37 58 28 67 -3 3 -1 11 4 18 13 16 -16 55 -41 55 -11 0 -19 -7 -19
-16 0 -11 6 -15 19 -11 34 8 38 -44 5 -57 -9 -4 -14 2 -14 16 0 19 -4 17 -35
-16 -36 -40 -40 -47 -27 -45 22 4 32 -3 32 -22 0 -17 -3 -19 -14 -10 -12 10
-13 9 -9 -8 3 -12 16 -21 32 -24 24 -4 23 -4 -5 -6 -25 -1 -33 4 -38 22 -6 21
-7 21 -20 4 -12 -16 -12 -23 0 -52 20 -48 17 -65 -6 -35 -13 18 -15 27 -7 32
9 6 9 8 0 8 -7 0 -17 -8 -23 -17 -9 -15 -10 -12 -7 15 3 26 -1 37 -19 48 -12
9 -25 23 -29 32 -5 13 -3 14 6 5 14 -14 39 -6 39 14 0 10 6 12 21 8 19 -6 21
-4 15 18 -3 15 -1 29 6 33 7 4 8 3 4 -4 -4 -7 -2 -12 3 -12 6 0 11 9 11 19 0
11 5 23 10 26 7 4 9 -3 6 -19 -6 -33 10 -43 21 -14 4 13 8 28 8 33 1 6 5 21 9
34 6 16 4 26 -5 32 -10 6 -8 9 9 9 13 0 22 6 22 16 0 11 6 15 20 11 11 -3 18
-1 15 3 -3 5 4 15 15 23 l21 15 -23 18 c-39 31 -45 50 -10 29 19 -12 37 -34
47 -60z m-2284 6 c-8 -5 -10 -14 -6 -21 5 -9 4 -11 -3 -6 -7 4 -12 3 -12 -2 0
-6 7 -12 15 -16 9 -3 15 0 15 9 0 8 5 15 11 15 6 0 9 -9 6 -20 -3 -10 0 -18 5
-17 6 1 13 -4 16 -12 3 -9 0 -11 -7 -6 -8 4 -11 2 -10 -6 1 -8 -1 -22 -5 -31
-6 -14 -11 -15 -21 -5 -7 7 -11 15 -8 20 7 11 -7 47 -19 47 -20 0 -89 -83 -82
-99 5 -13 7 -13 11 -2 3 7 14 22 23 31 26 26 35 -1 10 -30 -10 -12 -16 -28
-13 -36 6 -17 -1 -18 -28 -4 -15 8 -19 7 -19 -5 0 -8 9 -15 19 -15 11 0 23 -4
26 -10 3 -5 11 -10 18 -10 8 0 8 3 0 11 -16 16 -3 57 19 62 14 4 19 11 15 21
-10 25 16 19 37 -8 10 -14 24 -22 31 -20 7 3 15 -2 19 -12 5 -14 4 -15 -8 -5
-11 10 -16 8 -24 -6 -6 -10 -14 -17 -19 -15 -4 2 -9 -1 -11 -7 -5 -14 19 -14
52 -2 16 7 26 19 28 37 3 27 4 27 21 10 14 -14 15 -21 6 -32 -6 -8 -14 -12
-18 -11 -3 2 -16 -7 -28 -20 -12 -13 -19 -23 -15 -23 4 0 8 -9 9 -20 2 -27 -8
-25 -41 5 -37 34 -54 31 -47 -8 1 -5 -3 -6 -9 -2 -5 3 -10 1 -10 -5 0 -6 -5
-8 -11 -5 -6 4 -8 13 -5 21 6 15 -30 44 -55 44 -12 0 -15 7 -12 24 4 18 -3 32
-23 51 l-28 26 -17 -22 c-13 -18 -17 -19 -22 -6 -3 9 1 21 9 27 8 7 13 20 13
29 -1 14 -2 14 -6 -1 -6 -22 -32 -31 -49 -17 -11 9 -14 8 -14 -2 0 -8 -9 -25
-19 -38 -10 -13 -16 -32 -14 -41 3 -9 -3 -25 -13 -34 -16 -17 -18 -17 -30 6
-20 35 -17 50 6 43 24 -7 26 7 5 25 -8 7 -15 19 -15 27 0 8 -6 13 -13 10 -7
-3 -13 3 -14 14 -2 18 -1 18 20 -1 21 -20 21 -20 29 -1 4 11 19 28 33 37 14 9
24 22 21 29 -3 8 16 12 62 13 40 0 59 -2 48 -7 -19 -7 -18 -8 3 -23 13 -9 20
-21 17 -27 -4 -5 -2 -12 3 -15 5 -3 7 -16 5 -29 -2 -12 -1 -15 2 -7 4 8 23 31
43 50 20 19 46 47 58 63 13 15 29 27 35 27 10 0 9 -3 -1 -9z m4719 -46 c-20
-24 -4 -34 36 -23 29 8 40 7 52 -6 14 -14 14 -16 -1 -22 -21 -8 -22 -50 -1
-62 14 -8 14 -10 -1 -26 -10 -9 -20 -14 -23 -11 -4 3 0 10 7 14 11 7 9 11 -7
20 -13 7 -18 17 -15 29 2 11 -1 22 -9 24 -8 4 -14 -1 -15 -11 -1 -9 -4 -26 -8
-38 -6 -18 -4 -21 14 -16 21 5 29 -11 11 -22 -6 -4 -8 -11 -5 -16 4 -5 2 -9
-4 -9 -5 0 -13 -9 -16 -20 -3 -11 -12 -20 -18 -20 -7 0 -20 -9 -30 -20 -9 -11
-24 -20 -34 -20 -15 0 -14 -2 3 -14 10 -8 16 -18 11 -22 -4 -4 -16 2 -27 14
-12 12 -16 22 -10 22 5 0 10 16 10 35 0 26 3 33 15 29 20 -8 19 7 -1 32 -13
15 -15 16 -10 2 3 -12 1 -15 -10 -11 -16 6 -18 19 -4 28 12 7 4 25 -11 25 -5
0 -9 -7 -9 -15 0 -8 -4 -15 -10 -15 -5 0 -10 7 -10 15 0 8 -8 15 -18 15 -26 0
-33 -10 -22 -31 8 -14 5 -23 -14 -42 -13 -13 -27 -38 -31 -55 -3 -18 -12 -35
-18 -38 -7 -4 -9 -4 -5 1 4 4 -1 15 -12 24 -15 13 -17 23 -10 56 4 22 8 32 9
22 1 -13 8 -17 28 -14 33 4 48 46 27 74 -19 26 -17 35 7 28 16 -5 20 -3 18 12
-2 10 1 24 5 32 7 11 5 13 -8 8 -11 -5 -16 -3 -14 5 2 6 14 15 27 19 20 8 22
6 16 -13 -6 -18 -4 -20 14 -15 15 3 21 1 18 -6 -2 -7 -13 -13 -25 -15 -12 -2
-22 -10 -22 -18 0 -19 29 -18 36 1 4 8 11 15 16 15 6 0 8 -7 4 -15 -3 -8 -1
-15 4 -15 5 0 10 15 12 33 l4 32 13 -27 c11 -21 17 -25 27 -17 7 6 13 18 13
27 0 14 4 40 10 60 1 1 8 2 17 2 13 0 14 -3 4 -15z m289 -50 c5 3 16 -4 24
-15 7 -11 17 -17 20 -13 4 3 7 1 7 -5 0 -15 -36 -16 -45 -2 -3 6 -21 10 -38
10 l-32 -1 25 -15 25 -15 -33 5 c-22 4 -31 2 -26 -5 4 -7 -1 -7 -16 1 -19 10
-21 9 -18 -7 2 -10 10 -19 18 -19 8 -1 21 -2 28 -3 17 -1 15 -31 -3 -31 -8 0
-12 -6 -9 -14 4 -11 -7 -14 -55 -13 -56 2 -59 3 -44 19 9 10 19 15 24 12 5 -2
7 8 6 24 -2 32 -22 58 -32 42 -9 -14 -35 -12 -32 2 5 25 70 65 66 41 -3 -21 2
-34 11 -28 6 4 8 11 5 16 -4 5 5 4 20 -3 20 -9 28 -9 38 1 9 10 8 11 -5 6 -10
-4 -18 -3 -18 2 0 18 11 21 46 12 19 -6 38 -7 43 -4z m-2342 -21 c26 -16 37
-18 28 -4 -4 6 17 10 57 10 44 0 59 -3 48 -10 -8 -5 -10 -10 -4 -10 6 0 17 7
24 15 13 16 40 21 40 7 0 -12 -53 -40 -67 -35 -9 3 -9 -2 0 -22 13 -28 43 -30
41 -2 -1 9 2 14 7 11 5 -3 9 2 9 10 0 9 8 16 18 16 9 0 27 3 40 6 18 5 22 2
22 -15 0 -11 5 -21 10 -21 6 0 10 7 10 15 0 8 4 15 10 15 5 0 7 -7 4 -15 -4
-10 0 -15 12 -16 11 0 31 -2 47 -3 16 -1 27 3 27 10 0 8 16 12 48 11 26 -1 67
3 91 7 36 8 43 7 37 -5 -4 -8 0 -5 8 5 17 21 18 21 35 -12 13 -24 9 -36 -12
-37 -7 -1 -32 -7 -56 -14 -23 -7 -48 -10 -55 -8 -16 6 -89 -60 -81 -73 9 -15
25 -12 25 5 0 8 4 15 10 15 5 0 9 -11 8 -25 -2 -17 -7 -24 -16 -20 -8 3 -20 5
-28 5 -9 0 -13 4 -9 9 3 5 0 13 -5 16 -7 5 -5 12 7 21 10 8 14 14 8 13 -27 -4
-37 3 -47 31 -8 23 -13 28 -23 20 -7 -6 -35 -9 -65 -6 -53 5 -99 -6 -112 -27
-6 -9 -8 -9 -8 1 0 6 -7 12 -15 12 -18 0 -35 31 -35 64 0 15 -6 26 -13 26 -22
0 -27 -11 -12 -27 8 -8 15 -25 15 -39 0 -14 6 -24 14 -24 21 0 30 -20 17 -33
-9 -9 -14 -8 -21 3 -7 10 -10 11 -10 3 0 -7 -5 -13 -11 -13 -5 0 -7 5 -4 10 3
6 -4 11 -17 11 -17 1 -18 3 -5 6 9 2 17 9 17 14 0 6 -9 7 -20 4 -24 -8 -25 -2
-4 19 14 15 14 16 0 16 -9 0 -16 5 -16 11 0 5 6 7 13 3 8 -5 9 -4 2 4 -5 6
-23 12 -39 14 -25 2 -31 -1 -36 -22 -8 -35 -36 -38 -44 -5 -4 14 -11 23 -15
20 -5 -3 -22 0 -37 6 -35 13 -16 29 24 21 25 -5 26 -4 12 13 -14 17 -13 18 30
11 25 -4 55 -14 67 -22z m2368 -53 c-3 -11 -1 -22 5 -26 6 -3 10 3 10 14 0 12
5 21 11 21 6 0 9 -6 6 -14 -3 -8 -1 -17 6 -20 8 -3 6 -8 -5 -16 -10 -6 -18
-18 -18 -25 0 -18 26 -20 36 -3 5 8 2 9 -10 5 -10 -4 -15 -3 -11 3 3 6 12 10
20 10 18 0 31 -60 15 -70 -8 -5 -3 -11 16 -19 l29 -11 -30 6 c-16 3 -31 10
-33 15 -2 5 -10 9 -18 9 -8 0 -13 5 -11 11 1 6 -4 14 -10 16 -7 3 -13 -2 -13
-10 0 -9 -5 -17 -11 -19 -18 -6 2 -40 22 -35 13 3 16 0 12 -11 -5 -13 -1 -14
27 -8 33 6 33 6 15 -10 -18 -14 -18 -15 -2 -10 11 3 16 2 12 -4 -4 -6 7 -10
24 -10 25 0 32 -5 37 -26 5 -18 10 -22 17 -15 14 14 30 14 22 1 -3 -5 1 -20 9
-31 11 -17 12 -26 3 -40 -15 -24 -1 -38 16 -16 11 16 12 15 13 -5 0 -13 4 -31
8 -40 5 -11 4 -18 -3 -18 -6 0 -11 9 -11 20 0 11 -4 20 -10 20 -5 0 -7 -8 -3
-17 5 -17 5 -17 -12 -1 -16 15 -19 15 -41 -10 -18 -21 -23 -23 -24 -11 0 9 7
19 15 23 31 11 13 23 -34 22 -27 -1 -47 2 -44 7 2 4 28 8 56 8 29 1 44 3 35 6
-10 2 -18 11 -18 20 0 8 6 13 13 10 6 -2 17 1 24 8 9 10 8 14 -8 18 -14 4 -23
-1 -31 -19 -9 -19 -18 -23 -44 -21 -27 2 -30 5 -23 19 5 9 6 23 3 31 -3 8 1
17 9 20 11 4 13 -2 11 -24 -5 -39 9 -37 29 5 18 38 14 46 -21 46 -14 0 -34 8
-45 18 -11 9 -17 11 -13 5 4 -8 2 -13 -7 -13 -8 0 -18 7 -21 16 -4 10 -2 13 6
8 6 -4 8 -3 5 3 -4 6 -18 8 -32 5 -21 -4 -26 -1 -23 13 4 23 -40 41 -49 20 -3
-9 1 -23 8 -32 12 -15 12 -16 -5 -10 -10 4 -25 2 -32 -4 -10 -8 -14 -8 -14 -1
0 6 8 15 17 21 16 9 16 11 -2 31 -19 22 -19 22 0 36 21 16 49 19 41 5 -12 -19
24 -19 46 0 l23 20 -28 -6 c-21 -4 -27 -3 -21 6 4 7 3 9 -4 5 -6 -3 -14 -2
-17 4 -4 7 6 10 29 8 41 -2 49 3 40 25 -5 13 -10 14 -26 6 -11 -6 -22 -8 -26
-5 -3 3 0 6 6 6 7 0 12 7 12 15 0 9 6 12 15 9 9 -4 15 0 15 10 0 9 5 16 11 16
6 0 8 -8 4 -19z m-1628 -135 c-4 -10 -12 -13 -24 -9 -15 6 -16 4 -6 -9 11 -12
10 -21 -4 -49 -11 -22 -17 -63 -19 -124 -3 -131 5 -164 60 -228 25 -30 46 -58
46 -63 0 -5 23 -35 50 -67 37 -44 50 -67 50 -90 l0 -32 -20 25 c-10 14 -22 22
-26 18 -4 -4 -1 -14 6 -23 17 -20 11 -20 -98 15 -52 17 -98 27 -101 22 -3 -5
-15 -11 -26 -15 -18 -6 -18 -5 -3 5 14 10 6 15 -50 30 -76 20 -236 16 -260 -7
-11 -10 -23 -7 -64 13 -43 21 -55 23 -84 14 -20 -6 -36 -6 -40 -1 -6 10 -65
-17 -76 -35 -4 -6 -9 -8 -12 -5 -20 20 97 79 157 79 35 0 191 93 245 147 53
53 69 64 57 41 -4 -7 7 3 24 22 17 19 31 42 31 52 0 10 7 21 15 24 8 4 15 16
15 28 0 11 14 48 31 81 17 33 40 84 51 113 10 28 24 52 29 52 6 0 7 10 4 23
-7 21 -6 21 20 -5 17 -16 25 -32 22 -42z m2790 23 c-1 -23 -7 -43 -14 -46 -7
-3 -13 -9 -13 -15 0 -5 4 -7 9 -3 5 3 12 1 16 -5 3 -5 17 -10 31 -10 14 0 23
4 20 9 -3 4 3 16 13 25 17 16 19 16 24 -4 3 -12 15 -24 26 -27 12 -3 21 -12
21 -20 0 -8 5 -11 11 -7 6 4 9 19 5 36 -5 24 -3 28 7 20 14 -12 11 -78 -3 -87
-10 -6 -60 15 -60 26 0 16 -41 20 -75 8 -37 -14 -43 -31 -24 -72 9 -20 7 -30
-13 -61 -22 -35 -45 -50 -35 -22 3 7 1 18 -5 24 -6 6 -6 12 3 17 8 5 10 4 5
-3 -4 -7 -3 -12 3 -12 23 0 31 38 16 80 -8 23 -12 46 -9 51 3 5 0 9 -6 9 -6 0
-8 5 -5 10 3 6 2 10 -3 10 -12 0 -25 31 -17 39 3 3 10 -1 14 -8 11 -18 31 -5
31 20 0 16 20 59 27 59 1 0 1 -19 0 -41z m-4496 -621 c0 -10 2 -10 6 0 8 21
21 13 28 -18 6 -26 25 -43 25 -22 0 4 11 8 25 8 22 2 24 0 13 -13 -10 -12 -9
-14 3 -13 28 4 49 0 49 -11 0 -7 -11 -8 -31 -4 -24 6 -30 4 -24 -5 5 -9 4 -11
-4 -6 -6 4 -9 11 -6 16 3 5 1 11 -5 15 -5 3 -10 -1 -10 -9 0 -9 -6 -16 -14
-16 -8 0 -22 -10 -32 -22 -11 -16 -15 -17 -11 -5 4 9 2 17 -3 17 -6 0 -10 -4
-10 -9 0 -5 -11 -8 -25 -8 -14 0 -25 3 -25 8 0 5 -5 9 -11 9 -6 0 -9 -7 -5
-15 3 -10 -1 -15 -12 -15 -14 0 -15 -2 -2 -9 8 -6 19 -7 25 -3 5 3 4 -2 -4
-11 -19 -23 -36 -21 -49 6 -7 12 -11 15 -9 7 3 -21 -37 -70 -57 -70 -26 0 -19
17 24 60 23 23 38 46 34 51 -5 8 -8 8 -13 0 -4 -6 -17 -9 -30 -6 -29 5 -37 13
-26 23 4 4 10 1 12 -5 7 -20 43 4 44 30 0 12 3 16 6 9 2 -6 10 -9 16 -5 6 4 8
0 4 -10 -7 -19 8 -33 19 -16 5 8 9 8 14 -2 6 -9 17 -5 43 18 32 28 34 32 19
47 -11 10 -12 16 -4 16 7 0 12 -6 13 -12z m4035 3 c11 9 14 8 14 -5 0 -9 -7
-16 -15 -16 -8 0 -15 -4 -15 -10 0 -14 23 -13 38 2 9 9 12 8 12 -5 0 -10 -8
-17 -18 -17 -24 0 -28 -48 -4 -57 9 -4 23 -14 30 -22 8 -9 11 -11 8 -5 -4 7 4
9 21 6 l26 -5 -27 -14 c-25 -13 -28 -12 -47 9 -18 21 -20 21 -15 3 3 -11 8
-37 11 -57 6 -33 9 -36 30 -28 19 7 29 2 61 -31 39 -40 42 -59 6 -40 -30 16
-34 14 -21 -10 9 -17 13 -19 20 -8 6 11 9 10 15 -4 3 -9 10 -17 15 -17 4 0 6
6 3 13 -3 8 6 18 21 25 34 16 38 15 31 -4 -5 -14 -4 -15 9 -4 9 7 13 20 10 29
-4 11 -1 10 13 -4 10 -11 15 -23 10 -26 -5 -3 -3 -11 5 -17 11 -9 13 -7 12 11
-2 24 13 50 25 42 4 -3 10 2 14 10 4 11 14 6 42 -20 20 -19 34 -40 31 -48 -3
-8 3 -13 14 -14 10 -1 19 2 19 8 0 5 -4 9 -10 9 -16 0 -12 17 6 24 9 4 22 2
29 -4 10 -8 15 -8 20 1 12 18 -32 37 -70 29 -5 -1 -7 2 -2 6 4 4 -1 16 -10 27
-17 19 -17 19 7 12 13 -4 30 -14 38 -21 15 -16 23 -18 21 -6 -1 4 -1 14 0 22
1 12 4 12 12 -3 5 -9 7 -22 4 -27 -11 -18 14 -10 25 8 11 16 11 16 6 0 -3 -10
-1 -18 4 -18 6 0 9 -3 9 -7 -4 -23 3 -35 15 -30 8 3 20 0 26 -8 13 -16 50 -8
50 12 0 8 4 12 9 9 5 -4 8 -17 6 -31 -1 -14 2 -28 6 -31 5 -3 3 -11 -4 -18 -6
-8 -15 -12 -19 -9 -5 2 -8 -1 -8 -6 0 -6 7 -11 15 -11 8 0 15 5 15 10 0 19 32
10 37 -10 3 -11 9 -17 14 -14 15 9 10 22 -17 48 -22 19 -26 30 -21 55 4 16 2
33 -3 36 -6 3 -10 16 -10 27 l0 22 20 -22 c11 -12 20 -35 20 -52 0 -16 5 -30
11 -30 6 0 9 -7 5 -15 -3 -8 -1 -15 5 -15 6 0 9 -7 6 -15 -8 -21 8 -28 23 -10
11 13 14 13 26 -2 12 -17 13 -16 14 5 0 23 14 30 25 12 4 -6 15 -8 25 -5 10 3
25 -1 34 -10 9 -9 16 -12 16 -7 0 5 12 7 26 4 l26 -5 -31 62 c-17 33 -28 61
-24 61 5 0 14 -14 22 -31 8 -18 22 -34 33 -37 16 -4 19 -12 17 -46 -2 -23 1
-47 5 -54 11 -19 27 -3 21 21 -5 20 -2 22 35 21 71 -2 80 -4 80 -13 0 -5 -16
-8 -35 -7 -19 2 -37 -2 -40 -8 -3 -8 -7 -7 -11 1 -3 7 -10 13 -15 13 -6 0 -6
-8 1 -19 8 -16 6 -22 -6 -29 -12 -7 -14 -14 -7 -27 7 -12 13 -14 17 -6 4 6 2
11 -5 11 -17 0 -2 13 17 16 9 1 14 -3 11 -9 -20 -54 -19 -58 7 -51 22 5 26 3
26 -15 0 -25 -15 -27 -36 -6 -9 8 -24 15 -34 15 -10 0 -20 7 -24 15 -6 17 -36
21 -36 5 0 -6 7 -13 15 -16 24 -10 18 -31 -20 -72 l-36 -37 3 30 c2 22 9 31
26 33 12 2 20 7 17 12 -3 4 -15 6 -28 3 -19 -4 -20 -3 -4 7 9 6 17 18 17 27 0
15 -2 14 -13 -2 -8 -10 -19 -15 -26 -11 -9 6 -8 13 4 26 16 18 16 18 -4 13
-12 -3 -30 -17 -41 -31 -11 -13 -20 -19 -20 -12 0 10 -3 10 -15 0 -15 -12 -35
-6 -35 11 0 5 5 9 11 9 5 0 7 -4 4 -10 -3 -5 -1 -10 4 -10 15 0 14 15 -3 29
-12 10 -17 8 -26 -10 -10 -18 -9 -24 4 -31 9 -5 14 -13 11 -19 -10 -16 -23
-10 -46 22 l-22 31 22 -7 c15 -4 21 -3 19 6 -2 8 12 21 30 30 18 9 27 19 21
21 -9 3 -7 7 5 11 9 4 15 3 11 -3 -6 -10 29 -32 39 -23 3 3 -4 21 -15 39 -11
19 -18 38 -14 44 7 12 3 12 -19 4 -12 -5 -13 -10 -5 -27 11 -19 9 -20 -38 -14
-32 4 -54 2 -62 -6 -18 -18 -13 -27 13 -27 27 0 42 -15 26 -25 -6 -3 -29 -8
-52 -10 -23 -2 -44 -9 -48 -16 -14 -21 -21 10 -8 33 10 19 13 20 16 6 2 -11
11 -16 28 -14 37 4 38 13 3 25 -24 8 -30 15 -25 28 6 14 2 13 -14 -4 -15 -17
-27 -21 -49 -17 -16 3 -32 1 -35 -5 -4 -5 -14 -7 -23 -4 -10 4 -14 2 -10 -4 4
-6 -1 -17 -10 -24 -13 -11 -17 -11 -20 -1 -3 6 -20 12 -39 12 -20 0 -34 5 -34
13 0 8 -3 7 -10 -3 -5 -8 -12 -11 -16 -7 -4 3 -2 12 4 20 8 10 6 13 -9 13 -11
0 -17 -5 -15 -12 3 -7 -3 -10 -15 -7 -10 3 -19 9 -19 14 0 5 -7 9 -15 9 -14 0
-14 4 0 33 l16 32 -25 -30 c-29 -34 -33 -55 -11 -55 8 0 15 -4 15 -10 0 -5 7
-10 15 -10 8 0 15 -4 15 -10 0 -15 -9 -12 -41 11 -16 11 -30 18 -30 15 -1 -3
-3 -10 -4 -16 -1 -5 -3 -18 -4 -27 -1 -16 -4 -15 -20 4 l-18 21 -29 -23 c-36
-30 -44 -31 -44 -5 0 22 -15 27 -26 9 -3 -6 0 -15 7 -20 11 -6 11 -11 2 -20
-8 -8 -17 -9 -25 -2 -7 5 -23 8 -35 7 -13 0 -23 3 -23 8 0 5 -5 6 -10 3 -6 -4
-8 -10 -5 -15 3 -4 -4 -6 -15 -3 -11 3 -20 11 -20 19 0 16 30 33 47 27 12 -4
38 45 29 54 -2 3 -13 0 -24 -6 -28 -15 -37 -14 -23 3 15 18 4 63 -18 76 -9 6
-11 10 -3 10 6 0 12 5 12 12 0 6 -3 9 -6 5 -3 -3 -17 -2 -30 3 -30 12 -31 -2
-2 -30 12 -11 19 -23 15 -26 -3 -3 -17 6 -31 20 -14 16 -27 23 -30 17 -9 -15
-33 -3 -39 19 -4 17 -1 18 26 13 25 -5 29 -3 24 10 -3 9 -1 18 6 21 9 5 9 7 0
12 -7 3 -13 10 -13 15 0 6 8 5 20 -1 18 -9 20 -8 21 17 1 27 1 27 13 -7 l13
-35 6 27 c8 29 -10 81 -25 72 -4 -3 -6 -8 -4 -12 2 -4 -9 -7 -25 -7 -16 0 -29
3 -29 8 0 4 9 7 19 7 11 0 21 5 23 10 2 6 13 12 26 13 12 0 22 7 22 14 0 7 7
13 15 13 11 0 12 5 5 24 -9 26 -23 160 -14 138 5 -10 9 -10 20 -1z m-833 -191
c-3 -12 1 -22 11 -26 9 -3 16 -14 16 -23 0 -10 3 -12 8 -5 5 8 13 3 26 -14 18
-24 18 -25 1 -19 -15 6 -16 5 -6 -7 10 -11 7 -19 -14 -40 -14 -14 -25 -29 -25
-33 0 -5 -8 -9 -17 -10 -76 -6 -81 -30 -8 -35 31 -1 59 -1 61 2 10 10 56 11
49 0 -3 -5 -15 -10 -25 -10 -10 0 -25 -7 -34 -15 -8 -8 -19 -15 -24 -15 -6 0
-12 -5 -14 -12 -3 -8 -14 -5 -35 10 -33 23 -68 29 -78 12 -3 -6 0 -10 7 -10 7
0 22 -8 33 -17 20 -15 20 -15 -2 -10 -13 3 -27 -1 -34 -9 -18 -22 -32 -17 -27
9 3 16 0 24 -9 24 -8 0 -12 -6 -9 -13 3 -8 -7 -12 -32 -11 -19 1 -37 -4 -39
-10 -2 -6 -13 -9 -23 -6 -17 5 -19 1 -16 -35 2 -29 -1 -43 -11 -46 -9 -4 -14
0 -12 12 4 41 0 45 -27 27 -14 -9 -29 -13 -32 -9 -4 4 -1 9 6 11 6 3 12 12 12
20 0 15 -11 15 -102 -3 -16 -3 -28 -1 -28 4 0 5 -11 7 -25 4 -15 -2 -25 0 -25
7 0 6 -7 11 -16 11 -8 0 -13 -4 -9 -9 3 -5 2 -12 -3 -14 -4 -3 -12 5 -19 18
-8 18 -8 24 1 22 6 -1 10 4 8 11 -1 7 3 22 8 33 10 18 9 19 -17 13 -37 -9 -40
-13 -23 -25 12 -9 12 -10 -3 -5 -10 3 -22 6 -27 6 -4 0 -10 10 -13 22 -6 21
-5 22 8 5 7 -11 16 -14 19 -8 10 15 -35 41 -71 41 -18 0 -33 5 -33 11 0 6 9 8
20 4 11 -4 20 -3 19 2 -4 24 3 43 16 43 8 0 15 7 15 15 0 8 4 15 9 15 4 0 6
-11 3 -25 -2 -14 -8 -22 -13 -19 -5 3 -9 -4 -9 -15 0 -22 16 -29 22 -10 3 9
32 15 85 18 6 1 14 9 17 19 3 9 4 -7 2 -37 -4 -64 2 -91 19 -91 8 0 15 -8 18
-17 4 -17 4 -17 11 -1 5 11 0 24 -13 37 -22 22 -27 41 -13 41 13 0 10 30 -2
31 -6 0 -2 4 9 9 27 12 43 12 25 0 -12 -8 -11 -10 8 -10 20 0 21 3 12 21 -6
11 -18 23 -26 26 -7 3 -11 9 -8 15 5 8 54 -39 54 -53 0 -12 65 -3 102 14 41
19 63 22 35 6 -16 -9 -15 -13 9 -45 31 -40 68 -46 77 -13 3 12 10 18 17 14 8
-5 8 -11 -1 -21 -9 -11 -8 -14 4 -14 9 0 18 8 20 18 3 10 5 6 6 -10 1 -18 7
-28 16 -28 12 0 14 4 5 19 -6 13 -7 22 0 26 5 3 7 12 3 20 -7 19 -2 19 33 0
19 -9 30 -11 33 -4 2 6 14 15 28 20 17 6 23 14 19 25 -5 13 -2 15 13 11 11 -3
22 0 24 7 7 17 -34 85 -55 92 -21 6 -24 20 -5 27 25 11 35 7 30 -13z m-1211
-92 c2 -15 11 -24 26 -26 19 -3 21 -6 11 -18 -11 -14 -2 -19 24 -15 5 1 6 -3
2 -9 -3 -5 -13 -10 -21 -10 -8 0 -14 -7 -14 -16 0 -11 6 -14 18 -10 16 6 16 5
0 -8 -19 -14 -25 -42 -8 -31 14 9 12 -8 -2 -25 -10 -11 -9 -11 7 0 45 33 55
47 49 65 -6 15 -4 16 14 6 20 -11 21 -41 1 -41 -13 0 -49 -38 -49 -51 0 -7 9
-9 23 -6 12 3 31 -1 41 -9 11 -8 16 -15 10 -15 -5 -1 7 -5 26 -10 35 -8 -20
-4 -109 7 -19 3 -37 0 -40 -5 -4 -6 -12 -6 -21 0 -11 8 -12 12 -2 16 18 7 14
23 -5 16 -12 -5 -14 -3 -8 8 7 12 6 12 -7 1 -13 -10 -17 -10 -22 3 -3 9 -2 14
2 12 15 -9 54 13 49 27 -3 8 1 17 9 20 14 5 19 51 8 80 -3 9 -15 16 -27 16
-19 0 -19 -1 -3 -19 14 -15 15 -24 6 -40 -6 -12 -15 -21 -21 -21 -5 0 -7 -11
-3 -25 7 -27 -8 -33 -36 -15 -12 8 -10 10 10 11 22 0 23 1 6 8 -18 7 -18 8 -3
14 19 7 24 37 6 37 -5 0 -7 -4 -4 -10 3 -5 2 -10 -4 -10 -5 0 -9 9 -8 19 0 11
4 18 8 15 4 -2 10 0 14 6 3 5 0 10 -7 10 -8 0 -14 8 -14 19 0 11 5 17 13 14 8
-3 13 3 14 13 0 11 3 14 6 7 2 -7 9 -13 15 -13 6 0 8 7 4 15 -3 8 -1 15 4 15
5 0 10 -10 12 -22z m428 -48 c0 -5 10 -10 23 -12 12 -2 22 -10 22 -18 1 -8 6
-14 13 -12 7 1 12 -2 12 -7 0 -5 10 -7 23 -4 12 3 19 2 15 -2 -5 -5 5 -16 21
-26 22 -13 28 -23 24 -38 -3 -12 -10 -18 -17 -14 -19 13 -58 15 -51 3 3 -5 13
-10 21 -10 24 0 16 -19 -11 -26 -19 -5 -30 0 -44 17 -18 22 -18 25 -3 31 16 6
16 7 0 7 -10 1 -32 8 -51 17 -31 15 -33 19 -33 63 1 40 4 47 19 43 9 -2 17 -8
17 -12z m-2085 -32 c-4 -18 -8 -36 -9 -39 0 -4 3 -7 8 -7 12 0 29 -32 22 -40
-4 -3 -11 -1 -17 5 -5 5 -21 8 -34 5 -20 -3 -24 -10 -24 -46 -2 -77 -3 -86
-13 -86 -6 0 -8 -9 -5 -20 3 -11 1 -18 -3 -15 -5 3 -13 -3 -19 -12 -10 -17
-12 -17 -28 3 -10 12 -28 27 -40 33 -13 7 -23 17 -23 23 0 9 3 9 12 0 17 -17
26 -15 39 9 10 19 8 20 -10 14 -27 -8 -27 6 -1 30 23 21 26 45 8 64 -11 10 -9
15 6 26 10 8 15 18 11 24 -3 6 0 11 8 11 8 0 22 9 32 20 14 15 21 17 32 9 21
-18 16 -26 -32 -49 -45 -22 -54 -33 -35 -45 6 -4 6 -15 0 -31 -6 -14 -10 -26
-10 -28 0 -1 9 -2 21 -2 16 0 19 6 17 27 -2 20 5 33 25 49 15 12 27 28 27 36
0 8 4 14 10 14 5 0 12 11 16 25 9 37 17 30 9 -7z m154 1 c12 -20 11 -21 -8
-16 -16 4 -21 0 -21 -14 0 -10 -4 -19 -9 -19 -15 0 -18 -34 -4 -60 7 -14 13
-21 13 -16 0 5 3 6 7 3 3 -4 -7 -18 -22 -31 -23 -20 -26 -28 -17 -39 7 -8 9
-17 5 -20 -3 -4 -2 -7 4 -7 16 0 23 26 10 39 -8 8 -5 11 11 11 12 0 22 5 22
10 0 17 17 11 22 -8 3 -10 13 -19 21 -19 13 0 14 3 5 14 -8 11 -7 12 6 7 23
-9 20 7 -9 39 -14 15 -22 27 -18 27 4 1 -8 8 -27 17 -26 12 -31 17 -17 20 9 3
17 9 17 15 0 6 6 6 15 -2 12 -10 15 -9 16 6 0 18 5 11 23 -32 1 -1 11 -5 24
-8 15 -5 22 -3 22 7 0 7 7 14 15 14 13 0 12 -4 -3 -21 -10 -12 -19 -36 -21
-53 -2 -28 1 -33 18 -33 22 0 28 14 11 25 -12 7 -4 25 11 25 5 0 9 -12 9 -27
1 -25 2 -26 14 -10 16 21 30 22 22 2 -3 -9 0 -15 8 -15 8 0 16 -9 19 -20 4
-17 2 -20 -15 -14 -17 5 -19 3 -13 -15 3 -12 2 -21 -3 -21 -5 0 -12 9 -15 21
-3 12 -10 18 -16 14 -8 -4 -6 -15 4 -35 14 -27 14 -29 -6 -35 -11 -4 -26 -2
-34 5 -9 7 -15 8 -20 1 -4 -7 -15 -5 -31 5 -27 18 -39 13 -39 -17 0 -10 -4
-19 -10 -19 -5 0 -10 18 -10 39 0 22 -3 43 -7 47 -5 4 -8 -7 -8 -24 0 -18 -5
-32 -11 -32 -6 0 -8 7 -5 16 6 14 4 15 -10 4 -13 -11 -17 -11 -24 0 -4 7 -15
10 -24 7 -8 -3 -18 -2 -21 3 -3 4 0 10 6 12 5 2 11 18 11 36 1 29 18 48 18 20
0 -6 9 -3 20 7 22 20 26 45 9 62 -12 12 -3 73 11 73 4 0 11 11 14 25 8 31 17
32 35 4z"/>
<path d="M5300 4133 c-14 -3 -31 -10 -37 -15 -9 -7 -17 -7 -28 2 -20 17 -85
-8 -96 -37 -10 -26 -44 -50 -79 -56 -38 -6 -81 -29 -77 -41 6 -17 50 -18 82
-2 16 8 33 12 39 9 5 -4 1 -10 -10 -14 -17 -6 -15 -9 14 -19 32 -12 43 -29 20
-31 -7 0 -5 -4 6 -8 28 -11 183 1 227 18 15 5 29 7 32 4 4 -3 13 2 22 11 19
18 34 20 69 6 18 -7 37 -5 67 5 23 8 52 15 64 15 13 0 26 7 29 16 5 13 14 15
44 10 20 -4 93 -9 162 -12 72 -4 139 -12 159 -20 18 -8 44 -14 56 -14 29 0 77
55 73 84 -3 21 -7 21 -176 19 -112 -2 -195 -8 -239 -18 -57 -13 -68 -14 -75
-1 -4 8 -32 17 -65 21 -72 9 -103 21 -103 39 0 20 -26 27 -80 20 -30 -4 -50
-2 -54 5 -4 6 -10 10 -14 10 -4 -1 -18 -4 -32 -6z"/>
<path d="M6274 3962 c-12 -1 -26 -14 -33 -28 -14 -31 -15 -98 -1 -89 6 3 7 -1
4 -9 -3 -9 -1 -16 5 -16 6 0 11 5 11 10 0 16 18 12 39 -9 11 -11 22 -17 25
-13 3 3 6 -4 6 -16 0 -12 5 -22 10 -22 15 0 12 -33 -5 -56 -23 -30 -20 -51 5
-29 14 13 28 16 54 11 19 -4 36 -12 38 -18 2 -6 10 -8 16 -4 17 10 15 26 -4
26 -9 0 -14 7 -13 18 4 29 -13 76 -32 92 -10 8 -22 30 -25 48 -6 31 -6 32 29
32 19 0 37 6 40 13 3 9 8 9 21 -2 20 -17 83 -16 103 1 21 17 15 48 -12 60 -22
10 -30 8 -55 -10 -33 -25 -68 -29 -76 -9 -4 10 -19 13 -54 9 -28 -2 -56 0 -62
5 -7 5 -23 7 -34 5z"/>
<path d="M4579 3880 c-5 -71 -1 -132 11 -159 10 -26 15 -28 54 -24 47 6 86 -9
86 -32 0 -25 13 -17 63 37 35 38 44 54 36 62 -9 8 -10 8 -6 0 3 -6 -10 -26
-29 -45 l-36 -34 21 38 c12 21 17 36 11 32 -5 -3 -7 0 -4 8 5 14 31 16 51 4 7
-4 31 6 55 25 24 18 54 40 67 48 22 15 21 15 -26 12 -26 -2 -52 -9 -58 -14 -7
-8 -6 -9 3 -4 18 10 15 1 -5 -15 -9 -8 -14 -9 -10 -3 4 7 -1 15 -10 19 -10 3
-19 1 -21 -5 -2 -6 -17 1 -34 15 -16 14 -40 25 -52 25 -12 0 -26 4 -31 9 -6 6
-29 13 -52 17 -33 5 -43 3 -44 -7 0 -8 -4 -5 -9 6 l-9 20 -1 -20 -1 -20 -9 20
c-7 17 -9 14 -11 -15z"/>
<path d="M6292 3623 c-8 -13 -23 -16 -73 -15 -56 1 -60 0 -36 -9 26 -10 27
-13 13 -28 -22 -25 -14 -75 13 -79 11 -2 26 -12 32 -23 9 -17 12 -18 25 -5 8
8 21 13 29 10 10 -4 15 0 15 14 0 12 4 23 9 26 12 8 20 66 9 72 -4 3 -8 16 -8
30 0 28 -15 32 -28 7z"/>
<path d="M6525 3410 c-17 -6 -20 -16 -20 -69 -1 -38 3 -60 10 -58 5 2 15 -3
21 -11 10 -13 14 -12 31 5 11 11 41 23 67 27 l47 7 -32 22 c-18 12 -39 36 -48
52 -17 31 -41 39 -76 25z"/>
<path d="M6140 2695 c-7 -8 -22 -15 -33 -15 -22 0 -46 -26 -47 -51 0 -24 -34
-50 -61 -47 -20 3 -25 -2 -27 -26 -3 -23 0 -27 12 -22 9 3 22 9 30 12 15 6 30
-22 20 -38 -4 -5 -17 -8 -30 -5 -17 3 -25 -1 -29 -14 -7 -21 1 -39 16 -39 14
0 109 100 109 115 0 25 35 74 55 77 24 4 32 40 12 56 -11 10 -17 9 -27 -3z"/>
<path d="M5780 1913 c0 -11 56 -63 68 -63 6 0 8 8 5 19 -8 30 14 34 52 11 34
-21 46 -40 25 -40 -5 0 -10 -7 -10 -15 0 -23 -20 -18 -29 8 -9 21 -9 21 -17 2
-4 -11 -14 -25 -22 -31 -12 -9 -8 -14 21 -27 19 -9 40 -17 46 -17 6 0 11 -4
11 -9 0 -5 9 -7 20 -4 14 4 19 11 15 23 -3 10 0 20 9 23 11 4 13 20 11 64 -2
32 -4 60 -4 62 -1 2 -10 -4 -20 -13 -17 -15 -25 -16 -53 -7 -45 14 -128 24
-128 14z"/>
</g>
</svg>
