<?xml version="1.0" standalone="no"?>
<!DOCTYPE svg PUBLIC "-//W3C//DTD SVG 20010904//EN"
 "http://www.w3.org/TR/2001/REC-SVG-20010904/DTD/svg10.dtd">
<svg version="1.0" xmlns="http://www.w3.org/2000/svg"
 width="615.000000pt" height="461.000000pt" viewBox="0 0 615.000000 461.000000"
 preserveAspectRatio="xMidYMid meet">
<metadata>
Created by potrace 1.16, written by Peter Selinger 2001-2019
</metadata>
<g transform="translate(0.000000,461.000000) scale(0.100000,-0.100000)"
fill="#000000" stroke="none">
<path d="M1317 4282 c-9 -10 -17 -30 -16 -43 2 -58 -34 -109 -76 -109 -39 0
-78 -44 -73 -82 3 -18 0 -32 -7 -34 -12 -5 -51 -99 -76 -181 -7 -24 -15 -43
-18 -43 -3 0 -24 -16 -46 -36 -47 -42 -94 -68 -103 -58 -4 4 -1 9 6 11 6 3 12
19 12 36 1 30 1 31 15 13 8 -11 16 -17 16 -13 1 4 2 12 3 17 0 6 7 14 14 19
15 9 5 41 -14 41 -7 0 -17 -6 -21 -12 -4 -7 -17 -14 -28 -15 -19 -1 -19 -1 -2
11 9 7 17 18 17 25 0 6 7 11 16 11 12 0 15 6 10 23 -3 12 -6 31 -6 42 0 19 -1
19 -17 1 -13 -13 -15 -20 -5 -23 6 -3 12 -12 12 -21 0 -12 -3 -13 -11 -5 -6 6
-18 9 -25 6 -10 -4 -14 -28 -14 -94 0 -72 -3 -89 -15 -89 -16 0 -20 12 -8 24
4 3 8 42 10 86 3 85 -6 99 -41 64 -9 -8 -16 -11 -16 -5 0 6 -4 11 -10 11 -17
0 -11 -23 14 -49 27 -30 43 -71 27 -71 -6 0 -11 -9 -11 -21 0 -12 -4 -17 -11
-13 -6 3 -8 19 -5 38 5 25 0 37 -27 67 -27 31 -38 36 -76 36 -25 0 -47 6 -51
13 -5 8 -28 15 -52 16 -24 2 -45 4 -48 5 -3 0 -16 0 -29 -1 -13 -1 -35 4 -48
11 -20 11 -28 10 -54 -5 -29 -17 -29 -17 -38 5 -7 21 -9 20 -15 -14 -4 -21 -2
-45 4 -56 15 -28 14 -29 -27 -27 -42 1 -51 12 -53 66 -1 35 -1 35 -17 13 l-15
-22 -36 24 c-24 16 -40 21 -46 15 -16 -16 -54 -12 -65 8 -10 16 -10 16 -11 -2
0 -13 -5 -17 -20 -13 -13 3 -20 0 -20 -8 0 -10 -10 -13 -35 -10 l-36 5 3 -107
3 -107 105 -3 c68 -1 107 2 111 9 5 8 12 6 24 -5 9 -10 20 -15 24 -12 10 5
147 7 214 2 26 -2 50 1 54 6 3 5 17 5 32 1 38 -10 133 -5 150 9 12 10 13 8 8
-15 -6 -22 -3 -30 15 -42 29 -19 107 -37 164 -38 41 0 43 -2 38 -24 -9 -36 4
-47 28 -24 12 11 26 20 31 20 5 0 7 9 4 20 -4 15 2 22 29 30 36 12 40 20 24
50 -7 13 -7 36 -1 67 5 27 9 38 10 26 0 -12 5 -24 10 -27 5 -3 7 -15 4 -26 -4
-14 0 -20 11 -20 9 0 16 -5 16 -11 0 -6 7 -9 15 -5 8 3 15 1 15 -4 0 -6 5 -10
10 -10 6 0 10 7 10 15 0 8 9 15 20 15 21 0 27 -15 10 -25 -7 -4 -6 -13 1 -26
14 -26 6 -34 -20 -19 -17 8 -21 8 -21 -3 0 -8 7 -20 15 -27 8 -7 15 -19 15
-27 0 -8 4 -12 9 -9 5 3 7 14 4 25 -3 13 2 20 17 24 16 4 23 -1 31 -20 8 -21
6 -30 -10 -47 -23 -24 -19 -68 5 -59 9 3 14 -2 14 -16 0 -12 5 -20 11 -18 6 1
14 -4 16 -10 3 -7 0 -13 -7 -13 -6 0 -9 -4 -5 -10 3 -5 12 -7 20 -3 10 3 15
-2 15 -16 0 -12 6 -21 15 -21 8 0 15 -8 15 -18 0 -10 9 -25 20 -35 21 -18 25
-34 11 -55 -6 -10 -10 -10 -20 1 -12 15 -51 12 -51 -4 0 -5 -7 -9 -16 -9 -12
0 -15 -7 -12 -25 6 -31 -15 -34 -35 -5 -8 11 -16 18 -19 15 -10 -11 -69 18
-64 31 3 7 1 16 -4 19 -4 3 -10 -1 -13 -7 -3 -9 -14 -4 -33 15 -18 17 -22 25
-11 21 10 -4 17 -1 17 6 0 6 -8 14 -18 17 -16 4 -19 16 -19 84 -1 44 3 76 8
73 5 -3 7 -9 5 -13 -3 -4 1 -8 7 -8 8 0 13 14 13 34 0 18 -4 33 -8 33 -4 0 -8
-7 -8 -15 0 -8 -6 -15 -13 -15 -18 0 -39 -81 -25 -97 11 -13 5 -17 -24 -14
-24 3 -23 -7 5 -29 24 -20 21 -30 -12 -33 -16 -1 -20 -6 -14 -22 11 -35 9 -50
-7 -47 -8 2 -11 0 -7 -5 5 -4 13 -8 19 -8 21 0 48 -51 50 -95 2 -35 7 -46 23
-50 21 -6 26 -30 12 -70 -5 -15 -4 -33 4 -47 15 -28 41 -39 37 -15 -2 9 3 16
10 15 16 -4 16 22 -1 39 -13 12 -31 64 -25 70 2 2 -5 14 -15 28 -19 27 -23 60
-7 60 6 0 10 -7 10 -15 0 -8 6 -15 13 -15 27 0 43 -56 48 -158 1 -26 7 -46 15
-49 22 -8 16 -20 -16 -32 -34 -11 -48 -37 -31 -54 8 -8 11 -7 11 5 0 11 6 15
20 11 11 -3 20 0 20 6 0 6 5 11 10 11 6 0 10 -10 10 -22 0 -13 19 -40 50 -68
28 -25 50 -55 50 -66 0 -15 -5 -13 -26 14 -33 41 -59 45 -41 5 6 -16 21 -38
33 -51 45 -50 93 -168 146 -355 7 -25 19 -42 33 -47 13 -5 26 -14 30 -20 12
-20 25 1 25 41 0 39 1 40 33 36 30 -3 32 -6 31 -45 0 -23 3 -39 8 -36 11 7 10
-3 -3 -28 -14 -26 -6 -33 21 -18 20 11 21 10 14 -25 l-7 -37 34 4 c36 3 38 -2
26 -52 -4 -14 -4 -19 -1 -12 9 19 24 14 24 -9 0 -18 2 -19 15 -9 12 10 15 9
15 -6 0 -11 9 -25 21 -32 14 -9 18 -19 13 -34 -5 -17 -3 -20 12 -14 9 4 21 2
24 -5 11 -17 49 11 52 40 3 27 28 42 28 16 0 -9 4 -13 10 -10 10 6 15 -39 11
-95 l-1 -25 15 25 c14 25 15 25 8 -10 -7 -44 8 -32 23 18 l12 37 2 -35 c1 -34
2 -34 11 -10 l10 25 35 -37 c34 -37 44 -36 23 3 -13 26 -3 62 11 39 7 -11 10
-2 11 30 0 25 4 54 8 64 7 19 8 18 23 -3 l16 -23 4 28 4 29 11 -25 c34 -78 34
-78 27 -27 -3 27 -19 77 -35 112 -28 62 -40 112 -16 68 12 -22 13 -22 37 16
25 42 50 45 50 6 0 -12 7 -28 15 -35 8 -7 15 -25 15 -41 0 -16 5 -29 10 -29 6
0 10 20 10 44 0 25 5 48 10 51 6 4 10 -8 10 -28 0 -19 8 -49 17 -68 10 -19 16
-42 14 -52 -1 -10 3 -25 9 -33 10 -11 10 -17 0 -29 -10 -12 -10 -18 0 -30 7
-8 10 -24 7 -36 -3 -12 -1 -29 6 -39 8 -14 8 -25 -1 -45 -7 -14 -12 -39 -12
-55 0 -16 -7 -35 -15 -44 -8 -8 -15 -20 -15 -26 0 -10 -21 -48 -45 -80 -21
-28 -178 -180 -186 -180 -4 0 -11 5 -14 11 -23 37 -46 -94 -26 -146 23 -57
-23 -49 -59 11 -17 27 -25 32 -31 22 -6 -9 -9 -6 -9 10 0 28 -13 53 -44 87
-24 25 -24 25 -31 6 -3 -12 -13 -27 -21 -35 -13 -13 -12 -20 6 -53 11 -21 20
-44 20 -51 0 -7 11 -17 24 -22 18 -7 29 -26 48 -84 13 -41 21 -73 17 -70 -4 2
-6 -15 -5 -38 1 -25 -3 -49 -11 -56 -7 -7 -13 -22 -13 -33 0 -12 -7 -19 -18
-19 -35 0 -64 -96 -41 -135 4 -5 9 -22 13 -37 4 -19 13 -28 26 -28 23 0 60
-37 55 -54 -3 -6 -6 -61 -8 -122 -3 -88 -7 -115 -20 -129 -9 -9 -17 -21 -17
-27 0 -5 -10 -18 -22 -28 -19 -15 -22 -26 -20 -74 1 -33 -2 -56 -8 -56 -18 0
-11 -20 8 -21 9 -1 2 -6 -17 -12 -26 -8 -36 -8 -39 1 -2 7 -8 9 -13 6 -6 -3
-18 0 -27 8 -24 20 -40 17 -62 -12 -19 -24 -20 -24 -20 -3 0 12 -6 23 -12 26
-18 5 -48 -3 -48 -14 0 -5 -9 -9 -19 -9 -11 0 -22 -4 -25 -9 -4 -5 6 -8 21 -6
28 3 53 -10 53 -27 0 -5 -4 -6 -10 -3 -5 3 -10 0 -11 -7 0 -7 -4 -4 -9 7 -5
11 -9 14 -9 8 -1 -7 -8 -13 -16 -13 -9 0 -12 -6 -9 -15 4 -8 11 -12 16 -9 6 4
8 -2 6 -12 -4 -23 -38 -32 -38 -10 0 9 -4 16 -10 16 -5 0 -10 -6 -10 -14 0 -9
-7 -12 -20 -9 -14 4 -20 0 -20 -10 0 -8 4 -17 9 -19 5 -1 7 -16 4 -32 -6 -29
-6 -28 -25 19 -11 27 -30 59 -44 72 -18 17 -24 29 -19 46 6 22 6 22 -10 2 -16
-19 -16 -19 -10 8 5 17 3 27 -4 27 -6 0 -11 -17 -11 -40 0 -26 -4 -39 -12 -37
-6 1 -13 -7 -15 -18 -3 -16 -2 -17 6 -5 9 13 11 13 11 0 0 -9 -6 -22 -12 -29
-11 -11 -9 -12 8 -7 16 5 27 0 43 -20 12 -15 21 -32 21 -38 0 -6 -7 0 -16 13
-10 14 -23 21 -35 18 -10 -3 -23 1 -29 8 -15 18 -10 106 8 127 7 9 11 22 7 28
-4 7 1 14 13 17 13 3 18 11 15 19 -3 8 -1 14 4 14 5 0 14 -13 20 -30 9 -25 16
-29 42 -27 25 2 31 6 30 22 -1 11 -1 46 0 78 l1 58 31 -5 c24 -4 28 -2 19 9
-8 10 -7 22 3 47 8 18 12 39 10 46 -3 6 0 12 6 12 6 0 11 7 11 15 0 8 5 15 10
15 7 0 7 -6 1 -17 -5 -10 -11 -31 -12 -48 -2 -16 -8 -33 -13 -36 -12 -9 2 -29
17 -23 7 2 13 16 13 30 2 31 12 43 23 26 5 -9 11 -5 20 14 6 15 14 24 18 21 3
-4 0 -13 -7 -21 -19 -23 -8 -32 30 -25 19 4 27 7 18 8 -17 1 -21 10 -33 67 -5
26 -10 31 -28 28 -12 -2 -16 -2 -9 2 18 8 15 24 -10 53 l-23 26 26 -22 c14
-13 29 -23 35 -23 5 0 17 -14 26 -30 37 -65 75 -15 83 110 3 49 3 51 -4 15 -7
-36 -8 -37 -10 -10 -1 21 -4 26 -10 16 -7 -11 -9 -11 -13 0 -4 11 -10 10 -27
-5 -21 -19 -21 -19 -21 12 0 18 5 32 11 32 5 0 7 -5 3 -11 -4 -7 2 -9 16 -7
17 2 24 11 26 31 2 22 -1 27 -12 23 -8 -3 -14 -1 -14 3 0 5 6 11 13 14 6 2 9
8 5 12 -11 12 -38 -3 -38 -20 0 -21 -27 -48 -40 -40 -5 3 -10 1 -10 -4 0 -6 5
-11 11 -11 5 0 7 -5 3 -11 -5 -8 -10 -6 -16 5 -5 9 -14 14 -19 10 -6 -3 -18 4
-29 15 -13 16 -20 18 -24 9 -3 -7 -4 -2 -3 11 3 33 21 37 36 9 l12 -23 -5 23
c-4 20 7 28 37 23 13 -2 7 16 -11 32 -16 15 -19 15 -31 -5 -9 -15 -15 -17 -20
-9 -5 8 -13 1 -24 -21 -16 -31 -17 -32 -18 -8 l-1 25 -8 -25 c-4 -14 -8 -20
-9 -13 -1 8 -10 9 -31 3 -16 -5 -32 -5 -35 0 -3 5 3 11 12 13 11 3 6 5 -12 7
-29 1 -29 2 -7 12 26 13 29 28 5 28 -14 0 -13 3 5 16 14 9 21 22 18 31 -5 11
-1 13 17 7 12 -3 24 -8 27 -11 4 -4 -15 -19 -35 -26 -5 -3 -6 -8 -2 -13 4 -5
13 -2 18 6 8 11 12 12 16 3 8 -20 23 -15 23 7 0 11 5 20 11 20 6 0 8 -9 4 -20
-5 -16 -2 -19 14 -17 31 5 34 12 20 50 -12 35 -26 40 -51 19 -12 -10 -17 -7
-27 14 l-11 25 45 -7 c38 -5 45 -4 45 10 0 9 -4 16 -9 16 -12 0 -1 73 12 82 6
3 21 2 35 -3 17 -7 23 -6 20 3 -3 7 -15 15 -29 18 -20 5 -23 12 -21 36 2 16 9
32 15 36 20 12 1 19 -24 9 -13 -5 -18 -10 -10 -10 10 -1 11 -4 2 -14 -6 -8 -8
-17 -4 -20 3 -4 1 -7 -5 -7 -7 0 -12 5 -12 10 0 6 -4 10 -9 10 -5 0 -7 -9 -4
-20 3 -11 9 -17 14 -14 5 3 9 -4 9 -15 0 -12 -4 -21 -10 -21 -5 0 -10 -6 -10
-13 0 -7 -9 -13 -21 -14 -12 -1 -18 3 -16 10 3 7 10 11 17 9 14 -3 5 65 -11
85 -7 7 -5 13 3 16 11 4 10 6 0 6 -7 1 -10 6 -7 11 4 6 1 18 -6 26 -11 14 -15
13 -30 -7 -20 -27 -50 -20 -42 9 2 11 0 23 -6 26 -13 8 -13 -33 -3 -104 5 -31
10 -40 14 -28 5 12 13 15 25 11 15 -6 16 -4 6 8 -10 12 -10 18 -1 27 20 20 28
14 28 -23 0 -32 -3 -35 -47 -48 -26 -8 -49 -20 -51 -27 -3 -7 0 -10 7 -6 13 8
13 -9 2 -39 -7 -17 -9 -16 -15 12 -10 43 -23 50 -38 19 -6 -14 -15 -26 -20
-26 -5 0 -4 9 2 19 16 31 11 38 -9 14 -22 -26 -31 -20 -31 19 0 31 16 39 22
11 2 -12 6 -14 11 -6 10 15 -20 44 -38 37 -8 -4 -15 -17 -15 -30 0 -13 -4 -24
-10 -24 -5 0 -10 -7 -10 -15 0 -8 7 -15 15 -15 24 0 17 -28 -7 -32 -20 -3 -23
-9 -22 -43 l2 -40 -12 39 c-10 31 -14 36 -19 22 -4 -11 -15 -16 -29 -15 -13 2
-29 0 -36 -5 -10 -6 -13 -2 -10 15 3 20 -1 23 -27 24 -27 0 -30 3 -27 30 3 35
54 111 71 107 6 -1 11 3 11 10 0 9 3 9 13 -1 10 -10 9 -14 -6 -22 -16 -10 -25
-59 -9 -59 19 1 30 18 36 55 3 22 5 41 6 43 0 1 4 2 9 2 5 0 12 -20 15 -45 7
-45 26 -63 26 -25 0 11 5 20 10 20 6 0 10 8 10 19 0 22 23 44 35 33 4 -4 5 8
1 27 -3 18 -6 38 -6 43 0 6 -7 5 -15 -2 -13 -11 -13 -14 2 -26 17 -13 16 -15
-17 -18 -9 0 -15 -11 -15 -25 0 -14 -7 -27 -14 -29 -10 -3 -12 0 -8 11 3 9 1
19 -5 23 -7 4 -6 10 3 16 11 7 11 11 2 15 -7 2 -13 12 -13 21 0 15 2 15 10 2
16 -24 52 24 44 57 -5 19 -3 24 7 21 8 -3 14 -11 14 -19 0 -16 23 -34 32 -25
3 3 0 12 -7 21 -11 13 -10 14 2 10 9 -3 20 -17 26 -31 7 -13 16 -24 22 -24 14
0 13 6 -7 25 -14 14 -14 18 -2 26 9 6 18 3 26 -8 11 -15 13 -13 19 13 5 24 10
29 32 28 33 -1 52 5 52 18 0 6 -6 8 -14 5 -8 -3 -17 2 -21 11 -6 16 -7 16 -19
0 -7 -10 -16 -18 -20 -18 -11 0 -7 35 6 48 19 19 0 27 -21 8 -12 -11 -21 -13
-25 -7 -4 5 3 15 14 21 11 6 20 16 20 22 0 9 -3 9 -12 0 -9 -9 -14 -7 -24 6
-12 15 -13 15 -14 1 0 -10 -12 -19 -32 -23 -46 -9 -44 -2 7 30 25 16 45 37 45
47 0 9 5 17 12 17 6 0 4 7 -5 18 -10 10 -16 21 -15 23 2 2 -3 -2 -9 -10 -7 -8
-13 -20 -13 -25 0 -6 4 -4 10 4 5 8 12 11 15 8 4 -4 1 -16 -7 -27 -8 -12 -18
-18 -22 -14 -4 4 -4 0 0 -10 3 -9 2 -17 -4 -17 -6 0 -13 6 -15 13 -3 7 -6 5
-6 -5 -1 -21 -21 -24 -21 -4 0 8 5 18 10 21 6 3 10 11 10 17 0 7 -6 6 -15 -2
-12 -10 -15 -9 -15 4 0 10 -4 15 -9 12 -4 -3 -6 -16 -4 -30 6 -27 -14 -45 -23
-22 -9 24 -37 20 -31 -4 3 -11 1 -23 -4 -26 -5 -3 -9 2 -9 10 0 9 -7 16 -15
16 -18 0 -20 -16 -2 -23 6 -3 2 -6 -11 -6 -12 -1 -25 -8 -29 -17 -3 -8 -12
-13 -19 -10 -10 4 -14 -3 -14 -24 0 -17 -4 -30 -10 -30 -5 0 -10 7 -10 16 0 8
-5 12 -10 9 -6 -3 -10 -15 -10 -26 0 -10 -4 -19 -10 -19 -16 0 -11 -19 9 -37
11 -9 17 -21 14 -26 -3 -5 5 -7 18 -5 12 1 24 9 27 17 3 8 0 11 -6 7 -6 -3
-18 1 -26 10 -18 18 -21 34 -6 34 6 0 10 -7 10 -16 0 -12 6 -15 25 -10 20 5
25 3 25 -14 0 -11 7 -20 15 -20 8 0 15 -8 15 -17 0 -15 -2 -15 -9 -4 -11 17
-41 7 -41 -14 0 -13 -4 -14 -20 -5 -11 6 -21 7 -21 3 -4 -28 -3 -39 3 -49 11
-16 -2 -75 -18 -81 -8 -3 -14 -11 -14 -18 0 -6 -9 -20 -20 -30 -24 -22 -27
-75 -5 -75 22 0 18 -27 -5 -33 -13 -3 -20 -14 -20 -29 -1 -22 -1 -22 -13 -3
-7 11 -18 20 -24 21 -38 3 -43 5 -43 17 0 16 -32 19 -41 4 -13 -19 -36 1 -37
32 -1 35 17 42 26 9 5 -21 5 -21 15 3 5 14 11 19 14 12 4 -10 8 -9 19 1 17 18
18 27 1 23 -14 -2 -10 35 5 44 19 12 79 8 75 -4 -2 -7 -12 -12 -22 -12 -10 0
-20 -6 -23 -13 -2 -7 2 -10 12 -6 13 5 16 -1 16 -25 0 -17 -5 -31 -12 -31 -6
0 -8 -3 -5 -6 14 -15 39 20 33 47 -4 22 -1 29 14 34 11 4 20 11 20 17 0 16
-53 67 -63 61 -5 -3 -3 -9 4 -14 11 -7 11 -11 1 -21 -10 -10 -17 -8 -35 11
-12 13 -16 21 -9 17 13 -8 15 12 3 54 -6 23 -7 24 -14 5 -7 -16 -10 -17 -17
-5 -5 8 -7 23 -4 32 3 10 1 26 -5 35 -10 17 -10 17 -11 1 0 -20 -26 -24 -33
-5 -2 7 -8 8 -13 3 -5 -5 1 -15 14 -23 12 -9 22 -24 22 -34 0 -24 -17 -25 -23
-1 -3 9 -6 1 -7 -18 l-2 -35 -10 35 c-6 19 -10 54 -9 78 1 43 -16 59 -26 23
-3 -13 -11 -17 -24 -14 -10 3 -19 0 -19 -6 0 -6 -7 -11 -16 -11 -9 0 -12 5 -8
13 6 9 4 9 -8 -1 -14 -11 -18 -10 -25 3 -11 20 -63 11 -63 -11 0 -8 -4 -14
-10 -14 -6 0 -6 9 0 24 11 29 4 37 -25 30 -15 -4 -24 0 -29 11 -4 12 -2 16 7
12 14 -5 54 32 49 46 -1 4 4 7 12 7 8 0 20 -17 29 -37 14 -36 15 -36 27 -16 8
12 20 19 27 16 11 -4 10 -8 -3 -18 -10 -7 -14 -17 -9 -25 6 -10 9 -9 16 1 6
10 9 11 9 2 0 -7 5 -13 11 -13 14 0 73 59 81 81 4 9 16 19 28 22 20 5 21 3 15
-47 -6 -48 -5 -52 14 -52 12 0 21 4 21 8 0 4 -4 8 -10 8 -5 0 -10 7 -10 15 0
8 7 15 15 15 22 0 18 34 -5 55 -11 10 -20 24 -20 32 0 7 -8 13 -17 13 -25 1
-51 22 -46 38 3 6 0 12 -5 12 -6 0 -14 -10 -17 -21 -5 -15 -10 -18 -15 -10 -4
7 -11 11 -16 10 -23 -4 -21 3 7 31 25 23 35 27 50 20 10 -6 30 -10 45 -10 22
0 24 -2 14 -15 -6 -8 -10 -22 -8 -32 2 -14 8 -10 24 17 19 33 19 37 4 62 -16
26 -16 26 -29 6 -12 -19 -13 -19 -32 -2 -10 9 -19 12 -19 6 0 -6 -7 -9 -15 -6
-8 4 -17 -1 -21 -10 -3 -9 -13 -16 -20 -16 -12 0 -12 4 -4 21 7 11 9 23 6 27
-3 3 -6 0 -6 -6 0 -7 -4 -12 -10 -12 -5 0 -10 7 -10 15 0 8 5 15 11 15 5 0 8
4 5 9 -3 5 1 11 9 15 8 3 15 0 15 -6 0 -6 3 -9 6 -5 3 3 -2 19 -12 36 -17 29
-18 29 -28 9 -12 -24 -36 -36 -36 -18 0 6 5 8 10 5 6 -3 10 4 10 17 -1 22 -1
22 -18 -4 -20 -33 -32 -36 -32 -9 0 11 -4 22 -8 25 -15 9 -52 -6 -52 -22 0
-13 3 -12 20 3 23 21 39 12 23 -13 -7 -12 -21 -16 -47 -14 -31 3 -36 1 -36
-17 0 -11 -4 -23 -10 -26 -5 -3 -10 3 -10 14 0 24 -10 27 -28 9 -20 -20 -26 1
-7 23 16 17 17 22 5 29 -9 5 -19 5 -27 -2 -10 -8 -13 -7 -13 3 0 16 -39 43
-48 34 -4 -3 -1 -10 7 -14 10 -6 8 -10 -6 -16 -15 -6 -12 -9 17 -20 l35 -14
-41 3 c-36 2 -40 0 -37 -18 5 -24 -17 -87 -24 -69 -2 7 0 21 6 31 9 18 7 19
-30 19 -35 0 -39 -2 -34 -21 5 -19 5 -19 -7 -4 -9 11 -19 13 -29 8 -18 -10
-59 -2 -59 11 0 5 3 8 8 8 17 -3 32 2 32 10 0 4 -11 6 -25 3 -14 -2 -25 -10
-25 -18 0 -7 -9 -18 -20 -24 -11 -6 -20 -17 -20 -24 0 -12 -41 -46 -55 -46 -7
0 15 43 27 51 5 3 6 13 2 22 -6 16 -8 16 -35 0 -30 -18 -40 -40 -14 -30 22 9
24 -6 4 -25 -12 -12 -19 -13 -23 -5 -3 9 -5 9 -5 0 -1 -7 -9 -13 -19 -13 -20
0 -62 -39 -62 -58 0 -7 7 -9 18 -5 15 6 15 4 -2 -15 -22 -26 -16 -41 7 -17 31
30 40 14 10 -17 -26 -29 -31 -41 -32 -96 -2 -42 1 -62 10 -62 9 0 8 -4 -1 -15
-8 -10 -9 -19 -3 -27 11 -15 11 -28 0 -45 -10 -16 -11 -15 36 -18 30 -2 35 1
26 11 -13 15 -3 37 13 28 7 -4 8 2 2 17 -9 29 -9 39 1 62 4 10 3 17 -5 17 -6
0 -9 4 -5 10 3 5 11 7 18 4 8 -3 12 -21 10 -54 -2 -28 1 -50 6 -50 15 0 42 31
35 41 -6 10 21 41 29 33 3 -3 10 4 17 15 6 12 15 21 20 21 17 0 11 -39 -8 -49
-15 -9 -15 -10 6 -11 29 0 29 -18 0 -22 -34 -5 -34 -34 1 -51 30 -15 51 -7 51
19 0 7 9 16 20 19 29 9 24 27 -6 23 -24 -3 -27 1 -30 35 -3 33 -1 37 11 27 22
-19 42 -5 48 32 6 41 -8 61 -33 48 -15 -8 -17 -6 -13 10 3 11 9 20 14 20 5 0
9 5 9 10 0 6 -8 10 -18 10 -10 0 -22 3 -25 7 -8 8 12 33 26 33 6 0 2 -7 -9
-15 -18 -14 -18 -14 4 -15 15 0 26 -9 33 -27 10 -26 25 -42 40 -43 4 0 9 13
11 30 3 16 1 30 -4 30 -4 0 -8 7 -8 16 0 11 6 14 23 8 30 -9 30 -9 16 -36 -11
-18 -38 -86 -39 -95 0 -1 11 8 25 21 17 16 22 29 18 46 -5 20 -3 22 13 15 24
-9 32 -9 67 0 16 4 27 3 27 -3 0 -5 -11 -13 -25 -16 -16 -4 -22 -11 -19 -21 4
-8 10 -12 15 -9 5 3 9 0 9 -6 0 -7 8 -9 20 -5 23 7 36 -15 26 -42 -6 -14 -9
-15 -15 -4 -6 9 -19 12 -42 7 -79 -15 -90 -14 -83 7 4 13 2 17 -5 13 -6 -4
-11 -18 -11 -31 0 -13 -7 -30 -15 -39 -24 -24 -17 -32 8 -8 l22 21 -1 -37 c-1
-20 -7 -38 -14 -40 -8 -3 -10 2 -5 18 7 21 6 21 -19 5 -14 -10 -26 -24 -26
-31 0 -8 -10 -14 -25 -14 -20 0 -25 -5 -25 -25 0 -18 -4 -23 -15 -19 -12 5
-15 -2 -15 -30 0 -23 -4 -35 -12 -33 -7 1 -14 -8 -16 -20 -4 -29 -28 -30 -37
-2 -5 16 -9 18 -21 8 -21 -17 -14 -55 9 -51 18 3 24 -13 7 -23 -5 -3 -7 -12
-4 -20 8 -20 24 -9 24 16 0 10 5 19 10 19 6 0 10 -7 10 -15 0 -8 5 -15 11 -15
5 0 8 4 5 8 -2 4 -1 14 3 21 6 9 10 5 13 -13 3 -14 1 -26 -3 -26 -5 0 -9 -7
-9 -15 0 -8 -4 -15 -10 -15 -5 0 -10 8 -10 18 0 11 -3 13 -8 5 -4 -6 -20 -17
-36 -23 -24 -9 -27 -8 -22 5 3 8 0 28 -6 43 -6 15 -11 47 -12 71 -1 24 -6 46
-13 48 -7 3 -10 -4 -7 -19 3 -17 1 -16 -7 5 -11 28 -11 28 -26 8 -8 -12 -21
-21 -30 -21 -10 0 -13 -6 -9 -17 4 -9 2 -19 -4 -23 -8 -5 -7 -12 4 -23 19 -19
20 -28 4 -24 -10 1 -13 -22 -15 -90 -1 -82 1 -91 14 -78 11 11 19 12 34 5 10
-6 19 -16 19 -22 0 -7 -4 -7 -13 1 -17 14 -37 -4 -37 -34 0 -16 -2 -17 -10 -5
-7 11 -10 6 -10 -22 0 -20 6 -38 13 -41 9 -4 9 -7 -1 -18 -12 -13 -18 -158 -5
-146 3 4 7 18 9 31 3 28 54 138 54 117 0 -8 -12 -48 -26 -89 -14 -41 -23 -76
-20 -79 9 -9 26 8 26 27 0 10 4 21 9 24 5 3 9 -17 9 -45 0 -36 -3 -48 -11 -40
-16 16 -24 14 -30 -8 -3 -13 1 -21 12 -24 11 -3 7 -6 -11 -11 -21 -6 -28 -15
-28 -32 0 -13 6 -24 13 -24 8 0 8 -3 2 -8 -12 -8 -17 -132 -6 -132 4 0 12 12
18 28 11 26 11 26 12 3 1 -20 3 -21 16 -11 20 16 19 0 -1 -28 -8 -12 -11 -22
-5 -22 11 0 46 -88 38 -96 -3 -3 -11 13 -18 35 -8 26 -16 38 -22 32 -5 -5 -4
-18 3 -31 10 -18 9 -24 -1 -31 -8 -5 -18 -8 -24 -8 -5 0 -4 3 3 6 6 2 12 14
12 26 -1 20 -2 21 -14 5 -7 -10 -16 -15 -19 -11 -4 3 -7 -12 -7 -35 0 -43 16
-64 31 -41 6 10 9 11 9 2 0 -7 9 -13 20 -13 24 0 25 8 3 32 -15 17 -15 18 1
18 10 0 20 -9 23 -20 7 -26 23 -26 23 1 0 11 3 19 8 17 4 -2 24 13 44 33 34
34 35 37 17 42 -15 4 -19 2 -15 -9 3 -8 -1 -14 -9 -14 -16 0 -21 36 -6 42 5 1
11 19 15 38 3 19 3 29 0 22 -6 -13 -24 -7 -24 8 0 9 61 32 68 26 2 -3 -3 -12
-11 -21 -15 -14 -15 -19 1 -50 17 -34 17 -34 37 -14 11 11 25 34 32 52 10 28
11 23 8 -46 -2 -63 -7 -84 -24 -103 -11 -13 -16 -24 -11 -24 6 0 10 -7 10 -15
0 -8 5 -15 11 -15 6 0 8 8 5 18 -3 9 -1 24 4 32 8 13 10 12 10 -2 0 -10 5 -18
10 -18 6 0 10 9 10 20 0 32 21 50 43 36 19 -11 18 -12 57 43 15 22 40 28 40
10 0 -6 7 -3 16 5 8 9 22 16 29 16 8 0 17 5 21 12 5 7 3 8 -6 3 -9 -5 -11 -4
-6 3 4 7 13 12 20 12 16 0 86 77 86 94 0 8 -6 19 -14 25 -21 17 -26 49 -9 55
22 9 35 7 28 -4 -3 -5 -2 -10 4 -10 5 0 13 5 16 10 4 6 12 7 18 3 7 -5 32 -8
57 -8 37 0 44 -3 42 -18 -2 -13 4 -17 24 -17 27 0 27 1 8 15 -16 13 -17 16 -4
24 21 14 23 63 3 79 -9 6 -13 12 -7 13 16 1 38 7 57 14 23 10 22 -6 -4 -39
-24 -31 -19 -58 16 -74 23 -11 25 -9 31 24 3 19 3 53 0 76 -6 34 -4 39 7 30 7
-7 12 -24 10 -39 -2 -17 4 -38 17 -53 15 -20 20 -21 20 -8 0 9 -4 19 -9 22 -5
3 -11 14 -14 25 -3 14 -1 18 9 14 7 -3 12 -10 11 -15 -1 -6 4 -13 11 -15 7 -3
12 4 12 15 0 12 6 19 16 18 9 0 19 5 22 13 3 9 -1 11 -17 6 -16 -5 -20 -3 -15
9 8 20 37 25 50 8 15 -20 6 -76 -11 -62 -15 12 -39 -12 -32 -32 2 -7 -3 -26
-11 -43 -13 -23 -17 -26 -20 -12 -2 9 -7 17 -12 17 -5 0 -7 -7 -3 -15 3 -10 0
-15 -8 -13 -8 2 -14 -3 -14 -11 0 -8 9 -15 20 -16 11 -2 28 -6 39 -10 15 -7
17 -5 11 13 -5 18 -2 22 17 22 17 0 19 -3 9 -9 -20 -13 -4 -31 28 -31 22 0 30
5 33 24 7 34 -7 55 -24 38 -19 -19 -28 -14 -28 13 0 22 4 25 34 25 28 0 35 -4
40 -25 4 -14 13 -25 22 -25 12 0 14 7 9 30 -5 25 -4 29 9 24 11 -4 16 -1 16
10 0 9 5 16 11 16 6 0 9 10 7 23 -5 27 19 75 50 95 20 13 22 13 16 -2 -3 -9
-12 -16 -20 -16 -8 0 -14 -7 -14 -16 0 -8 5 -12 11 -8 8 4 8 0 0 -15 -9 -16
-9 -26 1 -43 l13 -23 3 24 c2 13 12 37 22 53 13 23 19 26 23 14 4 -9 12 -16
19 -16 9 0 9 3 1 11 -8 8 -7 27 4 67 15 57 32 92 19 40 -3 -15 -2 -30 4 -33 5
-3 10 -13 10 -21 0 -8 -4 -12 -10 -9 -15 10 -12 -5 6 -22 8 -9 13 -24 11 -34
-3 -11 -1 -19 4 -19 5 0 9 7 9 15 0 8 5 15 10 15 16 0 12 -26 -11 -64 -18 -32
-19 -36 -4 -36 9 0 14 4 11 9 -3 5 0 13 7 19 17 15 21 74 5 84 -10 6 -8 8 5 8
9 0 17 7 18 15 4 53 2 69 -8 72 -6 2 -13 -15 -17 -37 -3 -23 -10 -39 -15 -36
-9 6 -3 55 10 71 4 6 1 19 -7 29 -16 23 -18 36 -4 36 6 0 10 -9 10 -20 0 -18
3 -19 20 -10 17 9 20 8 20 -10 0 -11 7 -23 15 -26 9 -4 15 -19 15 -35 0 -22 6
-30 24 -35 30 -7 25 -27 -10 -43 -14 -6 -23 -15 -20 -20 7 -11 48 -2 58 13 5
8 8 7 8 -1 0 -6 -4 -14 -10 -18 -5 -3 -7 -12 -3 -20 3 -8 0 -15 -7 -15 -6 0
-8 5 -5 10 9 15 -16 12 -34 -5 -9 -7 -30 -27 -47 -42 -17 -15 -29 -33 -27 -40
3 -7 -13 -11 -49 -11 -29 1 -45 3 -35 5 18 5 23 18 8 27 -5 4 -12 0 -14 -6 -3
-7 -6 -3 -6 9 -1 12 -6 25 -13 29 -8 5 -9 -4 -4 -34 4 -26 2 -42 -4 -42 -5 0
-10 14 -10 31 0 19 -4 29 -12 27 -15 -5 -22 -58 -8 -58 6 0 15 -11 20 -25 8
-22 13 -23 35 -15 14 5 25 8 26 7 9 -32 5 -59 -13 -71 -12 -9 -18 -21 -15 -30
4 -9 1 -16 -5 -16 -12 0 -37 -29 -38 -44 0 -5 7 -3 15 4 13 11 14 10 9 -4 -3
-9 -9 -16 -13 -16 -15 0 -29 23 -24 37 5 13 2 13 -15 4 -27 -15 -32 -14 -32 4
0 8 6 15 14 15 17 0 26 22 26 66 0 37 -10 43 -30 19 -7 -8 -19 -15 -26 -15 -8
0 -14 -6 -14 -14 0 -8 -7 -16 -15 -20 -8 -3 -15 -1 -15 4 0 16 -37 11 -44 -5
-8 -22 -21 -18 -36 10 -11 20 -11 27 0 40 8 10 9 15 1 15 -21 0 -26 -5 -23
-23 2 -10 -3 -17 -12 -17 -9 0 -16 -6 -17 -12 0 -12 -21 27 -23 44 -1 3 -5 10
-10 15 -5 5 -6 3 -2 -5 4 -7 1 -15 -8 -18 -10 -4 -16 -18 -16 -38 0 -23 -3
-27 -10 -16 -14 23 -22 7 -29 -62 -1 -4 -8 -14 -17 -23 -17 -16 -12 -51 6 -40
5 3 10 -1 10 -10 0 -9 6 -23 14 -31 8 -7 16 -19 18 -26 2 -6 12 -9 21 -5 16 6
17 9 2 38 -9 17 -13 34 -9 37 4 4 9 1 11 -6 4 -10 8 -10 19 -1 18 15 31 4 16
-14 -15 -18 -3 -30 15 -16 10 9 13 6 13 -14 0 -23 3 -24 44 -23 25 1 52 8 60
15 9 8 16 9 16 3 0 -6 -6 -13 -12 -15 -7 -3 2 -6 20 -6 29 -1 32 2 32 29 0 19
-7 33 -20 40 -20 10 -20 12 -3 35 24 33 33 31 23 -4 -6 -23 -5 -31 7 -35 26
-10 36 -7 24 8 -9 11 -6 15 19 18 30 4 43 -13 20 -27 -5 -3 -10 -11 -10 -17 0
-7 4 -7 13 1 8 6 17 7 21 3 5 -4 6 4 4 18 -3 24 27 60 50 60 6 0 13 6 15 13 3
6 5 -5 4 -25 0 -32 -4 -37 -26 -41 l-26 -3 23 -10 c23 -10 23 -11 5 -30 -10
-11 -14 -15 -10 -8 9 14 -8 28 -23 19 -5 -3 -10 -15 -10 -26 0 -26 44 -25 63
2 l15 21 7 -21 c6 -21 35 -30 35 -11 0 6 12 22 26 35 21 19 23 25 10 25 -9 0
-16 5 -16 10 0 6 6 10 14 10 19 0 29 -31 20 -64 -5 -20 -2 -26 10 -26 9 0 16
8 16 20 0 10 9 24 20 30 17 9 20 8 20 -10 0 -11 -4 -20 -10 -20 -5 0 -10 -5
-10 -11 0 -14 92 -9 102 5 5 8 8 8 8 0 0 -7 22 -12 56 -13 43 -1 60 3 71 17
14 16 14 16 9 -1 -3 -11 0 -17 9 -17 18 0 18 5 4 32 -8 15 -8 19 0 14 17 -11
26 24 12 45 -8 14 -8 19 0 19 17 0 38 31 39 55 0 18 -3 16 -25 -9 -30 -34 -30
-31 -8 37 12 35 19 46 21 32 7 -34 21 -40 31 -13 9 25 41 46 41 27 0 -5 -7
-12 -15 -15 -22 -9 -18 -23 7 -33 21 -7 20 -8 -10 -22 -19 -8 -32 -21 -32 -32
0 -10 -7 -29 -16 -42 -9 -14 -13 -25 -9 -25 5 0 0 -9 -11 -21 -18 -20 -18 -21
1 -35 15 -12 50 -15 152 -13 72 1 137 6 145 10 10 7 10 9 1 9 -7 0 -13 5 -13
10 0 18 18 11 25 -10 7 -23 25 -27 25 -5 0 8 4 15 10 15 5 0 7 -7 4 -15 -5
-12 5 -14 55 -14 33 1 59 5 56 9 -3 5 0 21 6 37 8 21 8 25 -2 16 -6 -6 -18 -9
-25 -6 -10 4 -12 0 -8 -12 5 -13 3 -16 -7 -13 -8 3 -13 12 -11 22 4 25 -13 19
-24 -9 -8 -21 -11 -23 -27 -10 -18 13 -18 14 2 34 31 31 26 112 -8 119 -8 2
-17 -2 -21 -8 -5 -7 -9 -4 -13 9 -3 12 -1 19 4 16 5 -3 18 -1 29 5 13 7 20 7
20 0 0 -5 5 -10 10 -10 6 0 10 16 10 35 0 19 5 46 12 60 11 24 13 25 18 9 6
-15 10 -12 25 19 14 30 15 40 5 52 -7 9 -8 15 -2 15 10 0 25 42 26 73 1 10 6
21 12 25 6 4 16 22 22 39 9 27 8 33 -4 33 -7 0 -14 7 -14 15 0 9 6 12 15 9 9
-4 15 0 15 9 0 8 -5 17 -11 19 -5 2 -11 11 -13 20 -5 37 -17 31 -14 -7 2 -29
-1 -39 -10 -37 -9 2 -11 -4 -7 -18 9 -28 -2 -56 -30 -74 l-24 -16 5 41 c5 38
4 40 -17 34 -15 -5 -19 -4 -14 5 4 6 -1 18 -11 25 -25 19 -15 19 29 0 19 -8
37 -11 41 -8 12 12 6 61 -9 73 -8 7 -15 22 -15 34 1 19 2 18 16 -6 16 -31 32
-36 40 -14 3 8 12 12 19 10 10 -4 10 3 -3 30 -8 19 -19 33 -24 30 -4 -3 -8 3
-8 12 0 34 -24 85 -37 80 -18 -7 -53 24 -46 40 7 18 -11 18 -26 0 -9 -11 -9
-15 1 -18 10 -4 7 -17 -11 -54 -14 -26 -26 -43 -29 -36 -2 7 -10 12 -17 12
-19 0 -29 -102 -15 -148 7 -20 19 -42 27 -48 12 -10 11 -16 -4 -41 -17 -28
-19 -28 -35 -11 -17 17 -15 22 5 19 11 -2 9 57 -3 61 -19 6 -12 170 9 191 8 8
11 8 11 -1 0 -7 4 -12 9 -12 5 0 8 11 7 25 -1 23 -16 37 -16 15 0 -19 -15 -10
-32 20 -17 29 -16 31 8 55 14 14 29 25 33 25 5 0 11 10 14 23 4 12 13 31 22
42 16 20 16 20 12 -2 -3 -13 -1 -23 4 -23 5 0 9 11 9 24 0 16 -7 26 -22 29
l-21 6 25 33 c20 26 23 38 17 56 -5 13 -7 28 -3 33 3 5 1 9 -4 9 -5 0 -14 10
-21 23 -11 21 -11 21 -6 -6 5 -24 3 -28 -12 -25 -11 2 -17 12 -16 23 1 11 -5
24 -13 28 -20 11 -8 26 16 20 14 -4 20 0 20 12 0 11 -5 15 -14 12 -15 -6 -18
24 -9 73 l5 25 23 -30 c26 -32 35 -30 39 9 3 20 -1 26 -16 26 -11 0 -18 5 -15
13 2 6 15 12 28 12 17 0 25 -6 27 -23 4 -27 27 -24 27 4 1 10 6 28 13 39 11
20 12 20 18 -3 3 -12 14 -22 23 -22 19 0 81 93 81 122 0 11 5 18 11 16 12 -4
22 -119 13 -150 -6 -22 -24 -24 -24 -3 0 8 -4 15 -10 15 -16 0 -12 -22 7 -35
14 -10 18 -31 20 -98 2 -77 0 -85 -18 -90 -16 -4 -19 -15 -20 -61 -1 -31 -2
-62 -3 -68 0 -7 -19 -15 -41 -18 l-40 -5 -3 -54 c-2 -37 -9 -59 -20 -67 -9 -7
-14 -16 -10 -20 4 -4 14 -2 21 4 11 9 18 5 35 -17 24 -32 76 -46 93 -24 6 7
18 13 25 13 8 0 14 5 14 10 0 6 7 10 16 10 11 0 14 -6 8 -22 -14 -42 -10 -63
10 -63 25 0 49 -67 42 -115 -4 -27 -3 -31 5 -18 5 10 17 18 26 18 9 0 13 6 9
15 -3 8 -1 15 5 15 7 0 9 -10 4 -27 -9 -33 -9 -33 0 -98 3 -27 11 -58 17 -68
5 -10 7 -25 4 -32 -2 -7 2 -21 9 -32 15 -19 13 -52 -7 -130 -8 -34 -8 -45 5
-57 19 -19 28 -10 21 21 -5 19 -2 25 15 30 11 3 21 10 21 17 1 6 8 -2 17 -19
9 -16 20 -33 26 -36 6 -4 6 -9 0 -12 -6 -4 -16 5 -23 18 -14 27 -36 35 -26 10
6 -18 -20 -85 -34 -85 -6 0 -10 -6 -10 -14 0 -8 -6 -14 -12 -13 -38 1 -59 -4
-57 -15 5 -26 -13 -78 -27 -78 -8 0 -14 -6 -14 -12 0 -9 -3 -8 -9 1 -7 11 -3
21 15 38 31 28 30 33 -3 24 -16 -4 -33 -17 -39 -29 -6 -12 -14 -19 -17 -15 -4
3 -7 -3 -7 -14 0 -12 -7 -23 -15 -27 -17 -6 -19 7 -5 34 8 16 8 18 -5 14 -8
-4 -15 -10 -15 -15 0 -5 -5 -9 -11 -9 -6 0 -8 7 -5 15 3 8 9 21 12 29 3 9 -3
15 -18 18 -38 7 -50 0 -37 -23 8 -16 6 -24 -13 -39 -20 -17 -21 -21 -8 -30 19
-12 30 -13 30 -1 0 5 9 11 19 14 14 3 18 1 14 -9 -4 -11 11 -14 75 -14 l81 0
6 44 c4 25 16 54 27 66 22 24 26 23 31 -6 1 -10 7 -25 11 -33 7 -11 3 -13 -22
-8 -34 7 -37 2 -26 -40 5 -19 13 -23 48 -23 23 0 48 6 55 13 11 9 14 9 18 0 3
-9 27 -13 69 -13 41 0 63 4 59 10 -3 5 1 10 9 10 8 0 18 -4 21 -10 9 -15 145
-13 145 3 0 8 4 7 10 -3 9 -13 12 -12 22 5 14 22 15 26 17 55 1 14 8 20 24 20
19 -1 20 -2 7 -13 -23 -18 -14 -77 11 -77 22 0 26 25 4 37 -12 7 -11 11 6 21
17 11 20 11 17 -5 -2 -10 2 -17 10 -16 6 2 12 -3 12 -11 0 -8 -6 -17 -12 -19
-8 -3 -6 -6 5 -6 9 -1 18 4 18 9 1 6 3 15 4 20 1 6 3 15 4 21 1 8 5 8 14 1 7
-6 24 -8 37 -5 16 4 21 3 16 -5 -4 -7 -18 -12 -32 -12 -15 0 -24 -6 -24 -16 0
-26 52 -13 67 16 8 15 13 19 13 10 0 -9 -5 -21 -12 -28 -9 -9 -7 -12 9 -12 12
0 29 8 39 17 15 16 17 16 29 0 12 -17 57 -25 53 -9 -3 9 31 72 38 72 3 0 3 -8
0 -17 -7 -24 27 -63 54 -63 12 0 19 4 15 9 -3 5 -1 12 4 15 5 3 11 -1 15 -9 8
-22 176 -22 176 0 0 19 29 19 36 0 5 -12 28 -15 118 -15 74 0 116 4 124 12 9
9 12 9 12 0 0 -7 13 -12 30 -12 22 0 28 4 24 15 -4 11 0 15 16 15 15 0 20 -4
16 -15 -5 -13 123 -15 1070 -15 944 0 1075 2 1071 15 -4 8 -2 17 4 21 6 3 13
-3 16 -15 3 -12 12 -21 20 -21 10 0 13 7 8 23 l-6 22 19 -22 c11 -12 22 -19
26 -16 11 11 7 115 -4 108 -5 -3 -10 -1 -10 5 0 6 -13 25 -30 43 -22 24 -30
28 -30 15 0 -9 -5 -20 -11 -24 -7 -4 -9 0 -5 14 7 20 -5 49 -33 84 -13 17 -15
17 -27 0 -9 -11 -13 -13 -14 -4 0 7 -4 11 -9 7 -6 -3 -16 1 -23 8 -13 14 -43
12 -65 -6 -10 -7 -13 -4 -13 11 0 23 -33 35 -50 18 -8 -8 -13 -7 -19 3 -7 10
-10 11 -16 0 -6 -9 -11 -6 -17 10 -9 26 -3 41 17 41 7 0 15 7 19 15 3 8 0 14
-6 12 -21 -4 -19 21 3 28 30 10 97 -14 118 -41 19 -24 31 -22 31 5 0 18 39 72
40 56 0 -6 -5 -16 -12 -23 -10 -10 -6 -12 17 -9 17 3 22 2 13 0 -10 -2 -18
-11 -18 -19 0 -8 -4 -12 -10 -9 -5 3 -10 0 -10 -8 0 -8 -7 -20 -15 -27 -27
-23 -1 -33 35 -15 25 13 34 14 40 5 6 -9 18 -5 45 16 35 26 38 27 50 11 13
-18 9 -57 -6 -57 -5 0 -6 7 -3 15 4 8 1 15 -4 15 -17 0 -39 -38 -37 -63 1 -12
3 -28 4 -36 0 -7 7 -11 15 -8 9 4 13 1 11 -6 -2 -7 7 -25 21 -42 l24 -30 -1
168 -1 168 -21 -22 c-16 -17 -22 -19 -26 -8 -2 8 -12 21 -23 30 -12 11 -16 23
-11 35 6 16 4 17 -8 7 -13 -10 -16 -10 -17 0 0 6 -2 21 -4 32 -2 13 2 19 13
17 8 -1 25 7 37 18 17 16 20 27 15 56 -4 25 -3 35 4 31 18 -11 25 -58 11 -75
-10 -12 -10 -14 0 -8 19 11 26 -21 8 -39 -9 -9 -17 -14 -17 -11 -1 3 -2 10 -3
15 -2 18 -14 22 -19 7 -4 -9 -2 -18 3 -21 6 -4 10 -14 10 -23 0 -15 -2 -15
-10 -2 -5 8 -10 11 -10 5 1 -13 25 -45 34 -45 4 0 5 9 1 19 -4 14 0 21 15 26
19 6 20 14 20 239 0 230 0 233 -23 254 -29 27 -40 28 -32 3 3 -11 1 -22 -5
-26 -5 -3 -11 2 -11 12 -1 10 -2 23 -4 28 -1 6 -3 20 -3 33 -2 26 -31 30 -33
5 -1 -10 -1 -21 0 -26 2 -16 -29 -6 -45 16 -10 14 -14 16 -11 5 5 -15 1 -16
-31 -12 -20 3 -47 5 -59 5 -22 1 -34 29 -13 29 18 0 11 18 -9 25 -21 6 -61
-21 -61 -41 0 -6 -11 -19 -24 -27 -23 -15 -24 -15 -29 11 -4 19 0 31 14 42 19
15 18 16 -20 17 -22 1 -43 -2 -46 -8 -4 -5 -11 -9 -16 -9 -6 0 -7 4 -4 10 3 6
-1 7 -9 4 -9 -3 -16 -10 -16 -14 0 -13 42 -19 62 -9 12 6 18 6 18 -1 0 -5 -4
-10 -8 -10 -5 0 -7 -13 -4 -30 3 -18 0 -30 -7 -30 -6 0 -11 7 -11 15 0 8 -4
15 -10 15 -5 0 -7 -6 -4 -13 5 -14 -44 -16 -66 -2 -7 4 -15 4 -19 -1 -11 -15
-53 -36 -59 -29 -4 4 1 11 11 16 21 12 23 31 2 23 -10 -4 -15 0 -15 16 0 12
-4 18 -10 15 -6 -4 -16 -2 -23 4 -8 6 -18 6 -27 1 -13 -8 -13 -14 2 -40 20
-35 16 -38 -14 -10 -12 10 -25 17 -30 14 -4 -3 -8 4 -8 15 0 25 -36 65 -45 51
-4 -6 1 -13 9 -16 24 -9 21 -54 -3 -54 -12 0 -22 -10 -27 -27 -7 -26 -8 -25
-15 17 -4 25 -5 55 -2 67 3 13 0 23 -6 23 -6 0 -11 -4 -11 -10 0 -5 -7 -10
-16 -10 -16 0 -16 11 1 53 4 10 3 17 -4 17 -6 0 -11 -7 -11 -15 0 -8 -7 -15
-15 -15 -8 0 -14 5 -12 11 1 6 -4 14 -10 16 -7 3 -13 -1 -13 -9 0 -7 -6 -21
-14 -30 -19 -26 -51 -12 -65 29 -12 33 -14 34 -30 18 -15 -15 -15 -17 2 -30
15 -11 17 -17 8 -32 -10 -17 -10 -17 -11 0 0 21 -13 22 -30 2 -17 -21 -31 -9
-24 21 12 46 -4 24 -27 -38 -12 -35 -26 -65 -30 -68 -4 -3 -8 -14 -10 -25 -5
-22 -30 -27 -36 -7 -3 6 3 12 12 12 9 0 13 5 9 11 -3 6 -17 8 -31 4 -21 -5
-24 -3 -19 10 9 25 -4 39 -18 19 -16 -21 -56 -10 -56 16 0 11 -7 23 -16 28
-14 8 -15 14 -4 46 13 40 32 49 29 13 -4 -43 1 -57 20 -57 23 0 40 22 23 28
-24 8 -11 22 14 16 19 -5 25 -4 20 5 -4 6 -2 11 3 11 6 0 21 -16 33 -35 13
-19 28 -35 35 -35 13 0 28 38 19 47 -3 4 -6 1 -6 -5 0 -16 -18 -15 -36 2 -18
19 -18 24 4 29 13 4 11 5 -5 6 -25 1 -28 8 -14 29 7 11 9 11 14 -2 4 -9 13
-16 22 -16 8 0 15 -5 15 -12 0 -8 6 -6 17 5 16 15 16 19 1 49 -12 23 -17 27
-17 14 -1 -12 -6 -16 -17 -12 -9 3 -18 6 -20 6 -2 0 -4 5 -4 11 0 5 4 8 9 4
14 -8 0 68 -13 77 -7 5 -12 -3 -14 -22 -4 -34 -9 -36 -39 -15 -21 14 -21 14
-16 -25 4 -26 2 -40 -6 -40 -6 0 -11 5 -11 11 0 6 -9 8 -20 4 -16 -5 -19 -3
-13 12 3 10 3 15 -2 11 -4 -4 -13 0 -20 9 -7 9 -19 14 -28 10 -14 -5 -15 -11
-5 -31 6 -14 14 -24 17 -22 3 3 17 -1 30 -8 14 -8 19 -16 13 -20 -6 -3 -14 -1
-18 6 -5 8 -12 -4 -19 -32 -11 -43 -13 -45 -48 -44 -20 1 -34 -3 -31 -8 14
-23 12 -65 -5 -75 -15 -10 -17 -7 -13 21 5 28 3 30 -12 17 -14 -12 -16 -11
-16 8 0 12 6 21 15 21 9 0 12 6 9 15 -4 8 -1 21 5 28 8 10 6 19 -4 34 -12 17
-12 22 -2 26 9 4 9 8 -2 15 -7 5 -10 15 -7 21 4 6 2 11 -3 11 -6 0 -11 -4 -11
-10 0 -5 -12 -10 -26 -10 -14 0 -22 -4 -19 -10 3 -6 -1 -7 -9 -4 -18 7 -22
-16 -6 -32 11 -11 3 -44 -10 -44 -4 0 -11 16 -14 35 -9 45 -21 51 -41 21 -13
-19 -14 -29 -6 -45 14 -25 14 -44 1 -36 -5 3 -10 2 -10 -3 0 -5 14 -9 30 -10
17 0 30 4 30 9 0 5 3 9 8 9 4 0 5 -23 4 -50 -3 -43 0 -53 20 -71 21 -19 22
-20 2 -14 -19 5 -21 1 -22 -46 0 -28 -6 -57 -13 -65 -9 -11 -9 -18 -1 -26 19
-19 15 -49 -5 -41 -17 7 -17 6 0 -20 20 -31 22 -58 5 -54 -8 1 -14 -12 -16
-36 -3 -36 -5 -38 -28 -33 -14 4 -24 2 -24 -4 0 -6 4 -9 9 -6 5 3 12 -1 15
-10 9 -24 7 -29 -6 -16 -15 15 -38 16 -38 1 0 -5 4 -8 9 -5 4 3 6 -6 3 -19 -2
-13 -13 -27 -23 -30 -10 -4 -19 -11 -19 -16 0 -6 -4 -8 -9 -4 -6 3 1 28 14 58
29 62 33 86 10 67 -8 -7 -15 -23 -15 -36 0 -13 -4 -24 -9 -24 -5 0 -11 -13
-14 -30 -5 -21 -11 -28 -22 -24 -8 3 -17 0 -20 -8 -3 -8 -15 -14 -26 -15 -19
-2 -20 2 -15 32 8 43 35 95 52 102 8 3 11 9 8 14 -3 5 -1 9 4 9 6 0 12 7 16
15 4 11 -4 8 -24 -7 -17 -12 -30 -26 -30 -31 0 -4 -7 -15 -15 -23 -19 -20 -19
-7 1 47 21 56 26 281 7 300 -11 11 -13 8 -14 -11 0 -23 -1 -23 -8 -5 -5 11 -4
33 2 49 7 21 6 30 -3 36 -8 5 -11 19 -7 39 4 16 2 33 -3 36 -6 4 -8 11 -5 16
13 20 24 7 27 -32 4 -55 24 -68 69 -46 19 9 26 17 17 17 -10 0 -19 12 -23 33
-13 63 -16 71 -26 56 -6 -10 -9 -4 -9 19 0 37 -27 46 -32 10 -2 -13 -13 -27
-25 -33 -13 -5 -23 -13 -23 -17 0 -5 -7 -8 -15 -8 -8 0 -15 -6 -15 -12 0 -9
-4 -8 -10 2 -5 8 -10 11 -10 6 0 -6 -5 -5 -11 1 -15 15 -59 4 -59 -16 0 -13
-2 -13 -9 -3 -6 10 -10 7 -15 -13 -9 -35 16 -65 46 -57 13 3 19 1 15 -5 -4 -6
0 -13 8 -17 24 -9 17 -26 -10 -26 -22 0 -24 -3 -15 -25 7 -19 6 -25 -4 -25 -8
0 -16 -9 -19 -20 -3 -11 -1 -20 4 -20 5 0 9 -7 9 -15 0 -8 -4 -15 -10 -15 -9
0 -14 17 -13 48 1 6 -3 12 -7 12 -5 0 -17 3 -27 6 -13 4 -14 3 -5 -4 10 -6 1
-9 -27 -9 -23 0 -40 2 -37 4 2 2 -2 16 -10 31 -13 26 -12 28 23 59 43 38 53
41 53 12 0 -15 -5 -19 -19 -14 -25 8 -46 -18 -27 -34 16 -14 46 -4 46 15 0 8
5 14 10 14 16 0 12 32 -6 52 -16 16 -16 18 0 24 25 10 19 24 -10 24 -22 0 -24
2 -14 14 6 8 17 14 23 12 7 -1 9 -1 5 1 -14 8 -9 23 7 23 8 0 15 6 15 13 0 6
3 22 6 35 5 16 2 22 -11 22 -11 0 -15 -5 -12 -15 4 -8 2 -17 -3 -20 -6 -4 -10
-1 -10 4 0 6 -7 11 -15 11 -8 0 -15 -6 -15 -12 0 -9 -3 -8 -9 2 -12 18 -3 33
15 26 7 -3 16 -1 19 4 4 6 1 11 -4 11 -21 3 -26 4 -38 12 -7 5 -13 5 -13 0 0
-4 -8 6 -19 22 -10 17 -16 34 -13 39 10 18 9 76 -2 76 -8 0 -8 2 0 8 16 11 33
68 27 91 -5 21 36 105 68 140 20 21 37 107 45 224 4 57 2 67 -12 67 -12 0 -15
6 -10 25 4 14 2 25 -4 25 -5 0 -10 11 -10 25 0 14 -4 25 -8 25 -4 0 -9 12 -10
27 -1 14 -9 34 -18 44 -12 13 -13 18 -2 22 7 3 3 6 -10 6 -47 2 -62 18 -62 70
0 40 -4 50 -20 54 -11 3 -22 17 -26 33 -4 16 -15 37 -26 47 -12 12 -17 26 -13
38 4 10 2 19 -3 19 -5 0 -12 -9 -15 -21 -3 -12 -10 -18 -16 -15 -6 4 -8 13 -4
21 3 9 -1 15 -11 15 -20 0 -21 -26 -1 -34 17 -6 21 -46 5 -46 -5 0 -10 -10
-10 -22 0 -13 -5 -30 -10 -38 -8 -12 -10 -11 -10 8 0 12 -4 22 -10 22 -5 0
-10 -11 -10 -25 0 -18 -7 -28 -25 -35 -14 -5 -25 -13 -25 -17 0 -5 -16 -13
-35 -19 -33 -11 -34 -10 -29 13 5 17 2 23 -10 23 -16 0 -49 53 -39 63 3 4 -2
9 -11 13 -11 4 -16 19 -16 49 0 47 -15 68 -25 35 -6 -18 -8 -18 -36 12 -16 18
-29 36 -29 41 0 16 -21 -5 -32 -31 -6 -16 -12 -22 -15 -14 -3 7 -1 20 3 30 4
9 6 20 6 25 -1 4 3 7 9 7 5 0 7 5 4 10 -14 23 -35 9 -36 -22 l-1 -33 -13 35
c-9 23 -14 28 -14 16 -1 -20 -1 -20 -16 0 -13 18 -14 16 -16 -21 -1 -22 -1
-49 0 -60 2 -15 -2 -12 -14 10 -9 16 -14 40 -10 52 3 13 1 23 -5 23 -5 0 -19
9 -30 20 -11 11 -24 20 -30 20 -15 0 -12 -21 6 -34 14 -11 14 -13 -2 -27 -10
-7 -15 -9 -11 -3 4 7 1 17 -7 23 -11 9 -15 2 -20 -43 -5 -40 -11 -53 -21 -50
-7 3 -15 14 -18 24 -3 13 -11 17 -25 13 -17 -4 -20 -1 -16 15 4 15 -1 20 -23
25 -19 4 -32 15 -40 34 l-11 28 -1 -27 c-1 -14 -4 -35 -8 -45 -6 -16 -5 -16
10 -4 15 12 17 10 17 -17 0 -33 14 -48 50 -54 24 -4 23 -5 -13 -21 -50 -22
-51 -22 -57 5 -7 26 -36 32 -32 7 1 -9 -4 -19 -12 -22 -9 -4 -16 4 -20 24 -5
27 -26 42 -26 19 0 -5 -7 -10 -15 -10 -8 0 -15 6 -15 14 0 8 -16 17 -37 21
-21 4 -32 10 -25 12 18 7 15 23 -5 24 -10 0 -13 3 -6 5 16 7 5 34 -14 34 -9 0
-13 -6 -10 -14 6 -16 -62 -40 -87 -30 -27 10 -18 24 16 24 25 0 29 3 20 12 -7
7 -33 12 -59 13 -40 0 -49 4 -60 25 -7 14 -13 19 -13 12 0 -7 -5 -10 -10 -7
-6 4 -8 11 -5 16 3 5 -1 6 -9 3 -12 -5 -16 0 -16 18 0 13 -11 35 -25 50 -14
15 -30 38 -35 50 -8 22 -9 22 -9 -4 -1 -29 -15 -38 -24 -15 -3 6 -6 -11 -6
-40 -1 -33 4 -53 12 -56 9 -3 9 -9 1 -23 -6 -11 -9 -44 -7 -74 l3 -55 -25 40
c-14 22 -23 45 -21 52 6 14 -38 75 -47 66 -4 -3 -7 -21 -7 -39 0 -41 -29 -63
-45 -34 -6 12 -15 16 -23 11 -15 -9 -33 -112 -22 -126 15 -18 16 -70 3 -67 -7
1 -13 -3 -13 -9 0 -6 -5 -9 -12 -7 -7 3 -10 32 -9 87 l2 84 -25 -7 c-24 -6
-26 -4 -26 24 0 20 -5 30 -15 30 -9 0 -15 -9 -15 -23 0 -13 -3 -27 -7 -31 -4
-4 -8 -60 -10 -124 -4 -147 -4 -151 -21 -144 -9 3 -12 14 -8 33 3 16 2 29 -2
29 -21 0 -42 99 -42 198 0 97 -1 104 -26 128 -16 17 -24 34 -21 48 4 20 4 20
6 -2 0 -14 6 -22 13 -20 16 6 13 55 -11 158 -11 47 -25 107 -32 134 -9 39 -9
50 2 57 8 5 9 9 3 9 -5 0 -16 16 -24 35 -17 44 -26 37 -35 -27 -9 -64 -37
-132 -43 -104 -2 10 1 37 7 61 12 48 23 122 25 176 2 42 23 73 53 83 21 7 21
5 12 -26 -11 -40 -11 -38 1 -38 6 0 10 9 10 19 0 11 5 23 11 26 6 4 8 13 5 21
-3 8 12 49 34 91 38 76 38 79 29 141 -5 35 -16 80 -25 100 -45 101 -57 122
-80 147 -23 25 -74 119 -74 136 0 4 9 7 20 6 11 -1 20 -5 20 -10 0 -4 5 -5 10
-2 6 4 8 10 5 15 -3 4 4 6 15 3 10 -3 22 -14 26 -25 5 -16 8 -18 15 -7 7 12 9
12 9 0 0 -23 12 -5 20 31 7 33 7 32 14 -17 15 -101 20 -109 59 -122 62 -21 79
-4 56 54 -18 42 -9 123 13 123 7 0 9 -19 4 -56 -4 -33 -2 -71 5 -95 13 -43 10
-42 136 -39 60 1 63 0 69 -27 8 -29 40 -62 62 -63 17 0 15 10 -8 45 -27 41
-25 48 15 43 20 -2 35 0 35 7 7 158 4 195 -11 195 -9 0 -19 9 -22 21 -4 13
-12 19 -24 18 -10 -2 -24 0 -30 4 -9 6 -13 0 -13 -19 l0 -26 -75 4 c-68 3 -75
2 -78 -17 -3 -12 -5 -7 -6 13 -1 21 -6 32 -16 32 -8 0 -15 -4 -15 -10 0 -5 -5
-10 -11 -10 -6 0 -9 7 -5 15 7 19 1 19 -29 -1 -14 -9 -25 -12 -25 -6 0 6 -20
8 -50 5 -49 -4 -50 -3 -50 24 0 15 -9 39 -19 52 l-18 24 -37 -28 c-20 -15 -36
-22 -36 -16 0 6 7 14 15 17 8 4 15 11 15 16 0 7 -5 6 -13 -1 -8 -6 -17 -7 -22
-3 -4 4 -5 -12 -2 -35 5 -49 -9 -57 -43 -23 l-21 21 -20 -23 -21 -23 7 25 c4
14 9 39 11 55 l3 30 -11 -27 c-12 -29 -28 -37 -28 -15 0 19 -24 67 -33 67 -5
0 -6 -4 -2 -9 3 -5 1 -12 -5 -16 -5 -3 -10 1 -10 9 0 9 -4 16 -10 16 -5 0 -18
10 -30 22 l-20 22 0 -27 c0 -27 -13 -36 -25 -17 -4 6 -11 8 -16 4 -6 -3 -21 4
-34 16 -30 29 -62 21 -45 -11 11 -19 10 -20 -10 -9 -15 8 -25 8 -35 0 -14 -11
-27 -60 -16 -60 4 0 5 -16 3 -35 -2 -19 -8 -33 -12 -30 -5 3 -10 0 -12 -7 -3
-7 -12 -4 -27 11 -18 18 -21 29 -16 54 10 45 28 71 22 32 -3 -16 -1 -39 3 -50
7 -17 9 -15 9 12 1 54 34 114 59 105 17 -5 15 25 -5 59 -16 26 -18 27 -35 12
-16 -15 -20 -14 -52 11 -36 27 -108 37 -121 15 -4 -6 -31 -9 -63 -7 -32 1 -63
-1 -70 -6 -9 -5 -22 0 -37 14 -29 27 -22 54 11 46 37 -10 28 12 -8 23 -26 7
-28 9 -10 10 27 1 30 31 3 31 -11 0 -21 -4 -23 -9 -1 -5 -18 -12 -36 -16 -25
-5 -33 -3 -38 10 -4 10 -1 21 6 25 10 6 11 14 4 30 -9 21 -10 21 -27 2z m2392
-2574 c7 -24 12 -47 13 -53 0 -5 4 -21 9 -34 5 -13 12 -40 15 -60 3 -20 10
-43 14 -51 5 -8 4 -23 -2 -33 -5 -10 -7 -21 -4 -25 3 -3 6 0 6 6 0 9 5 9 20 0
17 -11 22 -10 30 2 9 13 12 12 25 -4 8 -11 15 -26 15 -33 0 -7 4 -13 9 -13 5
0 19 -16 32 -36 18 -29 22 -53 25 -134 3 -111 9 -140 30 -140 8 0 13 -3 12 -7
-1 -5 4 -21 10 -36 7 -16 12 -36 12 -44 0 -9 8 -25 17 -35 18 -20 23 -94 8
-118 -5 -8 -8 -33 -7 -55 1 -26 -1 -34 -6 -22 -7 16 -10 16 -30 -8 -12 -14
-22 -31 -22 -39 0 -7 -7 -19 -15 -26 -9 -7 -13 -20 -10 -27 4 -12 -2 -13 -25
-8 -24 5 -30 3 -30 -10 0 -9 -5 -13 -11 -9 -6 3 -15 1 -19 -6 -5 -8 -15 -4
-34 15 -15 15 -29 25 -32 22 -3 -2 2 -12 11 -20 17 -17 20 -47 5 -47 -5 0 -10
7 -10 16 0 10 -6 14 -14 11 -34 -13 -37 77 -6 131 25 42 33 102 13 95 -15 -6
-16 -2 -7 21 3 9 10 13 15 10 5 -3 9 2 9 12 0 13 3 14 15 4 12 -10 15 -9 15 4
0 10 -6 24 -14 32 -12 12 -16 10 -28 -16 -7 -17 -17 -30 -21 -30 -5 0 -5 -4
-2 -10 3 -5 1 -10 -4 -10 -6 0 -11 -8 -11 -19 0 -20 -36 -36 -46 -20 -3 6 -15
7 -26 3 -19 -6 -20 -3 -14 27 12 62 11 74 -4 74 -8 0 -15 9 -15 19 0 11 -6 21
-13 24 -18 6 -15 30 8 59 11 15 18 28 15 31 -7 7 -35 -19 -35 -33 0 -8 -6 -15
-12 -18 -10 -3 -10 -9 0 -27 20 -33 9 -34 -21 0 -29 32 -34 59 -14 79 10 11 9
13 -3 9 -8 -3 -16 -19 -18 -36 -2 -22 -7 -29 -18 -25 -9 3 -14 -2 -14 -15 0
-12 -8 -27 -18 -34 -21 -15 -39 -88 -22 -88 16 0 12 -19 -10 -47 -21 -27 -27
-48 -10 -38 6 3 10 2 10 -4 0 -6 -9 -15 -20 -21 -12 -6 -20 -7 -20 -1 0 5 -10
7 -22 4 -18 -4 -20 -2 -9 5 12 9 12 13 2 26 -8 9 -21 16 -29 16 -11 0 -13 3
-5 11 13 13 73 21 73 9 0 -6 -7 -10 -16 -10 -17 0 -15 -21 2 -27 12 -4 34 39
34 67 0 13 -7 20 -20 20 -11 0 -20 5 -20 10 0 6 -8 14 -17 17 -10 4 -23 14
-30 22 -11 14 -12 14 -13 -1 0 -10 -6 -18 -14 -18 -7 0 -17 -10 -21 -22 l-8
-23 -4 23 c-2 12 -9 20 -14 17 -5 -4 -9 5 -9 18 0 20 -5 25 -25 23 -14 0 -25
-6 -25 -13 0 -6 -10 -13 -22 -15 -16 -2 -23 -10 -22 -24 0 -19 -2 -20 -18 -10
-21 12 -17 48 7 73 17 17 20 27 5 18 -13 -8 -13 -4 6 41 9 22 21 42 28 46 7 5
5 8 -6 8 -11 0 -15 5 -12 15 5 11 10 13 19 5 10 -8 15 -8 20 1 6 8 10 7 16 -2
7 -11 9 -9 9 6 0 17 -7 21 -35 23 -26 2 -35 -1 -35 -13 0 -8 -4 -15 -10 -15
-5 0 -10 11 -10 25 0 16 6 25 15 25 27 0 19 57 -12 77 l-26 17 24 7 c26 6 63
-17 53 -33 -10 -15 31 9 46 27 17 20 20 94 4 88 -6 -2 -9 -14 -7 -26 5 -27
-13 -77 -27 -77 -6 0 -8 4 -5 10 3 5 -3 15 -14 21 -15 10 -17 16 -8 31 16 24
31 23 24 -2 -3 -11 -1 -18 4 -14 14 9 10 41 -6 48 -8 3 -15 0 -15 -6 0 -7 -5
-7 -14 2 -12 9 -17 7 -28 -9 -7 -12 -16 -21 -21 -21 -4 0 -6 4 -3 8 3 5 -2 9
-10 9 -22 0 -10 -22 14 -25 12 -2 20 -7 17 -12 -6 -10 -48 0 -57 14 -4 6 -8
22 -9 36 0 16 -3 19 -6 10 -11 -27 -52 -70 -58 -60 -3 5 -12 7 -20 4 -15 -6
-22 4 -29 46 -3 14 -5 26 -5 28 -2 7 -61 -33 -61 -41 0 -4 4 -5 10 -2 5 3 12
-6 16 -21 4 -17 2 -29 -6 -34 -10 -6 -9 -12 5 -27 16 -15 18 -15 13 -1 -4 9
-3 29 2 45 7 23 8 24 9 6 1 -12 7 -23 14 -26 9 -3 8 -12 -5 -39 -15 -33 -15
-36 3 -49 23 -16 25 -29 4 -29 -8 0 -15 -6 -16 -12 0 -7 -4 -5 -8 5 -6 18 -7
18 -24 0 -14 -16 -15 -24 -5 -51 7 -18 16 -32 21 -32 4 0 5 -4 2 -10 -3 -5 -1
-10 4 -10 16 0 13 19 -4 37 -27 26 -7 28 21 2 l27 -24 -5 33 c-4 27 -1 32 15
32 14 0 17 3 9 13 -6 8 -6 20 1 37 l10 25 4 -23 c3 -12 9 -20 14 -17 5 4 9 -1
9 -9 0 -19 9 -20 44 -6 14 5 26 6 26 1 0 -4 -19 -12 -42 -17 -24 -5 -41 -14
-38 -19 3 -5 11 -9 18 -7 7 2 12 -8 12 -24 0 -34 9 -27 12 9 1 15 5 23 9 19
12 -13 18 -71 9 -77 -6 -3 -10 -11 -10 -17 0 -17 31 13 41 40 5 14 12 22 16
19 3 -3 2 -14 -2 -24 -4 -10 -9 -31 -11 -47 -5 -34 -3 -32 -30 -40 -17 -5 -24
-1 -33 21 -11 26 -81 71 -81 52 0 -5 5 -9 11 -9 5 0 7 -5 4 -11 -4 -6 0 -9 11
-7 12 2 25 -13 46 -56 39 -77 41 -94 17 -119 -16 -17 -19 -18 -14 -4 5 10 2
17 -5 17 -8 0 -11 -11 -8 -30 2 -16 0 -32 -6 -34 -6 -2 1 -5 16 -5 34 -1 42
-14 34 -55 -6 -29 -9 -32 -36 -28 -16 2 -28 8 -25 12 3 4 -4 10 -15 13 -16 4
-18 2 -10 -13 14 -27 12 -34 -5 -20 -8 7 -15 23 -15 36 0 29 -5 29 -53 4 -41
-22 -51 -11 -12 14 15 10 22 22 19 31 -7 17 -34 21 -34 5 0 -5 5 -10 10 -10 6
0 10 -4 10 -10 0 -5 -7 -10 -15 -10 -8 0 -15 9 -15 19 0 11 -4 22 -9 25 -12 8
-20 55 -10 62 5 3 13 -6 19 -20 5 -14 17 -26 25 -26 9 0 18 -7 21 -15 4 -8 13
-15 21 -15 9 0 22 -8 30 -18 7 -9 13 -12 12 -7 -4 29 3 45 19 46 15 0 14 1 -3
8 -18 7 -18 9 6 33 14 14 32 27 40 30 11 4 10 13 -10 52 -16 33 -26 45 -34 37
-7 -7 -6 -20 3 -41 7 -17 10 -33 6 -37 -3 -3 -6 -1 -6 5 0 18 -33 52 -50 51
-10 0 -11 -2 -2 -6 6 -2 12 -9 12 -14 0 -6 -6 -9 -12 -8 -25 3 -38 -1 -38 -12
0 -11 -25 -39 -35 -39 -3 0 0 10 6 22 9 16 9 23 0 26 -7 2 -8 14 -5 29 5 19 4
24 -6 18 -7 -4 -10 -20 -8 -36 3 -16 1 -29 -4 -29 -12 0 -10 78 2 85 21 13 9
27 -17 20 -16 -4 -32 -8 -38 -9 -21 -4 -35 -18 -35 -37 0 -25 -30 -25 -37 1
-3 11 -12 20 -21 20 -12 0 -13 -3 -4 -12 7 -7 12 -19 12 -27 0 -8 9 -24 19
-35 22 -23 41 -83 23 -72 -6 3 -13 19 -17 35 -4 20 -14 31 -31 35 -13 4 -24
11 -24 17 0 6 5 7 12 3 8 -5 9 -2 5 10 -4 10 -7 22 -7 27 0 5 -7 9 -15 9 -8 0
-15 5 -15 11 0 6 -12 9 -27 7 -20 -2 -27 -8 -25 -20 2 -10 -2 -18 -8 -18 -6 0
-8 -4 -5 -10 3 -6 1 -10 -4 -10 -6 0 -11 -6 -11 -14 0 -8 -5 -18 -12 -22 -7
-5 -9 -2 -6 7 3 8 8 24 12 37 7 22 7 22 -18 -3 -14 -14 -31 -25 -39 -25 -7 0
-18 -15 -25 -33 -15 -41 -15 -60 -2 -52 6 4 8 11 5 16 -4 5 1 9 10 9 14 0 16
-6 10 -27 -8 -35 -9 -35 -29 -27 -9 3 -16 15 -16 25 0 21 -16 26 -23 7 -4 -9
-6 -10 -6 -1 -1 6 6 19 15 28 9 9 14 19 11 22 -4 3 0 18 9 34 11 23 12 29 2
29 -7 1 -3 9 10 19 25 22 29 51 7 51 -17 0 -18 2 -9 24 3 9 11 16 16 16 6 0 8
-7 4 -15 -4 -13 -2 -14 14 -5 20 11 25 35 14 64 -8 21 -40 20 -54 -1 -9 -14
-10 -5 -7 40 2 33 9 62 17 67 7 4 10 12 6 18 -12 19 27 72 53 72 13 0 21 3 18
7 -4 3 -2 12 4 20 9 10 7 13 -10 13 -28 0 -27 16 2 25 l22 8 -22 4 c-13 2 -23
9 -23 14 0 6 4 7 10 4 6 -4 7 11 4 39 -6 41 -4 46 12 46 12 0 15 3 8 8 -6 4
-16 33 -21 66 -10 53 -9 59 8 63 11 3 19 9 19 14 0 5 9 9 20 9 11 0 20 5 20
10 0 12 -38 9 -58 -4 -7 -4 -16 -5 -20 -1 -4 4 -1 10 6 12 6 3 10 9 7 14 -7
11 12 49 25 49 6 0 10 -7 10 -15 0 -8 8 -15 17 -15 14 0 14 3 -4 23 -20 21
-21 47 -2 47 5 0 14 -10 19 -22 l9 -23 0 23 c1 12 5 22 9 22 10 0 10 -76 0
-86 -11 -11 -10 -34 2 -34 6 0 10 9 10 19 0 11 5 23 10 26 6 3 10 24 10 47 0
35 2 39 15 28 10 -9 15 -9 15 -1 0 6 9 11 20 11 18 0 19 -5 14 -47 -3 -27 -10
-52 -15 -58 -7 -7 -10 -5 -9 5 4 26 0 40 -10 40 -5 0 -10 -5 -10 -11 0 -7 -8
-18 -17 -25 -15 -10 -16 -15 -5 -25 9 -10 12 -10 12 -1 0 7 4 12 10 12 5 0 7
-7 4 -15 -4 -8 -1 -15 5 -15 6 0 11 -9 11 -20 0 -21 24 -28 35 -10 3 6 -1 10
-9 10 -9 0 -16 5 -16 10 0 6 5 10 10 10 6 0 14 10 19 22 l8 23 7 -23 c8 -25
26 -30 26 -7 0 8 -5 15 -10 15 -6 0 -4 15 5 36 10 25 12 41 5 49 -5 6 -7 15
-3 18 15 15 23 5 24 -30 1 -24 3 -29 6 -15 5 27 43 51 43 27 0 -8 -4 -15 -10
-15 -5 0 -10 -8 -10 -17 0 -12 3 -14 8 -7 4 8 15 8 30 3 25 -10 21 -29 -6 -29
-16 -1 -15 -1 1 -11 20 -12 37 -4 37 18 0 9 6 13 14 10 10 -4 16 5 21 31 8 38
9 37 19 -10 4 -19 11 -26 21 -22 11 5 13 2 9 -10 -3 -9 -2 -16 3 -16 14 0 53
30 53 41 0 26 29 37 93 36 37 -1 67 -5 67 -9 0 -5 13 -8 29 -8 29 0 30 -1 24
-37 -7 -42 -17 -53 -50 -53 -35 0 -24 -49 14 -65 31 -13 49 -32 40 -42 -3 -3
-13 4 -23 15 -9 11 -23 18 -31 15 -7 -3 -20 0 -28 7 -8 7 -21 10 -29 7 -9 -4
-17 1 -21 13 -3 10 -12 21 -20 23 -11 5 -13 -8 -11 -64 1 -38 -1 -69 -6 -69
-4 0 -8 9 -8 20 0 11 -4 20 -9 20 -5 0 -7 -9 -4 -20 3 -11 0 -20 -6 -20 -5 0
-8 6 -5 14 3 8 1 17 -5 20 -6 4 -7 14 -4 24 6 15 5 15 -10 3 -10 -8 -21 -11
-24 -7 -4 4 -1 12 7 17 12 8 9 9 -10 7 -17 -2 -25 -9 -25 -23 0 -16 6 -19 29
-17 25 3 28 0 23 -18 -9 -35 1 -52 25 -39 22 12 37 -1 38 -31 1 -34 15 -39 40
-13 25 26 25 26 2 19 -16 -6 -22 -3 -22 8 0 9 -6 16 -12 16 -9 0 -8 3 2 10 8
5 15 15 15 22 0 7 12 14 28 16 31 4 37 -14 7 -23 -11 -3 -20 -13 -20 -21 0
-10 13 -14 46 -14 32 0 43 3 38 12 -4 6 -3 8 3 5 6 -4 16 0 23 8 7 8 16 15 21
15 16 0 9 -22 -13 -41 -13 -10 -17 -18 -10 -19 6 0 12 -7 12 -16 0 -9 6 -14
13 -11 6 2 11 11 9 21 -3 18 13 22 23 6 3 -5 17 -10 30 -10 13 0 27 -4 30 -10
17 -27 28 9 16 49 0 2 -8 -2 -16 -9 -9 -7 -18 -10 -21 -7 -9 8 5 27 20 27 7 0
17 10 22 23 6 12 9 17 8 10 -4 -20 20 -73 33 -73 18 0 26 19 14 33 -6 8 -7 26
-1 52 13 54 12 57 -7 51 -19 -5 -70 30 -60 41 4 3 13 0 22 -7 13 -11 19 -10
36 6 11 10 18 26 16 36 -4 13 1 18 15 18 11 0 18 5 16 12 -9 25 130 127 153
112 3 -2 12 -23 18 -46z m-3029 -108 c0 -5 9 -10 21 -10 11 0 17 -5 14 -10 -4
-6 -11 -8 -16 -5 -5 4 -9 -1 -9 -10 0 -12 6 -15 20 -10 16 5 20 2 20 -15 0
-13 -4 -19 -12 -14 -8 5 -9 0 -6 -14 7 -26 0 -28 -17 -5 -11 15 -14 14 -34 -6
-16 -16 -20 -29 -15 -44 5 -18 4 -20 -7 -9 -20 19 -31 14 -24 -10 6 -17 4 -20
-9 -15 -12 5 -18 -1 -22 -22 -6 -27 -44 -53 -44 -30 0 5 5 9 10 9 6 0 10 9 10
20 0 11 -4 20 -8 20 -4 0 -9 12 -10 27 -3 33 -11 42 -22 23 -8 -12 -10 -12
-10 -1 0 11 -3 11 -15 1 -8 -6 -19 -9 -26 -5 -11 8 -29 -11 -29 -31 0 -16 52
-25 68 -12 8 7 12 7 12 -1 0 -6 7 -11 15 -11 8 0 15 -4 15 -9 0 -5 -23 -9 -51
-7 -67 3 -85 24 -60 69 9 16 26 32 36 33 70 11 69 11 81 -31 l12 -40 13 33 c8
17 20 32 29 33 11 0 9 3 -5 10 -17 8 -16 9 8 5 33 -4 43 7 22 24 -21 17 -9 31
21 24 27 -7 28 -5 14 30 -6 17 -6 26 0 26 6 0 10 -4 10 -10z m13 -338 c10 -10
14 -22 10 -25 -3 -4 2 -7 11 -7 12 0 16 5 12 15 -3 8 -1 15 4 15 11 0 16 -8
24 -42 6 -26 5 -27 -19 -18 -16 6 -25 6 -25 0 0 -5 -7 -7 -15 -4 -10 4 -15 0
-15 -11 0 -13 -6 -16 -24 -11 -28 7 -46 -11 -25 -25 8 -5 26 -7 41 -5 24 5 88
-18 88 -31 0 -3 -12 -3 -27 0 -15 3 -38 1 -51 -4 -20 -8 -28 -6 -39 11 -8 11
-19 18 -24 14 -6 -3 -3 -12 8 -19 14 -11 16 -16 6 -26 -10 -10 -13 -10 -13 -1
0 7 -9 12 -20 12 -13 0 -20 7 -20 20 0 11 -4 20 -10 20 -14 0 -12 22 5 44 12
15 17 17 29 7 20 -17 41 -4 26 14 -12 14 -8 25 19 57 19 22 24 22 44 0z m-57
-594 c2 -2 5 -26 7 -53 2 -39 7 -50 23 -55 12 -3 19 -13 18 -28 -2 -30 -13
-40 -24 -22 -6 8 -10 10 -10 4 0 -6 7 -17 15 -24 17 -14 21 -45 5 -35 -6 4
-17 23 -25 42 -12 29 -13 38 -3 45 10 6 10 10 -1 17 -17 11 -51 -3 -51 -20 0
-6 -9 -8 -19 -4 -26 8 -56 -35 -46 -65 6 -19 4 -21 -14 -15 -18 5 -21 2 -21
-22 0 -21 -3 -24 -10 -13 -5 8 -12 11 -17 7 -4 -4 -2 -17 5 -27 7 -11 12 -21
12 -23 0 -7 -105 16 -110 23 -3 4 -18 14 -35 23 -25 13 -27 17 -12 22 9 4 17
16 17 26 0 10 5 19 10 19 13 0 13 -23 -1 -37 -14 -14 -3 -33 17 -33 8 0 26 7
39 16 24 16 25 15 25 -6 0 -22 1 -22 25 6 18 20 21 30 12 36 -7 4 -9 8 -4 9 4
1 10 2 15 3 34 7 45 25 39 65 -3 22 -1 41 4 41 5 0 9 -5 9 -11 0 -5 5 -7 10
-4 6 3 13 0 16 -9 7 -19 36 -8 32 13 -2 9 -12 16 -23 16 -11 0 -20 7 -20 15 0
10 8 14 24 12 19 -2 22 0 12 12 -8 9 -8 16 -2 20 5 4 12 -3 16 -14 3 -11 15
-25 25 -30 16 -9 19 -8 13 7 -9 26 -53 63 -75 63 -10 0 -18 4 -18 10 0 8 85
-12 96 -22z"/>
<path d="M3581 1403 c-1 -7 -7 -13 -13 -13 -14 0 -18 -53 -5 -66 10 -10 9 -52
-2 -58 -5 -4 -11 -1 -13 6 -3 9 -9 8 -22 -5 -10 -9 -22 -17 -27 -17 -5 0 -9
-7 -9 -15 0 -19 -7 -19 -27 1 -14 13 -14 17 -2 25 11 7 11 9 -3 9 -17 0 -22
-10 -19 -37 1 -6 -7 -14 -18 -18 -11 -3 -21 -19 -25 -37 -3 -17 -14 -37 -24
-44 -14 -11 -14 -13 -2 -14 9 0 5 -6 -10 -15 -32 -18 -41 -18 -34 0 4 8 2 15
-4 15 -5 0 -12 -9 -15 -21 -3 -11 -15 -23 -26 -26 -11 -3 -22 -11 -25 -19 -7
-17 10 -19 18 -1 3 6 4 -1 1 -16 -7 -36 8 -28 25 13 11 26 17 30 37 25 16 -4
25 -1 29 9 3 8 12 12 20 9 8 -3 11 -9 8 -14 -3 -5 0 -9 6 -9 15 0 49 41 50 59
0 7 6 11 14 8 21 -8 56 21 56 48 0 13 5 27 10 30 8 5 7 11 -1 21 -9 11 -8 14
5 14 9 0 16 -4 16 -10 0 -5 7 -7 15 -4 8 4 15 14 15 24 0 10 7 25 15 34 22 22
18 34 -12 39 -27 4 -27 4 -5 12 12 4 22 11 22 15 0 5 3 16 7 26 4 11 3 15 -4
11 -6 -4 -14 -1 -16 5 -4 10 -6 10 -6 1z"/>
<path d="M3430 4123 c-24 -9 -28 -23 -22 -66 5 -37 4 -40 -17 -34 -17 4 -30
-4 -58 -38 -21 -26 -49 -47 -65 -50 -15 -4 -28 -13 -28 -20 0 -21 -17 -27 -40
-15 -15 8 -20 8 -20 -3 0 -18 -35 -15 -58 6 -11 11 -35 17 -63 17 -38 0 -46 4
-61 30 -21 36 -31 37 -55 6 -15 -18 -26 -23 -47 -19 -22 4 -27 2 -24 -8 5 -14
-23 -40 -55 -52 -15 -6 -18 -16 -15 -54 3 -40 7 -48 26 -53 13 -3 23 -9 23
-15 0 -5 -10 -12 -23 -15 -19 -5 -24 -14 -29 -54 -6 -53 2 -62 46 -54 20 4 25
1 25 -16 1 -19 2 -19 11 -3 8 13 23 17 64 17 46 0 56 4 75 28 l21 27 -6 -28
c-5 -26 -4 -28 22 -27 61 4 66 2 59 -27 -6 -27 -6 -27 9 -9 8 11 15 14 15 8 0
-7 5 -12 11 -12 6 0 8 9 4 21 -6 19 -3 20 72 19 74 -1 229 23 265 41 9 5 35
12 58 15 25 4 45 14 51 26 5 10 14 16 19 13 4 -3 10 -2 13 2 2 5 2 3 1 -4 -2
-7 1 -15 6 -18 17 -10 41 8 61 46 21 43 27 48 25 22 0 -10 5 -17 12 -15 8 1
12 -4 10 -15 -2 -10 -11 -17 -21 -17 -11 1 -17 -5 -17 -17 0 -18 1 -19 25 -3
20 13 28 14 40 4 13 -10 19 -9 36 6 17 16 22 16 29 4 6 -8 10 -19 10 -24 0 -5
18 -6 40 -3 22 3 43 1 46 -4 3 -5 18 -9 35 -9 16 0 29 -4 29 -10 0 -5 9 -10
19 -10 11 0 35 -9 54 -20 28 -17 55 -20 155 -22 67 -2 122 -1 122 2 0 3 22 5
50 5 27 0 50 -3 50 -7 0 -3 3 -13 6 -22 5 -12 -1 -14 -29 -9 -33 5 -58 -9 -38
-21 5 -4 12 -2 16 4 11 17 23 11 18 -9 -6 -23 33 -37 41 -14 3 8 10 11 16 8
16 -10 12 28 -6 53 -8 12 -11 22 -5 22 5 0 11 -6 14 -12 3 -7 11 2 19 21 9 18
18 29 22 23 3 -6 2 -13 -4 -17 -23 -14 5 -25 61 -22 33 2 62 0 65 -4 2 -4 43
-7 91 -7 49 1 117 0 153 -1 36 -1 81 -1 100 -1 19 0 109 -2 200 -5 91 -3 309
-7 485 -9 176 -2 325 -5 330 -6 6 -1 15 -1 20 0 6 1 35 3 65 4 l55 1 3 196 c2
197 2 197 -20 202 -13 4 -27 2 -32 -3 -6 -6 -19 -10 -31 -10 -12 0 -30 -7 -41
-15 -10 -8 -36 -15 -56 -15 -20 0 -40 -5 -44 -11 -4 -7 -21 -9 -45 -5 -22 4
-40 2 -44 -5 -5 -6 -26 -8 -60 -4 -35 5 -55 3 -59 -4 -4 -6 -11 -9 -15 -6 -12
7 -135 17 -233 19 -73 1 -90 4 -110 22 -31 30 -78 38 -103 20 -18 -13 -22 -12
-46 14 -15 16 -30 26 -33 23 -3 -4 -6 -1 -6 5 0 6 -7 9 -15 6 -8 -4 -15 -1
-15 5 0 6 -11 11 -24 11 -26 0 -114 -80 -132 -120 -15 -34 -55 -32 -88 3 -23
25 -75 39 -61 17 10 -16 -25 -24 -55 -13 -18 7 -33 7 -45 1 -12 -8 -23 -4 -41
13 -13 12 -24 28 -24 35 0 22 -57 46 -79 34 -11 -5 -29 -10 -41 -10 -11 0 -20
-6 -19 -12 1 -7 -3 -26 -9 -41 -7 -16 -12 -33 -12 -38 0 -18 -19 -8 -43 22
l-25 32 0 -52 c0 -68 -19 -87 -87 -89 -43 0 -48 1 -32 13 21 15 15 60 -10 69
-9 4 -12 13 -8 26 5 15 0 21 -19 26 -14 3 -26 9 -26 13 0 8 -48 28 -86 34 -17
3 -42 0 -56 -8 -20 -10 -29 -10 -38 -1 -8 8 -15 6 -28 -11 -15 -18 -68 -38
-88 -33 -4 1 -11 -6 -16 -15 -8 -14 -15 -10 -45 22 -23 25 -37 34 -40 25 -4
-10 -9 -10 -23 3 -10 9 -36 18 -57 19 -21 1 -44 5 -51 9 -6 5 -16 6 -22 2 -8
-5 -37 15 -81 57 -20 19 -49 14 -49 -7 0 -32 -49 -23 -50 9 0 4 -7 5 -17 2
-10 -4 -25 3 -42 23 -16 17 -32 27 -41 24z"/>
<path d="M224 3366 c-3 -8 -12 -12 -21 -9 -13 5 -13 2 2 -21 10 -15 14 -30 11
-34 -4 -4 -37 -7 -72 -7 -70 0 -84 -10 -29 -21 56 -10 102 3 127 36 30 41 67
40 117 -5 54 -49 93 -55 126 -20 l25 28 -1 -119 c-1 -123 -12 -160 -45 -147
-8 3 -17 -2 -20 -11 -9 -24 -26 -7 -20 19 4 14 1 27 -6 31 -8 5 -9 2 -5 -9 4
-10 0 -20 -10 -25 -14 -8 -11 -14 18 -42 19 -17 28 -29 22 -25 -9 4 -13 -4
-13 -28 0 -19 -6 -49 -14 -68 -23 -55 7 -120 61 -134 24 -6 25 -7 7 -20 -19
-14 -15 -27 11 -31 8 -1 17 6 20 16 4 12 20 20 51 25 24 3 50 12 57 20 10 11
14 9 25 -9 12 -19 13 -19 8 12 -3 18 -2 31 3 28 13 -8 37 24 24 32 -6 4 -13
27 -17 52 -4 25 -15 60 -26 78 -24 39 -25 49 -5 32 8 -7 15 -8 15 -2 0 5 -7
15 -15 22 -8 7 -15 9 -15 5 0 -4 -7 -2 -15 5 -8 7 -15 18 -14 24 0 7 2 6 6 -1
2 -7 9 -13 14 -13 11 0 12 30 2 30 -5 0 -20 11 -34 24 -24 21 -27 32 -34 126
l-7 102 23 -7 c13 -4 26 -12 29 -16 4 -5 19 -10 35 -13 17 -2 24 -1 17 1 -14
5 -13 44 2 54 13 10 46 -2 46 -17 0 -20 18 -17 30 6 9 17 6 20 -27 26 -21 4
-57 2 -85 -6 -31 -7 -71 -9 -111 -5 -51 6 -60 5 -49 -6 20 -21 14 -29 -22 -29
-28 0 -35 4 -35 20 -1 11 -1 29 -2 40 0 15 -5 19 -18 15 -26 -8 -117 -9 -130
-1 -6 4 -14 1 -17 -8z"/>
<path d="M888 3323 c-10 -2 -18 -11 -18 -20 0 -10 -6 -13 -16 -9 -9 3 -22 6
-30 6 -9 0 -13 3 -11 8 3 4 -12 8 -33 10 -21 1 -41 -2 -45 -8 -3 -5 -1 -10 5
-10 6 0 8 -4 5 -10 -3 -5 -15 -10 -26 -10 -12 0 -19 -7 -19 -20 0 -29 3 -35
18 -32 9 2 12 -3 8 -15 -3 -10 -6 -49 -7 -88 -2 -57 0 -71 13 -73 19 -4 31 26
24 63 -6 33 2 55 20 55 8 0 14 5 14 11 0 6 -7 8 -15 5 -20 -7 -40 40 -25 59 5
6 7 14 4 18 -3 3 4 11 16 17 28 15 100 4 100 -16 0 -10 7 -13 25 -8 23 6 25 3
25 -25 0 -25 6 -34 26 -42 35 -13 37 -9 18 31 -13 25 -14 37 -6 50 12 19 -1
40 -25 40 -7 0 -13 5 -13 10 0 10 -3 11 -32 3z"/>
<path d="M5446 3072 c6 -4 14 -17 18 -29 5 -16 2 -23 -13 -28 -12 -3 -26 -3
-32 1 -8 5 -10 0 -7 -14 4 -12 0 -26 -9 -33 -11 -10 -11 -14 -1 -20 8 -5 8 -9
2 -9 -7 0 -11 -25 -11 -65 0 -35 3 -62 7 -60 4 3 11 -2 14 -11 4 -12 1 -14
-13 -9 -16 5 -18 2 -14 -15 6 -22 19 -27 25 -8 3 7 7 2 10 -10 4 -12 3 -20 -1
-17 -12 7 -31 -41 -31 -75 0 -34 -11 -38 -31 -13 -10 11 -10 14 -1 9 21 -13
13 15 -10 34 -20 16 -24 16 -34 2 -8 -10 -17 -13 -30 -7 -17 7 -18 8 -1 12 20
5 23 29 3 36 -9 4 -17 -3 -21 -16 -6 -22 -6 -22 -15 -2 -12 27 -12 37 0 30 6
-3 7 1 4 9 -5 12 1 15 25 13 17 -1 31 -5 31 -9 0 -5 9 -8 20 -8 11 0 20 7 20
15 0 8 5 15 10 15 11 0 13 30 4 54 -3 9 -10 14 -15 11 -4 -3 -6 -11 -3 -18 2
-7 -5 -18 -17 -25 -20 -13 -21 -12 -14 17 4 18 3 31 -3 31 -5 0 -13 -16 -16
-35 -4 -19 -11 -35 -17 -35 -6 0 -8 4 -4 9 3 5 1 12 -4 15 -5 4 -8 22 -7 41 2
19 0 35 -4 35 -5 0 -6 17 -3 39 4 29 1 39 -11 44 -12 5 -16 0 -17 -21 -1 -30
-3 -49 -13 -105 -3 -21 -2 -36 2 -33 10 6 10 -40 0 -50 -5 -4 -8 -2 -8 4 0 7
-7 12 -16 12 -14 0 -14 3 -4 15 7 8 9 15 4 15 -5 0 -10 11 -10 25 -1 15 3 25
12 25 8 0 14 10 14 24 0 13 3 38 7 56 4 21 2 31 -4 27 -5 -3 -10 -20 -11 -37
0 -18 -8 -42 -16 -55 -9 -14 -16 -33 -16 -45 0 -25 -26 -27 -32 -2 -5 16 -48
29 -48 14 0 -4 -31 -7 -70 -7 -63 0 -70 2 -70 20 -1 18 -2 17 -15 -5 -8 -14
-14 -33 -15 -42 0 -21 -16 -24 -23 -5 -2 6 -8 -9 -12 -35 -4 -27 -12 -48 -17
-48 -7 0 -8 14 -5 36 l6 36 -25 -17 c-20 -13 -28 -14 -40 -4 -9 7 -14 8 -14 1
0 -6 5 -14 10 -17 6 -3 10 -15 10 -26 0 -10 4 -19 8 -19 4 0 9 -16 10 -35 2
-19 -2 -35 -7 -35 -6 0 -7 7 -4 17 4 11 3 14 -5 9 -7 -4 -12 -17 -12 -29 -1
-12 -7 -33 -15 -47 l-14 -25 -1 33 c0 18 -5 42 -10 53 -12 21 -35 26 -27 6 4
-10 -1 -13 -16 -10 -18 4 -22 0 -22 -22 0 -22 4 -26 23 -22 14 3 21 0 19 -7
-2 -6 -14 -10 -26 -10 -19 1 -22 -2 -18 -24 l5 -26 -19 25 c-21 28 -23 35 -9
44 6 3 10 31 10 61 l0 55 -24 -18 c-45 -33 -61 -106 -31 -137 20 -19 21 -43 1
-27 -16 13 -15 16 -42 -164 -12 -81 -14 -110 -5 -113 9 -3 9 -7 0 -18 -9 -11
-6 -14 19 -14 17 0 32 -5 34 -11 5 -15 65 -22 73 -8 5 7 12 6 22 -2 12 -10 16
-10 24 2 5 8 9 10 9 6 0 -4 12 3 26 17 16 14 24 30 21 40 -4 10 -1 13 8 10 10
-4 12 -15 9 -34 l-6 -28 41 11 c24 7 40 16 37 23 -3 7 5 10 21 8 13 -1 39 4
58 12 34 14 45 9 57 -26 7 -19 28 30 29 68 1 57 14 59 14 2 0 -33 -3 -60 -7
-60 -5 0 -8 -6 -8 -12 0 -8 15 -14 35 -15 l35 -2 1 47 c1 39 2 42 9 22 4 -14
9 -20 10 -15 1 6 6 -3 10 -20 7 -29 8 -29 15 -7 4 12 12 22 17 22 5 0 8 6 7
13 -1 6 -1 21 0 32 2 31 21 -3 21 -37 0 -33 29 -39 37 -9 6 23 33 17 33 -8 1
-14 2 -14 14 2 14 18 14 18 19 0 4 -16 5 -16 6 0 0 9 8 17 16 17 8 0 15 8 16
18 0 10 5 6 11 -11 6 -17 15 -26 23 -23 8 3 16 0 18 -7 2 -7 9 -1 15 13 5 14
14 36 20 50 10 24 10 23 17 -18 11 -60 23 -61 31 -1 5 38 9 47 16 35 12 -21
28 -20 29 2 1 9 5 -1 10 -23 12 -52 30 -86 42 -78 5 3 3 9 -4 15 -10 6 -2 8
24 6 20 -2 37 -1 37 3 0 4 16 7 35 6 19 -1 35 -5 35 -9 0 -4 4 -8 9 -8 5 0 12
16 15 35 4 19 11 35 16 35 4 0 6 -8 3 -19 -6 -25 17 -39 29 -17 8 15 11 15 25
1 8 -9 23 -13 32 -10 12 3 21 -2 29 -17 9 -20 10 -18 9 19 -1 24 -5 43 -9 43
-5 0 -8 7 -8 15 0 12 5 13 18 7 9 -5 23 -7 30 -5 6 3 12 0 12 -6 0 -8 6 -7 20
1 22 14 39 3 23 -13 -6 -6 -9 -18 -6 -26 4 -11 9 -8 19 13 7 16 13 23 13 17 2
-21 21 -14 21 7 0 11 5 20 10 20 9 0 11 -9 15 -62 1 -29 15 -33 15 -5 0 15 5
27 10 27 6 0 10 8 11 18 0 14 2 14 7 2 6 -14 14 -16 50 -12 8 2 12 24 12 77 0
67 -2 74 -17 68 -17 -6 -17 -5 0 14 14 16 17 39 17 137 0 115 0 117 -25 126
-14 5 -25 14 -25 20 0 5 -10 10 -22 10 -21 1 -22 1 -4 11 13 8 25 8 42 0 22
-9 24 -8 30 24 8 46 -3 102 -22 109 -21 8 -24 8 -24 -4 0 -5 7 -10 15 -10 8 0
15 -8 16 -17 2 -39 -3 -79 -12 -88 -6 -6 -9 -1 -7 15 3 22 0 25 -25 22 -26 -3
-27 -1 -17 18 6 12 9 24 6 27 -9 9 -36 -18 -36 -36 -1 -9 -8 4 -16 28 -10 29
-12 47 -6 53 6 6 8 17 5 24 -3 8 0 14 6 14 6 0 11 -6 11 -13 0 -9 10 -12 30
-9 17 2 30 9 30 14 0 6 -9 8 -20 5 -11 -3 -20 -1 -20 3 0 5 -9 12 -20 15 -11
3 -20 12 -20 20 0 7 -7 26 -15 41 l-15 29 0 -32 c0 -18 4 -33 9 -33 15 0 20
-39 6 -50 -9 -8 -17 -7 -28 5 -9 8 -28 15 -44 15 -27 0 -28 -2 -28 -44 0 -24
3 -48 8 -52 4 -4 7 6 7 23 0 22 6 33 25 41 23 11 27 9 34 -11 6 -15 4 -27 -5
-38 -8 -8 -14 -21 -14 -27 0 -7 -13 -12 -30 -12 -26 0 -30 -4 -31 -27 -1 -16
-1 -31 0 -35 0 -5 -5 -8 -12 -8 -8 0 -20 -18 -27 -40 -7 -22 -17 -40 -21 -40
-8 0 -6 40 3 55 3 6 5 40 4 78 -1 51 2 66 11 62 9 -3 13 5 13 25 0 34 -19 41
-27 10 -7 -28 -20 -25 -28 8 l-7 27 -11 -23 c-9 -20 -8 -26 6 -34 16 -8 14
-14 -18 -50 -19 -23 -35 -46 -35 -50 0 -5 -4 -7 -9 -3 -5 3 -12 1 -16 -5 -3
-5 6 -15 20 -20 24 -9 26 -14 19 -42 l-7 -33 27 32 c18 22 25 40 22 57 -3 16
1 27 11 30 13 5 14 1 9 -25 -3 -17 -6 -42 -6 -56 0 -14 -4 -21 -10 -18 -5 3
-10 -3 -10 -13 0 -15 11 -22 46 -31 35 -9 44 -15 40 -27 -3 -9 -6 -20 -6 -25
0 -5 -4 -9 -10 -9 -5 0 -9 10 -7 23 2 19 -3 22 -41 24 -24 1 -50 7 -58 14 -11
9 -14 7 -14 -15 0 -14 5 -26 10 -26 6 0 10 5 10 10 0 6 5 10 11 10 5 0 9 -8 8
-17 -4 -29 11 -63 29 -63 10 0 4 -9 -18 -25 -19 -14 -29 -25 -22 -25 7 0 12
-5 12 -11 0 -6 -7 -9 -15 -6 -8 4 -17 2 -20 -3 -4 -6 -13 -10 -21 -10 -20 0
-12 25 7 25 8 1 13 6 11 13 -1 7 3 12 9 12 6 0 9 7 6 15 -4 8 -2 17 3 20 8 5
-23 45 -34 45 -6 0 -2 -23 7 -37 4 -6 2 -15 -4 -19 -6 -3 -14 -2 -18 4 -4 6
-29 14 -57 16 l-51 5 -21 -43 c-12 -24 -22 -48 -22 -55 0 -6 -4 -11 -10 -11
-9 0 -7 10 11 61 7 18 6 33 -6 55 -15 28 -15 28 -21 7 -4 -13 -14 -23 -24 -23
-10 0 -25 -10 -34 -22 -16 -23 -16 -23 -10 12 9 45 25 70 46 70 23 0 31 17 12
24 -9 3 -14 13 -10 21 3 8 1 17 -4 20 -6 4 -10 -5 -10 -19 0 -19 -5 -24 -20
-23 -21 1 -28 27 -7 27 8 0 8 3 -2 9 -8 5 -12 17 -9 28 3 10 -1 24 -8 30 -7 7
-11 23 -9 35 8 45 8 54 7 101 -2 43 -4 48 -22 42 -15 -5 -19 -3 -14 10 4 9 13
14 20 11 9 -3 14 2 14 14 0 10 6 23 13 27 27 16 28 43 1 53 -30 12 -44 13 -28
2z m574 -248 c0 -8 5 -14 10 -14 6 0 10 -11 10 -25 0 -22 -3 -25 -25 -19 -31
8 -32 -3 -2 -38 18 -21 26 -25 35 -16 9 9 12 6 13 -12 1 -14 3 -36 5 -50 9
-67 9 -74 -6 -77 -12 -3 -15 7 -15 41 -1 54 -9 65 -33 43 -10 -10 -25 -17 -33
-17 -11 1 -11 3 2 13 9 7 21 23 29 36 11 21 10 23 -4 18 -10 -4 -16 -1 -16 8
0 10 -10 15 -31 15 -23 0 -30 -4 -26 -14 8 -19 -20 -29 -44 -16 -21 12 -27 35
-6 28 6 -3 23 5 37 18 l25 24 -23 0 c-12 0 -22 -5 -22 -12 0 -6 -2 -9 -5 -6
-10 10 18 58 37 64 25 7 37 -4 18 -16 -17 -11 -9 -13 14 -4 8 3 12 12 9 20 -3
8 1 14 11 14 9 0 16 5 16 11 0 5 5 7 10 4 6 -3 10 -13 10 -21z m-1019 -54 c18
-18 29 -41 29 -58 0 -16 3 -32 7 -36 8 -7 12 -25 20 -76 5 -37 -11 -33 -20 5
-4 18 -5 18 -6 -2 0 -13 -6 -23 -12 -23 -7 0 -9 10 -7 25 4 19 1 25 -13 25
-26 0 -24 15 4 28 17 8 18 11 5 11 -10 1 -26 -9 -37 -20 -24 -26 -56 -19 -48
10 3 15 1 18 -11 14 -10 -4 -13 -2 -8 5 4 7 2 12 -3 12 -6 0 -11 7 -11 15 0 8
5 15 11 15 6 0 8 9 4 23 -5 17 -4 19 4 7 9 -12 11 -11 11 8 0 13 6 22 15 22 8
0 15 -7 15 -15 0 -8 8 -15 18 -15 12 0 10 -5 -10 -18 -30 -18 -36 -36 -16 -48
7 -4 8 -3 4 4 -4 7 -1 12 8 12 9 0 16 -4 16 -10 0 -5 4 -10 8 -10 5 0 9 6 9
13 0 7 3 25 7 41 5 22 3 29 -13 33 -11 3 -22 11 -25 19 -9 24 16 15 45 -16z"/>
<path d="M241 2793 c-12 -13 -12 -30 -3 -103 13 -98 16 -217 5 -206 -5 4 -11
33 -14 64 l-6 57 -2 -53 c0 -30 5 -65 13 -81 19 -35 18 -75 -1 -59 -10 8 -13
2 -14 -28 -1 -22 -3 -31 -6 -21 -2 9 -8 17 -12 17 -5 0 -11 23 -15 50 -4 28
-11 50 -16 50 -6 0 -10 -7 -10 -16 0 -8 -4 -12 -10 -9 -5 3 -10 22 -10 41 0
19 5 34 10 34 6 0 10 -9 10 -21 0 -16 4 -19 23 -13 30 9 30 9 22 35 -7 21 -9
21 -20 6 -12 -16 -13 -16 -19 5 l-5 23 -25 -25 c-27 -28 -48 -120 -26 -120 7
0 9 -8 5 -20 -4 -12 -1 -27 5 -35 7 -8 10 -20 8 -27 -7 -19 -34 40 -43 90 -4
28 -3 42 4 42 6 0 11 14 11 31 0 17 7 37 15 46 9 8 13 18 9 22 -4 3 -9 1 -11
-6 -2 -7 -11 -9 -20 -6 -13 5 -15 2 -11 -15 4 -12 2 -22 -3 -22 -14 0 -11 48
4 53 7 3 5 6 -5 6 -13 1 -18 9 -18 31 0 16 -9 37 -20 48 -13 12 -18 25 -14 36
5 12 2 15 -10 10 -18 -7 -21 -30 -6 -39 8 -5 7 -11 0 -20 -14 -17 -4 -36 15
-29 9 4 17 -5 23 -28 8 -31 3 -67 -6 -40 -2 7 -11 12 -20 12 -12 0 -17 -9 -17
-33 0 -17 3 -37 8 -44 4 -6 3 -14 -2 -17 -12 -8 -14 -253 -1 -261 5 -3 6 -15
1 -28 -5 -12 -6 -36 -4 -53 5 -29 7 -31 40 -28 36 3 51 17 84 78 12 23 13 36
5 58 -6 15 -16 28 -22 28 -6 0 -17 19 -23 43 -14 55 -31 81 -31 50 0 -28 22
-116 31 -123 3 -3 3 -14 -1 -25 -7 -19 -8 -18 -13 5 -8 37 -17 79 -27 133 -5
26 -16 62 -24 79 -18 36 -19 38 -8 38 4 0 13 -14 20 -30 8 -17 18 -28 23 -24
5 3 9 0 9 -7 0 -20 50 -119 60 -119 6 0 10 -6 10 -14 0 -8 6 -21 13 -28 8 -7
20 -31 27 -52 11 -35 10 -40 -9 -59 -11 -12 -24 -17 -28 -13 -4 4 2 16 14 26
18 14 20 19 8 24 -9 3 -27 -11 -50 -41 -35 -46 -40 -68 -10 -43 9 7 18 10 21
7 3 -3 -4 -10 -15 -17 -12 -6 -21 -18 -21 -26 0 -8 -4 -12 -10 -9 -5 3 -10 0
-10 -7 0 -8 -6 -6 -18 6 -12 13 -14 20 -4 23 20 8 14 19 -14 21 -15 1 -23 -2
-19 -9 4 -5 1 -16 -5 -24 -17 -20 -3 -40 18 -23 13 11 15 10 10 -15 -6 -30 8
-48 18 -23 3 9 10 16 15 16 5 0 4 -11 -2 -24 -10 -20 -8 -29 8 -50 11 -14 23
-22 27 -19 3 4 -1 14 -10 24 -11 13 -14 27 -9 46 5 20 8 24 15 13 5 -8 7 -17
4 -21 -2 -4 3 -6 12 -5 8 1 20 9 25 17 7 12 9 12 10 -1 0 -10 3 -8 8 5 5 11
12 20 17 20 5 0 15 4 22 8 7 5 12 3 12 -7 0 -8 -6 -17 -12 -20 -20 -8 19 -35
42 -29 21 6 28 47 10 58 -18 11 -11 20 15 20 29 0 29 0 15 -26 -8 -15 -7 -23
5 -35 8 -8 15 -22 15 -30 0 -8 5 -14 10 -14 6 0 10 -8 10 -17 0 -14 3 -13 16
5 8 12 24 22 34 22 11 0 20 9 23 23 2 12 3 7 1 -10 -3 -35 9 -44 21 -15 6 16
7 16 20 -2 18 -24 39 -12 25 14 -8 16 -7 19 10 17 11 -1 20 -7 20 -14 0 -21
42 -15 67 9 22 21 24 21 36 4 13 -17 14 -17 31 -1 9 10 20 15 23 11 3 -3 12
-1 20 5 10 9 13 7 13 -9 0 -28 27 -35 43 -12 17 25 29 15 21 -16 -4 -15 -2
-24 5 -24 6 0 11 11 11 25 0 16 6 25 15 25 8 0 15 5 15 11 0 5 6 7 13 3 7 -5
7 -1 -3 12 -8 10 -10 16 -6 12 5 -4 15 -3 23 3 10 9 13 7 14 -7 1 -11 1 -24 0
-31 -1 -6 7 -11 18 -10 17 1 18 3 5 21 -22 32 -17 40 13 21 22 -15 25 -15 20
-2 -3 9 1 18 9 21 8 3 14 13 15 23 0 10 5 5 10 -12 5 -19 5 -31 -1 -33 -11 -4
-14 -35 -3 -45 8 -8 35 42 28 53 -3 4 4 10 15 13 15 4 20 0 20 -15 0 -16 3
-18 14 -9 8 7 12 21 9 31 -7 25 22 28 35 4 7 -12 19 -15 45 -12 20 2 38 1 39
-2 2 -3 27 -4 56 -2 41 3 50 7 42 17 -8 9 -4 11 15 7 19 -3 23 -7 15 -17 -7
-8 -7 -16 -2 -19 6 -3 13 6 16 19 7 29 -12 105 -27 105 -6 0 -6 5 0 13 12 15
22 176 14 231 l-6 39 -19 -47 c-10 -25 -24 -46 -30 -46 -6 0 -5 5 2 12 7 7 12
19 12 27 0 11 -4 10 -15 -5 -14 -18 -14 -18 -15 -1 0 11 9 21 19 24 18 5 31
31 31 63 -1 11 -4 10 -15 -4 -8 -11 -15 -15 -15 -10 0 6 5 15 11 21 5 5 9 29
7 51 -2 33 -6 40 -17 32 -13 -7 -13 -11 -1 -25 12 -15 12 -16 -6 -13 -16 2
-19 -3 -20 -37 -1 -58 -3 -62 -18 -42 -11 14 -10 28 11 89 22 67 27 148 9 165
-6 6 -10 -13 -7 -31 1 -5 -7 -18 -17 -30 -11 -11 -22 -28 -25 -36 -4 -8 -5 6
-3 32 3 37 1 45 -10 41 -17 -6 -18 -29 -3 -72 6 -17 8 -43 5 -57 -7 -25 -8
-26 -26 -9 -13 12 -20 32 -21 59 -1 23 -3 33 -6 23 -6 -24 -23 -11 -23 19 0
13 -5 24 -11 24 -14 0 -2 -60 17 -81 16 -18 18 -39 4 -39 -5 0 -10 5 -10 10 0
6 -5 10 -11 10 -6 0 -8 -9 -4 -20 5 -14 2 -20 -9 -20 -11 0 -16 9 -16 30 0 37
-24 31 -45 -10 -28 -55 -80 -85 -68 -40 3 11 -1 28 -8 37 -11 13 -11 17 -1 20
16 6 15 23 -2 23 -7 0 -16 9 -19 20 -4 17 -2 20 14 15 11 -4 19 -2 19 4 0 6
-5 11 -11 11 -7 0 -8 17 -5 48 4 34 1 55 -9 68 -14 18 -14 18 -15 -3 0 -13 -4
-23 -10 -23 -5 0 -10 14 -10 31 0 28 -1 29 -17 14 -13 -14 -14 -18 -3 -25 7
-5 13 -22 13 -39 0 -16 4 -28 9 -25 4 3 8 -2 8 -10 0 -9 -4 -16 -10 -16 -5 0
-10 -7 -10 -16 0 -21 43 -114 52 -114 5 0 8 -4 8 -10 0 -17 -30 -11 -36 8 -16
52 -23 60 -43 55 -16 -4 -19 -11 -14 -34 4 -22 2 -29 -11 -29 -9 0 -16 7 -16
15 0 8 -5 15 -11 15 -6 0 -8 8 -4 19 3 11 -5 45 -19 78 -14 32 -26 56 -26 53
-8 -32 -3 -73 10 -78 26 -10 43 -52 20 -52 -5 0 -10 7 -10 15 0 8 -7 15 -15
15 -10 0 -15 -11 -16 -32 -1 -18 -3 -25 -6 -15 -2 9 -8 17 -13 17 -5 0 -11 14
-15 30 -4 17 -11 30 -16 30 -15 0 -10 -27 11 -62 26 -42 25 -56 0 -33 -20 18
-21 18 -15 -1 5 -16 4 -16 -11 4 -9 12 -20 22 -23 22 -4 0 -14 -23 -21 -51 -8
-27 -17 -52 -21 -55 -12 -7 -23 17 -12 25 6 3 13 23 17 45 7 37 6 38 -16 33
-23 -6 -67 17 -56 29 4 3 23 1 45 -5 47 -13 53 -14 53 -1 0 16 -44 30 -52 17
-8 -14 -49 33 -43 50 2 6 -3 17 -11 23 -10 9 -14 9 -14 1 0 -6 4 -11 10 -11 6
0 6 -9 0 -25 -5 -14 -9 -31 -7 -38 1 -7 -7 -11 -22 -9 -20 3 -23 1 -16 -15 4
-10 9 -34 12 -53 2 -19 6 -41 9 -48 2 -8 -1 -12 -8 -10 -6 2 -13 24 -15 49 -7
73 -18 63 -19 -18 -1 -42 -6 -78 -12 -82 -15 -9 -3 -51 14 -51 8 0 18 8 22 18
9 23 30 26 28 4 -1 -19 -21 -43 -33 -41 -26 4 -33 -3 -27 -26 4 -17 2 -25 -7
-25 -11 0 -13 13 -10 51 4 59 -11 63 -44 11 -11 -17 -24 -31 -28 -32 -5 0 8
22 28 50 l36 49 -2 116 c-2 87 -6 115 -15 115 -8 0 -11 6 -8 14 3 8 1 17 -5
20 -15 9 -23 -47 -11 -79 6 -15 8 -30 5 -33 -3 -3 -5 0 -5 7 0 22 -20 0 -20
-22 -1 -34 -40 50 -46 99 -4 29 -1 44 10 53 19 16 3 43 -20 34 -10 -4 -14 2
-14 21 0 25 15 36 22 17 2 -5 12 -3 23 6 11 9 14 13 5 11 -19 -6 -51 23 -32
30 6 2 12 8 12 13 0 14 -24 10 -39 -8z"/>
<path d="M5902 2016 c-18 -7 -29 -15 -25 -19 4 -5 -3 -10 -15 -14 -21 -5 -31
-23 -13 -23 13 0 41 -29 41 -41 0 -6 -17 -8 -38 -7 -41 4 -90 45 -86 72 2 17
-12 22 -18 6 -2 -7 -14 -7 -35 -1 -20 6 -35 6 -39 0 -3 -5 -9 -7 -14 -4 -5 3
-11 1 -15 -5 -4 -7 -13 -6 -27 1 -17 9 -19 8 -14 -9 7 -20 -17 -76 -27 -65 -7
6 -11 -12 -8 -30 1 -5 -10 0 -23 10 -14 10 -26 21 -26 26 0 4 -5 7 -11 7 -6 0
-8 -9 -4 -20 3 -11 2 -27 -3 -36 -8 -14 -10 -12 -16 10 -7 27 -26 36 -26 12 0
-8 -7 -17 -16 -20 -9 -3 -14 -13 -10 -21 3 -8 1 -17 -4 -20 -5 -3 -8 -19 -6
-35 3 -27 2 -28 -32 -24 -20 3 -41 9 -48 15 -10 8 -12 5 -11 -11 1 -17 6 -20
29 -15 18 4 28 3 28 -5 0 -7 6 -10 14 -7 8 3 17 1 19 -6 3 -8 10 -6 19 7 14
18 15 18 21 -3 5 -21 37 -30 37 -11 0 6 -4 10 -9 10 -5 0 -12 9 -16 20 -3 11
-11 19 -17 17 -6 -1 -11 8 -13 21 -1 15 4 22 17 22 10 0 18 -7 18 -15 0 -10
10 -15 31 -15 25 0 32 6 45 37 11 26 18 33 24 23 12 -19 44 15 36 37 -6 14 29
61 39 52 2 -2 0 -23 -5 -47 -6 -36 -5 -44 10 -52 13 -7 20 -6 23 5 4 9 1 12
-9 8 -21 -8 -17 20 5 37 11 7 17 18 14 23 -3 5 0 8 8 5 8 -3 15 -10 15 -16 3
-25 5 -27 14 -12 15 23 12 50 -5 50 -8 0 -15 7 -15 15 0 13 3 13 20 3 11 -7
20 -20 20 -30 0 -9 5 -20 11 -23 6 -4 8 -14 5 -22 -3 -8 1 -22 10 -30 18 -19
4 -39 -21 -29 -11 4 -15 13 -12 26 6 24 -8 27 -17 4 -14 -35 40 -75 59 -44 5
8 11 8 20 0 7 -6 20 -7 29 -4 11 4 23 -1 32 -12 15 -19 15 -19 10 0 -8 22 19
45 52 46 12 0 25 7 28 15 4 8 11 15 17 15 8 0 8 -3 0 -11 -9 -9 -8 -15 3 -26
20 -21 35 -7 29 28 -4 21 -1 31 10 35 22 9 33 -5 15 -17 -11 -8 -10 -9 8 -4
12 4 22 2 22 -4 0 -5 3 -18 6 -28 5 -17 4 -16 -10 1 -19 23 -32 15 -18 -11 5
-10 7 -23 5 -30 -5 -15 35 -56 47 -48 15 9 12 25 -4 25 -7 0 -19 7 -26 16 -11
13 -10 16 8 21 12 3 22 12 22 20 0 23 25 9 28 -15 6 -38 20 -24 26 26 8 71 5
82 -18 82 -17 0 -18 -2 -6 -10 13 -8 12 -10 -2 -10 -11 0 -18 8 -18 20 0 11
-5 20 -11 20 -6 0 -8 9 -4 20 4 11 2 20 -4 20 -6 0 -13 -11 -17 -25 -3 -14
-10 -22 -15 -19 -5 3 -9 0 -9 -5 0 -6 -9 -11 -20 -11 -12 0 -20 -7 -20 -17 0
-15 -1 -15 -13 2 -11 14 -21 16 -43 11 -28 -7 -28 -7 -10 13 11 12 25 21 33
21 7 0 13 9 13 20 0 14 -7 20 -21 20 -15 0 -19 5 -15 15 6 17 3 17 -42 1z"/>
<path d="M1113 1835 c-13 -5 -23 -15 -23 -22 0 -7 -5 -13 -11 -13 -6 0 -9 9
-6 20 6 23 -8 27 -17 5 -3 -8 -12 -15 -20 -15 -10 0 -13 6 -10 15 5 11 0 14
-19 13 -18 -2 -23 -6 -16 -14 6 -7 4 -16 -6 -24 -8 -7 -15 -19 -15 -26 0 -8
-5 -14 -11 -14 -5 0 -8 -4 -4 -10 3 -5 13 -6 22 -3 11 4 14 2 11 -8 -3 -8 -13
-13 -22 -13 -21 2 -21 -12 0 -20 22 -8 26 -8 19 3 -12 20 12 19 29 -1 l18 -21
19 29 c15 23 19 25 19 10 0 -17 1 -18 26 -1 21 13 28 14 34 5 6 -10 15 -7 37
9 24 20 28 21 31 7 2 -9 12 -16 22 -16 10 0 21 -8 23 -17 2 -10 4 -1 4 20 0
32 -3 36 -19 31 -10 -3 -18 0 -18 6 0 6 4 9 9 5 5 -3 12 -1 16 4 3 6 12 8 20
4 22 -8 18 10 -5 24 -16 11 -21 10 -28 -4 -6 -10 -16 -14 -27 -10 -12 5 -20
-1 -28 -23 -14 -38 -31 -33 -34 9 -2 27 0 31 11 22 10 -9 17 -6 30 14 9 14 12
25 6 25 -6 0 -13 -7 -17 -16 -5 -14 -7 -14 -17 3 -9 15 -15 17 -33 8z"/>
<path d="M364 1728 c-3 -4 -20 -7 -38 -6 -43 1 -61 -9 -46 -27 7 -8 7 -16 2
-19 -6 -3 -16 1 -23 10 -8 10 -21 13 -36 9 -13 -3 -23 -1 -23 5 0 14 -46 12
-57 -2 -29 -38 -23 -44 41 -42 33 1 44 -1 24 -3 -21 -2 -38 -8 -38 -13 0 -5
-8 -7 -17 -4 -15 5 -15 4 -3 -4 8 -6 18 -8 22 -6 4 3 8 2 8 -3 0 -4 21 -6 47
-4 32 2 52 10 63 24 15 18 20 19 54 7 20 -6 40 -9 44 -6 3 4 -4 9 -16 13 -12
3 -22 8 -22 12 0 14 19 35 26 28 4 -4 13 2 21 13 8 12 20 17 30 13 11 -4 14
-3 9 5 -8 13 -64 13 -72 0z"/>
<path d="M5957 1683 c-4 -3 -7 -17 -7 -30 0 -13 -6 -23 -14 -23 -14 0 -26 -29
-26 -67 0 -13 5 -23 11 -23 8 0 8 -5 -1 -15 -7 -8 -10 -15 -6 -15 3 0 -5 -18
-18 -39 -22 -35 -23 -41 -10 -52 12 -10 17 -10 23 -1 4 7 15 10 24 6 10 -3 17
-1 17 5 0 6 -7 11 -17 11 -9 0 -13 3 -9 7 4 4 19 7 34 8 32 0 43 34 17 55 -8
7 -15 21 -15 31 0 11 -7 19 -15 19 -8 0 -15 7 -15 15 0 8 9 15 20 15 11 0 20
-4 20 -10 0 -5 5 -10 11 -10 6 0 9 6 6 14 -3 8 2 16 13 19 23 6 35 -42 15 -58
-15 -11 -24 -100 -12 -111 4 -4 14 1 22 12 11 15 15 16 15 4 1 -12 3 -12 14 2
7 10 17 14 21 10 5 -4 5 2 0 13 -4 11 -9 34 -11 50 -2 17 -9 32 -14 33 -13 5
-13 49 1 57 6 4 13 4 17 0 3 -3 0 -10 -8 -15 -11 -7 -8 -9 10 -8 28 2 50 15
50 30 0 6 -7 7 -16 4 -9 -4 -27 0 -40 9 -21 13 -23 13 -18 0 7 -17 -21 -21
-31 -4 -5 7 -15 5 -31 -6 -27 -18 -31 -9 -9 22 12 17 12 23 1 32 -7 6 -16 8
-19 4z"/>
<path d="M5589 1645 c-1 -5 -1 -13 -1 -16 1 -4 -12 -9 -29 -13 -18 -3 -34 -15
-41 -30 -11 -26 -31 -27 -21 -1 3 8 0 15 -5 15 -20 0 -26 -43 -8 -56 11 -8 13
-14 7 -19 -15 -9 -14 -23 2 -22 42 1 52 -4 52 -28 0 -30 -6 -31 -30 -5 -10 11
-26 20 -37 20 -14 0 -18 -8 -18 -34 0 -39 25 -69 33 -39 4 17 5 17 6 1 1 -25
41 -23 48 2 3 11 10 20 15 20 6 0 8 -7 4 -15 -3 -8 -2 -15 2 -15 4 0 13 -9 19
-20 11 -17 10 -21 -8 -30 -17 -10 -21 -8 -26 9 -4 17 -7 18 -19 6 -18 -18 -18
-35 0 -35 8 0 16 -6 18 -12 4 -10 10 -10 31 -1 23 11 27 19 27 53 0 22 5 40
10 40 9 0 14 -14 11 -32 0 -5 6 -8 14 -8 8 0 15 9 15 21 0 11 5 17 10 14 6 -3
10 0 10 8 0 8 7 20 15 27 23 19 18 47 -10 54 -23 6 -34 29 -17 39 4 2 1 2 -7
0 -8 -2 -11 2 -7 12 3 8 9 22 12 30 3 8 0 17 -8 20 -9 4 -13 15 -11 29 4 20 1
23 -26 22 -17 -1 -31 -5 -32 -11z"/>
<path d="M5100 1550 c0 -5 7 -10 15 -10 20 0 36 -32 24 -51 -7 -12 -9 -11 -9
3 0 15 -4 15 -30 6 -34 -11 -65 4 -56 28 8 20 -11 27 -22 8 -7 -13 -17 -15
-40 -11 -37 7 -46 0 -25 -21 12 -12 19 -13 34 -4 20 13 41 17 23 4 -18 -12
-44 -56 -44 -74 0 -11 7 -16 20 -15 15 1 20 8 20 32 0 22 3 26 9 15 6 -8 8
-17 5 -21 -2 -4 6 -9 18 -11 13 -2 22 -9 20 -16 -1 -8 2 -11 8 -7 6 3 8 11 5
16 -7 10 22 24 69 34 23 5 27 10 24 30 -3 14 -1 22 4 19 6 -4 8 2 6 12 -1 9
-7 17 -13 17 -5 0 -19 6 -30 13 -23 17 -35 18 -35 4z"/>
<path d="M4568 1435 c-3 -29 9 -49 65 -108 10 -10 16 -25 13 -34 -10 -24 5
-36 20 -16 13 17 13 17 14 0 0 -11 -9 -21 -19 -24 -11 -3 -17 -11 -15 -18 7
-18 77 7 80 30 4 29 -8 47 -27 42 -25 -7 -29 1 -20 49 10 55 -13 89 -55 81
-19 -3 -32 0 -40 11 -11 15 -13 13 -16 -13z"/>
<path d="M626 295 c-10 -26 -7 -35 9 -29 33 13 13 -17 -21 -31 -20 -8 -38 -24
-41 -35 -3 -11 -11 -20 -18 -20 -15 0 -47 -35 -39 -43 4 -3 15 4 26 16 l19 22
-7 -25 c-3 -14 -10 -30 -15 -36 -5 -6 -7 -18 -3 -27 3 -8 0 -18 -6 -22 -6 -3
-10 -3 -9 2 5 31 -2 55 -16 49 -8 -3 -15 -1 -15 4 0 6 -4 10 -10 10 -14 0 -12
-27 3 -33 9 -3 7 -10 -6 -23 -17 -18 -18 -18 -15 6 2 19 -2 25 -19 26 -13 1
-23 -4 -23 -12 0 -8 -6 -14 -13 -14 -8 0 -22 -9 -32 -20 -22 -25 -35 -26 -35
-2 0 14 -2 15 -10 2 -13 -20 -13 -33 1 -24 8 4 9 -1 4 -16 -6 -19 -4 -21 17
-18 15 2 24 11 26 25 4 25 22 32 22 9 0 -7 7 -19 15 -26 10 -9 15 -9 15 -1 0
6 -5 11 -12 11 -6 0 -9 2 -6 5 8 9 38 -6 32 -16 -3 -5 6 -9 19 -9 16 0 28 8
35 25 10 21 18 25 56 25 29 0 62 9 92 25 26 14 53 25 60 25 16 0 19 -17 5 -22
-6 -2 -5 -18 2 -41 9 -28 17 -37 34 -37 15 0 23 6 23 17 0 9 6 24 13 32 19 22
11 107 -8 91 -10 -8 -14 -4 -18 17 -3 15 -1 35 4 45 22 40 7 48 -31 17 -22
-19 -23 -22 -7 -30 23 -13 23 -51 0 -48 -10 1 -36 -6 -57 -17 -29 -14 -40 -16
-43 -6 -3 6 -11 12 -19 12 -9 0 -12 -5 -9 -10 3 -6 0 -13 -9 -16 -8 -3 -12
-13 -9 -22 4 -15 3 -15 -6 -2 -6 8 -11 23 -11 33 0 25 32 85 37 70 6 -16 30
-17 35 -1 7 21 41 0 35 -22 -7 -27 10 -26 18 1 5 14 1 25 -12 35 -16 12 -16
15 -3 23 11 8 17 6 22 -7 7 -17 8 -14 8 26 0 4 -6 7 -12 7 -7 0 -14 14 -16 30
-2 23 0 27 7 15 10 -13 11 -13 11 0 0 13 1 13 11 0 9 -13 10 -13 6 0 -5 22
-73 26 -81 5z"/>
</g>
</svg>
