<?xml version="1.0" standalone="no"?>
<!DOCTYPE svg PUBLIC "-//W3C//DTD SVG 20010904//EN"
 "http://www.w3.org/TR/2001/REC-SVG-20010904/DTD/svg10.dtd">
<svg version="1.0" xmlns="http://www.w3.org/2000/svg"
 width="800.000000pt" height="560.000000pt" viewBox="0 0 800.000000 560.000000"
 preserveAspectRatio="xMidYMid meet">
<metadata>
Created by potrace 1.16, written by Peter Selinger 2001-2019
</metadata>
<g transform="translate(0.000000,560.000000) scale(0.100000,-0.100000)"
fill="#000000" stroke="none">
<path d="M0 5289 l0 -311 29 5 29 6 -2 -72 c-2 -70 -3 -72 -29 -75 -27 -3 -27
-4 -27 -83 l0 -79 33 0 32 -1 -32 -28 -33 -27 1 -475 c0 -450 1 -472 17 -431
9 23 22 42 30 42 8 0 12 6 8 15 -3 8 -3 22 1 31 5 13 7 13 14 2 6 -9 9 -5 9
13 0 30 25 58 33 37 4 -10 7 -10 18 1 11 10 11 15 2 18 -18 6 -16 33 2 33 12
0 13 5 4 27 -6 16 -17 36 -26 45 -12 14 -13 23 -3 52 6 20 8 41 4 48 -13 21
-11 78 3 78 16 0 16 0 -3 38 -8 18 -23 32 -32 32 -12 0 -13 3 -4 12 9 9 16 7
32 -7 11 -10 20 -24 20 -31 0 -18 21 -29 29 -15 5 7 16 8 37 1 16 -5 61 -14
101 -21 40 -7 70 -15 68 -19 -5 -9 41 -61 48 -54 3 3 15 0 27 -6 38 -20 48 4
16 37 -15 15 -23 29 -17 31 6 2 11 10 11 18 0 8 7 17 15 20 8 4 15 17 15 30 0
19 5 24 25 24 18 0 25 5 25 19 0 16 48 49 77 52 4 0 23 19 42 40 40 46 32 73
-12 39 -14 -11 -45 -27 -69 -35 -24 -8 -52 -20 -63 -25 -30 -14 -136 -29 -168
-23 -20 4 -27 11 -27 29 0 13 4 24 10 24 16 0 70 62 77 88 10 40 -8 57 -65 59
-45 2 -55 -1 -77 -25 -25 -27 -25 -27 -25 -4 0 13 -4 20 -10 17 -18 -11 -10
48 14 115 27 75 101 259 123 309 15 32 14 35 -5 50 -17 13 -20 22 -14 51 7 30
13 35 51 45 32 8 55 24 94 66 57 62 133 126 215 181 30 20 49 37 43 39 -5 2
-13 16 -16 32 -6 23 -4 27 15 27 12 0 34 9 50 20 40 28 74 40 173 60 63 12
101 15 130 8 23 -4 78 -13 122 -18 227 -27 274 -38 316 -76 10 -9 35 -25 57
-37 23 -12 55 -35 72 -51 39 -35 111 -85 153 -108 18 -9 26 -17 18 -18 -10 0
-7 -6 7 -19 12 -10 22 -22 22 -26 0 -9 31 -34 42 -35 3 0 9 8 12 18 4 14 5 14
4 -3 -1 -53 0 -55 45 -54 23 1 34 3 25 6 -30 8 -20 20 26 32 31 7 81 8 172 1
71 -6 199 -15 284 -20 85 -6 169 -12 185 -14 17 -2 62 -7 100 -10 39 -4 91 -9
118 -12 l47 -6 0 -108 c0 -121 5 -115 -86 -125 -128 -15 -442 -70 -451 -79 -4
-3 0 -6 8 -6 11 0 11 -2 -1 -10 -11 -7 -12 -10 -2 -10 8 0 25 -9 39 -20 14
-11 39 -20 56 -20 16 0 55 -12 86 -27 53 -27 63 -28 198 -28 l142 0 7 -52 c3
-28 3 -56 0 -62 -10 -15 14 -131 27 -131 6 0 7 3 4 7 -9 9 22 43 40 43 7 0 13
-6 13 -13 0 -7 9 -23 20 -35 11 -12 19 -25 18 -29 -3 -8 5 -13 22 -13 5 0 16
14 25 30 16 32 35 40 35 15 0 -9 6 -12 15 -9 9 4 15 0 15 -10 0 -9 5 -16 11
-16 6 0 9 -7 5 -15 -7 -20 16 -19 55 1 32 16 54 11 29 -7 -12 -8 -10 -10 8 -6
12 3 29 -1 37 -9 11 -11 23 -12 56 -5 25 6 51 6 65 1 13 -5 43 -6 66 -1 28 5
53 3 71 -4 17 -7 67 -11 118 -9 54 2 87 -1 84 -7 -4 -5 -1 -9 4 -9 6 0 11 5
11 10 0 6 12 10 26 10 14 0 23 -4 19 -10 -3 -5 1 -10 9 -10 9 0 16 -4 16 -10
0 -5 9 -10 20 -10 11 0 29 -4 40 -10 11 -5 29 -14 40 -20 11 -5 37 -10 57 -10
43 0 140 -34 135 -46 -2 -5 13 -16 34 -24 32 -14 45 -14 86 -4 64 17 269 9
324 -13 12 -4 14 1 12 22 -2 16 2 30 9 32 8 3 13 -5 13 -21 0 -26 13 -35 25
-16 3 6 1 10 -5 10 -7 0 -10 6 -7 13 2 6 10 11 16 10 14 -4 14 20 1 33 -13 13
-2 44 16 44 7 0 17 8 22 17 9 15 11 15 28 -2 21 -20 31 -6 15 23 -12 22 -6 32
20 32 9 0 19 6 22 13 3 9 15 6 44 -10 23 -13 48 -23 57 -23 9 0 21 -9 28 -20
10 -15 24 -20 59 -20 55 0 109 -10 109 -19 0 -4 -27 -5 -60 -3 -51 4 -63 1
-75 -14 -37 -49 3 -57 126 -25 41 10 94 22 119 26 25 4 50 11 55 15 6 4 26 11
45 15 19 4 80 20 135 36 54 16 105 27 112 25 7 -3 13 -1 13 5 0 6 7 8 16 5 9
-4 23 -1 30 5 8 6 14 9 14 5 0 -3 16 3 36 15 30 16 46 19 94 13 56 -6 58 -5
62 17 2 19 9 24 33 25 17 0 37 -5 46 -13 13 -11 17 -11 21 -1 4 10 33 12 129
7 68 -3 131 -2 140 2 9 5 21 3 27 -3 9 -9 21 -9 48 1 39 14 155 25 244 24 70
-1 165 -19 260 -49 41 -13 91 -24 111 -24 40 0 73 -28 84 -73 9 -35 16 -39 79
-40 42 -2 52 1 48 12 -4 10 1 13 21 9 19 -4 27 -1 27 8 0 17 5 17 32 3 14 -8
23 -8 31 0 6 6 22 11 36 11 23 0 23 -1 7 -18 -15 -18 -15 -19 11 -31 30 -14
219 -24 266 -14 32 6 35 23 7 48 -28 25 -26 43 4 38 23 -5 25 -2 28 38 l3 44
180 6 c99 4 206 7 238 8 31 0 57 6 57 11 0 6 -9 10 -20 10 -11 0 -20 4 -20 9
0 5 9 13 20 16 20 6 20 15 20 385 0 423 6 391 -73 388 -37 -1 -57 -14 -54 -33
5 -25 -126 -20 -453 15 -150 16 -170 20 -170 36 0 19 -6 18 -76 -9 -135 -53
-153 -39 -25 20 l76 36 -80 10 c-66 7 -84 6 -106 -7 -32 -19 -48 -21 -31 -4
19 19 14 28 -18 28 -16 0 -30 -4 -30 -10 0 -15 -41 -12 -54 4 -7 10 -57 20
-156 30 -258 28 -266 35 -60 56 114 12 142 11 315 -9 238 -27 255 -30 262 -47
3 -8 11 -14 19 -14 8 0 11 6 8 15 -4 8 -2 15 4 15 5 0 13 -8 16 -17 5 -12 9
-14 14 -6 5 8 34 8 102 1 52 -5 113 -11 135 -13 104 -10 312 -36 325 -41 8 -3
36 -7 63 -7 l47 -2 0 163 0 162 -1453 0 -1453 0 2 -35 c3 -38 -2 -44 -40 -47
-28 -3 -33 -17 -14 -36 10 -10 10 -17 0 -32 -15 -24 -16 -84 -2 -75 6 3 10 -1
10 -9 0 -9 -4 -16 -10 -16 -5 0 -10 -5 -10 -11 0 -8 5 -8 15 1 8 7 22 9 31 6
13 -5 15 -19 11 -77 -4 -64 -7 -73 -30 -87 -14 -9 -28 -28 -31 -44 -7 -35 -32
-37 -48 -3 -9 21 -13 23 -22 9 -14 -18 -120 -32 -129 -16 -4 5 -27 7 -52 4
-49 -5 -59 7 -22 27 13 7 28 21 35 32 13 21 16 20 -68 24 -157 10 -379 27
-443 36 -42 5 -103 10 -135 10 -31 0 -71 1 -88 1 -18 1 -44 -8 -63 -21 -30
-22 -33 -22 -66 -7 -22 11 -32 22 -29 31 5 11 -7 13 -65 10 -42 -3 -71 0 -71
5 0 6 -22 10 -50 10 -27 0 -50 -4 -50 -10 0 -5 13 -10 29 -10 16 0 31 -6 35
-15 4 -10 15 -13 38 -9 28 5 30 4 14 -7 -21 -13 -158 -5 -185 11 -14 8 -14 9
-1 10 37 0 -37 33 -83 36 -88 6 -91 5 -103 -11 -17 -23 -70 -36 -100 -24 -14
5 -47 9 -73 9 -49 0 -101 24 -71 33 24 7 185 35 335 58 77 11 169 27 205 35
98 20 247 35 288 29 20 -3 31 -2 24 1 -26 12 2 24 60 24 49 0 59 -3 54 -15 -3
-10 1 -15 13 -15 11 0 22 -6 24 -12 4 -10 6 -10 6 0 1 6 12 12 25 12 14 0 28
5 31 10 4 6 12 4 22 -6 20 -20 127 -10 187 17 50 23 79 25 51 5 -19 -13 -18
-15 14 -23 19 -5 36 -14 39 -21 5 -15 -23 -16 -50 -1 -20 11 -88 4 -88 -9 0
-4 21 -7 46 -8 25 -1 49 -6 53 -13 5 -7 19 -9 39 -5 27 6 32 10 27 28 -4 12
-3 16 2 9 4 -6 30 -14 57 -18 42 -7 48 -5 43 7 -5 15 9 38 25 38 4 0 8 -6 8
-13 0 -6 16 -17 35 -23 30 -10 42 -8 78 9 23 12 53 33 67 48 14 15 36 29 50
32 14 4 34 13 45 21 20 15 19 15 -6 16 -14 0 -29 -3 -33 -7 -4 -5 -11 -8 -14
-9 -4 0 -19 -6 -33 -12 -44 -18 -79 -19 -79 -2 0 6 11 16 25 22 39 17 12 28
-75 28 -71 1 -73 2 -45 14 38 16 162 29 167 17 1 -5 19 0 38 10 34 19 29 19
-516 19 -456 0 -560 -3 -607 -15 -32 -8 -73 -15 -91 -15 -19 0 -83 -9 -142
-19 -172 -31 -276 -50 -312 -57 -25 -5 -32 -3 -32 9 0 8 -11 18 -25 21 -31 8
-58 -4 -31 -14 10 -3 18 -9 19 -14 3 -13 -71 -34 -142 -41 -36 -4 -88 -13
-115 -22 -54 -17 -115 -19 -143 -4 -67 36 -115 51 -131 42 -9 -6 -12 -11 -6
-11 7 0 37 -12 69 -26 40 -18 53 -29 44 -34 -8 -4 -84 -20 -171 -35 -148 -25
-163 -26 -285 -15 -70 6 -159 13 -198 16 -83 5 -139 14 -133 19 4 4 110 27
262 57 28 5 60 8 73 5 24 -5 31 -3 228 38 66 14 199 41 295 60 96 19 193 38
215 44 26 6 -512 9 -1502 10 l-1543 1 0 -311z m7620 211 c0 -6 12 -8 28 -5
l27 5 -25 -11 c-14 -6 -20 -13 -13 -16 7 -2 21 0 32 6 25 14 42 14 19 0 -44
-25 -5 -31 100 -13 25 4 32 2 32 -12 0 -9 7 -22 17 -29 9 -7 13 -17 9 -23 -8
-14 -118 -11 -123 4 -2 6 -58 9 -144 9 -119 -1 -137 1 -117 12 21 12 19 13
-27 12 -27 0 -77 2 -110 5 -33 3 -82 5 -109 6 -27 0 -47 2 -45 5 8 7 247 35
309 36 30 0 64 4 75 9 28 12 65 12 65 0z m-1124 -315 c6 -8 18 -13 27 -9 8 3
18 1 22 -5 3 -6 15 -11 25 -11 10 0 22 -5 26 -11 4 -8 -13 -9 -57 -5 -125 12
-199 15 -199 7 0 -5 33 -11 73 -15 188 -16 213 -20 222 -32 6 -8 25 -17 44
-20 29 -6 33 -5 28 9 -8 21 3 21 113 2 47 -8 119 -15 160 -16 98 0 224 -22
193 -33 -13 -4 -26 -5 -30 -3 -5 3 -26 1 -48 -3 l-40 -8 50 -2 c56 -2 117 -17
79 -19 -12 -1 -113 6 -225 14 -112 9 -235 18 -274 20 -89 6 -395 33 -457 40
-40 5 -47 3 -42 -10 4 -10 0 -15 -12 -16 -17 -1 -17 -2 -1 -6 21 -5 23 -23 2
-23 -8 0 -15 -4 -15 -9 0 -6 12 -6 32 0 53 15 66 11 38 -11 -55 -43 -146 -60
-220 -41 -19 5 -70 15 -112 22 l-78 13 0 32 c0 31 2 32 71 50 39 10 66 20 60
22 -16 5 -3 22 17 22 10 0 36 9 57 21 31 16 51 19 88 14 33 -4 47 -2 42 5 -3
5 -16 10 -28 10 -27 0 -11 17 23 23 14 2 95 3 180 1 127 -2 157 -6 166 -19z
m-3206 -159 c152 -10 539 -46 556 -53 34 -13 -295 -63 -581 -87 -38 -4 -79 -7
-90 -9 -18 -2 -20 5 -23 67 -4 90 0 98 40 91 18 -3 62 -7 98 -9z m2691 -126
c63 -5 121 -10 129 -10 13 0 13 -1 0 -10 -12 -7 -12 -12 -3 -21 10 -10 21 -8
52 6 26 11 51 15 73 11 18 -3 87 -8 153 -11 66 -3 145 -11 175 -17 51 -11 53
-12 25 -18 -25 -6 -27 -8 -12 -15 9 -4 29 -5 42 -3 14 3 25 1 25 -3 0 -5 27
-9 60 -9 33 0 60 -4 60 -10 0 -5 7 -10 15 -10 8 0 15 5 15 10 0 12 48 12 75
-1 15 -7 8 -8 -25 -4 -29 3 -40 2 -31 -4 11 -7 9 -10 -8 -16 -12 -4 -27 -2
-34 3 -14 11 -167 24 -167 14 0 -14 -118 -42 -205 -49 -120 -9 -572 -9 -582 1
-5 4 -7 33 -7 64 3 115 7 126 38 118 13 -3 74 -10 137 -16z m-968 -6 c12 -4
14 -20 10 -84 -5 -63 -3 -82 10 -94 11 -12 17 -13 20 -3 7 20 14 5 21 -45 10
-69 2 -71 -245 -76 l-206 -4 -6 23 c-3 12 -2 30 3 39 11 20 4 30 -19 30 -9 0
-22 -13 -29 -30 -19 -42 -56 -40 -104 6 -21 19 -38 39 -38 43 0 12 49 20 52 9
2 -5 19 -8 38 -6 32 3 29 4 -25 16 -90 20 -108 26 -112 38 -2 7 8 9 27 6 16
-2 30 -8 30 -13 0 -5 9 -9 20 -9 11 0 20 5 20 10 0 11 62 13 98 3 17 -4 22
-11 19 -24 -4 -16 1 -19 29 -19 24 0 34 5 34 15 0 12 19 15 110 15 98 0 134
-9 98 -24 -9 -3 -7 -9 6 -20 30 -25 60 -20 79 13 28 48 22 76 -28 123 -25 23
-45 46 -45 50 0 4 24 9 53 11 28 2 55 4 59 5 3 1 13 -1 21 -4z m-1128 -144 c3
-5 26 -10 51 -10 24 0 44 -4 44 -8 0 -5 -55 -12 -122 -16 -68 -3 -184 -13
-258 -21 -74 -8 -161 -15 -192 -15 -62 0 -82 -19 -23 -21 19 -1 38 -2 43 -3 4
-1 68 -6 142 -11 100 -7 125 -11 95 -16 -39 -6 -39 -11 -1 -13 11 -1 21 -7 24
-15 2 -8 1 -11 -4 -8 -16 9 -219 17 -232 8 -20 -13 72 -22 144 -15 41 4 64 3
68 -5 4 -6 0 -14 -8 -17 -9 -3 -16 -14 -16 -23 1 -14 3 -13 15 3 14 18 45 16
45 -3 0 -5 -23 -23 -51 -41 -43 -26 -69 -33 -166 -45 -63 -8 -117 -14 -121
-13 -4 1 -15 -2 -25 -7 -10 -4 -23 -2 -31 4 -8 7 -22 8 -37 3 -14 -5 -34 -5
-52 2 -24 9 -30 8 -38 -7 -15 -26 -26 -13 -33 38 -13 82 11 167 27 100 3 -12
5 -5 6 16 1 23 7 39 17 43 8 3 12 10 9 16 -3 5 3 10 15 10 12 0 19 -4 16 -9
-3 -5 3 -11 14 -14 15 -4 20 0 20 15 0 14 5 18 15 14 9 -3 15 0 15 9 0 8 -3
14 -7 14 -5 -1 -24 -1 -43 0 -65 3 -9 19 90 26 52 4 169 15 260 25 196 21 277
24 285 10z"/>
<path d="M1026 5145 c-3 -8 -12 -15 -21 -15 -8 0 -14 -3 -13 -7 5 -18 -14 -52
-32 -58 -20 -6 -34 -32 -21 -40 5 -3 22 2 37 10 33 17 80 20 89 5 9 -14 165
14 165 30 0 10 -16 27 -35 37 -15 9 -22 8 -31 -5 -9 -13 -15 -14 -26 -4 -8 6
-18 9 -21 5 -4 -3 -7 -1 -7 5 0 7 -9 12 -21 12 -12 0 -23 8 -26 20 -6 23 -28
27 -37 5z"/>
<path d="M7556 4372 c-3 -3 -6 -18 -6 -34 0 -24 4 -29 23 -28 12 1 24 1 27 0
3 -2 22 -4 43 -5 75 -4 61 -28 -28 -46 -82 -16 -86 -34 -7 -26 74 8 85 12 97
40 9 20 18 22 92 24 82 1 83 1 100 -28 19 -32 40 -41 23 -10 -19 37 -13 44 35
39 l45 -6 0 45 0 44 -219 -2 c-121 0 -222 -4 -225 -7z"/>
<path d="M960 4229 c0 -5 -4 -8 -9 -5 -5 4 -22 1 -38 -6 -15 -6 -30 -12 -33
-13 -3 -1 -13 -5 -23 -9 -9 -5 -26 -6 -37 -3 -11 3 -21 -1 -25 -10 -4 -12 -15
-14 -43 -9 -40 6 -173 -33 -180 -53 -6 -17 19 -13 40 6 25 22 32 11 19 -29
-20 -59 -41 -201 -41 -270 0 -100 -61 -327 -90 -336 -9 -3 -10 0 -4 9 4 7 7
26 6 41 -1 16 4 41 11 56 8 15 17 44 20 65 5 32 3 37 -13 37 -10 0 -22 -5 -25
-10 -4 -6 -11 -8 -16 -4 -5 3 -15 1 -22 -4 -7 -6 -42 -22 -79 -37 -42 -17 -70
-34 -73 -46 -4 -10 -11 -19 -16 -19 -16 0 -32 -52 -18 -61 6 -4 8 -12 5 -18
-11 -17 -26 -13 -27 7 -1 31 -18 -19 -18 -56 -1 -53 24 -92 59 -92 34 0 37 7
13 27 -17 13 -16 14 5 9 48 -13 66 -16 55 -10 -18 8 -16 24 2 24 8 0 15 -4 15
-10 0 -5 5 -10 10 -10 6 0 10 9 10 20 0 11 1 20 3 20 1 0 18 -4 37 -10 53 -15
99 20 110 84 4 22 16 35 53 55 26 14 56 34 67 44 11 9 25 17 31 17 12 0 122
88 127 101 2 5 10 9 18 9 8 0 14 7 14 15 0 8 4 15 9 15 4 0 13 19 20 43 39
150 75 336 66 345 -2 3 -11 -1 -19 -7 -10 -8 -16 -9 -21 -1 -3 5 -1 10 4 10 6
0 11 11 11 24 0 25 25 43 34 23 2 -7 5 0 5 16 1 15 -1 27 -4 27 -3 0 -5 -5 -5
-11z"/>
<path d="M7895 3530 c4 -6 2 -17 -4 -24 -8 -10 -7 -23 4 -50 l15 -36 -35 4
c-31 4 -34 3 -25 -14 13 -25 13 -33 -3 -27 -9 3 -19 -14 -31 -55 -14 -48 -21
-59 -35 -55 -17 4 -18 -6 -17 -122 1 -93 -4 -143 -17 -191 -23 -84 -64 -188
-88 -222 -21 -29 -26 -88 -33 -421 -4 -156 -2 -189 10 -194 19 -7 18 -33 -1
-33 -10 0 -15 -12 -17 -37 0 -21 -2 -42 -3 -48 -9 -37 -20 -53 -46 -70 -16
-11 -29 -28 -29 -38 0 -49 -68 -145 -93 -130 -6 3 -7 1 -3 -6 4 -6 2 -27 -4
-46 -10 -31 -16 -35 -45 -35 -33 0 -34 -2 -44 -52 -18 -99 -22 -123 -28 -171
-3 -26 -9 -47 -14 -47 -5 0 -9 -5 -9 -12 0 -6 -7 -20 -17 -30 -9 -11 -11 -18
-5 -18 7 0 12 -7 12 -15 0 -8 -9 -15 -20 -15 -11 0 -23 -7 -26 -15 -10 -25
-26 -4 -20 26 5 28 -8 41 -17 17 -2 -7 -11 10 -19 37 -11 35 -12 52 -4 57 6 4
7 10 3 14 -15 15 -26 -13 -31 -75 -4 -47 -10 -68 -25 -83 -12 -10 -21 -30 -21
-44 0 -14 -7 -32 -15 -41 -8 -8 -13 -19 -10 -24 3 -5 1 -26 -6 -46 -6 -21 -15
-58 -19 -83 -5 -25 -12 -58 -15 -75 -5 -23 -4 -26 4 -15 6 8 11 13 12 10 7
-47 6 -60 -7 -60 -8 0 -14 -10 -14 -24 0 -18 7 -25 30 -29 27 -6 44 -37 20
-37 -5 0 -10 5 -10 10 0 6 -4 10 -10 10 -5 0 -10 -7 -10 -15 0 -8 7 -15 15
-15 29 0 16 -39 -17 -54 -84 -37 -128 -22 -128 41 0 27 -13 68 -40 128 -22 48
-43 102 -50 130 -5 17 -15 55 -23 85 -8 30 -18 102 -22 160 -4 58 -13 118 -21
134 -8 16 -14 41 -15 55 0 24 -1 24 -9 6 -5 -11 -9 -33 -9 -50 -1 -30 -30
-122 -31 -97 0 6 -11 12 -25 12 -19 0 -23 -4 -18 -17 5 -12 2 -15 -10 -10 -11
4 -17 1 -17 -8 0 -8 -4 -15 -10 -15 -13 0 -13 -27 0 -35 6 -4 17 -1 25 5 10 8
15 9 15 2 0 -6 -9 -14 -21 -17 -15 -5 -19 -13 -15 -28 3 -12 0 -27 -7 -35 -6
-8 -12 -22 -12 -31 0 -9 -7 -16 -15 -17 -31 -2 -68 -23 -75 -43 -9 -30 -35
-48 -45 -31 -6 10 -13 5 -28 -19 l-20 -33 -10 34 c-11 36 -9 148 2 167 11 17
-11 13 -34 -6 -11 -10 -20 -25 -20 -34 0 -9 -7 -23 -16 -30 -9 -7 -20 -22 -24
-34 -8 -19 -9 -19 -9 3 -1 12 -6 22 -12 22 -15 0 -4 103 11 108 6 2 8 8 5 13
-11 17 26 57 56 61 35 5 50 -9 42 -40 -3 -12 -1 -22 4 -22 14 0 44 35 37 43
-3 3 -3 11 1 17 10 15 12 119 2 113 -4 -2 -10 3 -13 11 -4 10 -18 16 -36 16
-22 0 -44 13 -80 45 -53 47 -68 53 -90 32 -14 -13 -68 -20 -68 -8 0 4 5 12 12
19 7 7 8 12 2 12 -5 0 -15 -5 -22 -12 -8 -8 -12 -8 -12 -1 0 5 -11 8 -24 6
-19 -4 -25 0 -28 18 -3 20 -9 24 -53 26 -30 2 -75 15 -110 32 -65 32 -125 46
-125 31 0 -15 -36 -12 -52 3 -11 12 -43 18 -148 31 -9 1 -20 5 -25 8 -6 3 -36
9 -68 12 -37 5 -55 11 -51 18 5 7 0 9 -14 6 -26 -7 -39 7 -16 16 12 5 15 14
10 36 -4 25 -2 30 13 30 18 0 18 2 2 35 -9 19 -22 32 -28 30 -7 -2 -13 0 -13
5 0 5 6 10 14 12 11 2 11 5 2 14 -10 9 -23 7 -55 -8 -23 -10 -46 -16 -52 -13
-5 4 -16 2 -23 -4 -7 -6 -52 -13 -100 -16 -48 -3 -97 -10 -109 -17 -16 -8 -22
-8 -25 1 -5 14 -29 15 -34 0 -2 -5 -23 -13 -46 -16 -30 -4 -42 -10 -38 -19 3
-8 0 -11 -9 -8 -7 3 -16 -3 -20 -15 -6 -21 -35 -30 -35 -12 0 12 -39 7 -68 -8
-18 -10 -29 -10 -52 1 -17 7 -30 18 -30 24 0 14 -102 15 -111 2 -3 -5 -18 -4
-33 2 -15 5 -62 10 -104 10 -43 0 -91 4 -108 9 -18 5 -47 6 -65 1 l-34 -7 30
-7 c124 -29 188 -52 180 -65 -10 -17 26 -43 51 -37 31 8 39 -8 11 -22 -36 -17
-123 -23 -174 -11 -129 29 -193 53 -193 72 0 10 9 21 20 24 11 3 20 14 20 24
0 24 1 24 -54 -7 -43 -24 -59 -44 -36 -44 6 0 10 5 10 12 0 6 2 9 5 7 2 -3 2
-15 -2 -27 -5 -20 -7 -21 -17 -6 -11 14 -16 14 -56 -2 -25 -10 -61 -30 -81
-46 -20 -15 -45 -28 -55 -28 -13 0 -15 -3 -7 -11 7 -7 32 -7 84 0 47 6 77 7
85 0 6 -5 18 -7 27 -3 19 7 28 -7 20 -35 -4 -14 -16 -24 -34 -28 -30 -6 -40
-23 -15 -23 20 0 27 -13 16 -30 -7 -11 -11 -11 -24 -1 -8 7 -35 14 -58 14 -24
1 -46 6 -50 12 -4 5 -11 6 -15 1 -4 -5 -2 -11 5 -13 19 -7 14 -17 -15 -30 -49
-21 -83 -20 -83 2 0 8 -4 15 -10 15 -5 0 -10 -9 -10 -19 0 -25 -20 -38 -31
-20 -6 9 -7 -30 -3 -101 3 -63 6 -117 6 -120 2 -39 -4 -73 -11 -62 -6 11 -10
10 -15 -5 -7 -16 -9 -16 -20 6 -13 23 -14 22 -20 -21 -4 -25 -16 -54 -26 -63
-15 -14 -17 -22 -9 -37 11 -21 -5 -88 -22 -88 -5 0 -7 -35 -4 -84 6 -89 1
-101 -46 -127 -14 -7 -17 -14 -11 -22 12 -14 -2 -57 -18 -57 -6 0 -8 -5 -5
-11 4 -6 -2 -13 -14 -16 -27 -7 -27 -29 -1 -36 14 -4 20 -14 20 -35 0 -17 -5
-34 -11 -38 -7 -4 -9 -35 -4 -93 6 -78 5 -84 -9 -66 -18 23 -21 45 -6 45 6 0
10 5 10 11 0 5 -5 7 -11 3 -8 -4 -9 4 -4 27 7 29 6 32 -7 21 -11 -9 -13 -23
-7 -59 9 -60 -15 -193 -42 -226 -3 -4 -1 -26 5 -48 7 -27 7 -42 0 -47 -13 -9
-44 -107 -44 -138 l0 -24 1320 0 1319 0 -6 33 c-6 29 -5 31 10 18 15 -12 17
-11 17 7 0 11 7 27 15 36 20 20 19 64 -1 68 -13 3 -12 7 7 32 15 19 24 46 26
75 1 25 7 47 13 49 5 2 8 7 5 12 -3 4 2 13 10 20 13 10 15 9 15 -9 0 -11 5
-21 10 -21 6 0 10 16 10 36 0 22 4 33 11 29 5 -4 9 -17 7 -30 -2 -14 7 -34 21
-49 24 -25 24 -27 6 -40 -11 -8 -15 -18 -10 -26 5 -8 4 -11 -3 -6 -18 11 -26
-16 -9 -29 22 -16 21 -28 -1 -48 -23 -21 -41 -21 -62 -2 -15 14 -16 12 -12
-15 3 -20 0 -30 -8 -30 -10 0 -10 -3 0 -15 7 -9 8 -15 2 -15 -9 0 -32 -51 -32
-71 0 -5 175 -9 390 -9 l389 0 10 38 c6 20 14 98 18 172 7 130 8 175 2 258 -1
20 1 55 5 76 7 37 6 38 -17 34 -23 -4 -26 -1 -32 39 -7 48 -2 63 23 63 10 0
23 9 30 20 26 42 72 8 72 -54 0 -31 5 -40 35 -57 19 -12 35 -27 35 -35 0 -17
-17 -18 -23 -1 -3 6 -6 2 -6 -9 -1 -12 -9 -24 -19 -26 -15 -4 -18 -12 -14 -37
3 -25 -1 -37 -22 -56 -28 -26 -32 -45 -15 -76 16 -31 28 -122 18 -135 -5 -7
-8 -57 -7 -113 l3 -101 468 0 467 0 0 1770 0 1770 -56 0 c-36 0 -53 -4 -49
-10z"/>
<path d="M1829 3359 c-4 -93 6 -146 34 -176 9 -11 17 -24 17 -30 0 -5 10 -18
21 -29 12 -10 25 -28 31 -39 20 -43 68 -116 90 -136 9 -8 20 -27 23 -42 4 -16
14 -27 24 -27 13 0 13 -2 2 -9 -18 -12 -8 -25 33 -45 26 -12 35 -24 41 -53 4
-23 9 -32 14 -24 9 13 41 -55 41 -85 0 -9 8 -28 18 -42 21 -31 70 -176 82
-242 17 -92 32 -136 57 -175 15 -22 26 -45 26 -52 0 -7 9 -15 19 -19 10 -3 27
-23 38 -44 11 -21 24 -41 30 -45 13 -8 -18 -55 -37 -55 -8 0 -12 4 -8 9 3 6
-19 9 -55 7 -45 -2 -66 -8 -83 -25 -22 -20 -67 -29 -67 -13 0 4 9 13 20 20 28
17 25 32 -8 32 -15 0 -35 9 -45 20 -19 22 -11 25 27 10 17 -6 26 -6 26 0 0 6
6 10 14 10 8 0 16 6 19 13 3 9 8 8 22 -3 14 -11 19 -12 22 -2 3 6 11 12 19 12
8 0 14 5 14 10 0 6 -9 10 -20 10 -26 0 -15 27 13 33 l22 4 -21 2 c-12 0 -27
-6 -34 -14 -14 -17 -50 -20 -50 -5 0 6 7 10 15 10 8 0 15 5 15 10 0 14 -4 13
-42 -9 -35 -20 -98 -37 -98 -26 0 3 16 13 35 21 19 8 35 19 35 25 0 6 7 8 18
4 12 -4 14 -3 6 5 -8 8 -21 7 -49 -4 -44 -19 -45 -19 -45 -6 0 6 7 10 15 10
32 0 13 16 -21 17 -19 1 -43 8 -53 17 -10 9 -23 16 -31 16 -7 0 -1 -10 14 -21
37 -29 27 -33 -25 -13 -56 22 -56 22 -34 38 17 12 16 13 -14 19 -22 5 -31 12
-29 23 2 11 -7 20 -25 27 -32 10 -47 3 -29 -15 16 -16 15 -28 -3 -28 -8 0 -15
7 -15 15 0 8 -9 15 -20 15 -12 0 -20 -7 -20 -16 0 -9 -5 -13 -12 -10 -7 3 -21
9 -31 12 -10 4 -21 20 -24 35 -3 16 -10 29 -15 29 -5 0 -13 10 -18 23 l-9 22
0 -22 c-1 -12 4 -25 9 -28 6 -3 9 -23 9 -43 -2 -30 -3 -32 -6 -9 -3 19 -10 27
-24 27 -22 0 -23 -4 -9 -31 8 -15 7 -19 -4 -19 -7 0 -16 7 -20 15 -9 25 -26
17 -26 -12 0 -39 -9 -24 -41 69 -15 46 -28 74 -29 62 0 -34 -12 -36 -37 -7
l-23 28 -20 -24 c-15 -18 -20 -19 -20 -7 0 9 -5 16 -11 16 -6 0 -8 9 -4 20 5
15 2 20 -10 20 -12 0 -15 5 -11 16 10 25 -4 37 -20 17 -13 -17 -13 -17 -14 5
0 12 -4 22 -10 22 -5 0 -10 11 -10 25 0 14 -4 25 -9 25 -5 0 -12 -11 -15 -25
-4 -14 -11 -25 -16 -25 -5 0 -7 6 -4 14 3 8 1 23 -4 32 -9 16 -10 15 -16 -4
-4 -12 -14 -22 -22 -22 -12 0 -12 4 -4 20 8 15 8 20 -3 20 -7 0 -18 -5 -25
-12 -7 -7 -12 -8 -12 -2 0 5 5 15 12 22 13 13 5 27 -11 17 -6 -3 -11 -22 -11
-41 0 -22 -4 -33 -10 -29 -6 4 -18 1 -26 -6 -20 -16 -31 -2 -16 21 17 27 15
40 -6 40 -21 0 -44 -34 -36 -55 3 -8 2 -15 -4 -15 -6 0 -13 18 -17 40 -8 45
-24 51 -73 23 -30 -17 -62 -13 -62 9 0 10 2 10 9 -1 6 -10 10 -10 16 -1 4 6 2
17 -4 23 -6 6 -11 19 -11 29 0 15 -5 17 -25 12 -14 -3 -33 -7 -43 -8 -9 0 -23
-8 -30 -16 -11 -13 -12 -7 -8 35 2 28 2 42 0 33 -3 -10 -10 -18 -15 -18 -5 0
-9 -15 -9 -32 -1 -18 -7 -46 -15 -63 -13 -30 -13 -29 -14 28 l-1 57 -37 1
c-82 3 -115 11 -100 25 4 4 13 1 22 -6 28 -23 17 22 -15 60 -29 34 -29 35 -30
10 -1 -23 -2 -24 -14 -7 -18 23 -26 21 -26 -6 0 -16 -9 -28 -25 -35 l-25 -12
16 32 c15 28 15 30 0 25 -11 -4 -16 -1 -16 11 0 10 -5 23 -11 29 -5 5 -9 30
-7 54 2 28 -2 48 -10 54 -10 8 -11 17 -3 38 21 54 5 82 -17 32 -13 -29 -21
-31 -48 -10 -18 14 -18 14 4 8 16 -4 22 -1 22 11 0 9 -8 16 -20 16 -15 0 -23
13 -38 61 -13 43 -21 56 -25 44 -4 -9 -5 -21 -1 -26 3 -5 -4 -9 -15 -9 -16 0
-21 6 -21 25 0 14 -9 35 -20 47 l-20 22 0 -23 c0 -20 -2 -21 -15 -11 -13 11
-15 8 -15 -20 0 -23 -4 -31 -14 -27 -15 6 -34 -24 -38 -62 -2 -14 -10 -26 -18
-28 -11 -4 -12 -2 -2 5 7 5 12 26 12 48 -2 41 4 109 14 184 l7 45 -14 -36
c-14 -37 -50 -79 -67 -79 -13 0 -13 1 6 38 14 30 14 33 -2 49 -16 16 -17 16
-12 1 4 -9 0 -24 -7 -35 -13 -16 -14 -11 -8 45 4 41 2 62 -5 62 -6 0 -12 -10
-15 -22 -2 -13 -1 5 1 38 3 39 0 64 -7 68 -7 5 -11 -2 -11 -18 0 -26 -24 -46
-54 -46 -9 0 -16 7 -16 15 0 20 -6 19 -30 -5 -12 -12 -18 -25 -15 -30 4 -6 -1
-10 -9 -10 -8 0 -27 -5 -41 -12 l-25 -11 0 -231 c1 -177 3 -226 12 -211 11 20
30 36 35 31 2 -1 -8 -26 -22 -54 l-25 -51 0 -1366 0 -1365 1706 0 c1499 0
1707 2 1720 15 9 8 13 19 10 24 -10 15 6 43 20 37 8 -3 13 -2 12 2 -1 4 4 18
11 31 7 12 10 33 7 44 -6 26 13 96 31 115 7 7 13 23 13 35 -1 21 -1 21 -13 -3
-7 -14 -21 -26 -32 -27 -26 -2 -46 36 -31 60 13 20 -2 37 -15 17 -8 -11 -9 -8
-4 13 4 21 3 27 -6 21 -9 -5 -10 -2 -6 10 5 11 0 19 -14 24 -11 4 -26 19 -34
32 -33 59 -48 97 -50 125 -1 17 0 24 2 17 7 -18 23 -4 23 19 0 11 -4 17 -10
14 -6 -4 -10 7 -9 27 1 32 1 32 10 8 6 -19 8 -13 5 25 -2 34 2 55 11 64 9 8
11 17 5 24 -12 15 -25 124 -24 192 1 27 -3 52 -7 55 -4 3 -20 55 -36 115 -27
109 -72 225 -86 225 -14 0 -39 63 -39 97 0 18 -5 33 -11 33 -6 0 -26 7 -44 16
-24 11 -35 24 -37 42 -3 23 -9 28 -38 31 -28 3 -31 5 -16 10 19 7 19 8 -2 13
-14 4 -31 -2 -49 -18 -22 -19 -34 -23 -58 -17 -16 3 -39 7 -50 8 -43 3 -72 23
-78 53 -7 34 1 140 12 160 10 18 49 -26 65 -72 l12 -36 32 28 31 28 -39 39
c-51 53 -66 65 -84 65 -7 0 -16 7 -20 15 -3 8 -11 15 -18 15 -7 0 -35 25 -63
55 -27 30 -55 55 -62 55 -7 0 -13 5 -13 12 0 8 -3 9 -11 1 -14 -14 -65 38 -74
77 -4 17 -17 43 -29 58 -12 15 -26 36 -30 47 -6 16 -9 17 -16 5 -8 -12 -10 -9
-10 10 0 14 -6 35 -14 46 -8 11 -16 31 -19 44 -4 25 -4 25 -6 -2 -1 -36 -17
-44 -25 -13 -4 14 -11 25 -16 25 -10 0 -50 80 -50 99 0 6 -4 11 -9 11 -4 0
-11 20 -14 44 -4 24 -17 73 -30 108 -14 34 -37 101 -51 148 -15 46 -34 92 -43
102 -11 12 -14 29 -10 57 3 26 0 46 -9 58 -7 10 -14 27 -14 38 0 11 -8 25 -19
32 -10 6 -26 35 -35 65 -10 29 -24 67 -31 83 -7 17 -17 46 -23 65 -10 34 -10
34 -11 7 -1 -21 -5 -28 -18 -25 -13 2 -17 11 -15 33 2 21 0 26 -6 16 -7 -10
-15 -5 -35 20 -14 19 -29 46 -32 62 -8 31 -25 46 -25 23 0 -9 -5 -16 -11 -16
-8 0 -9 11 -5 32 5 25 4 30 -6 20 -22 -22 -35 -13 -45 31 -9 40 -10 38 -14
-44z"/>
</g>
</svg>
