<?xml version="1.0" standalone="no"?>
<!DOCTYPE svg PUBLIC "-//W3C//DTD SVG 20010904//EN"
 "http://www.w3.org/TR/2001/REC-SVG-20010904/DTD/svg10.dtd">
<svg version="1.0" xmlns="http://www.w3.org/2000/svg"
 width="696.000000pt" height="461.000000pt" viewBox="0 0 696.000000 461.000000"
 preserveAspectRatio="xMidYMid meet">
<metadata>
Created by potrace 1.16, written by Peter Selinger 2001-2019
</metadata>
<g transform="translate(0.000000,461.000000) scale(0.100000,-0.100000)"
fill="#000000" stroke="none">
<path d="M9 4601 c8 -5 9 -11 3 -15 -7 -4 -11 -64 -10 -161 l0 -155 26 -6 c15
-3 41 -11 57 -19 l30 -14 -31 0 c-16 -1 -39 6 -50 14 -27 20 -34 19 -34 -8 0
-24 33 -47 69 -47 9 0 26 -6 36 -14 18 -13 17 -14 -10 -12 -17 1 -45 10 -62
19 l-33 18 0 -29 c0 -26 4 -30 39 -36 22 -3 46 -3 54 0 8 3 18 1 22 -5 4 -7
-1 -8 -12 -4 -17 5 -17 5 1 -13 12 -13 20 -15 23 -7 6 16 90 -9 112 -33 15
-17 15 -17 -1 -5 -10 7 -24 11 -32 8 -7 -3 -18 -1 -23 4 -6 6 -39 12 -74 15
-35 3 -66 8 -69 13 -3 4 -13 10 -23 14 -15 6 -18 2 -15 -20 2 -21 10 -29 38
-36 19 -5 40 -13 47 -19 7 -5 17 -7 22 -4 16 10 91 -5 84 -17 -3 -6 -1 -7 6
-3 13 8 67 -22 57 -31 -3 -3 -12 0 -20 6 -8 7 -23 11 -33 10 -10 -2 -32 5 -50
14 -40 21 -49 22 -32 0 13 -15 12 -15 -8 -5 -12 7 -33 12 -46 12 -14 0 -30 7
-37 15 -19 23 -30 18 -30 -15 0 -24 4 -30 23 -30 12 0 40 -12 62 -26 28 -17
32 -23 15 -18 -14 4 -33 8 -43 9 -9 1 -23 7 -29 13 -19 19 -28 14 -28 -18 0
-25 4 -30 25 -30 14 0 39 -13 57 -31 23 -21 26 -27 11 -20 -12 6 -32 11 -45
11 -13 0 -29 5 -36 12 -9 9 -12 6 -12 -15 0 -15 6 -27 13 -27 17 0 81 -40 74
-46 -3 -3 -14 -1 -25 5 -25 13 -62 3 -62 -18 0 -9 13 -22 29 -28 16 -6 35 -21
42 -34 11 -22 11 -23 -4 -11 -21 18 -61 11 -65 -10 -2 -11 3 -18 11 -18 19 0
73 -47 64 -56 -4 -4 -7 -3 -7 2 0 5 -16 9 -35 10 -30 0 -35 -3 -35 -23 0 -13
6 -23 14 -23 18 0 70 -47 59 -53 -13 -7 -64 18 -56 28 5 4 2 5 -4 1 -7 -4 -13
-23 -13 -42 0 -19 4 -33 9 -29 10 5 51 -41 51 -57 0 -6 -7 -7 -15 -4 -48 19
-45 58 -45 -530 l0 -547 318 8 c174 4 409 7 522 7 113 0 273 6 355 13 174 16
201 17 192 8 -4 -3 -3 -11 3 -17 5 -7 5 -17 0 -26 -8 -13 -10 -12 -10 2 0 16
-9 17 -82 13 -46 -3 -92 -8 -103 -12 -20 -6 -115 -12 -170 -10 -41 1 -256 1
-330 -1 -33 -1 -90 0 -128 1 -37 2 -67 0 -67 -4 0 -4 -18 -5 -41 -3 -23 2 -46
1 -53 -3 -6 -4 -100 -6 -208 -4 l-198 3 0 -376 c0 -293 3 -376 13 -376 8 0 7
-4 -3 -11 -12 -9 -12 -10 3 -5 10 3 26 6 35 6 13 0 12 3 -4 15 -10 8 -16 15
-13 15 3 0 70 11 150 24 260 43 320 50 327 39 9 -14 79 -2 137 23 22 9 81 25
130 35 50 10 124 26 165 34 41 9 109 20 150 26 41 5 132 19 202 31 70 12 130
19 133 17 8 -8 20 -175 19 -274 0 -49 -5 -139 -11 -200 -8 -68 -8 -111 -2
-113 5 -2 9 -12 9 -21 0 -10 16 -38 35 -62 19 -24 35 -55 35 -69 0 -30 17 -50
42 -50 10 0 18 -4 18 -10 0 -5 7 -10 16 -10 13 0 13 4 -2 29 -12 21 -14 34 -8
43 6 7 10 25 9 40 0 16 4 28 11 28 8 0 9 11 5 33 -10 46 -45 50 -60 6 -6 -18
-11 -43 -11 -56 0 -15 -4 -22 -11 -17 -8 5 -10 38 -7 105 3 54 1 104 -3 111
-4 7 -3 18 3 25 7 9 6 14 -5 19 -12 4 -13 12 -4 40 8 26 7 62 -2 134 -18 146
-23 263 -13 278 11 17 75 19 80 4 2 -7 8 -12 14 -12 6 0 7 8 3 18 -4 9 -8 22
-9 27 -1 6 -12 26 -24 45 -12 19 -24 55 -28 80 -3 25 -15 60 -26 78 -12 19
-18 42 -15 54 4 13 0 26 -9 32 -8 6 -23 52 -33 101 -25 123 -40 175 -50 175
-11 0 -26 163 -26 285 0 97 1 102 39 173 60 113 202 224 368 288 73 28 93 44
56 44 -13 0 -97 7 -188 15 -91 8 -262 19 -380 25 -206 10 -402 33 -445 51 -13
5 1 7 40 4 33 -3 101 -7 150 -10 50 -2 155 -12 235 -20 202 -22 513 -48 589
-49 47 -1 66 3 69 13 3 10 0 12 -12 8 -11 -5 -15 -3 -10 5 5 8 2 9 -12 4 -10
-5 -23 -8 -29 -8 -25 2 -50 7 -55 12 -3 3 -17 11 -32 17 -40 18 -35 34 8 27
27 -4 34 -3 28 7 -4 7 3 5 17 -4 13 -9 35 -17 50 -17 16 0 32 -9 42 -22 8 -13
18 -20 22 -16 4 4 3 14 -3 21 -10 11 -6 13 17 12 17 -1 44 4 62 12 31 13 32
14 13 29 -18 15 -18 15 6 9 14 -4 70 -6 125 -5 64 1 122 -5 160 -15 33 -9 84
-16 113 -16 35 0 65 -7 85 -20 18 -10 39 -19 47 -19 9 1 5 6 -10 15 -25 14
-25 14 -2 15 12 0 25 -7 28 -15 4 -8 13 -15 21 -15 8 0 11 5 8 11 -11 16 88 0
101 -17 13 -16 28 -19 19 -4 -3 6 -1 10 4 10 6 0 11 -7 11 -15 0 -9 10 -15 26
-15 14 0 23 4 19 10 -9 14 7 12 30 -3 11 -8 29 -17 40 -20 l20 -7 -20 16 c-19
15 -18 16 23 10 53 -7 69 -15 51 -27 -11 -7 -9 -9 6 -9 11 0 30 -3 43 -6 17
-5 21 -3 16 9 -8 21 40 16 65 -7 9 -9 24 -16 32 -16 11 1 10 4 -3 14 -28 21
-22 24 25 14 54 -12 225 -21 245 -13 13 5 12 8 -4 21 -18 14 -18 15 6 8 45
-12 105 -12 123 1 14 10 15 14 5 18 -7 2 7 4 31 3 30 -1 46 4 49 13 3 8 0 11
-6 7 -11 -7 -89 21 -81 29 3 2 25 -1 49 -7 25 -5 58 -10 73 -10 19 1 39 -10
63 -36 l35 -37 -15 32 c-18 36 -19 44 -8 42 18 -3 46 3 35 8 -8 3 -11 14 -7
28 7 28 -23 74 -48 75 -9 0 -20 5 -24 11 -5 9 1 10 22 5 16 -4 32 -12 35 -18
3 -5 23 -11 44 -12 44 -4 87 -48 81 -84 -2 -14 3 -26 14 -32 26 -14 30 -3 14
36 -13 32 -13 34 5 34 11 0 23 5 27 12 4 7 3 8 -4 4 -15 -9 -15 4 -2 24 9 13
12 12 25 -4 8 -10 12 -23 9 -27 -3 -5 1 -9 8 -9 7 0 24 -9 38 -20 14 -11 32
-20 41 -20 23 0 82 -47 69 -55 -5 -3 -8 -11 -5 -16 4 -5 -6 -14 -20 -19 -35
-13 -36 -13 -33 6 4 21 -48 29 -56 9 -6 -18 18 -27 34 -12 9 9 11 7 8 -8 -3
-18 3 -20 50 -20 49 0 68 -14 42 -30 -6 -4 -8 -11 -5 -16 7 -10 35 14 35 30 0
20 31 11 41 -11 7 -18 8 -15 4 15 -4 26 -3 37 4 32 6 -3 11 -1 11 4 0 6 -4 11
-9 11 -5 0 -7 9 -4 20 3 11 11 20 18 20 19 0 43 32 28 37 -18 6 -16 23 2 23 8
0 15 5 15 10 0 6 -7 10 -15 10 -8 0 -17 12 -21 28 -3 15 -7 31 -8 37 -1 5 4
16 11 25 7 8 13 19 12 24 0 5 5 13 13 18 8 5 2 6 -16 2 -25 -6 -28 -4 -23 10
4 11 1 16 -9 16 -13 0 -15 -7 -10 -35 5 -27 3 -37 -9 -41 -10 -4 -13 -13 -10
-25 4 -11 2 -19 -4 -19 -6 0 -14 12 -17 28 -11 44 -33 82 -49 82 -8 0 -15 6
-15 13 0 25 -54 67 -78 60 -13 -3 -22 -1 -22 6 0 20 -26 12 -56 -17 -38 -37
-89 -102 -97 -124 -10 -27 -23 -22 -46 18 -13 22 -27 34 -35 31 -8 -3 -17 1
-20 9 -3 9 -1 12 4 9 6 -3 10 1 10 9 0 8 9 21 20 29 11 8 18 16 16 18 -7 7 94
57 128 64 35 7 29 15 -21 26 -127 28 -165 38 -176 47 -10 8 -114 26 -132 23
-3 -1 -18 5 -33 12 -15 8 -45 17 -67 21 -22 4 -119 29 -215 56 -96 27 -188 51
-205 54 -16 3 -57 14 -90 25 -33 11 -130 36 -215 57 -85 20 -162 40 -171 45
-9 4 -27 10 -41 13 -14 2 -69 16 -124 31 -54 15 -126 33 -159 40 -33 7 -94 22
-135 33 -137 39 -225 62 -250 67 -14 3 -50 11 -80 19 -65 17 -203 52 -245 62
-38 9 -31 7 -155 40 -57 15 -111 33 -118 41 -9 8 -19 10 -26 5 -6 -5 -33 -2
-65 8 -33 10 -49 19 -40 23 8 3 2 4 -12 1 -15 -3 -55 2 -90 12 -49 14 -58 19
-43 26 12 5 5 6 -21 3 -38 -5 -39 -5 -20 11 16 14 17 16 3 11 -21 -7 -25 18
-5 26 23 9 69 -5 63 -19 -3 -9 6 -6 27 6 38 24 47 25 47 6 0 -14 27 -26 66
-30 12 -1 20 3 17 10 -2 7 27 14 84 21 73 8 94 7 121 -6 29 -13 35 -13 67 2
45 21 45 21 45 -3 0 -20 7 -20 480 -20 420 0 480 2 480 15 0 8 4 15 9 15 5 0
16 -7 25 -15 9 -10 34 -15 70 -15 49 0 56 2 56 20 0 17 7 20 40 20 33 0 40 -3
40 -20 0 -18 7 -20 80 -20 73 0 80 2 80 20 0 18 7 20 85 20 73 0 88 -3 102
-20 22 -25 33 -25 75 -1 18 10 50 22 71 25 23 4 37 12 37 21 0 8 7 15 15 15 8
0 15 -9 15 -20 0 -20 7 -20 320 -20 313 0 320 0 320 20 0 17 7 20 40 20 33 0
40 -3 40 -20 0 -19 7 -20 125 -20 113 0 127 -2 142 -20 14 -16 30 -20 75 -20
55 0 58 1 58 25 0 25 1 25 80 25 64 0 80 3 80 15 0 11 11 15 40 15 29 0 40 -4
40 -15 0 -11 11 -15 40 -15 29 0 40 4 40 15 0 12 16 15 80 15 64 0 80 -3 80
-15 0 -13 24 -15 160 -15 l160 0 0 -24 c0 -21 5 -24 43 -27 40 -4 43 -2 39 19
-3 17 -1 21 11 16 9 -3 18 -12 21 -20 3 -8 15 -14 26 -14 15 0 20 7 20 25 0
23 2 24 21 15 12 -7 18 -18 15 -26 -4 -10 2 -14 19 -14 14 0 25 -4 25 -10 0
-5 18 -10 40 -10 22 0 40 -4 40 -8 0 -5 54 -9 120 -9 110 0 120 2 120 19 0 13
8 18 29 18 17 0 33 5 36 10 4 6 72 10 171 10 103 0 164 -4 164 -10 0 -5 18
-10 40 -10 22 0 40 5 40 10 0 6 15 10 33 10 18 0 39 6 46 13 11 10 13 10 7 0
-4 -7 -3 -13 2 -13 18 0 31 26 25 48 -4 17 -1 22 13 22 15 0 16 2 5 9 -10 6
-10 10 -1 16 7 4 13 -1 17 -14 6 -23 23 -29 23 -8 0 9 2 9 8 0 4 -7 8 6 9 30
l1 42 -14 -30 -15 -30 4 28 4 27 -2903 0 c-1976 0 -2904 -3 -2904 -10 0 -17
47 -30 81 -23 17 3 34 2 38 -3 12 -18 61 -44 81 -44 12 0 34 -7 49 -14 25 -13
31 -13 49 0 31 22 62 0 62 -44 0 -33 -1 -33 -32 -27 -18 4 -64 17 -103 29 -38
13 -95 29 -125 36 -30 7 -64 16 -75 21 -11 5 -69 20 -130 34 -60 14 -118 30
-127 35 -26 15 -178 13 -178 -2 0 -9 -3 -9 -12 0 -7 7 -32 12 -58 12 -29 0
-40 -3 -31 -9z m706 -651 c29 -12 92 -23 150 -24 28 -1 55 -4 60 -8 21 -13
102 -31 150 -34 27 -1 51 -6 52 -11 2 -4 22 -7 45 -6 24 0 51 -3 61 -9 10 -5
31 -10 48 -10 16 -1 29 -4 29 -7 0 -6 29 -12 72 -14 9 -1 15 -4 12 -8 -2 -4 3
-10 12 -13 8 -3 13 -2 10 2 -6 10 51 8 74 -1 8 -4 29 -8 45 -9 29 -3 71 -36
60 -47 -4 -3 -10 0 -14 7 -4 7 -12 12 -17 11 -23 -4 -65 2 -61 9 3 4 -14 7
-36 6 -23 0 -50 3 -59 8 -9 4 -41 11 -70 14 -29 3 -57 9 -63 12 -5 4 -27 8
-48 9 -21 2 -45 10 -54 19 -11 11 -18 12 -23 4 -5 -8 -19 -7 -51 3 -24 8 -51
15 -59 16 -8 0 -37 1 -63 2 -26 1 -50 6 -53 10 -2 5 -11 6 -19 3 -8 -3 -26 4
-41 15 -15 12 -31 21 -37 21 -6 0 -2 -7 9 -16 19 -15 19 -16 -1 -9 -11 4 -29
8 -40 10 -11 1 -21 4 -22 5 -3 2 -52 9 -85 10 -9 1 -22 8 -29 16 -6 8 -17 14
-25 14 -7 0 -15 3 -18 8 -6 10 73 4 99 -8z m67 -132 c31 -4 45 -2 41 5 -3 6
-1 7 6 3 6 -4 9 -12 5 -17 -4 -6 17 -9 55 -8 35 1 66 -3 74 -10 8 -6 33 -13
56 -16 22 -2 49 -6 59 -9 22 -7 57 -13 152 -26 41 -5 89 -17 105 -26 28 -14
29 -14 10 1 -19 16 -19 16 7 10 15 -4 40 -8 55 -8 16 -1 30 -5 33 -9 3 -3 30
-9 59 -13 30 -3 58 -8 62 -11 4 -2 29 -7 55 -10 27 -3 53 -9 59 -12 5 -4 24
-8 40 -9 74 -6 177 -24 197 -34 12 -6 16 -5 14 6 -3 22 -11 26 -54 31 -22 2
-59 8 -83 13 -24 5 -47 8 -51 5 -4 -3 -8 0 -8 5 0 6 -20 11 -44 11 -27 0 -48
6 -56 15 -11 13 -9 15 19 13 17 -1 31 -5 31 -9 0 -3 15 -3 33 0 19 4 42 2 57
-6 14 -7 33 -10 43 -7 9 3 17 1 17 -4 0 -6 18 -9 39 -8 22 0 37 -2 34 -6 -2
-5 -1 -8 4 -8 60 -3 176 -12 203 -16 19 -3 50 -8 68 -11 17 -3 32 -8 32 -12 0
-3 27 -6 61 -6 33 0 64 -4 67 -10 4 -5 16 -11 27 -11 19 -2 37 -5 123 -20 17
-4 32 -9 32 -13 0 -4 14 -6 30 -3 19 3 30 0 30 -7 0 -7 3 -10 8 -8 4 3 47 -1
96 -9 50 -8 95 -13 102 -10 14 5 40 -21 31 -31 -4 -3 -12 -1 -19 4 -7 6 -28 9
-46 8 -18 -1 -35 2 -38 7 -3 5 -9 6 -13 4 -4 -3 -25 0 -47 5 -40 11 -74 17
-122 22 -16 2 -34 7 -42 12 -7 4 -27 9 -44 10 -17 2 -31 4 -31 5 0 3 -39 11
-65 14 -14 2 -28 4 -32 6 -5 1 -20 4 -35 5 -16 2 -50 6 -78 9 -102 12 -141 16
-189 22 -27 2 -57 9 -67 14 -14 8 -17 6 -16 -10 1 -11 5 -20 10 -20 4 0 5 -5
2 -11 -4 -6 0 -6 12 1 15 10 30 10 69 0 27 -6 68 -12 92 -12 24 0 41 -2 38 -5
-3 -3 5 -14 17 -25 l22 -19 -25 7 c-14 3 -35 12 -47 20 -16 10 -23 11 -23 3 0
-8 -15 -10 -52 -5 -29 4 -66 9 -83 11 -16 2 -43 8 -60 13 -16 5 -36 7 -42 5
-7 -3 -26 5 -42 16 -34 24 -49 27 -31 6 10 -12 8 -13 -17 -6 -15 5 -37 12 -47
17 -13 5 -17 4 -13 -4 10 -15 -63 6 -84 24 -20 18 -35 18 -20 0 13 -15 4 -16
-29 -3 -8 3 -22 5 -30 6 -50 1 -141 15 -146 22 -3 5 -25 9 -49 9 -24 0 -46 4
-49 9 -3 5 -26 7 -51 6 -25 -2 -45 0 -45 3 0 4 -21 8 -46 9 -25 1 -53 8 -62
16 -10 8 -28 20 -42 26 l-25 12 25 -21 c21 -18 21 -21 5 -15 -11 4 -28 8 -38
9 -10 0 -21 6 -25 11 -4 6 -21 18 -39 27 -25 13 -31 13 -26 2 3 -8 9 -14 14
-14 5 0 9 -4 9 -9 0 -11 -49 -1 -75 15 -11 7 -38 11 -60 9 -30 -3 -49 2 -77
21 -21 13 -38 27 -38 30 0 4 6 2 13 -3 6 -6 33 -13 59 -15z m-119 -54 c20 -4
40 -10 43 -15 3 -5 10 -9 15 -9 6 0 7 4 4 10 -4 6 4 6 22 -1 15 -5 41 -9 58
-8 16 1 37 -1 45 -5 8 -3 35 -8 60 -11 25 -3 77 -10 115 -16 39 -6 84 -12 100
-13 17 -1 37 -5 45 -8 30 -12 71 -15 76 -6 4 6 9 6 14 -1 3 -7 24 -14 46 -18
21 -3 48 -13 59 -22 18 -15 19 -15 6 1 -12 16 -9 17 32 14 25 -2 49 -6 55 -10
5 -3 26 -7 46 -8 34 -3 55 -21 36 -33 -5 -3 -30 -1 -55 5 -25 6 -50 8 -55 5
-5 -3 -11 -1 -14 4 -3 4 -26 7 -50 5 -25 -2 -48 1 -51 7 -4 5 -16 7 -27 3 -14
-4 -18 -2 -14 5 5 8 0 8 -19 1 -15 -6 -31 -7 -37 -4 -6 4 -26 9 -44 11 -19 1
-49 5 -68 6 -18 2 -38 7 -45 11 -7 4 -18 5 -26 2 -7 -2 -19 2 -25 10 -14 16
-45 20 -35 4 3 -5 2 -10 -4 -10 -5 0 -13 5 -16 11 -4 6 -14 8 -22 5 -8 -3 -24
1 -36 9 -24 17 -41 20 -32 6 9 -16 -68 0 -97 20 -32 23 -45 25 -28 4 11 -13 8
-14 -21 -9 -19 4 -53 17 -76 31 -45 25 -53 25 -28 0 12 -13 11 -14 -13 -12
-15 1 -45 11 -67 23 l-40 21 65 -5 c36 -2 82 -7 103 -10z m-490 -89 c9 -2 17
1 17 7 0 5 5 6 10 3 6 -4 8 -9 6 -13 -2 -4 30 -7 71 -7 41 0 77 -3 79 -7 3 -4
27 -10 53 -14 54 -7 57 -9 86 -43 l20 -24 -23 12 c-12 7 -30 11 -40 10 -9 -1
-30 3 -45 9 -35 15 -40 15 -31 0 5 -8 2 -9 -12 -3 -10 5 -34 8 -51 8 -18 -1
-33 3 -33 8 0 5 -17 9 -38 9 -61 -1 -102 7 -121 24 -10 9 -23 16 -29 16 -6 0
-13 4 -16 9 -5 8 47 6 97 -4z m847 -33 c26 2 40 -1 40 -8 0 -6 8 -18 18 -25
15 -13 16 -12 3 4 -13 17 -12 17 25 12 67 -10 87 -12 159 -20 39 -4 78 -12 89
-17 10 -5 16 -6 13 -1 -3 4 17 6 44 5 27 -2 46 -8 43 -13 -3 -5 -3 -9 0 -9 2
0 13 -3 23 -6 15 -5 16 -4 3 6 -12 9 -8 11 23 6 23 -3 37 -1 37 6 0 7 7 5 18
-4 9 -8 55 -20 102 -27 112 -17 155 -28 169 -45 9 -11 7 -13 -11 -10 -13 2
-41 6 -63 9 -22 4 -50 13 -63 21 -17 11 -27 12 -42 4 -11 -6 -24 -9 -29 -6 -4
3 -25 6 -47 7 -21 1 -43 5 -49 8 -9 5 -75 12 -102 11 -13 0 -29 0 -70 1 -13 1
-23 5 -23 10 0 5 -5 9 -12 9 -6 0 -21 8 -32 17 -12 10 -15 11 -8 3 6 -8 12
-17 12 -20 0 -10 -59 1 -66 11 -3 5 -12 9 -20 9 -8 0 -12 -4 -9 -10 7 -12 -8
-14 -19 -2 -4 4 -17 7 -29 8 -59 2 -124 18 -159 40 -21 13 -38 27 -38 30 0 4
7 1 15 -6 8 -7 32 -10 55 -8z m165 -97 c11 -2 52 -6 90 -10 99 -8 106 -10 116
-26 7 -11 9 -11 9 -1 0 11 14 12 65 7 36 -3 72 -8 80 -11 9 -4 15 0 15 7 0 11
2 11 8 2 4 -7 29 -14 54 -16 26 -1 51 -7 55 -11 5 -5 2 -6 -7 -1 -13 8 -13 7
-1 -9 14 -17 11 -17 -49 -11 -35 3 -72 11 -81 16 -23 12 -42 12 -34 0 8 -14
-48 -8 -63 7 -15 14 -36 17 -28 3 9 -14 -67 4 -97 23 -30 20 -37 11 -9 -11 15
-12 14 -13 -13 -7 -16 3 -45 13 -63 21 -19 8 -36 12 -39 9 -4 -3 -1 -6 5 -6 7
0 12 -5 12 -11 0 -8 -4 -8 -14 0 -7 6 -20 9 -28 6 -8 -3 -21 1 -28 10 -7 8
-18 15 -26 15 -7 0 -16 5 -20 11 -5 9 4 10 32 4 21 -4 48 -9 59 -10z m-92
-134 c15 -15 30 -14 21 1 -4 6 -3 8 2 5 6 -3 41 -8 79 -12 142 -13 198 -26
226 -51 19 -17 27 -40 10 -30 -5 4 -36 8 -68 11 -32 2 -86 7 -120 10 -48 4
-68 10 -89 30 -28 26 -46 27 -25 1 10 -12 6 -14 -31 -11 -30 2 -53 12 -77 32
l-33 28 47 -2 c26 -1 53 -7 58 -12z m-334 -547 l36 -24 -166 0 c-165 0 -189 5
-189 37 0 9 34 12 142 12 133 0 143 -2 177 -25z m66 -699 c-33 -8 -80 -16
-105 -20 -25 -3 -56 -8 -70 -10 -14 -3 -92 -14 -175 -25 -82 -11 -179 -24
-215 -30 -97 -15 -136 -10 -55 6 263 54 513 90 625 91 l55 1 -60 -13z m603
-277 c-4 -12 -178 -44 -498 -92 -63 -10 -149 -24 -190 -32 -41 -7 -91 -16
-110 -19 -19 -3 -42 -8 -50 -10 -19 -5 -272 -44 -365 -55 -38 -5 -88 -13 -110
-19 -31 -8 -37 -7 -24 2 9 7 15 19 14 28 -2 11 6 16 29 17 41 2 187 30 195 38
3 3 -12 3 -34 0 -38 -6 -39 -5 -10 5 17 6 77 13 135 14 58 2 111 4 118 4 7 1
11 5 7 11 -3 5 9 8 30 6 19 -1 35 2 35 7 0 4 19 8 43 6 23 -1 49 1 57 4 8 3
51 10 95 16 44 5 107 14 140 20 33 5 85 13 115 16 30 3 111 14 180 24 158 23
203 25 198 9z"/>
<path d="M6364 4585 c-4 -14 -4 -29 0 -32 3 -4 6 2 6 13 1 28 32 -44 36 -83 3
-37 20 -73 33 -73 5 0 21 -39 36 -87 15 -49 33 -100 41 -115 8 -14 14 -32 14
-40 0 -7 7 -26 16 -43 8 -16 22 -54 30 -84 7 -29 17 -58 22 -65 5 -6 14 -31
21 -56 7 -25 18 -58 26 -75 28 -61 44 -101 61 -154 16 -51 16 -55 0 -67 -16
-12 -16 -13 1 -23 23 -13 -2 -15 -27 -1 -13 7 -21 7 -25 0 -3 -6 4 -14 17 -19
20 -8 21 -10 6 -16 -9 -4 -21 -4 -27 -1 -12 8 -63 -14 -74 -31 -11 -17 -27
-16 -27 1 0 27 -20 28 -30 2 -9 -24 -30 -36 -30 -18 0 5 -14 7 -31 4 -20 -3
-34 -13 -41 -28 -12 -26 -23 -30 -33 -13 -4 6 -14 8 -22 5 -9 -4 -21 -2 -28 4
-9 8 -15 8 -20 0 -3 -5 -14 -10 -24 -10 -10 0 -28 -9 -41 -20 -13 -11 -29 -20
-37 -20 -20 0 -49 -33 -45 -53 3 -13 -4 -17 -30 -17 -42 0 -98 -34 -98 -59 0
-11 -7 -24 -16 -29 -15 -8 -15 -10 0 -15 23 -9 20 -22 -9 -35 -23 -10 -25 -9
-25 11 0 12 -7 31 -16 42 -17 23 -10 73 15 92 15 11 14 12 -2 13 -16 0 -17 11
-16 113 1 95 -14 253 -25 264 -1 2 -17 0 -35 -3 l-31 -7 7 -106 c8 -115 8
-122 5 -258 -2 -75 -5 -93 -17 -93 -8 0 -15 5 -15 10 0 6 -11 10 -24 10 -14 0
-28 -4 -31 -10 -10 -16 -25 -11 -25 8 0 10 -3 22 -7 25 -9 10 -34 -14 -27 -27
3 -6 -1 -3 -10 8 -19 23 -38 12 -30 -19 4 -17 1 -25 -14 -29 -10 -4 -29 -17
-41 -30 l-23 -24 56 -100 c31 -55 56 -105 56 -110 0 -6 18 -28 41 -49 56 -52
65 -71 45 -91 -14 -14 -19 -15 -38 -3 -25 15 -36 17 -227 31 -79 6 -146 12
-150 14 -6 4 -165 19 -191 18 -29 -1 -88 30 -98 53 -9 20 -8 22 9 18 10 -3 19
-9 19 -14 0 -5 7 -9 15 -9 31 0 14 27 -24 39 -21 6 -42 18 -45 26 -3 8 -12 15
-20 15 -8 0 -33 30 -55 68 l-39 67 34 18 c19 9 34 24 34 32 0 8 13 21 29 30
32 16 46 44 37 73 -7 19 -106 55 -120 42 -4 -4 -38 6 -75 23 -79 37 -173 46
-287 27 -69 -12 -75 -11 -121 11 -26 12 -54 29 -62 37 -13 13 -16 12 -21 -4
-5 -12 -9 -14 -14 -6 -4 7 -4 12 0 12 3 0 1 7 -6 15 -7 8 -23 15 -36 15 -24 0
-24 1 -24 115 0 96 3 115 15 115 20 0 19 6 -5 30 -12 12 -25 18 -31 15 -5 -4
-16 -1 -24 5 -12 10 -15 10 -15 -2 0 -7 9 -21 20 -31 17 -14 20 -30 21 -104 1
-49 3 -98 4 -111 2 -22 0 -23 -39 -17 l-41 7 80 -56 c44 -31 86 -54 93 -51 8
3 16 -3 19 -14 6 -25 25 -29 98 -21 59 7 59 6 132 -44 83 -58 90 -62 118 -71
19 -6 18 -8 -10 -28 -16 -12 -40 -32 -52 -44 -29 -28 -71 -30 -79 -5 -8 24
-26 61 -20 40 3 -9 8 -32 11 -52 l7 -35 -81 4 c-45 3 -81 1 -81 -4 0 -4 15
-24 33 -45 32 -37 91 -63 102 -45 13 19 35 8 44 -23 l10 -33 -2 30 c-2 39 9
55 36 54 33 -1 165 35 179 49 22 22 35 12 47 -35 7 -27 16 -64 22 -84 18 -71
3 -313 -23 -376 -11 -27 -12 -27 -16 -5 -4 28 -22 19 -22 -12 0 -20 -65 -96
-83 -96 -4 0 -7 16 -7 35 0 33 -15 109 -30 150 -3 10 -5 -32 -2 -94 3 -76 1
-116 -7 -124 -8 -8 -11 -7 -11 6 0 9 -4 17 -10 17 -5 0 -10 -7 -10 -15 0 -8
-4 -15 -10 -15 -5 0 -12 -11 -16 -25 -6 -25 -8 -23 -30 22 -13 26 -24 58 -24
69 0 12 -7 27 -15 34 -8 7 -15 18 -15 26 0 7 -9 19 -21 27 -16 12 -17 17 -7
23 9 6 6 10 -12 14 -26 6 -37 32 -39 88 -1 17 -6 32 -12 32 -12 0 -5 -75 12
-140 6 -22 5 -36 -1 -38 -6 -2 -10 -10 -10 -18 0 -9 -4 -13 -9 -10 -17 11 -10
-118 8 -137 12 -14 15 -36 13 -95 -5 -120 -46 -266 -67 -233 -14 23 -26 9 -23
-28 2 -36 -18 -79 -30 -66 -11 11 -30 -17 -25 -36 5 -16 2 -20 -13 -18 -10 2
-30 -1 -42 -5 -13 -4 -39 -5 -59 -1 -27 5 -38 13 -49 41 -25 60 -104 68 -131
14 -16 -32 0 -50 44 -50 20 0 32 -4 28 -10 -3 -5 3 -10 14 -10 23 0 32 -18 19
-43 -7 -14 -16 -17 -35 -12 -34 8 -51 -8 -45 -45 4 -31 14 -35 77 -31 l20 1
-20 -9 c-11 -5 -38 -14 -60 -20 -68 -18 -88 -50 -124 -198 -46 -186 -60 -270
-72 -413 -9 -116 -12 -127 -42 -169 -34 -47 -69 -64 -100 -49 -23 12 -30 6
-21 -16 3 -9 15 -16 26 -16 10 0 16 -4 13 -10 -3 -5 -1 -10 6 -10 6 0 18 -8
25 -17 12 -17 13 -16 23 7 5 14 19 36 29 49 l19 23 7 -83 c4 -46 9 -98 10
-116 2 -19 -1 -30 -7 -26 -6 4 -8 -1 -4 -11 4 -10 7 -23 7 -31 0 -7 8 -15 18
-17 10 -3 29 -19 41 -36 21 -30 21 -31 1 -37 -11 -3 -20 -10 -20 -15 0 -11
-60 -29 -77 -22 -7 2 -15 19 -19 38 -8 44 -24 34 -24 -15 0 -22 -6 -44 -15
-51 -8 -7 -14 -18 -13 -24 1 -6 -6 -23 -16 -38 -34 -51 5 -65 62 -22 l34 27
32 -33 c26 -26 27 -31 10 -26 -21 6 -69 -22 -87 -51 -4 -7 -18 -13 -31 -13
-19 0 -26 8 -35 43 -10 36 -18 45 -44 53 -40 11 -41 15 -39 237 1 179 7 210
40 199 14 -4 17 24 3 32 -5 3 -12 17 -15 32 -4 14 -21 47 -39 72 l-32 47 -160
-6 c-88 -3 -180 -9 -205 -13 -25 -5 -110 -2 -190 4 -80 7 -210 14 -290 16
-138 4 -329 18 -414 31 l-39 6 6 -37 c7 -42 51 -132 109 -226 23 -36 47 -75
54 -87 7 -12 27 -24 44 -28 16 -4 39 -18 50 -32 17 -22 18 -27 5 -40 -8 -8
-15 -20 -15 -27 0 -15 -35 -48 -68 -65 -20 -10 -23 -9 -32 13 -9 24 -37 38
-70 34 -41 -4 -49 3 -66 60 -10 31 -46 111 -80 177 -34 66 -68 145 -77 175 -9
32 -28 67 -43 80 -14 14 -35 44 -46 68 l-21 43 42 40 c27 24 52 39 68 39 34 0
85 -40 107 -82 16 -33 16 -32 11 62 -4 67 -2 116 9 168 9 40 16 98 16 128 0
33 4 54 11 54 6 0 32 -15 58 -33 25 -19 66 -45 91 -59 25 -14 77 -51 115 -82
39 -31 73 -56 77 -56 4 0 44 -18 90 -40 93 -45 98 -46 98 -25 0 8 7 15 15 15
15 0 21 16 8 22 -11 5 -55 89 -50 94 3 3 20 7 38 9 22 3 48 19 78 49 70 67 93
75 228 80 118 4 120 4 244 -37 71 -24 133 -51 146 -64 18 -19 23 -20 33 -8 9
10 9 15 1 15 -6 0 -8 11 -5 30 9 43 -2 81 -22 73 -16 -6 -15 4 3 55 3 6 1 12
-5 12 -5 0 -12 -7 -16 -15 -3 -8 -16 -15 -28 -15 -17 0 -19 3 -9 9 9 6 10 14
3 27 -25 49 -56 155 -61 211 -5 52 -8 61 -21 53 -12 -8 -13 -12 -2 -19 8 -4
12 -19 10 -32 -2 -19 -11 -25 -43 -30 -38 -6 -48 -2 -58 25 -2 5 -12 6 -23 2
-19 -7 -19 -8 0 -22 15 -10 17 -17 9 -25 -15 -15 -47 -3 -40 15 9 22 -47 28
-98 11 -40 -14 -49 -14 -94 1 -28 9 -49 21 -48 28 1 6 -8 10 -21 8 -12 -2 -45
4 -72 13 -27 9 -59 14 -70 10 -12 -4 -20 -2 -20 5 0 6 -8 9 -19 5 -12 -3 -40
9 -80 36 -48 32 -69 40 -92 37 -24 -4 -34 0 -46 18 -8 13 -30 28 -48 34 -18 6
-39 18 -45 26 -7 7 -23 14 -36 14 -16 0 -28 8 -36 25 -7 17 -19 25 -35 25 -16
0 -37 14 -60 40 -20 22 -40 37 -45 34 -4 -3 -24 4 -43 16 -19 12 -35 18 -35
13 1 -23 29 -86 48 -106 22 -23 25 -49 9 -74 -5 -9 -2 -13 9 -13 13 0 14 -3 4
-15 -10 -12 -3 -23 37 -66 52 -55 68 -78 60 -86 -5 -4 -166 15 -277 34 -34 6
-35 5 -17 -14 17 -19 16 -20 -17 -30 -19 -6 -75 -37 -125 -69 -82 -53 -94 -65
-121 -119 -17 -33 -33 -78 -37 -100 -3 -22 -12 -52 -19 -67 -8 -15 -14 -35
-14 -45 0 -10 -10 -34 -22 -53 -12 -19 -23 -46 -25 -60 -1 -14 -3 -32 -4 -40
-1 -8 -9 -23 -17 -33 -9 -10 -16 -37 -17 -61 0 -30 -9 -56 -28 -83 -15 -21
-27 -44 -27 -50 0 -6 -11 -35 -24 -64 -17 -38 -27 -87 -35 -163 -10 -116 -7
-139 14 -109 13 17 14 17 21 -2 4 -11 21 -37 37 -57 29 -36 29 -39 13 -56 -9
-11 -32 -28 -51 -38 -19 -10 -35 -24 -35 -31 0 -8 -10 -18 -23 -24 -28 -13
-65 -76 -51 -88 5 -5 24 -7 41 -4 33 5 39 17 34 63 -1 8 8 -1 20 -20 33 -53
49 -61 73 -38 12 11 37 27 56 37 69 34 235 123 245 131 6 5 32 14 58 21 40 10
54 9 85 -4 20 -8 62 -25 93 -38 32 -12 79 -43 109 -70 51 -47 80 -61 80 -39 0
6 7 10 15 10 8 0 15 -4 15 -8 0 -4 8 -8 18 -8 9 -1 49 -7 87 -13 77 -14 139
-8 169 14 19 15 19 16 -7 43 -15 15 -27 33 -27 40 0 7 -6 12 -13 12 -14 0 -47
31 -47 43 0 16 124 -4 156 -26 7 -4 15 0 18 9 3 8 10 13 15 10 5 -4 11 -2 13
4 1 5 46 12 98 15 52 3 146 11 209 17 92 8 115 8 122 -3 4 -7 5 -18 2 -24 -4
-5 -3 -7 2 -3 4 4 19 -2 33 -12 13 -11 39 -20 56 -20 24 0 43 -12 84 -51 28
-29 52 -55 52 -60 0 -4 15 -16 33 -27 17 -10 39 -34 48 -53 9 -19 26 -55 38
-81 22 -48 40 -62 67 -51 9 3 26 -5 42 -20 28 -26 125 -57 179 -57 16 0 35 -6
42 -12 8 -7 11 -8 8 -2 -4 6 17 15 53 22 57 12 61 15 81 58 23 53 22 55 -58
95 -46 22 -53 30 -25 27 9 -1 36 3 60 10 31 9 42 18 41 30 -1 9 2 26 6 36 6
14 2 24 -16 38 -13 11 -44 38 -69 61 -45 41 -45 41 -20 48 14 4 46 7 72 8 26
1 50 6 53 11 3 6 19 10 35 10 16 0 32 4 35 10 3 5 25 7 51 3 26 -3 61 -1 82 6
l37 12 140 -135 c77 -75 147 -142 155 -149 21 -18 124 -137 128 -147 2 -5 18
-24 35 -43 77 -80 140 -152 149 -171 14 -29 75 -79 90 -74 7 3 -3 19 -25 40
-20 20 -37 40 -37 45 0 5 -24 34 -52 65 -29 31 -78 84 -108 119 -129 148 -177
198 -230 243 -19 16 -35 32 -35 35 0 3 -3 5 -7 4 -4 -2 -5 4 -2 12 4 11 2 13
-9 9 -10 -3 -20 3 -27 16 -6 11 -39 47 -72 79 l-61 58 37 7 c51 10 64 44 37
97 l-20 38 25 -9 c13 -5 56 -11 95 -12 53 -2 72 1 79 12 7 12 32 15 114 15
114 0 141 11 130 51 -6 23 -30 33 -157 64 -49 12 -116 36 -150 55 -35 18 -77
36 -95 39 -45 11 -48 23 -7 37 64 23 39 32 -68 25 -57 -3 -119 -11 -138 -16
-27 -8 -45 -6 -92 11 -62 23 -79 20 -59 -11 10 -16 9 -21 -7 -30 -24 -12 -210
-45 -217 -37 -7 7 28 77 36 72 4 -2 7 37 8 88 0 51 3 101 6 112 2 11 5 26 5
34 1 9 7 11 19 6 76 -32 192 -34 266 -6 39 15 25 26 -15 12 -60 -21 -159 -14
-218 15 l-52 26 28 15 c24 12 31 13 53 0 14 -8 38 -17 54 -21 27 -7 28 -6 10
11 -17 17 -17 18 0 21 18 4 62 42 48 42 -11 0 -52 38 -52 48 0 13 64 47 89 47
13 0 26 6 28 13 3 7 -1 10 -11 6 -23 -9 -20 12 8 49 12 18 32 54 42 80 10 27
38 67 62 90 54 53 114 152 153 253 42 109 94 190 142 222 77 52 102 65 127 68
13 1 26 8 28 13 9 27 22 7 22 -33 0 -25 5 -48 11 -52 7 -4 9 -21 5 -43 -5 -31
-18 -232 -30 -481 -5 -78 -17 -112 -48 -134 -12 -9 -17 -16 -10 -16 7 0 23 11
35 24 25 26 122 78 130 70 12 -12 107 -9 112 3 2 7 1 13 -3 13 -4 0 -23 4 -43
9 -28 6 -50 4 -90 -10 -29 -11 -57 -19 -62 -19 -6 0 -7 29 -3 68 3 37 8 132
11 212 6 163 22 316 37 344 6 10 13 39 17 65 l6 46 48 3 c26 2 47 7 47 13 0 5
4 9 9 9 5 0 12 -20 15 -45 6 -35 11 -45 26 -45 10 0 22 -4 25 -10 3 -5 -1 -10
-9 -10 -26 0 -19 -30 7 -30 12 -1 38 -14 57 -30 29 -26 43 -30 91 -30 59 0 89
7 89 20 0 4 -17 3 -39 -3 -29 -8 -46 -7 -70 3 -38 15 -89 77 -97 118 -10 50
31 100 43 52 10 -38 21 -10 19 49 -2 35 -9 70 -19 85 -21 31 -21 59 -2 133 23
90 20 126 -15 161 -51 52 -37 66 30 32 40 -21 52 -40 25 -40 -24 0 -17 -17 10
-24 14 -4 25 -11 25 -16 0 -13 -7 -13 -31 0 -16 9 -19 7 -19 -14 0 -29 29
-100 30 -72 0 32 27 0 45 -54 9 -26 23 -51 31 -54 27 -10 64 -7 65 7 2 43 18
73 26 49 10 -28 40 -32 87 -12 25 10 46 24 46 30 0 5 5 10 10 10 6 0 3 -12 -7
-26 -9 -15 -19 -36 -20 -46 -2 -11 -10 -29 -18 -41 -8 -12 -15 -34 -15 -49 0
-25 3 -28 25 -22 15 4 25 2 25 -5 0 -6 -15 -11 -34 -11 -38 0 -57 -25 -24 -33
33 -9 19 -41 -20 -45 -17 -2 -32 -8 -32 -14 0 -7 20 -8 61 -4 39 5 59 4 55 -3
-10 -16 13 -24 72 -22 65 1 99 21 36 21 -22 0 -45 -5 -52 -12 -9 -9 -12 -4
-13 23 0 18 -2 41 -4 50 -2 12 7 15 36 16 36 1 39 -1 39 -28 0 -19 5 -29 14
-29 19 0 29 17 15 25 -5 4 -9 22 -7 40 1 19 -1 37 -5 41 -4 4 -7 20 -7 36 0
21 5 28 20 28 13 0 20 -7 20 -20 0 -11 -5 -20 -12 -20 -6 0 -3 -6 8 -14 16
-12 17 -18 7 -34 -6 -11 -9 -23 -5 -27 4 -4 7 -23 7 -43 0 -33 3 -37 29 -42
33 -6 52 -44 42 -84 -6 -24 -42 -36 -114 -36 -18 0 -31 -3 -28 -8 5 -9 -258
-92 -291 -92 -12 0 -25 -5 -28 -11 -5 -7 -34 -8 -90 -4 -133 11 -157 -13 -159
-165 -1 -43 0 -45 27 -43 15 1 25 -2 23 -6 -3 -5 12 -8 34 -7 22 0 40 4 40 9
0 5 51 6 113 3 61 -4 138 -6 170 -5 34 0 57 -4 57 -10 0 -6 -11 -11 -24 -11
-37 0 -61 -11 -45 -21 21 -13 -34 -29 -99 -30 l-57 0 55 -18 c30 -9 84 -23
120 -30 36 -7 88 -19 115 -26 28 -8 72 -17 99 -21 27 -3 44 -9 38 -13 -6 -4
17 -8 53 -9 l64 -3 3 53 3 53 41 5 c34 4 41 9 38 24 -4 25 13 56 30 56 9 0 12
-11 10 -35 -3 -40 -18 -36 151 -40 55 -2 142 -7 193 -11 l94 -9 -21 -26 c-11
-15 -17 -30 -13 -33 4 -4 3 -6 -3 -5 -5 2 -20 0 -32 -5 -19 -6 -21 -11 -13
-26 14 -26 12 -40 -4 -40 -8 0 -16 -7 -20 -15 -3 -9 0 -15 8 -15 8 0 17 6 19
13 3 6 6 0 6 -15 1 -25 4 -27 64 -32 34 -4 176 -8 315 -11 l252 -4 0 30 c0 27
-3 29 -37 30 -154 2 -346 18 -341 28 2 3 14 23 28 44 24 36 27 38 65 32 78
-11 260 -35 273 -35 9 0 12 138 12 659 l0 660 -32 4 -33 3 33 13 c37 15 44 42
10 35 l-23 -5 23 12 22 12 0 714 0 713 -295 0 -295 0 -6 -25z m-1302 -1718
c11 -51 10 -61 -6 -88 -20 -34 -34 -82 -41 -144 -3 -25 -14 -48 -30 -63 l-25
-23 0 26 c0 15 9 61 19 103 11 43 23 111 27 152 11 126 34 141 56 37z m687
-16 c23 -6 52 -46 72 -99 9 -24 9 -24 -51 -17 -33 4 -95 20 -137 35 -172 63
-203 75 -203 83 0 9 286 8 319 -2z m661 -140 c-34 -5 -34 -5 13 -10 l47 -6
-34 -49 c-19 -26 -37 -53 -38 -58 -4 -12 -98 10 -98 23 0 5 6 9 13 10 10 0 10
2 0 6 -16 6 -17 73 -2 73 5 0 7 5 4 10 -4 6 19 9 62 8 48 -1 58 -3 33 -7z
m-4410 -1124 c7 -15 24 -30 38 -34 20 -5 23 -10 18 -37 -8 -46 -10 -141 -3
-153 4 -6 -6 -13 -23 -17 -17 -3 -30 -11 -30 -17 0 -7 10 -9 29 -6 37 8 62
-11 86 -64 11 -23 32 -66 47 -95 31 -63 35 -60 -106 -75 -123 -12 -317 -47
-331 -60 -12 -12 -25 -12 -25 1 0 5 20 51 45 103 25 52 45 103 45 112 0 21 22
98 30 105 18 17 63 136 100 265 23 83 45 155 49 160 3 6 8 -28 11 -75 3 -47
12 -97 20 -113z"/>
<path d="M4960 3695 c0 -3 7 -16 16 -30 14 -21 14 -24 -3 -34 -17 -9 -17 -12
-3 -38 15 -27 15 -29 -20 -62 -27 -28 -32 -36 -18 -38 9 -2 28 7 42 21 20 21
35 26 74 26 35 0 52 4 56 15 3 8 16 15 30 15 32 0 40 14 25 41 -10 19 -9 21 6
15 13 -5 16 -2 11 10 -3 8 -6 18 -6 20 0 2 -7 4 -16 4 -9 0 -12 5 -8 12 4 6 3
8 -3 5 -6 -4 -24 0 -39 8 -27 14 -144 22 -144 10z"/>
<path d="M5275 3444 c-15 -15 -14 -18 6 -40 17 -18 26 -21 45 -14 18 7 24 6
24 -4 0 -9 9 -13 27 -11 16 1 35 -5 47 -17 l21 -19 -25 9 c-30 10 -60 5 -60
-11 -1 -7 -6 -6 -13 4 -7 8 -20 18 -29 22 -15 5 -16 4 -6 -13 15 -24 6 -33
-32 -33 -16 0 -30 -4 -30 -8 0 -19 13 -39 26 -39 8 0 17 -7 20 -15 5 -11 11
-12 24 -5 12 7 28 7 45 0 14 -5 40 -10 56 -10 21 0 29 -5 29 -17 0 -14 2 -15
9 -5 4 8 14 13 22 12 28 -4 39 0 39 15 0 8 6 15 13 15 6 0 0 8 -15 18 -16 9
-28 21 -28 27 0 14 -90 99 -115 109 -15 5 -16 9 -6 15 10 7 9 10 -3 14 -9 4
-22 4 -30 1 -8 -3 -17 -1 -21 5 -9 15 -21 14 -40 -5z"/>
<path d="M4250 3076 c0 -8 5 -18 10 -21 6 -3 10 -15 10 -26 0 -12 7 -19 18
-19 12 0 26 -17 41 -50 15 -34 30 -52 46 -56 27 -7 59 -41 63 -69 7 -45 11
-48 42 -22 16 14 34 27 39 29 13 4 33 102 25 121 -3 8 -15 13 -27 12 -12 -1
-27 4 -34 11 -8 7 -30 11 -53 9 -38 -3 -41 -2 -47 25 -4 25 -8 28 -24 20 -24
-13 -29 -13 -29 4 0 8 -14 22 -32 30 -39 20 -48 20 -48 2z"/>
<path d="M1815 2011 c-11 -5 -34 -6 -51 -4 -28 5 -33 2 -41 -23 l-9 -28 -19
22 c-11 12 -23 22 -27 22 -15 0 -8 -20 14 -42 14 -14 22 -33 20 -48 l-2 -25
10 24 c10 23 11 23 30 6 11 -10 23 -15 28 -10 4 4 1 10 -5 12 -23 8 -13 20 12
15 14 -2 37 1 53 7 15 6 40 15 55 21 27 9 27 10 11 35 -17 25 -42 30 -79 16z"/>
<path d="M1459 513 c-1 -4 0 -18 1 -30 1 -13 -4 -23 -12 -23 -7 0 0 -7 17 -16
27 -14 31 -14 41 1 8 11 14 12 19 6 3 -6 -1 -18 -9 -27 -9 -8 -16 -20 -16 -25
0 -5 -10 -14 -22 -19 -18 -7 -19 -9 -5 -9 9 -1 17 -5 17 -11 0 -5 14 -10 30
-10 28 0 36 -10 32 -42 -1 -3 5 -11 13 -18 21 -18 242 -9 273 10 18 12 24 12
31 2 5 -9 14 -10 32 -3 24 10 24 10 2 10 -13 1 -23 5 -23 10 0 5 -12 12 -27
14 -20 3 -15 4 15 6 46 1 54 16 24 41 -38 33 -88 67 -104 73 -10 3 -18 13 -18
22 0 20 -24 19 -44 -1 -9 -8 -21 -12 -27 -8 -6 3 -23 -5 -38 -20 -14 -14 -43
-37 -63 -51 l-38 -24 0 24 c0 31 -29 105 -41 105 -17 0 -24 2 -41 11 -10 5
-18 6 -19 2z"/>
<path d="M165 251 c3 -5 -1 -16 -9 -24 -8 -8 -13 -17 -10 -20 3 -3 -3 -3 -15
0 -23 6 -31 -21 -8 -30 7 -3 4 -6 -6 -6 -10 -1 -28 -7 -40 -13 -12 -7 -33 -13
-47 -13 -28 0 -41 -32 -19 -46 11 -6 11 -11 1 -21 -10 -10 -18 -58 -9 -58 1 0
19 6 41 14 32 11 35 14 17 19 -24 6 -29 27 -7 27 8 0 19 12 24 28 6 15 11 21
11 15 2 -21 21 -15 21 6 0 30 19 35 48 14 15 -10 36 -17 46 -15 14 3 15 6 6
12 -9 6 -9 12 0 30 13 25 4 43 -10 20 -8 -13 -10 -12 -10 2 0 9 -8 18 -17 20
-15 3 -15 4 0 20 15 14 15 17 1 22 -8 3 -13 2 -9 -3z"/>
<path d="M6130 207 c-14 -7 -25 -19 -25 -27 0 -8 -11 -17 -25 -21 l-25 -6 24
-10 c16 -6 20 -12 13 -17 -7 -4 -12 -5 -12 -2 0 3 -12 1 -27 -5 -19 -7 -28 -6
-33 1 -5 8 -9 6 -14 -5 -4 -12 0 -18 14 -22 23 -6 26 -19 8 -26 -7 -3 -3 -6
10 -6 35 -1 62 -19 62 -41 0 -17 7 -20 40 -20 25 0 40 5 40 13 0 9 3 8 9 -2 5
-7 14 -12 20 -10 8 3 4 14 -11 32 -19 22 -33 27 -68 28 -56 1 -89 12 -71 24
11 6 11 9 0 16 -10 6 -8 9 9 9 16 0 22 -5 20 -17 -2 -14 3 -17 22 -15 13 1 28
9 32 16 7 12 38 12 78 0 13 -5 13 -6 0 -14 -11 -7 -8 -10 13 -10 17 0 30 -7
34 -18 10 -25 23 -32 71 -32 23 0 42 -5 42 -10 0 -7 98 -10 290 -10 l290 1 0
38 c0 49 -17 54 -90 30 -30 -10 -61 -16 -68 -14 -7 3 -22 0 -33 -5 -11 -6 -25
-7 -32 -3 -6 4 -21 6 -31 4 -19 -3 -126 28 -136 40 -3 3 -13 8 -22 12 -28 10
-21 25 15 30 17 2 7 3 -23 0 -30 -2 -65 -6 -78 -10 -20 -5 -21 -8 -10 -22 7
-9 18 -25 25 -37 11 -20 11 -20 -33 -6 -24 8 -44 19 -44 24 0 5 9 7 20 3 16
-5 19 -3 13 10 -5 14 -15 16 -44 12 -22 -3 -39 -1 -39 4 0 5 -7 9 -15 9 -8 0
-15 -4 -15 -8 0 -4 -9 -8 -21 -9 -15 -1 -19 3 -15 13 7 19 -23 31 -34 13 -5
-8 -4 -20 3 -29 9 -12 9 -13 -3 -2 -8 6 -30 12 -49 12 -31 0 -83 19 -56 20 6
0 2 5 -7 11 -21 12 -24 29 -4 29 8 0 16 7 20 15 3 8 15 15 26 15 11 0 20 5 20
10 0 14 -40 12 -70 -3z"/>
</g>
</svg>
