<?xml version="1.0" standalone="no"?>
<!DOCTYPE svg PUBLIC "-//W3C//DTD SVG 20010904//EN"
 "http://www.w3.org/TR/2001/REC-SVG-20010904/DTD/svg10.dtd">
<svg version="1.0" xmlns="http://www.w3.org/2000/svg"
 width="800.000000pt" height="614.000000pt" viewBox="0 0 800.000000 614.000000"
 preserveAspectRatio="xMidYMid meet">
<metadata>
Created by potrace 1.16, written by Peter Selinger 2001-2019
</metadata>
<g transform="translate(0.000000,614.000000) scale(0.100000,-0.100000)"
fill="#000000" stroke="none">
<path d="M0 4131 l0 -2010 43 13 c28 8 41 17 39 27 -1 12 5 14 28 11 17 -2 33
-8 36 -13 3 -5 13 -4 22 1 21 11 91 25 115 22 9 -1 17 3 17 8 0 6 4 10 10 10
5 0 7 -8 4 -17 -3 -11 5 -5 20 12 18 20 29 26 34 18 11 -17 36 -20 37 -4 0 8
6 16 14 19 8 3 11 0 7 -7 -4 -6 -2 -11 4 -11 6 0 13 7 16 15 5 12 10 13 20 4
7 -6 17 -8 22 -5 5 3 8 -7 6 -22 -2 -16 -1 -19 2 -7 9 31 23 42 34 25 9 -13
11 -13 20 0 5 8 10 11 10 5 0 -5 5 -3 10 5 8 12 10 10 10 -9 0 -24 1 -24 14
-5 9 11 11 20 5 23 -6 2 -1 10 10 18 16 11 25 11 42 3 23 -13 54 -6 44 10 -3
5 -2 10 3 10 20 0 20 -14 -1 -31 -18 -15 -19 -18 -5 -19 9 0 19 6 21 13 4 10
6 10 6 0 1 -18 21 -16 21 2 0 20 20 19 36 -3 12 -15 15 -15 24 -2 6 10 10 11
10 3 0 -14 62 -15 98 -2 17 7 24 5 30 -9 5 -13 8 -11 12 12 3 16 12 31 20 33
13 4 13 3 0 -7 -11 -9 -12 -13 -2 -17 6 -2 10 -9 6 -14 -3 -5 7 -8 23 -8 17 1
21 3 11 6 -32 8 -20 25 13 18 22 -5 29 -4 25 4 -4 6 -14 11 -22 11 -8 0 -14 4
-14 9 0 5 -9 13 -20 16 -11 3 -25 15 -30 25 -8 16 -8 18 5 14 8 -3 13 -10 10
-14 -3 -4 4 -10 15 -13 15 -4 20 0 20 14 0 25 12 24 29 -2 11 -19 11 -21 -3
-16 -9 4 -16 2 -16 -2 0 -16 24 -18 39 -4 10 10 11 17 3 25 -6 6 -8 16 -5 24
2 7 0 21 -6 31 -6 11 -11 13 -11 5 0 -10 -3 -10 -15 1 -11 12 -13 27 -8 63 4
34 3 45 -5 40 -11 -7 -9 32 4 73 3 9 -2 12 -16 8 -11 -3 -20 -1 -20 4 0 5 7
10 15 10 8 1 20 3 25 4 6 1 15 3 20 4 13 1 13 49 -2 142 -10 72 -10 79 11 120
13 24 29 75 36 113 8 39 22 94 31 121 9 28 20 77 24 110 4 33 15 122 24 198
15 117 16 161 6 290 -47 668 -47 675 6 944 2 13 17 37 33 55 16 18 38 53 50
78 12 25 42 68 67 95 24 28 47 61 50 75 4 20 12 25 36 26 17 1 37 9 43 18 7 9
15 16 19 16 4 0 16 9 28 20 24 22 42 17 35 -11 -7 -25 28 -34 76 -21 20 6 51
7 69 3 18 -4 49 -6 68 -4 19 2 61 -5 94 -16 69 -24 91 -25 202 -9 69 10 107 9
231 -5 174 -20 273 -21 449 -5 71 6 174 11 228 10 55 0 141 5 190 12 50 7 112
11 137 9 25 -3 101 0 170 7 68 6 144 13 169 15 25 1 70 10 100 20 30 9 75 17
100 17 45 0 134 9 285 29 133 17 146 20 140 30 -8 13 19 11 32 -2 8 -8 13 -8
17 0 5 8 13 8 26 1 12 -6 28 -6 48 1 22 7 37 7 51 -1 12 -6 27 -8 33 -4 20 13
170 19 448 18 219 0 286 -3 330 -16 34 -10 75 -14 108 -10 36 3 66 -1 97 -13
36 -13 52 -15 77 -6 49 17 73 13 107 -19 17 -17 31 -34 31 -38 0 -5 -35 -14
-77 -20 -85 -14 -137 -44 -154 -90 -5 -15 -13 -34 -18 -42 -5 -9 -12 -31 -16
-50 -4 -19 -19 -55 -34 -80 -24 -41 -26 -55 -27 -157 0 -62 2 -110 6 -108 6 4
18 -46 37 -145 3 -18 -2 -29 -17 -38 -19 -12 -22 -11 -27 7 -3 11 -11 22 -18
25 -9 3 -12 0 -8 -10 6 -16 -8 -19 -22 -5 -14 14 -65 21 -65 10 0 -6 -8 -5
-21 1 -16 9 -25 8 -37 -2 -23 -19 -90 -41 -101 -33 -5 3 -15 21 -21 40 -6 19
-18 35 -26 35 -8 0 -14 4 -14 9 0 5 -8 8 -17 7 -12 0 -19 7 -21 22 -3 21 -44
48 -65 43 -5 -1 -6 3 -3 8 4 5 2 12 -4 16 -5 3 -10 1 -10 -4 0 -19 -18 -12
-25 10 -6 16 -12 19 -36 14 -16 -4 -29 -2 -29 3 0 15 -36 52 -44 45 -4 -4 -4
0 0 10 4 11 1 17 -9 17 -8 0 -20 6 -27 14 -6 8 -19 12 -27 9 -10 -4 -14 -2 -9
5 13 21 -17 24 -45 3 -15 -11 -35 -21 -43 -21 -24 0 -85 -105 -102 -173 -8
-34 -20 -71 -25 -83 -6 -12 -8 -60 -6 -115 6 -97 36 -310 46 -319 16 -14 41
-85 41 -115 0 -24 5 -35 15 -35 11 0 15 -11 15 -40 0 -42 4 -45 62 -41 19 1
28 -4 33 -18 7 -24 69 -37 109 -22 37 15 36 15 36 -16 0 -35 41 -116 83 -166
22 -27 41 -39 62 -41 17 -1 40 -6 52 -10 13 -4 23 -3 23 2 0 20 53 20 74 1 11
-11 26 -17 32 -15 18 7 25 -5 12 -21 -6 -7 -8 -17 -4 -20 4 -4 11 -1 15 6 5 7
20 14 35 14 14 1 28 8 31 15 2 6 11 12 19 12 9 0 20 9 26 20 6 11 15 18 21 15
5 -4 9 -1 9 4 0 6 6 11 14 11 19 0 55 63 62 111 5 29 11 39 25 39 11 0 19 5
19 11 0 6 6 9 13 6 17 -6 41 48 32 71 -11 29 -15 223 -4 217 5 -4 9 -12 7 -18
-1 -7 3 -37 9 -67 6 -30 10 -77 9 -105 -2 -36 4 -62 21 -93 13 -23 23 -53 23
-66 0 -15 7 -26 20 -29 11 -3 20 -13 20 -24 1 -23 21 -48 40 -48 18 0 22 -56
6 -67 -7 -5 -3 -8 9 -8 18 -1 18 -2 -3 -11 -13 -5 -20 -13 -17 -19 3 -6 -1
-13 -9 -16 -10 -4 -16 -18 -16 -36 0 -17 -4 -27 -10 -23 -5 3 -10 -3 -10 -15
0 -12 -4 -18 -10 -15 -9 6 -14 -8 -11 -27 0 -5 -3 -8 -7 -8 -5 0 -9 -13 -9
-30 0 -16 4 -27 9 -24 4 3 8 12 8 20 0 8 7 14 15 14 11 0 15 11 16 38 0 20 3
30 6 22 3 -8 11 -18 17 -22 8 -5 7 -8 -1 -8 -8 0 -13 -15 -13 -39 0 -22 -5
-43 -10 -46 -6 -4 -8 -11 -4 -16 3 -5 10 -7 15 -4 5 4 9 -3 9 -14 0 -12 4 -21
9 -21 6 0 18 -14 28 -30 18 -31 33 -39 33 -17 0 7 11 24 24 38 15 16 23 35 21
52 -2 19 1 27 12 27 9 0 13 6 9 15 -3 8 1 18 9 22 8 5 16 25 18 46 2 20 6 40
10 43 10 11 -5 34 -23 34 -22 0 -55 36 -41 45 6 3 11 13 11 21 0 8 -4 12 -10
9 -6 -3 -7 1 -4 9 3 9 1 16 -5 16 -6 0 -11 4 -11 9 0 19 39 -2 44 -24 3 -13 9
-31 12 -42 5 -14 4 -15 -5 -3 -5 8 -13 11 -17 7 -9 -9 12 -34 35 -40 21 -5 36
24 20 40 -4 4 17 8 47 7 34 0 59 -6 64 -13 6 -11 8 -11 12 0 4 11 8 11 19 3
24 -20 94 23 115 71 8 19 13 24 14 12 0 -10 4 -15 10 -12 19 12 10 -24 -32
-120 -29 -67 -49 -100 -64 -105 -12 -5 -24 -16 -28 -26 -5 -14 -4 -15 9 -4 9
7 18 10 22 7 8 -9 -17 -97 -28 -97 -5 0 -6 -7 -3 -15 4 -8 1 -15 -5 -15 -6 0
-8 -7 -5 -15 4 -8 2 -15 -4 -15 -6 0 -13 -15 -17 -32 -4 -18 -9 -41 -11 -50
-4 -14 -1 -16 24 -9 23 7 32 5 43 -10 16 -22 39 -24 58 -6 11 10 12 7 6 -13
-7 -22 -6 -23 9 -11 14 12 19 11 36 -4 11 -10 23 -15 28 -10 4 4 1 10 -5 12
-7 3 -13 12 -13 21 0 13 2 14 9 3 6 -9 11 -10 15 -2 13 20 26 12 27 -16 l1
-28 8 30 c5 18 8 22 9 11 1 -18 3 -17 21 4 11 13 20 18 20 12 0 -6 -4 -14 -10
-17 -13 -8 -13 -35 0 -35 5 0 7 7 4 15 -4 8 -1 15 5 15 6 0 12 -10 12 -22 1
-21 2 -21 6 -3 10 45 26 75 45 81 24 7 36 -2 20 -18 -9 -9 -12 -9 -12 0 0 10
-3 10 -14 0 -12 -11 -12 -14 1 -22 11 -6 25 2 49 25 19 18 34 29 34 24 0 -5 6
0 14 11 20 26 31 11 18 -25 -12 -33 -7 -41 20 -41 10 0 17 -6 16 -12 -2 -7 5
-12 15 -10 9 2 17 -3 17 -11 0 -12 -16 -14 -67 -8 -7 0 -13 5 -13 11 0 5 7 7
15 4 8 -4 15 -1 15 5 0 6 -9 11 -20 11 -15 0 -20 -7 -20 -25 0 -14 6 -25 13
-25 9 0 12 -12 10 -37 -2 -34 -1 -35 5 -9 7 29 8 29 25 11 14 -13 21 -15 30
-6 8 8 8 11 -1 11 -7 0 -12 5 -12 10 0 6 7 10 15 10 19 0 37 34 29 54 -5 12
-2 15 12 10 15 -5 16 -4 5 4 -8 6 -21 8 -29 4 -9 -3 -13 -1 -9 5 14 22 47 22
62 0 l15 -22 6 23 c5 18 11 21 28 16 11 -4 23 -10 26 -13 3 -4 14 -7 25 -6 14
0 21 9 25 30 3 17 11 30 18 31 28 2 33 4 28 12 -2 4 7 9 21 10 22 2 24 -1 18
-28 -6 -29 8 -43 18 -17 3 6 6 3 6 -8 1 -12 7 -27 13 -33 10 -10 10 -17 0 -32
-7 -11 -8 -20 -3 -20 14 0 23 34 15 56 -5 16 -4 16 5 4 6 -8 11 -24 12 -35 1
-14 4 -10 9 10 5 21 8 24 10 10 l1 -20 9 20 c7 17 9 15 9 -11 1 -28 4 -31 26
-26 14 2 25 9 25 14 0 6 -9 8 -20 5 -11 -3 -20 -1 -20 5 0 6 13 8 30 6 21 -3
30 0 30 9 0 8 -4 11 -10 8 -6 -3 -10 -2 -10 4 0 5 8 15 18 20 9 6 11 11 5 11
-22 0 -14 25 15 52 16 16 44 29 70 33 42 6 43 5 37 -16 -6 -18 -4 -21 9 -16
11 5 18 -2 26 -26 l10 -32 -5 33 c-4 27 -2 30 9 20 9 -9 11 -21 5 -43 -12 -40
-11 -48 3 -39 7 4 8 3 4 -5 -10 -16 1 -44 23 -58 17 -10 18 -9 14 10 -3 15 1
13 11 -8 l14 -30 1 27 c1 17 -6 32 -18 40 -16 10 -17 14 -5 25 7 7 11 20 8 28
-7 17 20 47 32 37 5 -4 2 1 -5 11 -8 9 -11 20 -7 24 3 3 6 1 6 -7 0 -10 4 -10
17 1 15 12 16 12 11 -6 -3 -11 -9 -28 -13 -37 -4 -10 -3 -18 3 -18 5 0 13 11
16 25 13 50 39 14 29 -39 -4 -21 -9 -24 -23 -16 -9 5 -20 6 -24 3 -3 -3 -6 0
-6 7 0 7 -2 11 -5 8 -3 -3 1 -18 10 -34 10 -19 15 -23 15 -11 0 9 5 17 10 17
6 0 10 -6 10 -12 0 -10 3 -9 9 1 6 9 10 10 16 2 4 -7 1 -18 -5 -26 -9 -11 -9
-15 -1 -15 6 0 15 10 20 22 l8 22 5 -22 c4 -15 11 -20 22 -16 11 4 16 1 16
-10 0 -9 -5 -16 -11 -16 -5 0 -7 -5 -4 -10 3 -5 1 -10 -5 -10 -6 0 -8 -5 -5
-10 4 -6 11 -8 16 -5 5 4 9 2 9 -4 0 -5 -8 -11 -17 -14 -15 -3 -13 -6 9 -17
27 -13 37 -56 11 -46 -18 7 -16 -4 5 -27 12 -15 14 -21 5 -24 -7 -3 -13 -14
-13 -24 0 -11 -4 -17 -10 -14 -6 4 -10 -6 -9 -22 0 -25 1 -26 9 -8 7 17 9 17
9 3 1 -10 5 -18 10 -18 4 0 6 12 3 26 -4 22 -2 25 14 21 59 -18 71 -18 78 -1
4 10 0 25 -10 35 -18 20 -6 27 12 9 7 -7 10 0 7 22 -3 27 -1 29 6 13 9 -19 10
-19 10 3 1 12 5 22 9 22 4 0 8 26 9 57 0 33 5 59 12 61 6 2 11 20 11 39 0 20
3 33 6 30 4 -4 18 6 31 21 17 18 27 23 30 15 2 -7 9 -13 14 -13 4 0 6 7 2 16
-5 14 -3 15 15 5 12 -7 22 -16 22 -22 0 -6 4 -8 9 -4 6 3 15 -4 22 -16 8 -15
13 -18 19 -10 5 9 9 8 13 -4 4 -9 3 -13 -2 -10 -5 3 -12 1 -16 -5 -3 -5 -2
-10 3 -10 14 0 33 -58 21 -65 -5 -4 -7 -11 -4 -16 4 -5 -1 -9 -9 -9 -9 0 -16
-4 -16 -10 0 -5 9 -10 20 -10 11 0 20 4 20 9 0 14 43 21 56 10 8 -7 14 -6 18
3 3 7 3 0 -1 -16 -4 -18 -1 -31 8 -37 11 -6 11 -11 1 -21 -6 -6 -12 -22 -12
-35 0 -13 -4 -23 -9 -23 -6 0 -6 12 0 32 12 42 12 43 -6 28 -12 -10 -15 -10
-15 3 0 9 -4 19 -10 22 -6 4 -10 -5 -10 -19 0 -16 6 -26 15 -26 23 0 18 -16
-11 -28 -23 -11 -25 -32 -3 -32 6 0 7 4 4 10 -3 6 -2 10 3 10 18 0 21 -13 5
-28 -12 -12 -19 -13 -33 -4 -15 9 -19 8 -24 -5 -4 -9 -4 -18 -1 -21 3 -3 5 0
5 6 0 7 5 12 11 12 6 0 9 -7 5 -15 -7 -19 -1 -19 29 1 30 20 32 11 5 -16 -29
-29 -25 -46 5 -26 14 9 25 12 25 7 0 -5 7 -12 16 -15 11 -4 15 -2 11 8 -3 8 0
17 8 20 9 3 12 0 8 -10 -3 -7 0 -15 6 -15 26 -3 30 -4 36 -11 10 -10 38 3 57
27 15 18 17 19 23 2 4 -9 12 -17 17 -17 6 0 8 6 5 13 -3 7 3 13 13 13 10 0 18
-4 17 -9 -3 -14 16 -18 33 -7 12 8 12 12 2 18 -9 6 -5 12 13 20 15 7 30 10 34
8 4 -3 8 10 9 29 1 28 -2 33 -16 28 -16 -6 -16 -5 1 14 23 26 22 36 -3 23 -15
-8 -18 -8 -14 3 3 8 -2 17 -10 20 -9 4 -13 13 -10 22 3 8 1 15 -4 15 -6 0 -12
-6 -15 -12 -2 -7 -2 -3 0 9 2 18 0 21 -14 16 -11 -4 -14 -3 -9 5 4 7 19 12 34
12 21 1 24 3 11 10 -17 10 -59 2 -59 -11 0 -5 -7 -9 -15 -9 -8 0 -15 5 -15 10
0 6 5 10 11 10 5 0 7 5 4 10 -6 9 17 40 29 40 3 0 6 -9 6 -19 0 -14 5 -18 21
-14 11 3 23 11 25 18 3 7 14 11 25 8 18 -5 19 22 19 1661 l0 1666 -4000 0
-4000 0 0 -2009z m6485 1109 c10 -11 22 -20 27 -20 19 0 123 -93 134 -120 7
-15 20 -34 30 -41 11 -8 24 -23 30 -34 7 -11 19 -19 28 -17 9 2 16 -2 16 -8 0
-5 10 -10 23 -10 27 0 39 -9 31 -21 -3 -5 -14 -5 -24 1 -30 16 -90 21 -90 7 0
-20 30 -111 38 -116 13 -10 73 -113 69 -118 -7 -7 -47 20 -47 32 -1 16 -59 81
-60 66 0 -8 -12 -39 -26 -70 -14 -31 -32 -69 -39 -86 -8 -16 -16 -75 -19 -130
-3 -55 -7 -120 -9 -145 -4 -49 17 -180 33 -210 5 -10 10 -27 10 -38 0 -21 59
-102 75 -102 11 0 12 -6 17 -65 2 -16 6 -35 10 -41 4 -6 10 -38 14 -70 4 -33
11 -65 17 -72 7 -9 5 -11 -8 -6 -12 5 -16 4 -11 -4 4 -6 -3 -21 -15 -33 -18
-18 -23 -19 -34 -8 -10 10 -11 27 -5 64 5 28 9 80 9 118 1 54 -2 67 -15 67 -8
0 -13 -4 -9 -9 3 -6 -17 -7 -50 -4 -34 4 -60 2 -68 -6 -11 -8 -23 -7 -51 4
-20 9 -40 13 -45 11 -4 -3 -27 2 -50 10 -32 11 -47 12 -57 3 -20 -17 -36 -2
-23 22 6 11 12 30 14 41 9 44 28 94 43 111 31 35 24 227 -7 227 -13 0 -48 81
-66 150 -14 56 -42 128 -76 193 -21 40 -32 63 -38 76 -4 8 -28 21 -54 29 l-47
15 6 64 c6 60 6 64 -15 70 l-22 5 20 34 c27 46 6 44 -37 -3 -19 -21 -31 -32
-27 -25 4 7 4 20 1 28 -4 12 -10 13 -26 4 -11 -6 -20 -9 -20 -6 0 2 -3 11 -6
20 -5 13 1 16 29 16 40 0 82 15 112 41 11 9 44 24 72 34 29 9 55 21 58 26 9
13 -6 11 -35 -6 -29 -16 -40 -18 -40 -7 0 17 68 42 125 46 39 3 63 10 70 20
15 24 87 21 110 -4z m-506 -931 c1 -14 8 -34 16 -45 8 -10 15 -30 15 -44 0
-27 22 -95 46 -147 9 -21 22 -33 34 -33 13 0 22 -9 26 -27 12 -49 42 -99 78
-131 28 -24 36 -39 36 -65 0 -34 19 -51 63 -59 16 -3 16 -5 -4 -33 -12 -16
-57 -57 -99 -90 -44 -33 -85 -75 -94 -92 -15 -32 -36 -44 -36 -22 0 5 -5 7
-10 4 -13 -8 9 44 29 68 8 10 20 16 26 13 7 -2 11 8 11 29 -1 18 -5 33 -11 32
-5 -1 -11 15 -13 35 -2 20 -10 42 -18 48 -8 7 -14 21 -14 32 0 10 -4 17 -9 13
-14 -8 -21 8 -26 67 -2 29 -9 68 -14 87 -6 19 -8 45 -5 58 4 13 2 29 -3 36 -9
11 -32 112 -48 211 -8 50 4 130 16 101 4 -11 8 -32 8 -46z"/>
<path d="M3417 4757 c4 -6 0 -8 -9 -4 -9 3 -20 1 -26 -5 -8 -8 -20 -7 -42 2
-21 9 -34 10 -38 3 -7 -10 -74 -9 -140 2 -30 5 -43 2 -56 -10 -13 -13 -16 -14
-16 -2 0 7 -7 14 -15 14 -8 0 -15 -4 -15 -8 0 -4 -11 -10 -25 -13 -18 -5 -26
-15 -31 -42 -8 -45 4 -160 23 -204 3 -8 5 -26 3 -40 -2 -24 -1 -24 17 -7 21
19 44 24 26 6 -6 -6 -9 -18 -6 -25 4 -10 0 -12 -11 -8 -9 3 -16 1 -16 -5 0 -7
-9 -15 -19 -19 -31 -11 -162 -161 -183 -208 -23 -53 -29 -174 -9 -197 9 -11
10 -27 5 -49 -4 -18 -7 -37 -5 -42 3 -14 -41 -56 -77 -73 -18 -9 -57 -42 -85
-75 -29 -32 -73 -82 -99 -111 -27 -28 -48 -58 -49 -67 0 -8 -11 -35 -24 -60
-79 -148 -82 -168 -45 -300 11 -41 25 -93 29 -115 24 -118 46 -182 68 -200 21
-18 27 -64 9 -71 -9 -3 -16 -10 -16 -16 0 -5 5 -6 12 -2 8 5 9 2 5 -9 -4 -10
-2 -16 5 -14 7 1 12 -3 13 -9 0 -6 19 -29 41 -51 39 -39 43 -40 59 -25 16 16
17 16 6 -5 -14 -27 -14 -36 -1 -28 6 3 10 1 10 -6 0 -7 18 -27 40 -46 33 -29
38 -38 30 -54 -15 -26 -27 -24 -34 6 -4 14 -11 23 -16 20 -6 -3 -10 0 -10 7 0
8 -9 21 -19 30 -17 14 -22 15 -40 2 -12 -9 -21 -22 -21 -31 0 -15 2 -14 14 2
12 17 13 17 20 -9 4 -15 4 -31 1 -35 -2 -5 2 -14 10 -21 17 -14 20 -40 5 -40
-5 0 -10 10 -10 21 0 16 -5 20 -20 16 -16 -4 -21 1 -26 29 -3 19 -11 37 -16
40 -6 4 -8 -6 -4 -27 l7 -34 -16 34 c-8 18 -13 37 -10 41 3 5 0 12 -6 16 -9 5
-10 -5 -6 -37 6 -40 6 -42 -8 -25 -14 19 -15 18 -16 -15 l0 -34 -19 40 -19 40
0 -37 c-1 -50 -17 -48 -25 2 -6 41 -26 56 -26 19 0 -11 -4 -17 -10 -14 -5 3
-10 2 -10 -3 0 -6 7 -12 15 -16 8 -3 14 -13 14 -23 -1 -17 -2 -17 -6 0 -5 20
-14 22 -30 6 -7 -7 -12 -4 -16 10 -3 12 -1 21 4 21 13 0 11 47 -2 56 -8 4 -9
-1 -4 -16 5 -15 4 -20 -4 -16 -6 4 -11 4 -11 -1 0 -4 -9 -19 -19 -33 -19 -24
-20 -24 -41 -5 -12 11 -21 15 -20 10 6 -26 -1 -36 -16 -27 -26 15 -82 -17 -90
-51 -3 -17 -11 -27 -19 -23 -7 2 -17 0 -22 -5 -6 -6 -10 -4 -10 5 0 8 4 13 8
10 10 -6 39 24 39 41 0 8 -8 11 -22 8 -18 -4 -20 -2 -9 5 8 6 16 16 17 24 2 7
6 24 9 38 6 24 6 24 -9 6 -16 -19 -16 -19 -16 2 0 24 -15 30 -23 10 -4 -9 -6
-8 -6 3 -1 8 4 20 10 26 8 8 8 16 0 30 -11 16 -11 16 -6 -4 3 -12 1 -24 -5
-28 -5 -3 -10 -19 -10 -35 0 -40 -17 -47 -25 -10 -7 33 -14 37 -33 18 -8 -8
-12 -9 -12 -1 0 6 6 13 13 16 10 3 10 9 0 26 -16 25 -16 34 -3 26 6 -3 7 1 4
9 -3 9 -10 16 -15 16 -5 0 -9 15 -9 34 0 25 -5 36 -19 41 -18 5 -26 45 -10 45
4 0 7 12 7 28 -1 26 9 62 22 72 3 3 11 16 18 30 7 14 10 17 7 7 -3 -10 -1 -15
5 -12 6 3 10 12 10 18 0 7 19 20 41 29 22 10 38 22 35 27 -4 5 -2 12 3 16 13
8 8 69 -7 87 -22 27 -72 20 -119 -19 -23 -19 -43 -32 -43 -29 0 4 -10 -2 -22
-14 -12 -11 -30 -20 -40 -20 -11 0 -17 -4 -14 -9 3 -5 -1 -15 -10 -22 -13 -10
-17 -10 -24 1 -7 12 -11 12 -27 0 -13 -11 -12 -8 3 10 12 14 32 45 45 69 13
24 30 55 38 69 11 21 11 26 0 33 -10 7 -11 11 -3 17 19 12 65 102 59 112 -3 6
-17 10 -30 10 -12 0 -26 7 -29 16 -8 22 -25 8 -19 -16 3 -11 0 -20 -6 -20 -6
0 -11 -6 -11 -14 0 -8 -4 -18 -10 -21 -6 -4 -10 8 -10 30 0 20 3 34 8 32 4 -3
8 8 9 24 2 31 -14 38 -35 17 -14 -14 -16 0 -3 21 5 7 13 11 19 7 5 -3 16 2 23
11 12 15 12 16 -5 10 -15 -6 -17 -5 -8 6 7 8 9 17 6 20 -7 7 -34 -17 -34 -29
0 -4 -7 -15 -16 -25 -17 -19 -11 -39 12 -39 8 0 14 -10 14 -25 0 -14 -6 -25
-12 -25 -9 0 -8 -4 2 -10 9 -6 10 -10 3 -10 -6 0 -11 -9 -10 -20 1 -11 7 -20
14 -20 9 0 12 -16 10 -52 -1 -35 2 -52 12 -56 10 -3 11 2 6 18 -5 15 -4 20 4
16 7 -4 11 1 11 13 0 13 -7 21 -16 21 -14 0 -14 3 -4 15 7 8 17 15 23 15 6 0
8 -3 4 -6 -3 -3 -1 -17 4 -31 15 -41 -12 -73 -59 -72 -20 1 -29 3 -19 6 18 5
24 23 7 23 -5 0 -7 7 -4 15 7 18 -12 20 -20 3 -4 -7 -4 -3 -2 10 3 18 1 22
-11 18 -8 -3 -18 -6 -21 -6 -4 0 -2 -4 5 -8 16 -10 28 -62 15 -62 -6 0 -13 10
-15 23 -3 15 -5 12 -6 -11 -1 -21 3 -31 10 -27 6 5 6 -2 -2 -16 -7 -13 -15
-30 -19 -38 -3 -8 -15 -19 -25 -25 -54 -32 -107 -86 -100 -104 3 -7 5 -20 5
-28 0 -8 6 -11 17 -7 12 5 15 2 10 -10 -4 -11 -1 -17 7 -17 9 0 12 8 9 23 -3
18 -2 19 6 6 11 -18 3 -62 -10 -53 -5 3 -9 -7 -9 -23 0 -15 -7 -37 -15 -47
-18 -24 -20 -56 -2 -56 8 0 7 -3 -3 -10 -9 -6 -19 -5 -28 2 -10 9 -10 13 0 19
7 4 9 11 5 15 -4 4 -12 3 -19 -4 -8 -8 -8 -15 1 -26 6 -7 11 -18 10 -22 -1 -5
0 -22 1 -39 l2 -30 8 30 c7 29 8 29 9 4 0 -15 -6 -32 -15 -40 -9 -7 -14 -22
-11 -36 6 -31 -1 -29 -14 3 -12 33 -18 28 -24 -22 -5 -53 -21 -112 -33 -127
-15 -19 -17 -60 -4 -84 17 -30 16 -67 -2 -60 -10 4 -13 -2 -12 -18 0 -13 5
-21 10 -18 5 3 7 0 4 -8 -3 -8 -11 -14 -19 -14 -16 0 -34 -24 -24 -33 3 -4 10
0 15 8 7 12 9 10 8 -6 -2 -15 -7 -20 -20 -16 -13 3 -18 -2 -19 -19 0 -13 -3
-18 -6 -11 -9 24 -28 12 -27 -18 1 -16 2 -31 3 -32 1 -2 3 -22 4 -46 1 -28 -2
-42 -10 -42 -20 0 -15 -20 5 -21 9 -1 20 -1 25 0 4 0 7 -4 7 -10 0 -6 -6 -9
-14 -6 -14 6 -30 -18 -21 -32 2 -5 -7 -14 -21 -21 -13 -8 -22 -20 -20 -27 3
-7 -1 -13 -10 -13 -12 0 -13 -4 -4 -20 6 -11 8 -25 5 -30 -4 -6 -6 -36 -6 -68
0 -32 -5 -60 -12 -65 -9 -5 -8 -11 3 -20 21 -17 23 -36 5 -63 -19 -30 -19 -44
1 -44 14 0 14 -2 3 -16 -14 -17 -13 -93 2 -109 5 -5 9 -24 9 -42 0 -26 -3 -31
-16 -26 -14 5 -15 0 -10 -38 4 -31 3 -38 -3 -24 -8 17 -10 17 -10 3 -1 -10
-13 -24 -28 -32 -16 -8 -27 -17 -25 -20 1 -3 2 -13 2 -23 0 -15 -2 -15 -19 1
-19 17 -20 16 -28 -26 l-9 -43 35 -6 c19 -4 39 -13 45 -21 8 -10 24 -13 54
-10 35 3 48 0 67 -18 14 -13 22 -26 20 -31 -3 -4 5 -19 17 -32 13 -14 29 -32
36 -41 18 -23 25 -20 41 16 8 18 16 27 19 20 2 -7 -3 -23 -11 -35 -10 -16 -12
-28 -5 -40 5 -9 6 -17 2 -17 -3 0 -1 -6 5 -14 7 -8 21 -12 31 -9 24 6 26 19 3
27 -11 5 -13 10 -6 17 11 11 87 -33 89 -52 1 -5 2 -13 3 -19 0 -5 6 -10 12
-10 6 0 8 7 5 16 -5 14 -4 15 9 4 12 -10 15 -10 15 3 0 9 -8 21 -17 26 -14 8
-15 13 -5 19 7 5 10 16 7 25 -3 9 -7 25 -11 34 -3 11 -8 13 -12 6 -4 -6 -22
-8 -40 -5 l-34 5 32 29 c18 16 37 27 43 25 11 -3 13 -8 37 -59 11 -23 16 -25
32 -17 14 7 29 7 51 0 29 -11 29 -9 -13 26 -66 55 -120 112 -119 126 0 9 2 9
6 0 2 -7 53 -53 111 -101 97 -80 132 -99 132 -71 0 6 -4 8 -9 5 -12 -8 0 46
15 69 16 22 19 12 4 -15 -8 -14 -5 -21 15 -34 28 -19 30 -16 39 46 6 41 5 47
-8 42 -20 -8 -21 10 -1 26 8 7 15 21 15 32 0 17 -3 18 -15 8 -8 -7 -15 -19
-15 -27 0 -25 -27 -25 -55 1 -16 15 -30 24 -33 21 -3 -3 -11 0 -18 6 -9 7 -19
7 -33 0 -30 -17 -34 -14 -27 19 4 23 2 30 -10 30 -12 0 -15 7 -12 25 6 27 -9
35 -18 10 -9 -22 -24 -18 -24 5 0 19 -4 20 -51 14 -45 -6 -51 -5 -48 10 4 17
35 39 71 50 13 4 15 11 9 33 -9 34 -35 37 -39 6 -5 -37 -22 -26 -22 15 0 23 3
32 8 24 10 -15 42 -5 42 13 0 9 -9 12 -27 9 -41 -8 -43 -12 -42 -63 1 -31 -4
-57 -14 -72 -10 -13 -17 -31 -17 -41 0 -10 -4 -18 -10 -18 -5 0 -1 24 10 52
24 63 23 59 7 52 -8 -3 -25 0 -39 5 -21 8 -28 7 -32 -6 -6 -14 -8 -14 -22 3
-13 15 -15 16 -10 2 2 -9 -2 -22 -10 -28 -11 -10 -14 -9 -14 5 0 34 -16 1 -19
-39 -1 -5 -4 -6 -8 -2 -4 4 -8 33 -10 64 -1 31 -2 61 -2 65 -1 5 -4 6 -8 4
-10 -6 -9 211 1 281 3 27 18 78 31 113 14 35 23 70 20 77 -2 7 0 10 5 7 6 -3
10 -4 10 -2 0 2 8 50 19 108 19 104 34 148 71 204 37 56 85 182 105 275 15 67
53 160 66 160 4 0 10 -19 14 -42 9 -60 35 -169 47 -195 6 -11 7 -27 3 -33 -4
-7 -2 -15 4 -19 8 -5 6 -15 -8 -33 -11 -13 -23 -37 -26 -51 -5 -19 -14 -27
-29 -27 -16 0 -18 -2 -7 -9 15 -10 7 -31 -12 -31 -7 0 -18 -15 -25 -32 -14
-35 -20 -163 -9 -175 10 -9 9 -25 -2 -19 -12 8 -22 -65 -10 -80 6 -8 6 -21 -2
-40 -15 -39 -19 -75 -8 -68 6 3 16 0 24 -6 12 -10 15 -9 15 3 0 9 -9 18 -19
22 -12 4 -18 12 -14 20 3 8 9 12 14 9 5 -3 9 1 9 9 0 8 7 20 16 28 12 10 17
10 23 0 10 -15 20 7 27 53 6 47 15 67 26 60 8 -5 9 -1 5 10 -4 9 0 33 8 52 8
19 11 34 7 34 -4 0 15 20 42 44 33 28 53 56 61 82 6 21 17 38 24 36 9 -2 9 3
0 19 -9 17 -8 20 3 17 7 -3 21 -1 30 3 23 12 31 -4 31 -62 -1 -30 5 -53 14
-60 20 -17 31 -3 53 67 l18 59 7 -37 c8 -44 27 -64 42 -46 13 16 28 60 25 73
-1 6 7 -1 19 -15 18 -21 20 -33 15 -81 -5 -46 -4 -58 9 -62 20 -8 44 30 51 79
10 77 12 80 70 108 31 15 59 25 62 21 4 -4 7 -27 8 -53 2 -87 3 -92 23 -92 22
0 37 34 47 102 6 47 7 48 98 104 50 31 92 60 94 65 2 4 19 -1 38 -11 18 -11
60 -26 91 -34 32 -8 77 -21 101 -28 31 -9 50 -9 70 -2 18 7 36 7 52 1 37 -14
101 -46 135 -67 45 -28 111 -26 156 6 20 14 65 32 100 40 34 8 68 18 73 23 6
5 36 11 66 15 30 3 69 8 85 11 39 7 177 55 190 66 5 5 17 9 27 9 10 0 18 5 18
10 0 6 7 10 15 10 8 0 15 8 16 18 0 15 1 14 8 -3 7 -18 8 -18 18 -1 6 11 21
19 37 19 14 0 29 4 32 8 3 5 9 7 13 4 9 -5 150 32 166 44 5 5 17 8 25 9 8 0
29 5 47 10 28 9 33 8 39 -10 5 -17 8 -18 14 -7 7 12 -24 154 -35 167 -2 2 -13
-1 -24 -8 -18 -9 -21 -8 -21 9 0 11 -6 24 -14 28 -7 4 -23 29 -34 56 -12 26
-24 47 -28 47 -3 0 -4 -7 -1 -15 4 -8 2 -17 -3 -20 -6 -4 -10 1 -10 10 0 9 -4
13 -10 10 -5 -3 -10 -3 -10 2 0 15 -68 13 -83 -2 -14 -14 -22 -15 -84 -17 -20
-1 -34 -7 -36 -17 -4 -13 -5 -12 -6 3 -1 14 -6 17 -23 12 -13 -3 -27 -6 -31
-6 -5 0 -5 -5 -1 -11 5 -9 -12 -10 -62 -5 -37 4 -71 12 -75 18 -4 7 -9 4 -12
-8 -4 -16 -5 -17 -6 -2 -1 21 -38 19 -52 -3 -7 -11 -9 -11 -9 4 0 15 -3 15
-20 5 -11 -7 -21 -22 -21 -33 -1 -17 -2 -17 -6 -2 -5 19 -29 23 -35 6 -2 -7
-22 -13 -43 -15 -22 -2 -34 -1 -27 2 14 7 16 24 3 24 -5 0 -16 -6 -23 -12 -20
-20 -53 -19 -65 2 -10 15 -7 25 22 62 19 23 35 47 35 52 0 4 29 41 65 81 36
40 65 80 65 90 0 10 5 35 11 55 14 46 4 110 -17 110 -26 0 -38 43 -21 76 8 16
17 45 21 65 6 35 43 89 60 89 19 0 76 52 76 70 0 10 11 41 25 68 14 28 25 57
25 66 0 9 9 42 20 74 16 46 20 79 18 158 -1 54 1 108 4 119 4 11 17 47 28 79
29 85 26 172 -6 159 -8 -3 -14 -1 -14 5 0 6 5 12 11 14 5 2 7 11 4 20 -7 18
-50 32 -67 22 -7 -4 -8 1 -3 16 5 16 4 21 -6 18 -8 -3 -20 2 -27 9 -12 12 -19
10 -47 -12 -38 -29 -55 -32 -55 -10 0 14 -9 17 -57 18 -26 1 -27 1 -12 30 6
12 -8 2 -31 -21 -38 -40 -96 -70 -109 -56 -3 2 5 7 17 11 12 3 22 9 22 13 0 5
-6 7 -12 5 -40 -9 -57 -18 -53 -26 3 -4 -4 -13 -15 -19 -11 -6 -20 -7 -20 -3
0 4 -7 -2 -15 -13 -8 -10 -15 -15 -15 -10 0 5 -7 3 -15 -4 -11 -9 -19 -10 -26
-3 -14 14 17 56 71 98 22 17 39 34 40 38 0 13 43 46 58 47 8 0 30 17 50 37 20
21 33 30 29 20 -3 -9 -2 -17 3 -17 10 0 25 39 22 58 -2 6 6 12 16 12 24 0 36
26 16 34 -8 3 -14 12 -14 21 0 17 -25 21 -35 5 -4 -6 -15 -8 -24 -5 -10 3 -29
-3 -43 -14 -14 -11 -28 -17 -32 -14 -3 3 -6 -2 -6 -11 0 -13 -5 -16 -16 -12
-12 5 -15 2 -12 -12 3 -11 0 -19 -7 -19 -7 0 -11 6 -9 12 3 6 -2 12 -11 12 -8
0 -15 -4 -15 -8 0 -5 -8 -6 -17 -2 -15 5 -16 3 -5 -8 14 -15 16 -33 3 -25 -12
8 -43 -29 -34 -39 5 -4 2 -5 -5 -1 -9 5 -15 1 -19 -13 -3 -12 -8 -21 -12 -21
-4 0 -17 -9 -29 -21 -12 -11 -27 -17 -32 -14 -6 3 -10 0 -10 -8 0 -8 -11 -18
-25 -21 -14 -4 -29 -14 -32 -24 -9 -24 -44 -62 -54 -57 -4 3 -10 -3 -13 -13
-7 -22 -52 -46 -61 -32 -3 5 5 20 17 32 20 20 21 23 6 26 -10 2 -15 9 -12 17
3 8 12 11 19 9 34 -14 199 146 223 215 15 42 15 54 2 46 -6 -3 -7 1 -4 9 5 14
-5 20 -27 18 -4 -1 -15 8 -25 19 -15 16 -16 20 -4 18 8 -1 28 3 45 10 16 7 39
10 51 7 32 -8 84 13 84 34 0 10 -9 20 -20 23 -13 3 -18 1 -13 -6z"/>
<path d="M1872 4529 c-29 -21 -58 -39 -65 -39 -7 0 -21 -15 -32 -32 -31 -55
-98 -129 -111 -124 -18 7 -70 -53 -98 -114 -26 -56 -26 -73 0 -143 8 -20 14
-50 14 -66 0 -15 3 -31 7 -35 4 -4 8 -21 8 -39 2 -39 73 -156 96 -157 9 0 22
-7 29 -15 9 -11 16 -13 24 -5 5 5 22 10 38 10 40 0 118 40 118 62 0 16 19 67
42 112 5 10 11 27 13 38 2 11 18 34 34 51 17 17 33 44 35 61 37 252 38 301 5
345 -13 17 -35 37 -51 43 -17 8 -28 21 -28 33 0 11 -6 28 -13 37 -12 15 -18
13 -65 -23z"/>
<path d="M5160 2662 c0 -19 -4 -22 -20 -17 -13 4 -20 2 -20 -7 0 -10 -3 -9
-10 2 -8 12 -10 9 -10 -12 0 -15 -5 -30 -12 -34 -8 -5 -9 -2 -5 9 3 9 2 19 -3
22 -6 4 -10 1 -10 -6 0 -10 -3 -10 -11 -2 -8 8 -20 8 -35 3 -13 -5 -24 -6 -24
-1 0 5 -9 11 -20 14 -13 3 -18 1 -13 -5 3 -7 1 -8 -5 -4 -32 19 -104 -59 -89
-98 13 -33 199 -127 282 -142 34 -6 46 -14 22 -14 -29 0 -32 -1 -50 -18 -17
-15 -17 -15 -11 1 7 20 1 21 -27 6 -11 -5 -17 -13 -15 -18 3 -4 7 -21 10 -37
3 -16 10 -30 16 -32 5 -2 10 -10 10 -17 0 -8 5 -17 12 -21 7 -4 8 -3 4 4 -4 7
-3 19 2 28 7 13 10 10 15 -15 4 -18 12 -31 19 -30 29 3 37 -2 40 -28 2 -18 9
-28 21 -29 12 -1 13 -1 2 3 -18 5 -19 15 -4 30 8 8 1 18 -26 36 -27 19 -32 26
-20 30 8 4 15 2 15 -3 0 -6 7 -10 15 -10 8 0 15 -7 15 -15 0 -8 5 -15 10 -15
6 0 10 9 10 21 0 23 15 41 45 53 13 5 15 10 8 13 -7 3 -13 9 -13 14 0 6 5 7
10 4 6 -3 10 -2 10 4 0 5 10 13 23 17 18 6 14 9 -28 19 -39 9 -46 13 -30 19
66 24 83 38 88 75 5 46 1 51 -15 17 -8 -19 -17 -26 -30 -23 -10 3 -18 2 -18
-3 0 -16 -47 -7 -59 12 -16 26 -7 35 14 14 20 -19 31 -21 32 -3 0 6 4 20 8 30
6 13 3 16 -9 11 -9 -3 -16 -10 -16 -14 0 -4 -19 -6 -42 -4 -24 2 -53 4 -65 4
-17 0 -23 6 -23 23 0 12 -4 18 -8 12 -4 -5 -15 -11 -24 -13 -32 -5 -19 27 17
44 19 9 35 22 35 29 0 20 28 26 33 7 4 -16 5 -15 6 1 0 9 6 17 11 17 6 0 10 5
10 12 0 6 -3 8 -7 5 -3 -4 -15 5 -25 20 -17 27 -18 27 -18 5z"/>
<path d="M5785 2630 c4 -7 1 -11 -6 -9 -28 3 -38 -2 -44 -22 -5 -16 -12 -19
-31 -15 -32 8 -31 -2 2 -14 22 -9 24 -13 14 -25 -9 -11 -10 -15 -1 -15 8 0 10
-8 6 -19 -4 -15 1 -20 30 -25 19 -4 35 -12 35 -18 0 -7 7 -5 18 4 9 8 31 14
47 13 17 -1 36 5 43 12 15 15 35 76 22 68 -11 -7 -31 20 -28 36 2 8 -4 14 -12
15 -8 0 -26 4 -40 8 -58 18 -63 18 -55 6z"/>
<path d="M6220 2600 c0 -17 -7 -20 -47 -21 -27 -1 -40 -3 -30 -6 26 -7 21 -23
-8 -23 -14 0 -25 -4 -25 -9 0 -5 -9 -11 -20 -14 -11 -3 -20 -10 -20 -17 0 -6
5 -8 12 -4 7 5 8 3 3 -6 -4 -7 -2 -16 6 -21 11 -7 11 -9 1 -9 -7 0 -10 -5 -7
-11 4 -6 13 -8 20 -5 8 3 16 0 18 -7 3 -8 9 -7 18 4 19 22 44 30 58 16 8 -8
11 -4 11 16 0 23 4 27 28 27 24 1 25 2 10 14 -18 13 -26 32 -10 22 4 -2 8 4 8
14 0 10 -4 16 -8 14 -12 -8 -10 10 3 23 7 7 6 12 -5 16 -11 5 -16 0 -16 -13z"/>
<path d="M4376 2488 c8 -24 20 -63 25 -88 17 -74 59 -332 59 -362 0 -45 26
-98 48 -98 15 0 24 15 41 65 11 36 21 71 21 79 0 7 7 27 16 45 14 28 14 41 4
94 -7 34 -13 72 -14 85 -2 12 -18 39 -37 60 -20 20 -43 49 -52 65 -13 21 -25
27 -51 27 -29 0 -34 4 -42 32 -5 17 -15 33 -21 35 -9 3 -8 -7 3 -39z"/>
<path d="M1291 2053 c-7 -26 -18 -43 -26 -43 -21 0 -19 -39 3 -63 9 -11 11
-17 4 -13 -10 6 -13 2 -10 -15 2 -13 9 -23 16 -21 6 1 12 -2 12 -8 0 -5 7 -10
15 -10 8 0 14 -3 13 -7 0 -5 4 -19 10 -33 7 -17 11 -20 11 -8 1 9 9 21 18 27
10 5 15 13 11 17 -4 4 0 13 9 19 15 11 15 15 4 29 -7 9 -22 16 -32 16 -11 0
-19 5 -19 10 0 6 8 10 17 10 9 0 13 3 10 6 -3 4 -1 16 5 28 10 19 10 20 -5 7
-20 -16 -22 -3 -3 24 22 33 30 68 15 63 -8 -3 -14 -10 -14 -15 0 -6 -3 -15 -7
-19 -5 -4 -8 -2 -8 4 0 7 -6 12 -14 12 -8 0 -16 6 -19 13 -2 6 -10 -7 -16 -30z"/>
<path d="M4758 1992 c10 -7 4 -16 -25 -37 -21 -16 -40 -32 -43 -36 -3 -4 -23
-12 -45 -18 -51 -14 -75 -52 -63 -99 5 -17 13 -32 18 -32 6 0 10 -6 10 -13 0
-7 13 -28 30 -47 16 -18 32 -42 36 -53 5 -16 8 -17 15 -6 7 11 9 9 10 -6 l0
-20 9 20 c5 11 9 14 9 7 1 -21 18 -5 56 52 46 70 65 126 65 196 0 46 -4 61
-21 76 -16 14 -23 15 -26 7 -6 -16 -24 -17 -20 -2 1 6 -5 14 -13 16 -12 3 -12
2 -2 -5z"/>
<path d="M5422 1978 c-6 -6 -12 -18 -12 -25 0 -16 -17 -17 -22 -1 -3 7 -10 8
-17 4 -10 -7 -11 -10 -1 -16 10 -6 8 -15 -9 -38 -11 -17 -21 -37 -21 -45 0
-19 -26 -41 -39 -33 -5 4 -13 2 -16 -4 -4 -6 -3 -10 2 -9 4 1 15 1 23 0 13 -1
13 -3 0 -10 -8 -6 -18 -7 -22 -5 -4 3 -8 -2 -8 -10 0 -9 6 -16 13 -16 6 0 28
-20 47 -45 19 -24 38 -44 42 -45 13 0 46 81 53 130 4 25 12 50 17 57 5 7 7 16
4 22 -3 5 -2 21 4 35 5 14 6 26 1 26 -4 0 -12 9 -17 20 -7 17 -12 18 -22 8z"/>
<path d="M6256 1817 c4 -7 13 -19 19 -27 7 -8 15 -60 18 -119 3 -70 2 -100 -5
-90 -7 10 -8 8 -3 -8 4 -14 0 -25 -11 -31 -15 -8 -15 -11 2 -31 10 -11 23 -21
28 -21 5 0 1 9 -8 19 -10 11 -15 25 -11 32 6 8 13 5 27 -12 l18 -24 -8 25
c-10 28 -15 174 -5 150 3 -8 11 -22 18 -30 7 -8 24 -44 38 -80 36 -90 51 -120
60 -120 4 0 7 -19 7 -42 0 -32 3 -39 10 -28 8 12 10 12 10 1 0 -14 15 -6 15 7
0 4 4 12 7 18 4 6 -1 22 -12 34 -11 13 -20 28 -20 34 0 7 -16 36 -35 65 -20
32 -37 73 -40 100 -9 61 -17 82 -22 58 -4 -16 -7 -15 -19 8 -8 15 -14 35 -15
44 -1 26 -33 74 -52 77 -10 1 -15 -2 -11 -9z"/>
<path d="M7949 1653 c-1 -16 -1 -32 0 -37 1 -4 -4 -15 -10 -23 -10 -11 -8 -17
6 -31 18 -16 18 -16 6 1 -8 9 -11 21 -7 24 10 11 26 -18 26 -49 0 -20 -4 -25
-17 -23 -10 2 -21 4 -25 4 -4 1 -5 8 -2 16 4 10 -5 21 -25 32 -17 10 -31 21
-31 26 0 4 -11 7 -25 7 -18 0 -23 4 -19 15 4 8 1 15 -4 15 -6 0 -9 -16 -7 -35
2 -19 -1 -38 -6 -41 -12 -7 -12 -54 0 -54 5 0 7 10 3 23 -5 20 -4 21 11 8 18
-15 20 -11 17 33 -1 18 2 26 9 22 6 -4 11 -14 11 -21 0 -8 6 -12 13 -9 10 3
14 -6 14 -33 0 -21 -2 -28 -4 -15 -5 25 -11 27 -34 9 -18 -14 -14 -37 7 -37 8
0 14 -10 14 -26 0 -16 5 -24 13 -21 6 2 11 11 9 21 -2 9 2 16 7 16 5 0 12 8
14 18 2 9 2 1 0 -18 -2 -19 2 -42 8 -50 9 -13 10 -12 5 3 -6 18 12 57 26 57 5
0 8 -13 8 -30 0 -33 -36 -62 -50 -40 -5 9 -9 9 -14 1 -4 -6 -3 -11 1 -11 5 0
14 -13 20 -30 9 -23 8 -32 -4 -41 -8 -7 -13 -8 -12 -3 4 21 -2 28 -11 14 -9
-13 -12 -13 -24 3 -15 19 -37 23 -33 6 1 -6 -8 -15 -20 -19 -31 -13 -38 25
-10 53 12 12 21 28 19 34 -4 19 19 16 34 -4 11 -15 13 -16 14 -2 0 21 -47 62
-54 46 -3 -9 -5 -9 -5 1 -1 6 -8 12 -16 12 -8 0 -14 -3 -14 -7 4 -24 -2 -56
-9 -47 -12 18 -42 12 -42 -8 0 -10 -4 -18 -9 -18 -5 0 -8 15 -6 33 2 19 -1 40
-6 48 -6 10 -9 10 -9 2 0 -7 -4 -13 -8 -13 -5 0 -9 20 -9 45 0 25 -5 51 -11
57 -7 7 -12 21 -12 33 0 12 -6 30 -14 40 -13 18 -14 17 -14 -18 0 -47 -9 -58
-21 -26 -7 18 -10 20 -10 6 -1 -10 -6 -15 -11 -12 -6 4 -8 10 -5 15 3 5 1 11
-5 15 -12 7 -12 -32 0 -60 8 -19 9 -19 9 -1 1 15 4 16 15 7 11 -10 17 -7 30
11 l16 22 0 -27 c0 -16 -4 -26 -10 -22 -6 3 -13 0 -16 -9 -3 -8 -12 -12 -20
-9 -16 6 -19 -12 -4 -22 6 -3 10 -14 9 -23 0 -14 -2 -14 -6 -2 -9 23 -27 37
-41 32 -6 -2 -12 1 -12 7 0 6 -7 11 -15 11 -8 0 -15 4 -15 9 0 5 9 7 20 4 14
-4 20 0 20 11 0 15 -12 21 -34 17 -4 -1 -6 16 -4 38 3 33 0 39 -14 38 -13 -1
-18 -10 -18 -32 0 -16 4 -36 9 -43 9 -16 2 -64 -9 -57 -4 3 -11 24 -14 48 l-7
43 -45 2 c-41 1 -45 0 -39 -18 4 -11 2 -20 -4 -20 -6 0 -11 4 -11 10 0 5 -7 7
-16 3 -9 -3 -11 -9 -6 -12 5 -3 9 -17 8 -30 0 -13 5 -26 13 -29 9 -3 11 0 6 7
-5 9 -1 9 14 -1 12 -7 21 -16 21 -20 0 -5 3 -8 8 -8 4 0 5 25 4 56 -4 54 -3
55 17 45 17 -9 21 -21 21 -57 0 -28 4 -43 10 -39 6 3 10 1 10 -4 0 -6 -7 -11
-15 -11 -24 0 -18 -31 13 -63 19 -21 22 -28 9 -24 -15 6 -16 4 -7 -13 13 -25
21 -25 43 0 9 11 26 20 37 20 21 0 27 15 10 25 -5 3 -10 21 -10 38 1 29 2 30
12 12 6 -11 16 -23 21 -27 6 -3 11 -14 13 -25 1 -10 6 -29 10 -43 l8 -25 6 25
c6 25 6 24 18 -9 9 -26 9 -31 -1 -23 -6 5 -20 8 -30 7 -9 -2 -15 1 -11 6 3 5
-2 9 -11 9 -11 0 -15 -5 -11 -16 3 -8 2 -12 -4 -9 -6 3 -10 13 -10 21 0 20
-14 17 -36 -8 -10 -12 -14 -19 -8 -15 7 4 11 -5 12 -23 0 -17 -4 -30 -9 -30
-5 0 -9 9 -9 20 0 11 -7 20 -15 20 -8 0 -15 -4 -15 -10 0 -5 -5 -10 -11 -10
-6 0 -8 9 -4 20 4 12 2 26 -3 33 -5 7 -12 25 -16 41 -6 22 -10 26 -16 16 -5
-8 -6 -19 -3 -25 4 -5 -3 -2 -15 8 -11 11 -26 16 -31 12 -17 -10 -13 -23 9
-30 11 -3 20 -11 20 -16 0 -6 -7 -6 -19 1 -29 15 -33 13 -25 -12 6 -20 5 -21
-9 -9 -9 7 -14 18 -10 24 3 6 1 7 -6 3 -6 -4 -9 -12 -5 -17 3 -5 0 -16 -6 -24
-8 -9 -9 -25 -5 -42 l7 -28 10 25 c10 24 11 24 18 5 4 -11 6 -23 4 -27 -6 -9
57 -29 69 -21 6 4 8 0 4 -10 -4 -12 -1 -17 11 -17 9 0 23 -9 30 -21 7 -12 16
-18 19 -15 4 3 11 2 17 -4 8 -6 12 4 14 36 1 25 -3 44 -9 44 -6 0 -7 5 -3 12
5 8 12 2 20 -17 19 -44 17 -67 -11 -105 -13 -18 -21 -38 -18 -43 3 -6 10 0 15
14 5 13 12 26 17 29 4 3 15 23 23 45 l16 40 -1 -37 c-1 -20 -4 -34 -6 -32 -5
5 -31 -52 -31 -67 0 -5 9 -9 21 -9 15 0 19 5 14 18 -3 11 1 32 10 48 8 16 15
38 16 49 0 11 3 14 6 8 7 -18 23 -16 23 2 0 8 -5 15 -12 15 -6 0 -8 3 -4 7 4
5 15 -1 23 -12 15 -20 15 -20 10 3 -3 12 -1 22 4 22 5 0 9 -6 9 -14 0 -14 23
-28 52 -31 14 -2 16 4 11 27 -4 23 -3 27 10 23 10 -4 14 -17 12 -39 -2 -18 1
-39 6 -47 5 -8 9 -9 10 -4 0 6 2 21 5 35 2 14 5 40 7 58 5 38 17 55 17 23 0
-12 4 -19 10 -16 6 3 10 1 10 -5 0 -7 -7 -10 -15 -6 -12 4 -14 0 -9 -22 4 -15
8 -29 10 -31 5 -5 34 19 32 27 -2 20 3 32 12 27 5 -3 7 -12 3 -20 -4 -11 -1
-13 11 -9 22 8 20 31 -3 43 -19 10 -34 45 -23 55 3 3 10 -4 16 -16 10 -20 19
-23 71 -23 l60 0 0 -62 c0 -34 3 -64 7 -68 3 -4 7 53 7 126 1 115 0 131 -12
115 -12 -17 -14 -13 -14 30 0 28 3 40 7 29 10 -29 17 -6 19 69 1 57 -1 68 -13
63 -21 -8 -29 9 -28 55 1 21 0 38 -3 38 -3 0 -6 -12 -6 -27z"/>
<path d="M3520 1530 c0 -23 -5 -40 -11 -40 -12 0 -9 -143 3 -156 4 -4 14 -1
22 5 19 16 32 -5 15 -25 -6 -8 -10 -16 -8 -19 7 -6 23 7 35 30 7 11 19 19 28
19 9 -1 16 2 16 7 0 5 12 9 27 9 14 0 24 3 20 6 -8 8 18 34 33 34 6 0 2 10
-10 22 -11 12 -18 29 -15 37 2 9 7 31 10 48 5 32 5 32 -20 21 -15 -7 -24 -17
-21 -25 7 -18 -24 -30 -34 -12 -5 7 -5 20 -1 28 9 18 4 41 -10 41 -5 0 -9 -6
-9 -14 0 -25 -27 -25 -39 0 -16 36 -31 29 -31 -16z"/>
<path d="M20 1362 c0 -7 -4 -11 -9 -8 -5 3 -8 -13 -7 -35 1 -33 4 -39 18 -35
10 2 21 0 24 -5 3 -5 0 -9 -7 -9 -7 0 -10 -3 -7 -6 4 -3 16 -1 27 6 17 8 21 8
21 -3 0 -8 -9 -17 -21 -20 -22 -6 -22 -28 -1 -35 7 -2 10 2 6 12 -7 19 22 22
30 4 3 -10 7 -9 15 3 6 9 20 15 33 13 13 -1 26 -3 30 -3 4 -1 17 -11 29 -23
l21 -23 -12 23 c-11 22 -10 23 12 17 33 -10 44 -23 30 -37 -7 -7 -8 -17 -2
-29 7 -12 5 -19 -7 -23 -19 -8 -11 -19 17 -23 17 -2 19 2 15 32 -4 33 -3 33
16 17 22 -19 25 -38 7 -45 -7 -3 0 -4 16 -3 16 1 31 7 34 14 2 7 -2 10 -11 6
-16 -6 -31 32 -16 42 5 3 9 14 9 26 0 14 5 18 16 14 9 -3 20 -6 25 -6 4 0 6
-6 3 -14 -6 -16 10 -28 40 -30 17 -1 22 -8 24 -40 2 -28 0 -36 -9 -30 -8 4
-10 3 -5 -5 6 -9 11 -9 21 -1 9 8 15 8 20 0 3 -6 10 -8 15 -5 4 3 13 -2 20
-10 9 -11 17 -12 31 -4 11 5 24 7 29 4 6 -3 10 1 10 9 0 18 15 21 25 6 9 -15
34 0 29 18 -5 13 -2 13 10 -2 9 -11 16 -15 16 -10 0 6 -9 20 -19 31 -11 12
-18 23 -15 26 2 2 -3 10 -13 18 -10 9 -14 9 -9 2 9 -16 -11 -53 -28 -53 -8 0
-17 7 -20 16 -8 22 -8 24 7 24 14 0 37 40 37 65 0 8 -4 15 -10 15 -5 0 -10 -7
-10 -15 0 -13 -28 -35 -45 -35 -5 0 2 105 9 130 0 3 -3 6 -9 7 -5 1 -9 -5 -7
-13 2 -8 -2 -14 -8 -14 -5 0 -10 -6 -10 -13 0 -7 -9 -13 -20 -14 -11 -1 -20 4
-20 13 0 8 -5 14 -11 14 -5 0 -9 -8 -7 -17 1 -10 -1 -24 -5 -30 -9 -15 0 -36
13 -28 4 3 13 -2 20 -10 21 -25 -16 -18 -41 8 -16 16 -20 17 -16 5 3 -9 0 -21
-6 -26 -9 -8 -12 -3 -13 14 -2 18 5 28 22 34 28 11 33 24 5 15 -13 -4 -24 1
-35 17 -9 12 -17 19 -17 15 -1 -4 -3 -11 -4 -17 -1 -5 -3 -20 -4 -32 0 -12 -4
-18 -7 -15 -7 7 -64 -21 -75 -37 -4 -5 -10 2 -14 15 -5 14 -3 25 4 27 7 2 8 9
1 21 -5 10 -6 22 -2 26 4 5 1 5 -6 1 -7 -4 -12 -17 -10 -29 2 -14 -3 -23 -14
-25 -14 -3 -16 3 -11 34 5 27 3 35 -6 30 -6 -4 -9 -16 -6 -27 7 -20 -18 -28
-30 -9 -3 6 -1 10 5 10 6 0 8 5 5 10 -3 6 -1 10 4 10 6 0 11 7 11 15 0 25 -16
17 -36 -20 -16 -30 -20 -33 -34 -20 -11 10 -20 11 -33 4 -9 -6 -17 -7 -16 -2
4 24 -2 36 -12 26 -8 -8 -16 -7 -30 5 -10 8 -16 19 -13 24 3 4 0 16 -5 25 -6
11 -11 13 -11 5z"/>
<path d="M1068 1297 c-15 -12 -15 -14 3 -25 46 -29 9 -68 -52 -55 -18 3 -29 1
-29 -6 0 -6 14 -11 31 -11 17 0 28 -4 24 -10 -3 -5 -20 -7 -38 -4 -28 4 -29 3
-9 -5 13 -7 22 -19 22 -34 0 -15 10 -29 30 -40 17 -10 30 -25 30 -33 0 -8 4
-14 10 -14 5 0 7 -6 4 -14 -3 -8 -15 -11 -31 -8 -22 4 -25 2 -20 -12 4 -10 7
-22 7 -28 0 -5 7 -2 16 6 8 9 27 16 42 16 20 0 23 3 14 12 -19 19 -14 26 28
39 40 12 43 19 30 79 0 3 -7 -6 -14 -19 l-13 -24 -12 21 c-6 12 -8 22 -4 22 4
0 1 6 -8 13 -9 7 -19 24 -23 40 -5 23 -3 27 14 27 l21 0 -20 29 c-12 16 -21
34 -21 40 0 14 -11 13 -32 -2z"/>
<path d="M75 1060 c-4 -6 -10 -8 -15 -5 -4 3 -11 -7 -15 -22 -5 -21 -8 -24
-15 -13 -18 30 -23 -2 -6 -35 11 -20 16 -41 11 -52 -6 -16 -8 -16 -16 5 -12
31 -15 28 -16 -19 -1 -28 2 -39 10 -36 7 3 11 10 9 16 -1 6 4 11 11 11 8 0 14
-7 14 -15 0 -8 -5 -15 -10 -15 -6 0 -1 -10 11 -22 11 -13 25 -36 31 -51 6 -16
15 -26 20 -23 5 3 11 -1 15 -9 6 -18 -15 -20 -31 -4 -8 8 -14 5 -23 -11 -11
-20 -10 -21 27 -14 21 4 42 9 47 12 6 3 19 7 30 8 29 3 77 12 104 20 16 5 22
2 22 -10 0 -10 -4 -14 -10 -11 -5 3 -10 1 -10 -5 0 -6 6 -13 14 -16 9 -3 12
-14 8 -27 -5 -22 -5 -22 17 -3 12 11 20 25 18 30 -3 6 2 17 9 24 11 10 14 10
14 1 0 -21 9 -5 14 26 5 28 3 30 -25 31 -21 1 -29 -3 -25 -12 6 -16 -10 -19
-19 -4 -4 6 -10 8 -15 5 -4 -3 -13 2 -20 10 -7 8 -9 15 -5 15 5 0 0 9 -11 21
-15 16 -16 22 -5 29 16 9 41 2 41 -12 0 -5 4 -6 10 -3 17 10 11 25 -9 25 -11
0 -21 5 -23 10 -5 16 -48 -18 -59 -47 -13 -34 -30 -20 -19 16 8 30 5 41 -13
41 -5 0 -7 -13 -4 -30 4 -16 2 -32 -4 -36 -7 -4 -6 -11 2 -20 9 -11 8 -14 -5
-14 -18 0 -31 40 -22 74 4 16 1 26 -8 29 -8 3 -16 2 -18 -3 -2 -5 -12 -7 -23
-4 -17 4 -20 13 -20 61 0 38 5 58 13 61 7 2 13 -2 11 -9 -5 -40 2 -59 21 -59
23 0 26 21 9 69 -11 31 -32 41 -44 21z"/>
<path d="M7898 407 c-26 -11 -49 -28 -51 -39 -4 -15 -1 -18 14 -13 24 8 25
-10 2 -19 -13 -5 -14 -9 -5 -14 8 -6 6 -12 -9 -22 -56 -40 -55 -38 -42 -59 10
-15 9 -20 -2 -25 -8 -3 -17 -1 -20 4 -11 17 -25 11 -25 -11 0 -11 5 -17 10
-14 6 3 10 -1 10 -10 0 -12 6 -11 35 7 19 13 30 25 25 26 -32 11 12 50 49 43
9 -2 12 4 9 16 -4 16 0 18 27 15 l33 -4 -11 46 c-8 36 -15 46 -31 46 -19 1
-18 3 9 25 35 29 34 29 -27 2z"/>
</g>
</svg>
